<?xml version="1.0" encoding="UTF-8"?>
<svg version="1.1" xmlns="http://www.w3.org/2000/svg" width="512" height="512">
<path d="M0 0 C0.87140625 -0.0515625 1.7428125 -0.103125 2.640625 -0.15625 C12.34152674 1.8911765 19.52602067 10.86365869 26.23657227 17.64599609 C27.36039301 18.77066461 28.48487784 19.89466987 29.60997009 21.01806641 C32.64088584 24.04812665 35.66250687 27.08730099 38.68246198 30.12828016 C41.84807568 33.31273531 45.02227169 36.48861298 48.19554138 39.66543579 C54.19366858 45.6728616 60.18411172 51.68788883 66.1717872 57.70573008 C72.99298767 64.56054274 79.82277882 71.40676883 86.65328133 78.25231051 C100.69505593 92.32538463 114.72608429 106.40913077 128.75 120.5 C133.04520861 116.89689419 137.15722446 113.20997257 141.09936523 109.21655273 C141.58496918 108.72627594 142.07057312 108.23599915 142.57089233 107.73086548 C143.61188203 106.6794767 144.65175318 105.62697941 145.69058037 104.5734539 C147.34098903 102.90076106 148.99555611 101.23228576 150.65138245 99.56495667 C155.35439315 94.82859578 160.05312753 90.08805699 164.74145508 85.3371582 C167.6218544 82.41891504 170.50968512 79.50820097 173.40226936 76.60203743 C174.49539104 75.5009174 175.58574162 74.39703856 176.67312431 73.29025078 C185.00752442 64.80965775 192.97889797 56.7296015 205.5 56.125 C218.12560606 56.52072795 226.00111643 64.31489418 234.19287109 73.03613281 C236.42373286 75.45900446 238.61958528 77.90441295 240.7890625 80.3828125 C243.19115361 83.01643047 245.78969271 85.36670606 248.453125 87.734375 C253.80773521 92.49546695 258.84891661 97.52123372 263.875 102.625 C269.05612642 107.88546986 274.24105295 113.04282273 279.84716797 117.85107422 C283.06730781 120.64153156 286.14960427 123.57802976 289.25 126.5 C294.33611841 131.26664017 299.44862892 135.97255171 304.75 140.5 C305.81799499 141.42154289 306.8856722 142.34345413 307.953125 143.265625 C315.13021777 149.4554973 322.37608673 155.54491557 329.75 161.5 C330.87770437 162.42175242 332.0053028 163.34363446 333.1328125 164.265625 C362.63731261 188.26861187 395.92172175 213.18211773 433.9375 220.5 C437.85763179 221.52823129 439.39467287 222.2614252 441.75 225.5 C448.92831216 247.03493647 435.20960973 278.14443283 425.91455078 297.171875 C413.59154551 321.80755178 396.38118458 345.72904226 376.43603516 364.81152344 C374.69971053 366.55036229 373.11804436 368.3657738 371.52734375 370.23828125 C367.94696858 374.35380649 364.12603936 378.10942085 360.125 381.8125 C359.42407227 382.46275146 358.72314453 383.11300293 358.00097656 383.78295898 C355.92529977 385.69760814 353.84061585 387.60168379 351.75 389.5 C351.19538086 390.00466797 350.64076172 390.50933594 350.06933594 391.02929688 C335.84565392 403.84229154 319.77279406 414.7681883 302.75 423.5 C302.09 423.84224609 301.43 424.18449219 300.75 424.53710938 C266.08590894 442.30245604 225.19779974 449.74733959 187.375 438.10546875 C171.23828119 432.73690653 158.17896857 424.54436379 145.73156738 413.02810669 C145.16895218 412.50779314 144.60633698 411.98747959 144.02667284 411.45139897 C137.68937849 405.55780467 131.54966126 399.47069028 125.41992188 393.36279297 C124.14551 392.09631024 122.87092796 390.82999871 121.59619141 389.56384277 C117.46675707 385.46025528 113.34243386 381.35155243 109.21875 377.2421875 C107.78837911 375.81718753 106.35800494 374.39219087 104.92762756 372.96719742 C98.98013648 367.04126015 93.03405353 361.11391592 87.09166718 355.18285942 C78.61779027 346.72525829 70.13548914 338.27630924 61.64140654 329.83899963 C55.64082865 323.87715462 49.64989686 317.90572447 43.66601229 311.9271251 C40.10240919 308.36716425 36.53479636 304.81145833 32.95677185 301.2659874 C29.59679092 297.93615409 26.24896999 294.59455378 22.90991211 291.2437439 C21.6876108 290.02122257 20.46106788 288.80292414 19.22987366 287.58935928 C11.50790712 279.9719422 3.46821698 272.02718197 2.6796875 260.5703125 C3.26665389 243.28741331 17.65737187 232.43474881 29.12890625 221.0234375 C30.19243564 219.96177904 31.25574013 218.89989525 32.3188324 217.83779907 C35.08331583 215.07708776 37.85079116 212.31939569 40.61895752 209.56237793 C43.45681305 206.73485229 46.29175002 203.90440357 49.12695312 201.07421875 C54.66515859 195.5466567 60.20653644 190.02228936 65.75 184.5 C60.4897574 178.11388893 54.68691644 172.32293241 48.81933594 166.50341797 C47.71802164 165.40730497 46.61695413 164.31094396 45.51611328 163.21435547 C43.15701333 160.86514759 40.79645458 158.51741908 38.43480682 156.17077255 C34.69999752 152.45913156 30.97015955 148.74252186 27.24127197 145.02493286 C16.6413927 134.45840543 6.03729357 123.89613822 -4.57714844 113.34423828 C-10.4483684 107.50752942 -16.3142254 101.66548672 -22.17415404 95.81744111 C-25.87910787 92.12058348 -29.59053719 88.43039269 -33.3068471 84.74495292 C-35.61489316 82.45290814 -37.91662029 80.15459946 -40.21658325 77.85444641 C-41.28384893 76.78960291 -42.35369401 75.72733748 -43.42629242 74.66786575 C-44.89053145 73.22080401 -46.34521317 71.76475462 -47.7979126 70.30612183 C-48.61420261 69.49389601 -49.43049263 68.68167019 -50.27151871 67.84483147 C-53.64757985 63.84363397 -54.54054369 60.22223389 -54.5625 55.0625 C-54.57925781 54.15628906 -54.59601562 53.25007813 -54.61328125 52.31640625 C-53.57886635 44.29691006 -47.61926167 39.43255521 -42.1640625 34.015625 C-41.27012787 33.11882019 -40.37619324 32.22201538 -39.45516968 31.29803467 C-37.56744052 29.40826783 -35.67699002 27.52180855 -33.78125 25.64013672 C-31.35787942 23.23388163 -28.94826156 20.81437321 -26.54242897 18.3905983 C-24.23609973 16.07079659 -21.91834257 13.76248241 -19.6015625 11.453125 C-18.73995514 10.58544495 -17.87834778 9.71776489 -16.9906311 8.8237915 C-16.179841 8.02245789 -15.3690509 7.22112427 -14.53369141 6.39550781 C-13.82548248 5.68968567 -13.11727356 4.98386353 -12.38760376 4.25665283 C-8.60265998 1.14623904 -4.8326174 0.16956552 0 0 Z " fill="#FEE184" transform="translate(54.25,39.5)"/>
<path d="M0 0 C0.87140625 -0.0515625 1.7428125 -0.103125 2.640625 -0.15625 C12.34152674 1.8911765 19.52602067 10.86365869 26.23657227 17.64599609 C27.36039301 18.77066461 28.48487784 19.89466987 29.60997009 21.01806641 C32.64088584 24.04812665 35.66250687 27.08730099 38.68246198 30.12828016 C41.84807568 33.31273531 45.02227169 36.48861298 48.19554138 39.66543579 C54.19366858 45.6728616 60.18411172 51.68788883 66.1717872 57.70573008 C72.99298767 64.56054274 79.82277882 71.40676883 86.65328133 78.25231051 C100.69505593 92.32538463 114.72608429 106.40913077 128.75 120.5 C133.04520861 116.89689419 137.15722446 113.20997257 141.09936523 109.21655273 C141.58496918 108.72627594 142.07057312 108.23599915 142.57089233 107.73086548 C143.61188203 106.6794767 144.65175318 105.62697941 145.69058037 104.5734539 C147.34098903 102.90076106 148.99555611 101.23228576 150.65138245 99.56495667 C155.35439315 94.82859578 160.05312753 90.08805699 164.74145508 85.3371582 C167.6218544 82.41891504 170.50968512 79.50820097 173.40226936 76.60203743 C174.49539104 75.5009174 175.58574162 74.39703856 176.67312431 73.29025078 C185.00752442 64.80965775 192.97889797 56.7296015 205.5 56.125 C218.12560606 56.52072795 226.00111643 64.31489418 234.19287109 73.03613281 C236.0589046 75.0627755 237.90816896 77.10362912 239.74584961 79.15600586 C243.32951602 83.13204922 247.16925174 86.67205049 251.18359375 90.203125 C254.1295706 92.83970702 256.98820448 95.5466604 259.8125 98.3125 C260.73160156 99.20582031 261.65070313 100.09914063 262.59765625 101.01953125 C264.70680449 103.45021933 265.5003684 104.37258138 265.75 107.5 C264.51484829 109.35614419 264.51484829 109.35614419 262.56216526 111.30307388 C261.82567645 112.04951794 261.08918763 112.795962 260.33038098 113.56502557 C259.5025871 114.37825524 258.67479322 115.19148491 257.82191467 116.02935791 C256.957056 116.89848871 256.09219732 117.76761951 255.20113081 118.66308761 C252.7906154 121.08043655 250.36933191 123.4860131 247.9429518 125.88737631 C245.33198481 128.47681443 242.73541811 131.08062004 240.13710022 133.68273926 C235.63093839 138.19152687 231.11568917 142.6910466 226.59419441 147.18445587 C220.05684576 153.68122374 213.53329584 160.19170278 207.01306527 166.70564505 C196.43488427 177.27287435 185.84557828 187.82888238 175.24926758 198.37792969 C164.9540354 208.62728895 154.66405123 218.88187011 144.38110352 229.14355469 C143.74759773 229.77574686 143.11409194 230.40793902 142.46138901 231.05928853 C139.28340942 234.23074308 136.10553297 237.40230096 132.92770779 240.57391024 C106.55111073 266.89864701 80.15645399 293.20521464 53.75 319.5 C50.45619681 317.93301543 48.2210346 316.23801559 45.61157227 313.66796875 C44.80716202 312.8795459 44.00275177 312.09112305 43.17396545 311.27880859 C42.31347092 310.42367676 41.45297638 309.56854492 40.56640625 308.6875 C39.22762672 307.36226318 39.22762672 307.36226318 37.86180115 306.01025391 C35.97367788 304.13664189 34.08812476 302.26076349 32.20581055 300.38134766 C29.81267544 297.99356971 27.40385867 295.62232908 24.9906168 293.25489807 C22.67134538 290.97285238 20.37013549 288.67271801 18.06640625 286.375 C16.77870079 285.11659302 16.77870079 285.11659302 15.46498108 283.83276367 C9.0506347 277.37014281 3.32857264 269.99823188 2.6796875 260.5703125 C3.26665389 243.28741331 17.65737187 232.43474881 29.12890625 221.0234375 C30.19243564 219.96177904 31.25574013 218.89989525 32.3188324 217.83779907 C35.08331583 215.07708776 37.85079116 212.31939569 40.61895752 209.56237793 C43.45681305 206.73485229 46.29175002 203.90440357 49.12695312 201.07421875 C54.66515859 195.5466567 60.20653644 190.02228936 65.75 184.5 C60.4897574 178.11388893 54.68691644 172.32293241 48.81933594 166.50341797 C47.71802164 165.40730497 46.61695413 164.31094396 45.51611328 163.21435547 C43.15701333 160.86514759 40.79645458 158.51741908 38.43480682 156.17077255 C34.69999752 152.45913156 30.97015955 148.74252186 27.24127197 145.02493286 C16.6413927 134.45840543 6.03729357 123.89613822 -4.57714844 113.34423828 C-10.4483684 107.50752942 -16.3142254 101.66548672 -22.17415404 95.81744111 C-25.87910787 92.12058348 -29.59053719 88.43039269 -33.3068471 84.74495292 C-35.61489316 82.45290814 -37.91662029 80.15459946 -40.21658325 77.85444641 C-41.28384893 76.78960291 -42.35369401 75.72733748 -43.42629242 74.66786575 C-44.89053145 73.22080401 -46.34521317 71.76475462 -47.7979126 70.30612183 C-48.61420261 69.49389601 -49.43049263 68.68167019 -50.27151871 67.84483147 C-53.64757985 63.84363397 -54.54054369 60.22223389 -54.5625 55.0625 C-54.57925781 54.15628906 -54.59601562 53.25007813 -54.61328125 52.31640625 C-53.57886635 44.29691006 -47.61926167 39.43255521 -42.1640625 34.015625 C-41.27012787 33.11882019 -40.37619324 32.22201538 -39.45516968 31.29803467 C-37.56744052 29.40826783 -35.67699002 27.52180855 -33.78125 25.64013672 C-31.35787942 23.23388163 -28.94826156 20.81437321 -26.54242897 18.3905983 C-24.23609973 16.07079659 -21.91834257 13.76248241 -19.6015625 11.453125 C-18.73995514 10.58544495 -17.87834778 9.71776489 -16.9906311 8.8237915 C-16.179841 8.02245789 -15.3690509 7.22112427 -14.53369141 6.39550781 C-13.82548248 5.68968567 -13.11727356 4.98386353 -12.38760376 4.25665283 C-8.60265998 1.14623904 -4.8326174 0.16956552 0 0 Z " fill="#69788C" transform="translate(54.25,39.5)"/>
<path d="M0 0 C4.5354775 3.81392426 8.94617995 7.74491754 13.3125 11.75 C13.84004883 12.23380127 14.36759766 12.71760254 14.91113281 13.21606445 C16.9741929 15.11385361 19.01762537 17.01762537 21 19 C20.79376 23.06003317 18.24617299 25.11606858 15.48022461 27.86035156 C14.77774849 28.5634848 14.77774849 28.5634848 14.06108093 29.28082275 C12.51517453 30.82464325 10.95892317 32.3575726 9.40234375 33.890625 C8.32694816 34.96042394 7.25221408 36.03088824 6.17811584 37.10198975 C3.35210651 39.91655581 0.51720358 42.72199579 -2.31964111 45.52563477 C-5.21395852 48.38924028 -8.09978076 51.26137861 -10.98632812 54.1328125 C-16.64926883 59.76359817 -22.32163273 65.38477183 -28 71 C-26.79618552 73.49361571 -25.54571278 75.68143083 -24 78 C-23.43448625 82.36253463 -23.50677349 84.29752588 -26.0625 87.9375 C-29.7595073 90.53327109 -31.56644342 90.71253588 -36 90 C-38.9375 88 -38.9375 88 -41 86 C-43.95265112 87.32994383 -46.02350216 88.77779316 -48.29980469 91.07275391 C-48.92014587 91.69324615 -49.54048706 92.3137384 -50.17962646 92.95303345 C-50.83706848 93.62079803 -51.4945105 94.28856262 -52.171875 94.9765625 C-53.1955014 96.00443375 -53.1955014 96.00443375 -54.23980713 97.05307007 C-56.41461598 99.23905845 -58.58236072 101.43190429 -60.75 103.625 C-62.2247999 105.10983255 -63.70005506 106.59421306 -65.17578125 108.078125 C-68.78915448 111.7135291 -72.39620853 115.35509824 -76 119 C-74.19708729 122.91540404 -71.67446585 125.45430539 -68.5546875 128.359375 C-67.46656384 129.40272459 -66.37935176 130.44702558 -65.29296875 131.4921875 C-63.58550055 133.12550335 -61.8730643 134.75180301 -60.14404297 136.36230469 C-58.47062588 137.92632625 -56.82411794 139.51497539 -55.1796875 141.109375 C-54.66099091 141.5805072 -54.14229431 142.0516394 -53.60787964 142.53704834 C-50.78555169 145.31734506 -49.66801477 147.32933506 -49.58642578 151.21191406 C-50 155 -50 155 -51.4375 157.5 C-54.39578099 159.23167667 -56.84608008 159.89585064 -60.28295898 159.83837891 C-66.6907482 157.86117088 -71.39052261 151.26752085 -75.8125 146.4375 C-77.484665 144.63461827 -79.16300799 142.83896808 -80.85734558 141.05690002 C-81.9073852 139.95033052 -82.94421341 138.83104193 -83.96601868 137.698349 C-85.5157811 135.99177013 -85.5157811 135.99177013 -88 134 C-91.38281277 134.29993012 -93.05602814 135.68764752 -95.39160156 138.05102539 C-96.0319635 138.69161392 -96.67232544 139.33220245 -97.33209229 139.99220276 C-98.01140808 140.68700241 -98.69072388 141.38180206 -99.390625 142.09765625 C-100.09523865 142.80651474 -100.79985229 143.51537323 -101.52581787 144.24571228 C-103.77434785 146.5110328 -106.01222238 148.78656208 -108.25 151.0625 C-109.77274708 152.60029335 -111.29617654 154.13741131 -112.8203125 155.67382812 C-116.5548281 159.44141802 -120.2806485 163.21744265 -124 167 C-123.0396426 168.12549524 -122.07856725 169.25037791 -121.1171875 170.375 C-120.58206543 171.00148438 -120.04694336 171.62796875 -119.49560547 172.2734375 C-118.39896196 173.53942883 -117.2705475 174.77808267 -116.125 176 C-114.34292764 179.16812864 -114.50088611 181.4438135 -115 185 C-117.45550165 188.49722962 -119.06766168 189.74406399 -123.1875 190.875 C-129.18707188 189.49804908 -132.76358849 185.29607928 -137 181 C-143.44690639 186.31014254 -149.29949437 192.17126884 -155.18359375 198.0859375 C-156.24954109 199.15375345 -157.31571205 200.22134622 -158.38209534 201.28872681 C-161.16750139 204.07792318 -163.94988929 206.870111 -166.73162842 209.66296387 C-169.57901064 212.52063575 -172.42927986 215.37542502 -175.27929688 218.23046875 C-180.85567081 223.81751842 -186.42885494 229.40773634 -192 235 C-199.38561539 228.74442981 -199.38561539 228.74442981 -202.52734375 225.5703125 C-203.09130859 225.003125 -203.65527344 224.4359375 -204.23632812 223.8515625 C-204.79771484 223.28179687 -205.35910156 222.71203125 -205.9375 222.125 C-206.52595703 221.53203125 -207.11441406 220.9390625 -207.72070312 220.328125 C-209.14947674 218.88773534 -210.57508132 217.4442033 -212 216 C-207.41420169 210.49607163 -202.53795889 205.40576027 -197.45791626 200.35784912 C-196.61157792 199.51277306 -195.76523959 198.667697 -194.89325464 197.79701257 C-192.55988833 195.46807344 -190.22430019 193.14140443 -187.88775039 190.81566191 C-185.36243788 188.30088479 -182.8400956 185.78313174 -180.31744385 183.26568604 C-175.95149035 178.90941854 -171.58386898 174.55482923 -167.21525955 170.20122528 C-160.31360948 163.32298974 -153.41718143 156.43953141 -146.52157593 149.55523682 C-144.1607184 147.19837999 -141.79982689 144.8415572 -139.43892479 142.48474503 C-138.84905999 141.89589946 -138.2591952 141.30705389 -137.65145571 140.70036452 C-130.94673603 134.00737271 -124.24093923 127.31546056 -117.53466797 120.62402344 C-116.92199433 120.01270224 -116.3093207 119.40138104 -115.6780812 118.77153495 C-105.72933951 108.84501747 -95.77678049 98.92233405 -85.8232729 89.00059578 C-75.60231284 78.81198044 -65.38708103 68.61764567 -55.17676675 58.4183619 C-48.87841433 52.12724426 -42.57535169 45.84092015 -36.26621823 39.56061414 C-31.94975296 35.26309057 -27.63870278 30.96018532 -23.33194382 26.65293476 C-20.84462708 24.16568127 -18.3548772 21.68099194 -15.85858536 19.20274353 C-13.15770472 16.5212724 -10.46839201 13.82839303 -7.78018188 11.13421631 C-6.98273925 10.34619432 -6.18529662 9.55817234 -5.36368906 8.7462709 C-4.64980977 8.02703515 -3.93593047 7.30779941 -3.20041847 6.56676865 C-2.26662847 5.63550049 -2.26662847 5.63550049 -1.31397402 4.68541884 C0.30742095 2.96185689 0.30742095 2.96185689 0 0 Z " fill="#F6C04D" transform="translate(319,144)"/>
<path d="M0 0 C4.5354775 3.81392426 8.94617995 7.74491754 13.3125 11.75 C13.84004883 12.23380127 14.36759766 12.71760254 14.91113281 13.21606445 C16.9741929 15.11385361 19.01762537 17.01762537 21 19 C20.79376 23.06003317 18.24617299 25.11606858 15.48022461 27.86035156 C15.0119072 28.32910706 14.54358978 28.79786255 14.06108093 29.28082275 C12.51517453 30.82464325 10.95892317 32.3575726 9.40234375 33.890625 C8.32694816 34.96042394 7.25221408 36.03088824 6.17811584 37.10198975 C3.35210651 39.91655581 0.51720358 42.72199579 -2.31964111 45.52563477 C-5.21395852 48.38924028 -8.09978076 51.26137861 -10.98632812 54.1328125 C-16.64926883 59.76359817 -22.32163273 65.38477183 -28 71 C-26.79618552 73.49361571 -25.54571278 75.68143083 -24 78 C-23.43448625 82.36253463 -23.50677349 84.29752588 -26.0625 87.9375 C-29.7595073 90.53327109 -31.56644342 90.71253588 -36 90 C-38.9375 88 -38.9375 88 -41 86 C-43.99943905 87.34572887 -46.08076179 88.83537101 -48.39160156 91.16455078 C-49.0319635 91.80506378 -49.67232544 92.44557678 -50.33209229 93.10549927 C-51.01140808 93.79513763 -51.69072388 94.484776 -52.390625 95.1953125 C-53.09523865 95.90275604 -53.79985229 96.61019958 -54.52581787 97.33908081 C-56.7719539 99.59639862 -59.01103009 101.86057633 -61.25 104.125 C-62.77297717 105.65800953 -64.29640939 107.19056715 -65.8203125 108.72265625 C-69.55216815 112.47654573 -73.27825351 116.23608914 -77 120 C-84.38561539 113.74442981 -84.38561539 113.74442981 -87.52734375 110.5703125 C-88.37329102 109.71953125 -88.37329102 109.71953125 -89.23632812 108.8515625 C-89.79771484 108.28179687 -90.35910156 107.71203125 -90.9375 107.125 C-91.52595703 106.53203125 -92.11441406 105.9390625 -92.72070312 105.328125 C-94.14947674 103.88773534 -95.57508132 102.4442033 -97 101 C-92.27759414 95.31602257 -87.21495647 90.09644759 -81.96533203 84.89941406 C-81.07688095 84.01563583 -80.18842987 83.1318576 -79.27305603 82.22129822 C-77.35401256 80.31271557 -75.43410833 78.40504515 -73.51279068 76.49875641 C-70.47581682 73.48498549 -67.44384465 70.46621607 -64.41281128 67.44647217 C-55.79807832 58.86506613 -47.17905223 50.28800342 -38.54980469 41.72119141 C-33.77366343 36.97952364 -29.00285816 32.23255556 -24.23797691 27.47957206 C-21.22489911 24.47460155 -18.2053603 21.47632642 -15.18095708 18.48275709 C-12.86737705 16.18888291 -10.56357992 13.88521947 -8.25830078 11.58300781 C-6.99606438 10.33930672 -6.99606438 10.33930672 -5.70832825 9.07048035 C-4.57280266 7.93093651 -4.57280266 7.93093651 -3.41433716 6.76837158 C-2.75106478 6.1091634 -2.0877924 5.44995522 -1.40442085 4.77077103 C0.31069956 2.98493536 0.31069956 2.98493536 0 0 Z " fill="#F6C04D" transform="translate(319,144)"/>
<path d="M0 0 C4.17513552 1.91973078 7.09918108 4.75833911 10.33203125 7.9609375 C10.92803635 8.54791412 11.52404144 9.13489075 12.1381073 9.73965454 C13.3922274 10.97929844 14.64358151 12.22174608 15.89233398 13.46679688 C17.81110678 15.37361546 19.7477424 17.26098794 21.68554688 19.1484375 C22.90218592 20.3556187 24.11772004 21.56391474 25.33203125 22.7734375 C25.91523636 23.33711029 26.49844147 23.90078308 27.09931946 24.48153687 C28.69848633 26.09912109 28.69848633 26.09912109 31 29 C30.96506965 33.36060608 27.42360343 36.01194828 24.53393555 38.88598633 C23.96475403 39.46363739 23.39557251 40.04128845 22.80914307 40.63644409 C20.92611487 42.54286591 19.03209159 44.43788736 17.13671875 46.33203125 C15.82463906 47.65120933 14.51286022 48.9706867 13.20137024 50.29045105 C10.45167942 53.0535909 7.69611659 55.81071551 4.93676758 58.56420898 C1.39545216 62.0996178 -2.12724761 65.65295871 -5.64535236 69.21144581 C-8.34843676 71.94032795 -11.06285474 74.65770997 -13.78069115 77.37189293 C-15.08483996 78.67773937 -16.38498931 79.98759244 -17.68108559 81.30143166 C-19.49100528 83.13339096 -21.31597796 84.94888774 -23.14575195 86.76098633 C-23.68149338 87.309991 -24.2172348 87.85899567 -24.76921082 88.42463684 C-28.42777768 92.00126748 -28.42777768 92.00126748 -31.17686462 91.99517822 C-33.11609943 90.93662587 -34.47282678 89.8889074 -36.02441406 88.31616211 C-36.86483246 87.47540382 -36.86483246 87.47540382 -37.722229 86.61766052 C-38.31404968 86.01035599 -38.90587036 85.40305145 -39.515625 84.77734375 C-40.13145447 84.15726944 -40.74728394 83.53719513 -41.3817749 82.89833069 C-43.34500635 80.91832095 -45.29754436 78.92813081 -47.25 76.9375 C-48.58003748 75.59241465 -49.91075879 74.24800512 -51.2421875 72.90429688 C-54.50277537 69.61065094 -57.75381188 66.30783661 -61 63 C-59.37641304 58.90379366 -56.43319604 56.16552101 -53.35693359 53.12988281 C-52.49330452 52.26581566 -52.49330452 52.26581566 -51.61222839 51.3842926 C-49.71233463 49.48578963 -47.80546009 47.59446478 -45.8984375 45.703125 C-44.57806566 44.38648418 -43.25813536 43.06940043 -41.93862915 41.75189209 C-38.46765724 38.28854963 -34.9907207 34.83125582 -31.51251221 31.37518311 C-27.96305615 27.8462002 -24.41926799 24.3115358 -20.875 20.77734375 C-13.92220537 13.84598692 -6.96309691 6.92100623 0 0 Z " fill="#56677E" transform="translate(152,131)"/>
<path d="M0 0 C4.72313607 2.948338 5.90227485 5.66115765 7.375 10.9375 C11.05352466 22.97404303 16.60298507 32.26466676 25.44921875 41.1484375 C29.01058554 45.12975107 32.12098494 48.82227114 31.8125 54.375 C30.56831956 57.69037494 28.48087094 59.64852863 25.9375 62.0625 C16.53606587 71.04139777 11.35678912 81.37112353 7.38232422 93.60302734 C5.94611809 97.9333107 4.83829866 101.21650097 1 104 C-4.48595506 104.87078652 -4.48595506 104.87078652 -7 104 C-11.10142492 99.91699465 -12.75162473 96.57231998 -14.3125 90.9375 C-18.23505569 78.04887493 -25.91420541 67.56771165 -35.70703125 58.40234375 C-37.83216011 56.09744569 -37.87957762 54.07077057 -38 51 C-36.61929527 46.56202053 -34.1048244 44.05355141 -30.8125 40.9375 C-21.92044113 32.2764037 -17.28006161 22.05037408 -13.32421875 10.53125 C-10.69340596 3.51574922 -8.16037736 -0.97924528 0 0 Z " fill="#3CBDE8" transform="translate(116,408)"/>
<path d="M0 0 C5.02241832 3.98466311 6.47865406 8.25272365 8.375 14.125 C12.47321489 25.89884615 17.7316407 34.29202246 26.86328125 42.90625 C29.84264938 45.82570397 30.92664333 47.5191063 31.5625 51.6875 C31.40084383 58.00363755 26.48228838 61.55110563 22.2578125 65.71875 C14.65118866 73.71096306 9.99190869 84.28871978 6.8125 94.75 C5.72992199 98.21424964 5.06122732 99.92718913 2.6875 102.75 C-0.84247371 104.39184824 -3.15129889 104.55981107 -7 104 C-11.54372754 100.68502368 -12.62536769 96.05304812 -14.3125 90.9375 C-18.35382718 79.44917201 -23.82266976 70.790247 -32.26855469 62.05688477 C-35.58991969 58.60999621 -37.9515353 56.13244692 -38.0625 51.25 C-36.29555721 45.84523383 -32.24114507 42.22603623 -28.26171875 38.2734375 C-20.63726026 30.31595669 -15.98658854 19.6937752 -12.8125 9.25 C-11.71936806 5.73670257 -11.07301068 4.08453868 -8.625 1.25 C-5.35318497 -0.30800716 -3.57828594 -0.67092861 0 0 Z " fill="#3CBDE8" transform="translate(481,408)"/>
<path d="M0 0 C4.54694638 3.30205427 5.6280001 7.95291646 7.3125 13.0625 C11.84851124 25.99758213 18.56407952 36.22042116 28.70703125 45.57421875 C31.03462944 48.14090558 30.94312754 50.64452508 31 54 C29.06788096 57.94824325 26.40145206 60.59130851 23.25 63.5625 C14.59130391 72.04382988 9.95678006 82.73839521 6 94 C3.06684236 102.02467657 3.06684236 102.02467657 -1 104 C-3.9375 104.5 -3.9375 104.5 -7 104 C-12.0182328 100.03117752 -13.4393608 95.79727107 -15.3125 89.9375 C-19.40040111 78.10671284 -24.99301225 69.74697262 -34.06640625 61.01953125 C-36.91857767 58.04059666 -38.10029995 56.04865024 -39 52 C-37.86159629 46.87718328 -35.57411403 44.44755544 -31.8125 40.875 C-22.81753408 32.2456831 -18.07288604 21.59206026 -14 10 C-11.21772103 2.3881047 -8.71956124 -1.08994515 0 0 Z " fill="#3CBDE8" transform="translate(195,0)"/>
<path d="M0 0 C3.22314687 1.53287586 5.37735598 3.14150688 7.890625 5.6953125 C8.95410156 6.76845703 8.95410156 6.76845703 10.0390625 7.86328125 C10.76867187 8.60964844 11.49828125 9.35601562 12.25 10.125 C12.99507813 10.87910156 13.74015625 11.63320313 14.5078125 12.41015625 C16.3431342 14.26900772 18.1736191 16.13237005 20 18 C18.41219641 21.86466333 15.94066771 24.30059155 12.99951172 27.22753906 C12.492034 27.73530884 11.98455627 28.24307861 11.46170044 28.76623535 C9.78906131 30.43748509 8.10945783 32.10154556 6.4296875 33.765625 C5.26625722 34.92532377 4.10326874 36.08546592 2.94070435 37.24603271 C-0.115982 40.29509352 -3.17862744 43.33809963 -6.24255371 46.37988281 C-9.36975165 49.48659913 -12.49127507 52.59900545 -15.61328125 55.7109375 C-21.7366488 61.81287417 -27.8663236 67.90842598 -34 74 C-41.38561539 67.74442981 -41.38561539 67.74442981 -44.52734375 64.5703125 C-45.09130859 64.003125 -45.65527344 63.4359375 -46.23632812 62.8515625 C-46.79771484 62.28179687 -47.35910156 61.71203125 -47.9375 61.125 C-48.52595703 60.53203125 -49.11441406 59.9390625 -49.72070312 59.328125 C-51.14947674 57.88773534 -52.57508132 56.4442033 -54 55 C-48.68985746 48.55309361 -42.82873116 42.70050563 -36.9140625 36.81640625 C-35.84624655 35.75045891 -34.77865378 34.68428795 -33.71127319 33.61790466 C-30.92207682 30.83249861 -28.129889 28.05011071 -25.33703613 25.26837158 C-22.47936425 22.42098936 -19.62457498 19.57072014 -16.76953125 16.72070312 C-11.18248158 11.14432919 -5.59226366 5.57114506 0 0 Z " fill="#F6C04D" transform="translate(161,305)"/>
<path d="M0 0 C4.88594765 1.04126753 7.28159552 3.32396631 11.02734375 6.52734375 C32.55899877 24.19356841 58.26426869 30.05690114 85.4375 29.875 C86.72785156 29.87048828 88.01820313 29.86597656 89.34765625 29.86132812 C92.50265375 29.84964295 95.65755137 29.83326044 98.8125 29.8125 C97.33760507 34.41801481 95.52456744 38.44615538 93.1875 42.6875 C92.24003906 44.41613281 92.24003906 44.41613281 91.2734375 46.1796875 C90.79132813 47.04851562 90.30921875 47.91734375 89.8125 48.8125 C64.39556189 48.01119707 64.39556189 48.01119707 53.8125 45.8125 C52.86117187 45.61914062 51.90984375 45.42578125 50.9296875 45.2265625 C29.11128379 40.28105766 9.32062221 29.88513332 -7.1875 14.8125 C-8.75685594 11.67378812 -8.53951103 9.27394178 -8.1875 5.8125 C-5.72733705 2.30863156 -4.15161356 1.05825444 0 0 Z " fill="#F09C25" transform="translate(382.1875,303.1875)"/>
<path d="M0 0 C6.58283688 1.20909249 10.16578565 5.6186946 14.29296875 10.4921875 C30.84530828 29.85805936 54.99471828 46.34460657 80.0625 51.5625 C78.61303895 54.90223757 76.78077612 57.08554659 74.1875 59.625 C73.50945312 60.29660156 72.83140625 60.96820313 72.1328125 61.66015625 C68.24965129 65.22826853 68.24965129 65.22826853 66.0625 66.5625 C59.13255346 65.97556208 52.40245054 61.97165621 46.4375 58.625 C45.57576172 58.14482422 44.71402344 57.66464844 43.82617188 57.16992188 C31.61464403 50.20349307 20.86357079 41.65641832 10.671875 32.015625 C8.44275092 29.9199814 6.16590343 27.95204781 3.8125 26 C-1.64335508 21.22039587 -7.20453906 16.00177826 -8.75 8.75 C-7.46679354 3.71588236 -5.19290971 0.99438697 0 0 Z " fill="#F09C26" transform="translate(346.9375,355.4375)"/>
<path d="M0 0 C2.11328125 1.44140625 2.11328125 1.44140625 4.3125 3.5625 C5.17617188 4.37847656 6.03984375 5.19445312 6.9296875 6.03515625 C7.41147461 6.50066895 7.89326172 6.96618164 8.38964844 7.44580078 C11.54570397 10.49180586 14.74339303 13.4940021 17.9375 16.5 C18.63198242 17.15403809 19.32646484 17.80807617 20.04199219 18.48193359 C25.49570075 23.59045448 31.13700554 28.36621266 37 33 C38.18482836 33.96332725 39.3683382 34.92827763 40.55078125 35.89453125 C47.71296621 41.72222205 54.96453238 47.18608264 62.68359375 52.2578125 C63.44800781 52.83273437 64.21242188 53.40765625 65 54 C65 54.66 65 55.32 65 56 C62.61153168 57.20474943 60.21609848 58.38864958 57.8125 59.5625 C57.13896484 59.90474609 56.46542969 60.24699219 55.77148438 60.59960938 C52.90904788 61.98195675 50.69408349 62.9837831 47.4921875 63.05859375 C43.6711471 61.43554994 40.58059653 59.0339617 37.3125 56.5 C36.60134033 55.95754639 35.89018066 55.41509277 35.1574707 54.85620117 C30.35601257 51.15517944 25.78884369 47.26977163 21.3515625 43.13671875 C18.83596349 40.85095022 16.22186273 38.74125344 13.5625 36.625 C8.52315521 32.55503412 4.03956674 28.14302964 -0.48046875 23.51953125 C-2.60541752 21.39458248 -4.75730531 19.4233819 -7.0625 17.5 C-10 15 -10 15 -12 12 C-12.15280821 8.39081551 -11.73008135 5.02875099 -9.625 2.0625 C-6.49109662 0.01340933 -3.65053764 -0.40316074 0 0 Z " fill="#F09C25" transform="translate(290,408)"/>
<path d="M0 0 C1.10036099 0.933206 2.19927781 1.86811498 3.29760742 2.80371094 C3.9097258 3.32414978 4.52184418 3.84458862 5.1525116 4.38079834 C8.00127561 6.877552 10.6572484 9.55066376 13.3125 12.25 C14.09850586 13.04277344 14.09850586 13.04277344 14.90039062 13.8515625 C16.26894244 15.23238046 17.63465634 16.61600976 19 18 C19.66 18.66 20.32 19.32 21 20 C20.59072266 20.33781494 20.18144531 20.67562988 19.75976562 21.02368164 C12.25784862 27.39418466 5.4300431 34.46108161 -1.5 41.4375 C-2.81226585 42.75479059 -4.12476395 44.07184986 -5.4375 45.38867188 C-8.62768506 48.5897861 -11.81470651 51.79401865 -15 55 C-22.38561539 48.74442981 -22.38561539 48.74442981 -25.52734375 45.5703125 C-26.09130859 45.003125 -26.65527344 44.4359375 -27.23632812 43.8515625 C-27.79771484 43.28179687 -28.35910156 42.71203125 -28.9375 42.125 C-29.52595703 41.53203125 -30.11441406 40.9390625 -30.72070312 40.328125 C-32.14947674 38.88773534 -33.57508132 37.4442033 -35 36 C-30.88670129 31.09526099 -26.61457539 26.4780472 -22.0703125 21.97265625 C-21.43511688 21.33887558 -20.79992126 20.70509491 -20.14547729 20.05210876 C-18.14101284 18.05318594 -16.13307786 16.05779216 -14.125 14.0625 C-12.75497611 12.69749867 -11.38518226 11.3322664 -10.015625 9.96679688 C-6.67973457 6.64185789 -3.34072964 3.32007647 0 0 Z " fill="#F6C04D" transform="translate(257,209)"/>
<path d="M0 0 C3.47851767 1.49992319 5.78935946 3.50424207 8.49316406 6.13916016 C9.81408051 7.42157089 9.81408051 7.42157089 11.16168213 8.72988892 C12.1136959 9.66556895 13.06499313 10.60197851 14.015625 11.5390625 C14.73827168 12.24948259 14.73827168 12.24948259 15.47551727 12.97425461 C18.02316886 15.48028339 20.56428018 17.99274531 23.10058594 20.51025391 C25.71565545 23.10317215 28.35322124 25.6718902 30.99658585 28.23591042 C33.03113652 30.21809139 35.04763591 32.21791769 37.05974579 34.2228508 C38.49173972 35.64041785 39.94280673 37.03863391 41.394104 38.43643188 C48.57030505 45.66100713 48.57030505 45.66100713 48.68261719 50.48974609 C48 54 48 54 46.5625 56.5 C42.62173178 58.80679116 39.44201063 59.1493091 35 58 C30.87514178 55.13589595 27.50953494 51.55893081 24.05859375 47.9375 C23.04211061 46.90421206 22.02360805 45.87290718 21.00318909 44.84350586 C18.33438522 42.14048475 15.69372204 39.41154449 13.0581665 36.67614746 C10.35940622 33.88499938 7.63469715 31.11943789 4.91210938 28.3515625 C-0.41754146 22.92564778 -5.71770155 17.47206703 -11 12 C-10.06122074 10.8934059 -9.12079084 9.78821201 -8.1796875 8.68359375 C-7.39440674 7.76018188 -7.39440674 7.76018188 -6.59326172 6.81811523 C-4.4984209 4.42763415 -2.28027529 2.21320837 0 0 Z " fill="#EF9B24" transform="translate(221,245)"/>
<path d="M0 0 C5.78515707 4.77695543 11.09874257 9.9445146 16.39038086 15.26000977 C17.823573 16.69861482 19.26210304 18.13172918 20.70117188 19.56445312 C21.61060547 20.47517578 22.52003906 21.38589844 23.45703125 22.32421875 C24.28178955 23.15010498 25.10654785 23.97599121 25.95629883 24.8269043 C28.67175845 27.71429004 29.92160926 29.39527146 30.4375 33.375 C30 37 30 37 27.9375 39.9375 C25 42 25 42 21.8125 42.875 C12.23718956 40.67738777 4.12584322 29.25335134 -2.625 22.4375 C-3.98818359 21.06754883 -3.98818359 21.06754883 -5.37890625 19.66992188 C-7.58827955 17.44892029 -9.79526031 15.22559967 -12 13 C-8.16171005 8.46548035 -4.25222428 4.15098084 0 0 Z " fill="#EF9C25" transform="translate(174,292)"/>
<path d="M0 0 C3.7363697 1.55821454 6.10996681 3.86581298 8.94921875 6.71875 C9.87927734 7.65074219 10.80933594 8.58273438 11.76757812 9.54296875 C12.24654541 10.02813965 12.7255127 10.51331055 13.21899414 11.01318359 C14.68778598 12.50028955 16.16448104 13.97917958 17.64257812 15.45703125 C25.85521991 23.7211092 25.85521991 23.7211092 26.375 28.3125 C26 32 26 32 23.9375 34.9375 C20.2404927 37.53327109 18.43355658 37.71253588 14 37 C11.0625 35.125 11.0625 35.125 9 33 C9 32.34 9 31.68 9 31 C8.42024414 30.74621582 7.84048828 30.49243164 7.24316406 30.23095703 C4.74927777 28.86241385 3.10256164 27.33002231 1.109375 25.3046875 C0.40039062 24.58925781 -0.30859375 23.87382812 -1.0390625 23.13671875 C-1.76867187 22.39035156 -2.49828125 21.64398438 -3.25 20.875 C-3.99507813 20.12089844 -4.74015625 19.36679688 -5.5078125 18.58984375 C-7.3431342 16.73099228 -9.1736191 14.86762995 -11 13 C-9.30413874 9.36696916 -7.26199512 7.05450954 -4.375 4.25 C-3.55773437 3.45078125 -2.74046875 2.6515625 -1.8984375 1.828125 C-0.95871094 0.92320312 -0.95871094 0.92320312 0 0 Z " fill="#EF9B25" transform="translate(269,197)"/>
</svg>
