<?xml version="1.0" encoding="UTF-8"?>
<svg version="1.1" xmlns="http://www.w3.org/2000/svg" width="512" height="512">
<path d="M0 0 C0.76184404 -0.00297112 1.52368808 -0.00594224 2.30861831 -0.0090034 C4.84546636 -0.01763153 7.38226689 -0.01919362 9.91912842 -0.02069092 C11.74465535 -0.02532322 13.57018132 -0.03034844 15.39570618 -0.03573608 C20.34421918 -0.04882138 25.29271864 -0.05529734 30.24124622 -0.05974674 C33.3364486 -0.06268342 36.43164731 -0.06678931 39.52684784 -0.07125092 C49.22152191 -0.08491497 58.91618757 -0.09458726 68.6108706 -0.09845281 C79.78274381 -0.10293254 90.95449461 -0.12048115 102.12633061 -0.1494534 C110.7754069 -0.171101 119.42444882 -0.18115871 128.07355189 -0.18249393 C133.2331773 -0.18353964 138.39268747 -0.18939786 143.55228424 -0.20731354 C148.40818212 -0.22384775 153.26387877 -0.22592383 158.11979485 -0.21717453 C159.8954491 -0.21640705 161.67111442 -0.22070853 163.4467411 -0.23063278 C179.36786943 -0.31435442 192.23212244 1.67517625 204.38299561 12.76544189 C213.31033307 22.19878229 216.43691328 34.09034858 216.42352295 46.71832275 C216.43024017 47.64137711 216.4369574 48.56443146 216.44387817 49.51545715 C216.46276707 52.54545578 216.4667774 55.57523193 216.46893311 58.60528564 C216.47536608 60.72463571 216.48209481 62.8439849 216.48910522 64.96333313 C216.50105428 69.39730895 216.50478836 73.83120698 216.50360107 78.26519775 C216.50339773 83.93207815 216.53072684 89.59845794 216.56514549 95.26521969 C216.58743538 99.63969696 216.59143801 104.01405399 216.59038162 108.38858223 C216.59273338 110.47726737 216.60153282 112.56595603 216.61704636 114.65458488 C216.63675359 117.58113129 216.63085014 120.50660088 216.61883545 123.4331665 C216.63007446 124.28591156 216.64131348 125.13865662 216.65289307 126.01724243 C216.58310922 132.74334103 215.07691714 139.01376013 210.35364342 144.03025723 C204.0240505 149.72358613 199.1336604 150.65193979 190.62127686 150.51934814 C184.26786538 149.82922394 180.46775155 146.80091741 176.25799561 142.20294189 C172.21641385 136.37830936 171.84525493 131.13908685 171.90594482 124.28936768 C171.90570375 123.40645994 171.90546268 122.52355221 171.90521431 121.61388969 C171.90670073 118.77107351 171.92190261 115.92852334 171.93768311 113.08575439 C171.94062562 111.32460659 171.94266478 109.56345704 171.94378662 107.80230713 C171.95424976 101.28999195 171.9821723 94.77771428 172.00799561 88.26544189 C172.04924561 73.70419189 172.09049561 59.14294189 172.13299561 44.14044189 C123.29299561 44.14044189 74.45299561 44.14044189 24.13299561 44.14044189 C24.13299561 66.91044189 24.13299561 89.68044189 24.13299561 113.14044189 C19.7553261 127.36786778 16.07949788 137.48960127 3.09393311 144.86700439 C-24.60556437 159.08742767 -42.47578085 150.14044189 -82.86700439 150.14044189 C-82.86700439 227.36044189 -82.86700439 304.58044189 -82.86700439 384.14044189 C1.28299561 384.14044189 85.43299561 384.14044189 172.13299561 384.14044189 C172.79299561 381.17044189 173.45299561 378.20044189 174.13299561 375.14044189 C177.21506577 369.20460305 181.80425366 365.25002254 188.13299561 363.14044189 C195.57452494 362.46794813 201.9958465 362.54471628 208.13299561 367.14044189 C213.39719818 372.28766219 216.20214002 378.03660987 216.50799561 385.39044189 C215.95992857 398.14944258 211.09933997 408.74570226 201.82049561 417.51544189 C191.28888672 426.24112124 180.35434222 428.45140191 166.99510193 428.40113831 C165.36080466 428.40687663 165.36080466 428.40687663 163.69349128 428.41273087 C160.05958816 428.42301129 156.42584452 428.4190781 152.79193115 428.4151001 C150.17956395 428.41944933 147.56719802 428.42463318 144.95483398 428.43058777 C138.60529051 428.44330768 132.25578937 428.44513182 125.9062353 428.44278751 C120.74207438 428.441001 115.57792626 428.4427611 110.41376686 428.44701195 C109.30926081 428.44790473 109.30926081 428.44790473 108.18244151 428.44881555 C106.68632509 428.45002737 105.19020867 428.4512415 103.69409225 428.45245793 C89.67731902 428.46332322 75.66056987 428.46117588 61.64379529 428.45507308 C48.83902168 428.4499059 36.0343242 428.4611559 23.22956564 428.4801713 C10.06231109 428.49957417 -3.10490751 428.50780134 -16.27217644 428.50404805 C-23.65681634 428.50213958 -31.04139148 428.50458885 -38.42601967 428.51876259 C-45.37245378 428.53196098 -52.31873347 428.52938315 -59.26516724 428.5163517 C-61.80958801 428.51398943 -64.35401953 428.516708 -66.89842796 428.52497482 C-70.38184699 428.53547337 -73.86475855 428.52731614 -77.34815979 428.5146637 C-78.34594981 428.52203798 -79.34373983 428.52941227 -80.37176591 428.53701001 C-93.52398573 428.43707207 -105.00470303 424.89812077 -114.67950439 415.76544189 C-123.57676376 406.21920596 -126.32732863 396.27833345 -126.25468445 383.43981934 C-126.26276275 381.71470049 -126.26276275 381.71470049 -126.27100426 379.95473075 C-126.2852676 376.11580825 -126.27818381 372.27723135 -126.27105713 368.43829346 C-126.27511958 365.67975983 -126.28362602 362.92124365 -126.29185486 360.16271973 C-126.30901728 353.45588397 -126.30988802 346.74914201 -126.30464195 340.04229 C-126.30059342 334.58732421 -126.30205193 329.13238605 -126.30739021 323.67742157 C-126.30813864 322.89974251 -126.30888706 322.12206344 -126.30965816 321.32081835 C-126.31118971 319.74071266 -126.31272806 318.16060697 -126.31427313 316.58050129 C-126.3279895 301.77442938 -126.32256707 286.96841035 -126.31108791 272.16233966 C-126.30116155 258.63720163 -126.31408739 245.11220052 -126.33802211 231.58708361 C-126.36244674 217.67965907 -126.37201241 203.77229821 -126.36536938 189.86485267 C-126.36188396 182.06489312 -126.36406403 174.26503878 -126.38162041 166.46509552 C-126.39638476 159.82348945 -126.39692312 153.18206261 -126.3795495 146.5404599 C-126.37107056 143.15640606 -126.37100353 139.77293283 -126.38420105 136.38885498 C-126.39745358 132.70860497 -126.38582415 129.02921291 -126.36820984 125.34899902 C-126.37781485 124.29575762 -126.38741985 123.24251622 -126.39731592 122.15735841 C-126.24956361 107.06263675 -120.24517448 92.61905572 -109.9776001 81.61187744 C-109.50235303 81.10157077 -109.02710596 80.5912641 -108.53745747 80.06549358 C-102.52834339 73.65080916 -96.34990816 67.39942718 -90.15997314 61.15997314 C-89.5255813 60.52025763 -88.89118946 59.88054211 -88.23757362 59.22144127 C-84.88534387 55.84275071 -81.52962581 52.46756535 -78.17144775 49.0947876 C-75.42511473 46.3350932 -72.68625278 43.56829628 -69.95367432 40.79498291 C-66.61305483 37.40462298 -63.25993033 34.02710259 -59.89788246 30.65799522 C-58.63515805 29.38863865 -57.37662303 28.11509779 -56.12276268 26.83698463 C-46.25915044 16.79337502 -35.71219768 7.28286463 -21.92950439 3.14044189 C-20.15253174 2.58356689 -20.15253174 2.58356689 -18.33966064 2.01544189 C-12.22987129 0.47596741 -6.28138628 -0.00777848 0 0 Z M-25.75396729 58.89801025 C-26.26129898 59.40358963 -26.76863068 59.90916901 -27.29133606 60.43006897 C-28.97664516 62.11095744 -30.6582475 63.79550063 -32.33966064 65.48028564 C-33.50393762 66.64388964 -34.66836305 67.8073451 -35.83293152 68.97065735 C-38.27666671 71.41291528 -40.71857627 73.85698058 -43.15924072 76.30230713 C-46.29570457 79.44446828 -49.43663513 82.58211998 -52.5789423 85.71843624 C-54.98527977 88.12116885 -57.38924096 90.52626752 -59.79247856 92.9321003 C-60.95003162 94.09032284 -62.10833456 95.24779642 -63.26738167 96.40452385 C-64.88382515 98.01844205 -66.49705206 99.63550656 -68.10943604 101.253479 C-69.03019424 102.17503281 -69.95095245 103.09658661 -70.89961243 104.04606628 C-72.98111538 105.7830003 -72.98111538 105.7830003 -72.86700439 107.14044189 C-55.37700439 107.14044189 -37.88700439 107.14044189 -19.86700439 107.14044189 C-19.86700439 89.65044189 -19.86700439 72.16044189 -19.86700439 54.14044189 C-22.03255926 54.14044189 -24.40187776 57.54708801 -25.75396729 58.89801025 Z " fill="#F26B25" transform="translate(189.86700439453125,41.85955810546875)"/>
<path d="M0 0 C0.97582031 -0.02835938 1.95164062 -0.05671875 2.95703125 -0.0859375 C10.39107026 0.97478391 15.66796637 5.26011654 20.81542969 10.45361328 C21.42464767 11.05260941 22.03386566 11.65160553 22.6615448 12.26875305 C24.65451108 14.23412328 26.63247608 16.21379069 28.609375 18.1953125 C30.00039921 19.57855235 31.3918658 20.96134745 32.78375244 22.34371948 C35.69194393 25.23702888 38.59231785 28.13791233 41.48779297 31.04394531 C45.18512528 34.7528645 48.90468718 38.43855337 52.63093185 42.11839485 C55.50861736 44.96650828 58.3722141 47.82847212 61.23203278 50.69451523 C62.59719159 52.0586526 63.96703737 53.41811723 65.34175873 54.77261734 C80.86145006 70.09182666 80.86145006 70.09182666 81.6875 81.4375 C80.63784928 89.70349941 76.80753771 95.5053109 70.95361328 101.22412109 C70.33843842 101.84484497 69.72326355 102.46556885 69.08944702 103.10510254 C67.07426957 105.13198921 65.0417606 107.1404017 63.0078125 109.1484375 C61.59213078 110.56240614 60.17733964 111.97726694 58.76339722 113.39297485 C55.80720347 116.34752045 52.84271924 119.29339397 49.87158203 122.23291016 C46.06944519 125.99529914 42.28528819 129.77517064 38.50673103 133.56122398 C35.59057516 136.4804528 32.66687125 139.3920224 29.74065781 142.30116653 C28.34253924 143.69227122 26.94635001 145.08531783 25.55215836 146.48035812 C23.60216294 148.42855038 21.64265127 150.36663633 19.68017578 152.30224609 C19.10958435 152.87576813 18.53899292 153.44929016 17.95111084 154.04019165 C12.52819686 159.34933115 6.97352971 162.375 -0.8125 162.375 C-7.81344127 161.5327815 -12.68024366 158.60417709 -17.5625 153.5 C-21.67255363 147.79159219 -22.74638701 142.26508495 -21.8125 135.375 C-18.81523772 126.27623883 -12.21824774 120.1852505 -5.5 113.75 C-4.46172673 112.73686849 -3.42460798 111.72255241 -2.38867188 110.70703125 C0.12357894 108.2492447 2.65099247 105.80777468 5.1875 103.375 C4.35996971 103.37353344 3.53243942 103.37206688 2.67983246 103.37055588 C-17.46839119 103.3334824 -37.61644668 103.27446044 -57.764534 103.19109726 C-67.50806449 103.15131084 -77.25151426 103.11891632 -86.99511719 103.10400391 C-95.48898846 103.09098535 -103.98268208 103.06401543 -112.4764533 103.02038693 C-116.97266127 102.99777674 -121.46865018 102.98208905 -125.96492004 102.98311615 C-130.20035142 102.98386302 -134.43529863 102.96590144 -138.67060471 102.93383217 C-140.22172715 102.92534075 -141.77290395 102.92357811 -143.32403946 102.92919731 C-160.15242223 102.98202186 -160.15242223 102.98202186 -166.87109375 96.33984375 C-167.55365234 95.33630859 -167.55365234 95.33630859 -168.25 94.3125 C-168.95962891 93.30509766 -168.95962891 93.30509766 -169.68359375 92.27734375 C-172.90679949 86.84585172 -172.22616015 80.47460699 -171.8125 74.375 C-169.749904 68.29576968 -165.90136445 64.7571889 -160.6171875 61.26068115 C-154.21271458 58.16936199 -147.07305159 58.80377182 -140.125 58.82910156 C-138.537623 58.82035763 -136.9502548 58.80986899 -135.36289978 58.79777527 C-131.07211743 58.76999489 -126.78162382 58.76650882 -122.49076462 58.76749516 C-117.9997186 58.76435919 -113.50880131 58.73872676 -109.01782227 58.71551514 C-100.52179981 58.67500392 -92.02585401 58.65462591 -83.52974987 58.64154124 C-73.85374268 58.62565466 -64.17786563 58.58723204 -54.50193405 58.54694796 C-34.605499 58.4646158 -14.70907015 58.41048195 5.1875 58.375 C4.4761792 57.68986328 3.7648584 57.00472656 3.03198242 56.29882812 C0.37454053 53.73247725 -2.26583434 51.14912832 -4.90161133 48.56054688 C-6.04064169 47.4465271 -7.18413659 46.33705191 -8.33227539 45.23242188 C-9.99023722 43.63570592 -11.63098695 42.02285836 -13.26953125 40.40625 C-13.7790181 39.92256958 -14.28850494 39.43888916 -14.81343079 38.94055176 C-19.42004187 34.33756302 -22.23701393 28.59935515 -22.25 21.9375 C-22.00699732 16.06493532 -20.12057882 10.93467035 -16.1640625 6.546875 C-11.21942486 2.09886036 -6.72989994 0.08820314 0 0 Z " fill="#F37E2B" transform="translate(363.8125,217.625)"/>
</svg>
