<?xml version="1.0" encoding="UTF-8"?>
<svg version="1.1" xmlns="http://www.w3.org/2000/svg" width="512" height="512">
<path d="M0 0 C1.07245103 -0.00307895 1.07245103 -0.00307895 2.16656774 -0.0062201 C4.56871614 -0.01188653 6.97080714 -0.01043329 9.37296104 -0.00901413 C11.11010313 -0.01159797 12.84724461 -0.01461119 14.58438528 -0.01801753 C19.3633189 -0.02608859 24.14223751 -0.02787716 28.92117715 -0.028615 C34.0733628 -0.03046538 39.22554065 -0.03801266 44.37772179 -0.04475021 C55.64639889 -0.05833501 66.91507243 -0.06435854 78.18375635 -0.06876087 C85.21978042 -0.07152316 92.25580311 -0.0757605 99.29182625 -0.08026505 C118.77174417 -0.09245811 138.25166099 -0.10275722 157.73158264 -0.10614014 C159.60191638 -0.10646949 159.60191638 -0.10646949 161.51003464 -0.10680549 C162.75991214 -0.10702377 164.00978964 -0.10724204 165.29754221 -0.10746694 C167.8302807 -0.1079104 170.36301919 -0.10835697 172.89575768 -0.10880661 C174.78024744 -0.10913875 174.78024744 -0.10913875 176.70280771 -0.10947761 C197.05816697 -0.11342532 217.41349043 -0.13087835 237.76883586 -0.15416613 C258.66636802 -0.17788125 279.56388221 -0.19034207 300.46142805 -0.19150805 C312.19499624 -0.19242475 323.92851779 -0.19817558 335.66207314 -0.21632767 C345.65395245 -0.23173082 355.6457707 -0.23684784 365.63765962 -0.22858956 C370.73467381 -0.22468379 375.83156503 -0.22560919 380.92856407 -0.23964691 C385.59824585 -0.25239001 390.26771233 -0.25118465 394.93739383 -0.2390562 C396.6231645 -0.23709992 398.30895045 -0.24017445 399.99469967 -0.24890056 C417.47472615 -0.33362669 432.5450176 3.18555085 445.57105064 15.64705276 C454.06442278 25.00889796 459.93953287 36.86281705 459.95917797 49.58716965 C459.9615302 50.23652536 459.96388243 50.88588108 459.96630594 51.55491424 C459.97298498 53.73990002 459.97253805 55.92482619 459.97212791 58.10982132 C459.97542723 59.68864549 459.97915294 61.26746882 459.98326939 62.84629107 C459.99328998 67.19229192 459.99700629 71.53827897 459.9996587 75.88428974 C460.00356163 80.5688886 460.01314005 85.25347651 460.02187157 89.93806839 C460.0416373 101.25579969 460.05170277 112.57353188 460.06059936 123.89127612 C460.06498247 129.22137304 460.07034926 134.55146896 460.07558823 139.88156509 C460.09260136 157.60115986 460.1070951 175.320754 460.11433697 193.04035568 C460.11624686 197.63907243 460.11816719 202.23778917 460.12012291 206.83650589 C460.12060665 207.97949223 460.12109039 209.12247857 460.12158879 210.30010086 C460.12988743 228.81190251 460.1552212 247.3236395 460.18770359 265.83541292 C460.2207829 284.84240738 460.23878656 303.84936899 460.24198121 322.85639238 C460.2441456 333.52753361 460.25288383 344.19858059 460.27844238 354.86969376 C460.30016134 363.95871517 460.30819393 373.04761943 460.2984756 382.13666385 C460.29393426 386.77207982 460.29580749 391.40725413 460.31523705 396.04263687 C460.33289351 400.29181386 460.33185097 404.54057335 460.31633975 408.78975493 C460.31396743 410.32147236 460.31826766 411.85321889 460.3301684 413.38489193 C460.45178856 430.08112018 455.65596202 443.60712338 444.22339439 455.95955276 C437.32322283 462.20791659 428.90936862 466.98452578 419.82495689 469.13142776 C419.10669216 469.3034656 418.38842742 469.47550344 417.64839709 469.65275455 C414.27365044 470.22489376 411.07417769 470.25950538 407.64991379 470.26285553 C406.93494643 470.26490816 406.21997908 470.2669608 405.48334605 470.26907563 C403.08119765 470.27474206 400.67910665 470.27328882 398.27695274 470.27186966 C396.53981066 470.2744535 394.80266918 470.27746672 393.06552851 470.28087306 C388.28659488 470.28894412 383.50767628 470.29073269 378.72873664 470.29147053 C373.57655099 470.29332091 368.42437314 470.30086819 363.272192 470.30760574 C352.0035149 470.32119054 340.73484136 470.32721407 329.46615744 470.3316164 C322.43013337 470.33437869 315.39411068 470.33861603 308.35808754 470.34312057 C288.87816962 470.35531364 269.3982528 470.36561275 249.91833115 470.36899567 C248.04799741 470.36932502 248.04799741 470.36932502 246.13987914 470.36966102 C244.89000165 470.3698793 243.64012415 470.37009757 242.35237157 470.37032247 C239.81963309 470.37076593 237.2868946 470.3712125 234.75415611 470.37166214 C232.86966635 470.37199428 232.86966635 470.37199428 230.94710608 470.37233314 C210.59174682 470.37628085 190.23642336 470.39373388 169.88107793 470.41702166 C148.98354577 470.44073678 128.08603158 470.4531976 107.18848574 470.45436358 C95.45491755 470.45528028 83.721396 470.4610311 71.98784065 470.4791832 C61.99596134 470.49458635 52.00414309 470.49970337 42.01225416 470.49144509 C36.91523998 470.48753932 31.81834876 470.48846471 26.72134972 470.50250244 C22.05166794 470.51524554 17.38220146 470.51404018 12.71251996 470.50191173 C11.02674929 470.49995545 9.34096334 470.50302998 7.65521412 470.51175609 C-9.82481236 470.59648222 -24.89510381 467.07730468 -37.92113686 454.61580276 C-46.41450899 445.25395757 -52.28961908 433.40003848 -52.30926418 420.67568588 C-52.31161641 420.02633017 -52.31396864 419.37697445 -52.31639215 418.70794129 C-52.32307119 416.52295551 -52.32262426 414.33802934 -52.32221413 412.15303421 C-52.32551344 410.57421004 -52.32923916 408.99538671 -52.33335561 407.41656446 C-52.34337619 403.07056361 -52.3470925 398.72457656 -52.34974492 394.37856579 C-52.35364785 389.69396693 -52.36322626 385.00937901 -52.37195778 380.32478714 C-52.39172351 369.00705584 -52.40178898 357.68932365 -52.41068557 346.37157941 C-52.41506869 341.04148249 -52.42043547 335.71138657 -52.42567444 330.38129044 C-52.44268757 312.66169567 -52.45718131 294.94210153 -52.46442318 277.22249985 C-52.46633307 272.6237831 -52.4682534 268.02506636 -52.47020912 263.42634964 C-52.47069286 262.2833633 -52.4711766 261.14037696 -52.471675 259.96275467 C-52.47997365 241.45095302 -52.50530741 222.93921603 -52.5377898 204.42744261 C-52.57086911 185.42044815 -52.58887277 166.41348654 -52.59206742 147.40646315 C-52.59423181 136.73532192 -52.60297004 126.06427494 -52.62852859 115.39316177 C-52.65024755 106.30414036 -52.65828014 97.2152361 -52.64856181 88.12619168 C-52.64402047 83.49077571 -52.6458937 78.8556014 -52.66532326 74.22021866 C-52.68297973 69.97104167 -52.68193718 65.72228218 -52.66642597 61.4731006 C-52.66405364 59.94138317 -52.66835387 58.40963664 -52.68025462 56.8779636 C-52.80187478 40.18173535 -48.00604823 26.65573215 -36.57348061 14.30330276 C-29.67330904 8.05493894 -21.25945483 3.27832975 -12.17504311 1.13142776 C-11.45677837 0.95938993 -10.73851363 0.78735209 -9.9984833 0.61010098 C-6.62373665 0.03796177 -3.4242639 0.00335015 0 0 Z M-6.11254311 46.19392776 C-8.60713404 49.74683001 -9.25120025 51.79047081 -9.17504311 56.13142776 C-7.57417885 59.27386502 -6.12411822 61.37871302 -3.36254311 63.56892776 C0.04316489 64.44468125 2.43775981 64.02279542 5.82495689 63.13142776 C8.68757946 61.12150128 10.46510562 59.69393989 11.27026939 56.19783401 C11.48812875 52.35624734 11.05815269 50.49676785 8.94995689 47.19392776 C6.02653539 44.35648924 5.1856934 44.16691004 1.01245689 43.75642776 C-2.40546234 43.81235735 -3.14969358 44.11362916 -6.11254311 46.19392776 Z M34.82495689 48.13142776 C33.2503995 51.28054255 33.47696571 53.65151592 33.82495689 57.13142776 C36.29514234 61.17354941 37.76461399 62.80953795 42.32495689 64.19392776 C47.1331219 64.10806768 49.25566555 62.64660562 52.63745689 59.38142776 C54.37063798 56.0975057 54.27428323 53.79022792 53.82495689 50.13142776 C52.02933284 47.37813755 50.77240767 45.60515315 47.82495689 44.13142776 C41.95876571 43.65059242 39.11980899 43.70642864 34.82495689 48.13142776 Z M77.82495689 48.13142776 C76.2105643 51.36021296 76.2431297 54.64046459 76.82495689 58.13142776 C79.35401831 61.73342433 81.06283177 62.89586182 85.26245689 64.19392776 C89.70565623 64.1159769 91.48641161 63.00412952 94.82495689 60.13142776 C96.93353142 57.47279032 96.82519304 56.14441569 96.76245689 52.69392776 C95.61670723 48.34007904 94.50721907 46.71684589 90.82495689 44.13142776 C85.32709992 42.86525464 81.78555922 44.05080719 77.82495689 48.13142776 Z M-30.17504311 107.13142776 C-30.24118633 147.10737434 -30.2965762 187.0832693 -30.32823909 227.05925494 C-30.33199119 231.77935757 -30.33587416 236.49946008 -30.33983803 241.21956253 C-30.34062496 242.15924539 -30.34141189 243.09892825 -30.34222267 244.06708635 C-30.35527468 259.27999434 -30.37892741 274.49286831 -30.40650149 289.70575612 C-30.43456137 305.31691877 -30.4512206 320.9280636 -30.45730859 336.53925043 C-30.46142382 346.17129003 -30.47441902 355.80323345 -30.49879251 365.43524344 C-30.51465687 372.04130617 -30.51944187 378.64731921 -30.51554724 385.2533996 C-30.51362679 389.06410695 -30.51655975 392.87464628 -30.53265953 396.68532372 C-30.55000233 400.82049834 -30.54399799 404.95531616 -30.53580666 409.09051895 C-30.54454518 410.28995209 -30.5532837 411.48938523 -30.56228703 412.72516483 C-30.50303987 423.7866371 -28.16142618 432.18982815 -20.17504311 440.13142776 C-11.57697069 446.59033289 -3.72737237 448.44166589 6.79932213 448.35847855 C8.26389099 448.35891663 8.26389099 448.35891663 9.7580471 448.35936356 C12.96664051 448.35797668 16.17499809 448.34244568 19.38355064 448.32674026 C21.61556941 448.32300785 23.84758983 448.32016196 26.07961082 448.31816483 C31.94039026 448.31054636 37.80106981 448.29091316 43.66180992 448.26875687 C49.64781913 448.24825996 55.63384455 448.23915489 61.61987877 448.22908401 C73.35494858 448.20766562 85.08994441 448.17355122 96.82495689 448.13142776 C96.82906578 447.06706497 96.83317467 446.00270218 96.83740807 444.90608597 C96.85923137 440.94531143 96.91355295 436.98552581 96.97754478 433.02522659 C97.00069714 431.31340918 97.01511404 429.60144987 97.02051353 427.88948441 C97.02982393 425.42366278 97.07085469 422.96006402 97.11792564 420.49470901 C97.113993 419.73305939 97.11006035 418.97140976 97.10600853 418.18667984 C97.21614298 414.14772959 97.65506656 412.33931153 100.24414635 409.17122269 C104.01386686 406.19174914 106.00968616 405.66842096 110.82495689 406.13142776 C116.40390426 409.2893225 116.40390426 409.2893225 117.82495689 412.13142776 C117.98172465 414.82798222 118.08332005 417.50272753 118.14136314 420.20174026 C118.16214424 420.99796799 118.18292534 421.79419571 118.20433617 422.61455154 C118.26979838 425.16175462 118.32870105 427.70906202 118.38745689 430.25642776 C118.43064529 431.98169903 118.47425968 433.7069597 118.51831627 435.43220901 C118.62547634 439.66517461 118.72675312 443.8982453 118.82495689 448.13142776 C155.83676721 448.22303247 192.84856041 448.29349145 229.86046119 448.33568908 C234.23249706 448.34069176 238.60453269 448.34586907 242.97656822 448.35115433 C243.84694232 448.35220357 244.71731642 448.35325281 245.61406549 448.35433385 C259.69723018 448.37172739 273.78032939 448.40325928 287.86345527 448.44003895 C302.31975294 448.47747763 316.77601638 448.4996698 331.23236054 448.50778174 C340.14890255 448.51326345 349.06525947 448.53056152 357.98174449 448.56309363 C364.10052371 448.58427768 370.21920758 448.59061903 376.33802078 448.58543327 C379.86549953 448.58287752 383.39265539 448.5867269 386.92007637 448.60824966 C390.75240467 448.6314609 394.58431728 448.62334449 398.41670799 448.61244583 C399.52082364 448.6240972 400.62493929 448.63574856 401.76251298 448.647753 C412.31857727 448.56684227 422.17090997 445.70173238 429.82495689 438.13142776 C437.34041341 428.95888841 438.12120822 420.86078334 438.06546593 409.33102798 C438.06717796 408.0418396 438.06889 406.75265121 438.07065392 405.42439651 C438.07512955 401.85015524 438.0671271 398.27603429 438.05710235 394.70180829 C438.04835818 390.78672137 438.05129229 386.87163984 438.05273819 382.95654583 C438.0538008 375.35943964 438.04457305 367.7623808 438.03173553 360.16528678 C438.01732888 351.37628582 438.01574567 342.58731325 438.01416588 333.79829788 C438.00366754 310.59683368 437.97574529 287.39538001 437.94995689 264.19392776 C437.90870689 212.36330276 437.86745689 160.53267776 437.82495689 107.13142776 C332.55495689 107.13142776 227.28495689 107.13142776 118.82495689 107.13142776 C118.49495689 119.01142776 118.16495689 130.89142776 117.82495689 143.13142776 C113.82495689 148.13142776 113.82495689 148.13142776 111.82495689 149.13142776 C104.73536852 149.71254157 104.73536852 149.71254157 100.88745689 147.25642776 C90.73556767 136.79690553 97.29615589 124.0945916 96.82495689 107.13142776 C54.91495689 107.13142776 13.00495689 107.13142776 -30.17504311 107.13142776 Z " fill="#2F5EFD" transform="translate(52.1750431060791,20.868572235107422)"/>
<path d="M0 0 C6.27195838 3.47312014 11.10216826 8.70634854 16.17578125 13.69921875 C16.65446341 14.16974985 17.13314556 14.64028095 17.62633324 15.12507057 C20.15563513 17.61286965 22.67848524 20.10701441 25.1965332 22.60620117 C27.78680118 25.17428923 30.39958011 27.71815303 33.0180788 30.25740337 C35.03983085 32.22672049 37.04346823 34.21374469 39.04274559 36.2058506 C40.45971761 37.60844494 41.8957641 38.99168522 43.33210754 40.37443542 C51.35386546 48.45067732 51.35386546 48.45067732 51.33964539 55.00074768 C50.75762678 58.42667981 49.3014768 60.52985662 47 63 C46.33895264 63.71168335 45.67790527 64.4233667 44.99682617 65.15661621 C42.4828257 67.78405297 39.92082592 70.35629724 37.34375 72.921875 C36.39468685 73.87228746 35.4459206 74.82299646 34.49743652 75.77398682 C32.51698451 77.7573747 30.53299264 79.7371321 28.54638672 81.71435547 C26.00424754 84.24506976 23.47123566 86.78470039 20.94078827 89.32709885 C18.9867039 91.2884168 17.02787304 93.24493838 15.06758118 95.20005035 C13.67789402 96.58776175 12.29222132 97.97948958 10.90661621 99.37127686 C10.05893677 100.21265198 9.21125732 101.0540271 8.33789062 101.92089844 C7.59494751 102.66225037 6.85200439 103.40360229 6.08654785 104.16741943 C3.16240705 106.73564408 0.98178421 107.87194119 -2.875 108.375 C-6.84487514 107.89861498 -8.89536536 106.46959574 -12 104 C-14.11337546 100.82993681 -14.29691433 98.96572363 -14.4609375 95.23046875 C-13.32883963 89.75226632 -8.86765731 85.62536881 -5.015625 81.8203125 C-4.08105469 80.8921875 -3.14648438 79.9640625 -2.18359375 79.0078125 C-1.20583907 78.04676317 -0.22797312 77.08582704 0.75 76.125 C1.74395327 75.1410932 2.73744722 74.15672217 3.73046875 73.171875 C6.14917427 70.77665206 8.57243438 68.38623724 11 66 C9.98602142 65.99857498 8.97204285 65.99714996 7.92733765 65.99568176 C-1.63650625 65.97899982 -11.19992531 65.93618968 -20.76354408 65.86790943 C-25.68015243 65.83364362 -30.59645019 65.80853008 -35.51318359 65.80444336 C-40.25969949 65.80015954 -45.00551478 65.77168995 -49.75181198 65.72656822 C-51.56101778 65.71359588 -53.37030743 65.70928462 -55.17955399 65.71384621 C-57.71763658 65.71875424 -60.25367311 65.69265337 -62.79150391 65.65942383 C-63.53669281 65.66804947 -64.28188171 65.67667511 -65.0496521 65.68556213 C-70.78156627 65.56006025 -73.12318306 63.92900067 -77 60 C-78.61429923 56.77140153 -78.59570657 53.49006347 -78 50 C-76.26397895 46.97491855 -74.16419863 44.58209931 -71 43 C-68.40726808 42.8776764 -65.83961114 42.8143332 -63.24560547 42.79467773 C-62.44552063 42.78477814 -61.64543579 42.77487854 -60.82110596 42.76467896 C-58.16983017 42.73302738 -55.51853644 42.70829211 -52.8671875 42.68359375 C-51.03158089 42.66302738 -49.19597904 42.64203099 -47.36038208 42.62062073 C-42.52382261 42.56536732 -37.68722017 42.51597248 -32.85058594 42.46777344 C-27.9172787 42.41758226 -22.98403404 42.36188377 -18.05078125 42.30664062 C-8.36724092 42.19901908 1.31635368 42.09758299 11 42 C10.31373535 41.32420898 9.6274707 40.64841797 8.92041016 39.95214844 C6.36957457 37.43758119 3.82541946 34.9163449 1.28320312 32.39306641 C0.18312022 31.30302549 -0.91875311 30.21478836 -2.02246094 29.12841797 C-3.61089467 27.5643116 -5.1927234 25.99377792 -6.7734375 24.421875 C-7.26621185 23.93942322 -7.75898621 23.45697144 -8.26669312 22.9598999 C-12.21665199 19.01123726 -13.84454315 16.63229688 -14.375 11.0625 C-14.29267724 7.90483402 -13.97145344 6.95310208 -12.25 4.125 C-8.3110503 0.40488084 -5.47435346 -0.65692242 0 0 Z " fill="#5178FB" transform="translate(291,234)"/>
<path d="M0 0 C3.02508145 1.73602105 5.41790069 3.83580137 7 7 C7.11036536 8.60707758 7.15911485 10.21858225 7.17700195 11.8293457 C7.18983719 12.83411453 7.20267242 13.83888336 7.21589661 14.87409973 C7.22328354 15.96365463 7.23067047 17.05320953 7.23828125 18.17578125 C7.246353 19.29309128 7.25442474 20.41040131 7.26274109 21.56156921 C7.27658946 23.92962081 7.28730823 26.29769243 7.29516602 28.66577148 C7.31238037 32.28733138 7.35626128 35.907979 7.40039062 39.52929688 C7.41051715 41.82811828 7.41903338 44.12694745 7.42578125 46.42578125 C7.44328934 47.50926346 7.46079742 48.59274567 7.47883606 49.70906067 C7.45708972 57.24800237 7.45708972 57.24800237 5.09057617 61.14135742 C2.05035102 63.84429262 0.17856431 64.84627422 -3.875 65.375 C-7.84487514 64.89861498 -9.89536536 63.46959574 -13 61 C-15.15891428 57.76162858 -15.26117536 56.81847576 -15.30639648 53.07299805 C-15.32238388 52.07153244 -15.33837128 51.07006683 -15.35484314 50.03825378 C-15.36020584 48.95699722 -15.36556854 47.87574066 -15.37109375 46.76171875 C-15.38463646 45.09143364 -15.38463646 45.09143364 -15.39845276 43.3874054 C-15.41296986 41.0295379 -15.4218456 38.67162999 -15.42553711 36.3137207 C-15.43742014 32.71170822 -15.48658325 29.11141576 -15.53710938 25.50976562 C-15.54657498 23.21875836 -15.55380936 20.92774057 -15.55859375 18.63671875 C-15.57812607 17.56153488 -15.59765839 16.48635101 -15.61778259 15.37858582 C-15.56754315 7.02214786 -15.56754315 7.02214786 -12.59008789 3.33520508 C-8.65339741 -0.21408745 -5.22118326 -0.89118527 0 0 Z " fill="#446EFC" transform="translate(164,213)"/>
<path d="M0 0 C2.82424288 2.19022918 4.41508603 3.83017207 6 7 C6.11019544 8.57113906 6.15909332 10.14678278 6.17700195 11.72167969 C6.18983719 12.70320007 6.20267242 13.68472046 6.21589661 14.69598389 C6.22328354 15.76052795 6.23067047 16.82507202 6.23828125 17.921875 C6.246353 19.01461731 6.25442474 20.10735962 6.26274109 21.23321533 C6.27659019 23.54999196 6.28730864 25.86678906 6.29516602 28.18359375 C6.31236269 31.7217496 6.35624077 35.25896736 6.40039062 38.796875 C6.41051878 41.04686812 6.4190345 43.2968692 6.42578125 45.546875 C6.44328934 46.60332214 6.46079742 47.65976929 6.47883606 48.74822998 C6.46101942 54.80245378 6.09836929 58.41669278 2 63 C-1.71453232 64.85726616 -5.95579425 64.58501089 -10 64 C-12.82424288 61.80977082 -14.41508603 60.16982793 -16 57 C-16.11019544 55.42886094 -16.15909332 53.85321722 -16.17700195 52.27832031 C-16.18983719 51.29679993 -16.20267242 50.31527954 -16.21589661 49.30401611 C-16.22328354 48.23947205 -16.23067047 47.17492798 -16.23828125 46.078125 C-16.246353 44.98538269 -16.25442474 43.89264038 -16.26274109 42.76678467 C-16.27659019 40.45000804 -16.28730864 38.13321094 -16.29516602 35.81640625 C-16.31236269 32.2782504 -16.35624077 28.74103264 -16.40039062 25.203125 C-16.41051878 22.95313188 -16.4190345 20.7031308 -16.42578125 18.453125 C-16.44328934 17.39667786 -16.46079742 16.34023071 -16.47883606 15.25177002 C-16.46101942 9.19754622 -16.09836929 5.58330722 -12 1 C-8.28546768 -0.85726616 -4.04420575 -0.58501089 0 0 Z " fill="#6587FA" transform="translate(165,320)"/>
</svg>
