<?xml version="1.0" encoding="UTF-8"?>
<svg version="1.1" xmlns="http://www.w3.org/2000/svg" width="512" height="512">
<path d="M0 0 C1.26027746 -0.01104769 2.52055491 -0.02209538 3.8190226 -0.03347784 C5.21506965 -0.02552076 6.61111457 -0.01718308 8.00715733 -0.00850582 C9.4921316 -0.01383064 10.97710049 -0.02089596 12.46205908 -0.02955288 C16.54386076 -0.04821593 20.62530052 -0.04186276 24.70711744 -0.03139985 C29.10871746 -0.02441817 33.51024236 -0.04039792 37.91182041 -0.05339718 C46.5352606 -0.07505986 55.15856895 -0.07490447 63.78202742 -0.06677163 C70.78987954 -0.06047638 77.79769315 -0.06160431 84.80554485 -0.06804371 C85.80226511 -0.06894536 86.79898537 -0.06984702 87.82590928 -0.070776 C89.85062723 -0.07262717 91.87534517 -0.07448973 93.9000631 -0.07636356 C112.89494158 -0.09294998 131.88974582 -0.08421571 150.88461984 -0.06737798 C168.26880324 -0.05268079 185.65281382 -0.06730821 203.03697496 -0.09614814 C220.88007691 -0.12552937 238.72309907 -0.13651811 256.56622416 -0.12696594 C258.58387409 -0.12594337 260.60152404 -0.12494876 262.619174 -0.12398243 C263.61193449 -0.12350604 264.60469497 -0.12302965 265.62753911 -0.12253882 C272.62745047 -0.12037298 279.62728642 -0.13018784 286.62718105 -0.14475346 C295.15718037 -0.16225508 303.6869593 -0.16219071 312.21694987 -0.1394018 C316.57016075 -0.12823971 320.92298306 -0.12514134 325.27617741 -0.14370251 C329.26051105 -0.16047249 333.24411618 -0.15420428 337.22840232 -0.12948572 C338.67047337 -0.12459047 340.1126028 -0.12815074 341.55462515 -0.14097316 C353.66189378 -0.24086971 353.66189378 -0.24086971 357.55144691 2.60791969 C362.96616546 9.65208899 362.04295425 17.38657291 361.97026157 25.922616 C361.96595203 27.29508647 361.96256549 28.66756008 361.96001929 30.04003495 C361.95257382 33.01742186 361.93877592 35.99468842 361.9200964 38.97202587 C361.88977923 43.81705219 361.87343877 48.66206884 361.85897923 53.50716496 C361.8397821 59.63054818 361.81710616 65.75390127 361.79040941 71.87725642 C361.73831313 83.91079408 361.7146114 95.94424574 361.7015543 107.97788334 C361.69937233 109.87356085 361.69718404 111.76923836 361.6949895 113.66491586 C361.69062193 117.50250646 361.68639366 121.34009718 361.68223035 125.177688 C361.67139319 135.03775096 361.65884034 144.89781016 361.64328098 154.75786686 C361.64173056 155.74715996 361.64018014 156.73645307 361.63858273 157.75572475 C361.61220079 173.78893167 361.54575607 189.82175846 361.46635739 205.85477934 C361.38590806 222.32392372 361.35503201 238.79265451 361.36842459 255.2619912 C361.37498901 265.41642103 361.34202888 275.56915703 361.25815567 285.72324946 C361.20423053 292.68320488 361.1979449 299.64218574 361.22894559 306.60227696 C361.24537809 310.61672508 361.24079714 314.62822629 361.17913723 318.6422987 C359.97781041 335.05444798 359.97781041 335.05444798 365.58948421 349.47990322 C368.65945889 352.15770042 372.12013134 353.74145726 375.77926731 355.50615788 C393.29974518 371.62366429 402.67131287 394.49857359 404.12692356 418.00225163 C404.91308941 440.82960203 397.47751688 463.01272837 382.77926731 480.50615788 C381.90528294 481.59863834 381.90528294 481.59863834 381.01364231 482.71318913 C367.11805419 499.38205639 347.06559724 509.34657049 325.77926731 512.50615788 C308.34833295 513.56794811 292.29606893 513.29312889 276.50402927 505.40206242 C267.83232809 501.4702088 259.36055612 501.69202813 249.9955759 501.79668522 C248.14780359 501.79505996 246.30003201 501.79073548 244.45227146 501.78394413 C240.50276649 501.7749852 236.55391286 501.78450762 232.60447407 501.80884266 C226.35999708 501.84690799 220.11601487 501.84104371 213.87146091 501.82930851 C201.75780295 501.81252574 189.6444486 501.84050991 177.53083897 501.87272739 C162.07536682 501.91131596 146.61994162 501.92735092 131.16443217 501.9075228 C124.95506292 501.90098819 118.7461919 501.91529332 112.53689933 501.94597316 C108.68425223 501.96130225 104.83173089 501.96040241 100.97906208 501.95522976 C99.19077362 501.95629328 97.40247417 501.96427192 95.61425114 501.97960567 C93.17686543 501.99962515 90.74070186 501.99522831 88.30328465 501.98476505 C87.23783879 502.00254476 87.23783879 502.00254476 86.15086877 502.02068365 C82.78730744 501.98085104 81.03724838 501.69857057 78.30901623 499.66374493 C76.77926731 497.50615788 76.77926731 497.50615788 76.77926731 494.50615788 C70.50926731 494.50615788 64.23926731 494.50615788 57.77926731 494.50615788 C57.44926731 495.82615788 57.11926731 497.14615788 56.77926731 498.50615788 C55.57534885 500.22892094 55.57534885 500.22892094 53.77926731 501.50615788 C51.18777561 501.90729618 51.18777561 501.90729618 48.04196262 501.94194889 C46.86353794 501.96108845 45.68511326 501.980228 44.47097874 501.99994755 C42.55850346 502.00495525 42.55850346 502.00495525 40.60739231 502.01006413 C39.29647617 502.02004932 37.98556004 502.03003452 36.63491917 502.0403223 C33.85743911 502.05828711 31.08023887 502.06384341 28.30270481 502.06206608 C24.75700122 502.061762 21.21311096 502.10263041 17.66783619 502.15438271 C14.27266346 502.19594118 10.87781579 502.19401395 7.48239231 502.19756413 C5.58206242 502.22989895 5.58206242 502.22989895 3.64334202 502.262887 C-2.98734483 502.21150263 -7.27208976 501.90182495 -12.07357693 497.08731937 C-14.827774 493.29112141 -14.36247958 489.07251688 -14.35216045 484.60779095 C-14.35421309 483.79034291 -14.35626572 482.97289487 -14.35838056 482.13067567 C-14.36407369 479.36793294 -14.36259047 476.6052397 -14.36117458 473.8424921 C-14.36375689 471.85118724 -14.36676967 469.85988289 -14.37017798 467.86857927 C-14.37826694 462.37804765 -14.38003861 456.88752908 -14.38077545 451.39699221 C-14.38262269 445.48278005 -14.3901683 439.56857472 -14.39691067 433.65436649 C-14.41121667 420.03955166 -14.41702199 406.42473782 -14.42160261 392.80991704 C-14.42393748 386.08457957 -14.42753998 379.35924296 -14.43129799 372.63390616 C-14.44413349 349.62016669 -14.45485326 326.60642771 -14.45830059 303.59268475 C-14.45852222 302.14774226 -14.45874401 300.70279977 -14.45896594 299.25785729 C-14.45918658 297.80939437 -14.45940707 296.36093146 -14.45962739 294.91246855 C-14.46006995 292.00652385 -14.46051706 289.10057914 -14.46096706 286.19463444 C-14.46107645 285.47412787 -14.46118585 284.7536213 -14.46129855 284.01128121 C-14.46493056 260.63989101 -14.48085603 237.2685318 -14.50415743 213.89715347 C-14.52873842 189.1972695 -14.5424726 164.49740325 -14.54366851 139.79750669 C-14.54383997 137.0875504 -14.5440554 134.37759411 -14.54430294 131.66763783 C-14.54435871 131.00035276 -14.54441448 130.33306769 -14.54447194 129.64556187 C-14.54555243 119.56127615 -14.55487202 109.47701908 -14.56848812 99.39274311 C-14.58385427 87.92685248 -14.5890302 76.46101497 -14.58075002 64.99511601 C-14.57683128 59.14141546 -14.57783259 53.287822 -14.59180737 47.43413448 C-14.60447298 42.08003933 -14.60341378 36.72613255 -14.59121665 31.37203793 C-14.58924687 29.43059614 -14.59239662 27.48914134 -14.60106102 25.54771788 C-14.61206249 22.91698256 -14.60473068 20.28692281 -14.59266949 17.65620708 C-14.60026468 16.89530085 -14.60785987 16.13439461 -14.61568522 15.35043061 C-14.55594748 9.35106604 -13.11895125 6.38964532 -8.92202848 2.22529274 C-5.67392592 0.15816393 -3.82874128 0.00419119 0 0 Z " fill="#030304" transform="translate(61.22073268890381,-0.5061578750610352)"/>
<path d="M0 0 C101.31 0 202.62 0 307 0 C307 106.26 307 212.52 307 322 C301.39 320.68 295.78 319.36 290 318 C271.07921275 315.29703039 248.44011023 316.03992651 232 327 C229.31504154 327.25053978 229.31504154 327.25053978 226.00953674 327.2515564 C224.13145828 327.25963066 224.13145828 327.25963066 222.21543884 327.26786804 C220.82534746 327.26385373 219.43525651 327.2596828 218.04516602 327.25537109 C216.58324996 327.25812067 215.12133541 327.26180037 213.65942383 327.26634216 C210.50988815 327.27445843 207.36042349 327.27662157 204.21087837 327.27439499 C199.23174854 327.27156505 194.25276098 327.28590159 189.27366638 327.30337524 C175.11467626 327.3504337 160.95569569 327.37434699 146.79663086 327.38085938 C138.97776176 327.38460746 131.15905346 327.40261624 123.34025329 327.43595374 C118.38956732 327.45619679 113.43929522 327.45852405 108.48858464 327.44767356 C105.40941017 327.44506955 102.33047753 327.45905501 99.25136566 327.47775459 C97.82271391 327.48308467 96.39401784 327.48156581 94.96538353 327.47271919 C93.01608942 327.46162138 91.06669741 327.47735458 89.1174469 327.49447632 C87.48065649 327.49611062 87.48065649 327.49611062 85.8107996 327.49777794 C82.30628719 328.12394974 81.08840941 329.15253058 79 332 C79.14281508 337.05692899 79.14281508 337.05692899 82 341 C84.34100754 341.31459253 84.34100754 341.31459253 87.09988403 341.2784729 C88.17964508 341.28963638 89.25940613 341.30079987 90.37188721 341.31230164 C92.15644318 341.31554192 92.15644318 341.31554192 93.97705078 341.31884766 C95.22579987 341.32889328 96.47454895 341.3389389 97.76113892 341.34928894 C101.19069952 341.37493467 104.62009368 341.39175697 108.0497117 341.40471697 C111.63189341 341.42031977 115.21399058 341.447119 118.79611206 341.4727478 C125.58171307 341.51958625 132.3673299 341.55630575 139.15301025 341.58942068 C146.87726649 341.62760637 154.60143795 341.67702577 162.3256228 341.72740483 C178.21702063 341.83079999 194.10846595 341.92003561 210 342 C209.03812114 343.28282262 208.07619871 344.56561257 207.11425781 345.84838867 C206.31075897 346.91992439 206.31075897 346.91992439 205.49102783 348.0131073 C203.43093497 350.7583166 201.36420216 353.49851703 199.296875 356.23828125 C198.15237786 357.79300477 197.07087871 359.39368194 196 361 C194.00031471 361.37358761 194.00031471 361.37358761 191.49649048 361.37181091 C190.54872238 361.37856842 189.60095428 361.38532593 188.62446594 361.39228821 C187.58130722 361.38456894 186.5381485 361.37684967 185.46337891 361.36889648 C183.81934837 361.3745462 183.81934837 361.3745462 182.1421051 361.38031006 C179.755966 361.38675906 177.36980123 361.38639711 174.98366165 361.38012505 C171.2100725 361.37105411 167.43698443 361.38119336 163.66342163 361.39674377 C154.28914827 361.43187133 144.91491989 361.43916846 135.54058838 361.43664551 C127.62631575 361.43478602 119.71241724 361.44860506 111.7981987 361.48512459 C108.07546636 361.49598752 104.35324007 361.48379553 100.63052368 361.47129822 C98.35214735 361.48019987 96.07377518 361.49027328 93.79541016 361.50170898 C92.7562999 361.49196548 91.71718964 361.48222198 90.64659119 361.47218323 C85.151556 361.46896867 85.151556 361.46896867 80.31747437 363.80458069 C78.67422924 366.09187491 78.67422924 366.09187491 79.125 369.625 C79.70740714 373.04542055 79.70740714 373.04542055 82 375 C83.9718232 375.3131468 83.9718232 375.3131468 86.26467896 375.2784729 C87.15932861 375.28963638 88.05397827 375.30079987 88.97573853 375.31230164 C89.95972626 375.31446182 90.94371399 375.31662201 91.95751953 375.31884766 C92.99169006 375.32889328 94.0258606 375.3389389 95.09136963 375.34928894 C98.52184474 375.38026779 101.95224131 375.39719689 105.3828125 375.4140625 C107.75650719 375.43276232 110.13019516 375.45233482 112.50387573 375.4727478 C118.76084435 375.52420028 125.01783455 375.5637557 131.27490234 375.60089111 C137.65597937 375.64084871 144.03696561 375.69197855 150.41796875 375.7421875 C162.94524769 375.83910201 175.47257861 375.92383609 188 376 C187.86272869 376.68435403 187.72545738 377.36870806 187.58402634 378.07380009 C187.40392643 378.97274211 187.22382652 379.87168413 187.03826904 380.79786682 C186.85974773 381.68847085 186.68122643 382.57907488 186.49729538 383.49666691 C185.02057343 390.93033122 184.78181631 397.99419478 184.75 405.5625 C184.729375 406.76197266 184.70875 407.96144531 184.6875 409.19726562 C184.5911966 431.50353981 193.55706298 452.44957491 208.78515625 468.64453125 C210 470 210 470 210 471 C209.14209208 471.00423194 208.28418417 471.00846388 207.40027905 471.01282406 C186.54453734 471.11603979 165.68882996 471.22466386 144.833148 471.33933926 C134.74758253 471.39466394 124.66201353 471.44814472 114.57641602 471.49731445 C105.78784498 471.54016552 96.99929992 471.58644587 88.210769 471.63687855 C83.55549073 471.66347203 78.90021758 471.68832495 74.24490929 471.70907402 C69.86602973 471.72864513 65.48719956 471.75279039 61.10836411 471.78049088 C59.49868859 471.78985878 57.88900224 471.797535 56.27931023 471.80341911 C54.08639556 471.8116847 51.89360063 471.82596264 49.70072937 471.84178162 C48.47197932 471.84823417 47.24322927 471.85468672 45.97724438 471.8613348 C42.94477841 471.86743595 42.94477841 471.86743595 40 473 C39.34 474.98 38.68 476.96 38 479 C31.73 479 25.46 479 19 479 C18.34 477.02 17.68 475.04 17 473 C11.46461177 471.61615294 5.68894123 471.43761086 0 471 C0 461.43 0 451.86 0 442 C4.00278076 441.98541748 8.00556152 441.97083496 12.12963867 441.95581055 C25.34119901 441.90551835 38.55263655 441.83908357 51.76407909 441.76428509 C59.7757301 441.71932147 67.78733661 441.67990815 75.79907227 441.65356445 C82.78219048 441.63058891 89.76516792 441.59719595 96.74817449 441.55129844 C100.44556824 441.52736009 104.1428225 441.50863539 107.84029198 441.50238609 C111.96819302 441.49521411 116.09560864 441.46478472 120.22338867 441.43237305 C121.44906052 441.43380814 122.67473236 441.43524323 123.93754578 441.4367218 C125.62647949 441.41791458 125.62647949 441.41791458 127.34953308 441.39872742 C128.32571185 441.39411845 129.30189062 441.38950949 130.30765057 441.38476086 C133.49717201 440.92894967 135.39037454 439.8573456 138 438 C141.44470737 433.28725416 140.41045885 426.72201825 140.42553711 421.15551758 C140.43744635 419.07188713 140.48666443 416.99121014 140.53710938 414.90820312 C140.54419922 413.58884766 140.55128906 412.26949219 140.55859375 410.91015625 C140.57204834 409.70496338 140.58550293 408.49977051 140.59936523 407.25805664 C139.83358801 403.09541018 138.21982886 401.64864233 135 399 C132.4316995 397.71584975 130.58715306 397.86074395 127.71029663 397.84178162 C126.58846481 397.8319928 125.466633 397.82220398 124.31080627 397.81211853 C122.45611977 397.80348534 122.45611977 397.80348534 120.56396484 397.79467773 C118.61768944 397.77982834 118.61768944 397.77982834 116.63209534 397.76467896 C113.06829766 397.73760021 109.5044867 397.71660676 105.94064283 397.69667697 C102.21834856 397.6748357 98.49609538 397.64743793 94.77383423 397.62062073 C87.7226042 397.57066865 80.6713514 397.52573917 73.62007678 397.48259836 C65.59355386 397.43324745 57.56707216 397.37832138 49.54058909 397.32291877 C33.02709712 397.20906013 16.51356687 397.10242733 0 397 C0 390.4 0 383.8 0 377 C1.79139404 376.99589111 3.58278809 376.99178223 5.4284668 376.98754883 C11.35587608 376.96813121 17.282885 376.92579258 23.21002483 376.86790943 C26.80278004 376.83365872 30.39511093 376.80853262 33.98803711 376.80444336 C37.45734108 376.80015599 40.92568823 376.77165984 44.39469337 376.72656822 C46.35822554 376.7073107 48.32195081 376.71294643 50.28556824 376.71894836 C57.35698692 376.86759509 57.35698692 376.86759509 63.34692383 373.6862793 C65.31323636 371.00212687 65.31323636 371.00212687 65.0625 367.3125 C64.36950054 364.00450545 64.36950054 364.00450545 62.30621338 362.81289673 C59.45142494 361.80663763 57.06665404 361.71932757 54.03808594 361.68115234 C52.83714294 361.66128265 51.63619995 361.64141296 50.39886475 361.62094116 C49.10708313 361.60938995 47.81530151 361.59783875 46.484375 361.5859375 C45.14486505 361.56722013 43.80536682 361.54764629 42.46588135 361.5272522 C38.94786497 361.47598476 35.42981038 361.43633048 31.91162109 361.39910889 C28.31858918 361.35903526 24.72571546 361.30795829 21.1328125 361.2578125 C14.08865151 361.16111714 7.04439975 361.07770952 0 361 C0 355.06 0 349.12 0 343 C1.76110107 342.98541748 3.52220215 342.97083496 5.33666992 342.95581055 C11.16423464 342.90410322 16.99156238 342.83880207 22.81887341 342.76428509 C26.35098666 342.71961336 29.88298544 342.68035062 33.4152832 342.65356445 C37.47897322 342.6225092 41.54204542 342.56772166 45.60546875 342.51171875 C47.50258858 342.50213387 47.50258858 342.50213387 49.43803406 342.49235535 C50.61888077 342.47256119 51.79972748 342.45276703 53.01635742 342.43237305 C54.05338303 342.42126999 55.09040863 342.41016693 56.15885925 342.39872742 C59.46956629 341.93410078 61.35814766 341.03380506 64 339 C65.24838381 335.59471004 65.24838381 335.59471004 65 332 C62.90404026 329.17813132 61.68877875 328.12781105 58.20318604 327.48101807 C57.12841003 327.47213562 56.05363403 327.46325317 54.94628906 327.45410156 C53.72532532 327.43438293 52.50436157 327.41466431 51.24639893 327.39434814 C49.93274353 327.39311951 48.61908813 327.39189087 47.265625 327.390625 C45.90368688 327.37564007 44.54176691 327.35891225 43.17987061 327.34051514 C39.60259152 327.2968633 36.02555754 327.27684777 32.44805908 327.26177979 C28.79465407 327.24220055 25.14150689 327.20044736 21.48828125 327.16015625 C14.32535613 327.08278526 7.16355989 327.04238793 0 327 C0 316.44 0 305.88 0 295 C3.47170212 294.99857498 6.94340424 294.99714996 10.52030945 294.99568176 C42.34404782 294.98030963 74.16767238 294.94022995 105.99134449 294.87314438 C110.16081457 294.86437745 114.33028506 294.85582767 118.49975586 294.84741211 C119.32983521 294.84573305 120.15991457 294.84405398 121.01514784 294.84232404 C134.46215133 294.81564186 147.9091122 294.80655809 161.35613944 294.80395857 C175.15028467 294.80090095 188.94430649 294.77897651 202.73839599 294.73947543 C211.25265325 294.71569033 219.76666429 294.70668615 228.28095023 294.71648689 C234.11662647 294.72179569 239.95208175 294.70880655 245.78769507 294.6813371 C249.15660945 294.66602215 252.52461617 294.66157215 255.89360809 294.67340279 C259.54450071 294.68495716 263.19398935 294.66600676 266.84477234 294.63923645 C267.91189176 294.64990971 268.97901118 294.66058297 270.07846755 294.67157966 C274.77246021 294.60710216 277.23624685 294.53387852 281.15793991 291.79253769 C283.16868843 288.74427067 283.62586815 287.29031786 283.62818909 283.68016052 C283.64084305 282.62729858 283.65349701 281.57443665 283.66653442 280.4896698 C283.65484222 279.34508804 283.64315002 278.20050629 283.63110352 277.02124023 C283.63825882 275.80773895 283.64541412 274.59423767 283.65278625 273.34396362 C283.66678367 270.02328635 283.65838135 266.70416971 283.63869596 263.38362002 C283.62228962 259.90613315 283.63112492 256.42869644 283.63621521 252.95118713 C283.64073339 247.11291675 283.62488233 241.27496705 283.59692383 235.43676758 C283.56485779 228.68884966 283.56489412 221.94150956 283.5821386 215.19355053 C283.5980055 208.69814911 283.59127018 202.20295937 283.57420158 195.70756721 C283.56733255 192.94484885 283.56836184 190.18230024 283.57574654 187.41958427 C283.58483436 183.56262067 283.56086983 179.70625038 283.53344727 175.84936523 C283.53997314 174.70275925 283.54649902 173.55615326 283.55322266 172.37480164 C283.5404982 171.32475952 283.52777374 170.27471741 283.5146637 169.19285583 C283.51185678 168.28124412 283.50904985 167.3696324 283.50615788 166.43039608 C283.1186094 163.92396292 283.1186094 163.92396292 281.65989208 161.70788288 C277.34527207 158.93752024 272.94698826 159.44474293 267.92706299 159.48101807 C266.21296978 159.46976619 266.21296978 159.46976619 264.46424842 159.458287 C261.29205718 159.44148259 258.12044911 159.44258741 254.94824338 159.45119452 C251.52764398 159.45613267 248.1071577 159.43806286 244.68659973 159.42277527 C238.7601794 159.39944286 232.83388149 159.39071561 226.9074173 159.39188385 C218.33875623 159.39355185 209.77025857 159.37323109 201.20164105 159.34752855 C187.29996267 159.30642671 173.39831365 159.28312936 159.49658203 159.27099609 C145.99167051 159.25917111 132.48681427 159.23898118 118.98193359 159.20751953 C118.14961272 159.20558343 117.31729185 159.20364733 116.45974913 159.20165256 C112.28427546 159.19188811 108.10880219 159.18195898 103.93332911 159.17194796 C69.28890847 159.08909838 34.64449889 159.03622624 0 159 C0 146.13 0 133.26 0 120 C4.95 120 9.9 120 15 120 C15.99 123.465 15.99 123.465 17 127 C17.66 127.99 18.32 128.98 19 130 C22.00644532 130.33404948 24.10153478 130.52861353 27 130 C30.29685519 127.23489564 30.37675653 124.09880843 31 120 C31.845625 119.90203125 32.69125 119.8040625 33.5625 119.703125 C42.72365912 118.49551766 49.62734902 117.43915882 55.4375 109.875 C59.7055198 103.71137468 59.49688889 98.42671427 59 91 C57.75791222 85.76679191 54.88294785 81.03002631 50.45849609 77.91455078 C41.68284205 73.2355306 31.34611201 74.50089475 21.69091797 74.5847168 C19.21532107 74.59923992 16.7411703 74.58399977 14.265625 74.56640625 C13.13269012 74.59112755 13.13269012 74.59112755 11.97686768 74.61634827 C8.00593637 74.57876626 6.19322616 74.15033806 3.02246094 71.68334961 C1 69 1 69 0.375 65.5 C1.18080826 60.98747376 2.37459978 59.77229613 6 57 C9.04069051 56.31365993 11.99177386 56.37240819 15.09765625 56.43359375 C15.96893661 56.42795914 16.84021698 56.42232452 17.73789978 56.41651917 C20.51331749 56.40009216 23.287138 56.41559748 26.0625 56.4375 C28.84128115 56.4540962 31.61901465 56.46319491 34.39781189 56.44776917 C36.12402168 56.43849099 37.85045299 56.44764831 39.57643127 56.47740173 C43.39375772 56.4599784 45.37295958 56.4409672 48.56030273 54.19946289 C50.33088527 51.9326242 50.33088527 51.9326242 50 48.375 C49.38000199 45.02720459 49.38000199 45.02720459 47.390625 43.828125 C44.16733182 42.71155939 41.15105517 42.56394751 37.75 42.375 C36.48671875 42.30023438 35.2234375 42.22546875 33.921875 42.1484375 C32.95765625 42.09945312 31.9934375 42.05046875 31 42 C30.7525 40.741875 30.505 39.48375 30.25 38.1875 C29.55005835 35.44606188 29.10971837 34.12931094 27.25 31.9375 C24.14188877 30.64245365 22.19828257 31.09613753 19 32 C16.70424397 34.29575603 16.67660401 35.00842525 16.375 38.125 C16.25125 39.40375 16.1275 40.6825 16 42 C8.08 42.495 8.08 42.495 0 43 C0 28.81 0 14.62 0 0 Z " fill="#E9F5FE" transform="translate(100,15)"/>
<path d="M0 0 C1.26027746 -0.01104769 2.52055491 -0.02209538 3.8190226 -0.03347784 C5.21506965 -0.02552076 6.61111457 -0.01718308 8.00715733 -0.00850582 C9.4921316 -0.01383064 10.97710049 -0.02089596 12.46205908 -0.02955288 C16.54386076 -0.04821593 20.62530052 -0.04186276 24.70711744 -0.03139985 C29.10871746 -0.02441817 33.51024236 -0.04039792 37.91182041 -0.05339718 C46.5352606 -0.07505986 55.15856895 -0.07490447 63.78202742 -0.06677163 C70.78987954 -0.06047638 77.79769315 -0.06160431 84.80554485 -0.06804371 C85.80226511 -0.06894536 86.79898537 -0.06984702 87.82590928 -0.070776 C89.85062723 -0.07262717 91.87534517 -0.07448973 93.9000631 -0.07636356 C112.89494158 -0.09294998 131.88974582 -0.08421571 150.88461984 -0.06737798 C168.26880324 -0.05268079 185.65281382 -0.06730821 203.03697496 -0.09614814 C220.88007691 -0.12552937 238.72309907 -0.13651811 256.56622416 -0.12696594 C258.58387409 -0.12594337 260.60152404 -0.12494876 262.619174 -0.12398243 C263.61193449 -0.12350604 264.60469497 -0.12302965 265.62753911 -0.12253882 C272.62745047 -0.12037298 279.62728642 -0.13018784 286.62718105 -0.14475346 C295.15718037 -0.16225508 303.6869593 -0.16219071 312.21694987 -0.1394018 C316.57016075 -0.12823971 320.92298306 -0.12514134 325.27617741 -0.14370251 C329.26051105 -0.16047249 333.24411618 -0.15420428 337.22840232 -0.12948572 C338.67047337 -0.12459047 340.1126028 -0.12815074 341.55462515 -0.14097316 C353.66189378 -0.24086971 353.66189378 -0.24086971 357.55144691 2.60791969 C362.96616546 9.65208899 362.04295425 17.38657291 361.97026157 25.922616 C361.96595203 27.29508647 361.96256549 28.66756008 361.96001929 30.04003495 C361.95257382 33.01742186 361.93877592 35.99468842 361.9200964 38.97202587 C361.88977923 43.81705219 361.87343877 48.66206884 361.85897923 53.50716496 C361.8397821 59.63054818 361.81710616 65.75390127 361.79040941 71.87725642 C361.73831313 83.91079408 361.7146114 95.94424574 361.7015543 107.97788334 C361.69937233 109.87356085 361.69718404 111.76923836 361.6949895 113.66491586 C361.69062193 117.50250646 361.68639366 121.34009718 361.68223035 125.177688 C361.67139319 135.03775096 361.65884034 144.89781016 361.64328098 154.75786686 C361.64173056 155.74715996 361.64018014 156.73645307 361.63858273 157.75572475 C361.61220079 173.78893167 361.54575607 189.82175846 361.46635739 205.85477934 C361.38590806 222.32392372 361.35503201 238.79265451 361.36842459 255.2619912 C361.37498901 265.41642103 361.34202888 275.56915703 361.25815567 285.72324946 C361.20423053 292.68320488 361.1979449 299.64218574 361.22894559 306.60227696 C361.24537809 310.61672508 361.24079714 314.62822629 361.17913723 318.6422987 C359.97781041 335.05444798 359.97781041 335.05444798 365.58948421 349.47990322 C368.65945889 352.15770042 372.12013134 353.74145726 375.77926731 355.50615788 C393.29974518 371.62366429 402.67131287 394.49857359 404.12692356 418.00225163 C404.91308941 440.82960203 397.47751688 463.01272837 382.77926731 480.50615788 C381.90528294 481.59863834 381.90528294 481.59863834 381.01364231 482.71318913 C367.11805419 499.38205639 347.06559724 509.34657049 325.77926731 512.50615788 C308.34833295 513.56794811 292.29606893 513.29312889 276.50402927 505.40206242 C267.83232809 501.4702088 259.36055612 501.69202813 249.9955759 501.79668522 C248.14780359 501.79505996 246.30003201 501.79073548 244.45227146 501.78394413 C240.50276649 501.7749852 236.55391286 501.78450762 232.60447407 501.80884266 C226.35999708 501.84690799 220.11601487 501.84104371 213.87146091 501.82930851 C201.75780295 501.81252574 189.6444486 501.84050991 177.53083897 501.87272739 C162.07536682 501.91131596 146.61994162 501.92735092 131.16443217 501.9075228 C124.95506292 501.90098819 118.7461919 501.91529332 112.53689933 501.94597316 C108.68425223 501.96130225 104.83173089 501.96040241 100.97906208 501.95522976 C99.19077362 501.95629328 97.40247417 501.96427192 95.61425114 501.97960567 C93.17686543 501.99962515 90.74070186 501.99522831 88.30328465 501.98476505 C87.23783879 502.00254476 87.23783879 502.00254476 86.15086877 502.02068365 C82.80895176 501.98110736 81.03455642 501.69333325 78.30901623 499.69499493 C76.77926731 497.50615788 76.77926731 497.50615788 76.77926731 494.00615788 C77.88470735 490.13711775 78.63055716 488.92450249 81.77926731 486.50615788 C84.86394215 485.99834919 84.86394215 485.99834919 88.56228733 485.98717594 C89.58421842 485.97592406 89.58421842 485.97592406 90.62679458 485.96444488 C92.90872272 485.94415152 95.18965878 485.95227292 97.47165012 485.96025944 C99.10769732 485.95152526 100.74373598 485.94104001 102.3797617 485.92893314 C106.82159969 485.90103332 111.2631595 485.89766933 115.7050724 485.89865303 C120.34695345 485.89552734 124.98870858 485.86991633 129.63052464 485.84667301 C138.42063282 485.80608307 147.21066677 485.78576527 156.00085425 485.77269912 C166.00807843 485.7568392 176.01517609 485.71842785 186.02232695 485.67810583 C206.60793202 485.59566592 227.1935312 485.54159938 247.77926731 485.50615788 C247.22827869 484.89272526 246.67729008 484.27929264 246.10960484 483.64727116 C245.3877248 482.8401569 244.66584476 482.03304264 243.92208958 481.20147038 C243.20610096 480.40241276 242.49011234 479.60335514 241.7524271 478.78008366 C235.63161121 471.72628035 231.51327764 463.42454823 227.90426731 454.88115788 C227.47488865 453.87955631 227.47488865 453.87955631 227.03683567 452.85772038 C222.98017571 442.79105832 222.41610181 432.5703022 222.40426731 421.81865788 C222.37977512 420.66688053 222.35528294 419.51510319 222.33004856 418.3284235 C222.30758172 411.57713904 223.08017711 405.53877744 224.8080759 399.04985905 C225.09112835 397.95458015 225.09112835 397.95458015 225.37989902 396.83717442 C225.84042687 395.05862332 226.3090035 393.28215952 226.77926731 391.50615788 C225.46017368 391.51726093 224.14108006 391.52836399 222.78201389 391.5398035 C210.36290925 391.6410742 197.94388816 391.71607293 185.52446461 391.76521873 C179.13917198 391.79133441 172.75421214 391.82676952 166.36911106 391.88335514 C160.20939702 391.93760296 154.05000346 391.96756356 147.89006901 391.98054409 C145.53764645 391.98979685 143.18524182 392.00786498 140.83295536 392.03480816 C137.54286109 392.071001 134.25409829 392.07610712 130.96383762 392.07378483 C129.98704044 392.09176121 129.01024326 392.10973759 128.00384617 392.12825871 C121.43216503 392.07792515 121.43216503 392.07792515 118.14273167 389.19724369 C116.27077689 385.50254427 116.61554034 383.4337364 117.77926731 379.50615788 C120.63948889 376.77064776 122.59764798 376.13428718 126.50982761 376.16799259 C127.45745472 376.16846088 128.40508183 376.16892918 129.3814249 376.16941166 C130.41425098 376.18498615 131.44707706 376.20056065 132.5112009 376.21660709 C134.15085064 376.22300457 134.15085064 376.22300457 135.82362461 376.22953129 C138.19776273 376.23983694 140.57187966 376.25654158 142.94593525 376.27885914 C146.70342899 376.31106587 150.46027223 376.31980444 154.21789646 376.3211298 C164.90146364 376.32674664 175.58438299 376.35524148 186.26754856 376.44756413 C192.80162977 376.50375962 199.33489091 376.51267785 205.86919117 376.4954195 C208.35953242 376.49736462 210.84991768 376.51587529 213.34000874 376.55122852 C216.82417659 376.59928336 220.3041956 376.59193119 223.78854465 376.57207584 C224.81732227 376.59979572 225.84609989 376.6275156 226.90605259 376.65607548 C232.27166192 376.61305534 232.27166192 376.61305534 236.54359913 373.71243 C238.06431065 371.44865398 238.06431065 371.44865398 239.36487865 369.00384045 C241.61028867 365.03864924 244.70519612 361.84398073 247.77926731 358.50615788 C246.80301207 358.50534072 246.80301207 358.50534072 245.80703449 358.50450706 C229.97461121 358.48954324 214.14253628 358.447113 198.31028461 358.37406731 C190.65391698 358.33940609 182.99772959 358.31406033 175.34127903 358.31060123 C168.66830658 358.30756288 161.99565506 358.28709022 155.3228066 358.2456333 C151.7890972 358.22428931 148.25584419 358.21170949 144.72206974 358.22000408 C140.77825677 358.22893461 136.83526541 358.19894322 132.891572 358.1655817 C131.13182796 358.17852016 131.13182796 358.17852016 129.33653355 358.19172001 C121.46236061 358.0796479 121.46236061 358.0796479 118.02224827 355.19150639 C116.31263039 351.4980308 116.63360429 349.37277059 117.77926731 345.50615788 C120.03478464 343.24335094 121.39074949 342.55805423 124.57610035 342.13257027 C125.66079987 342.13315658 126.74549938 342.13374289 127.86306858 342.13434696 C129.73453808 342.1242107 129.73453808 342.1242107 131.64381504 342.11386967 C133.02392809 342.12142288 134.40403978 342.12922861 135.78415012 342.13726139 C137.2397245 342.13479303 138.69529709 342.13095425 140.1508646 342.12584782 C143.28458925 342.1175103 146.41813217 342.11831707 149.55185795 342.12603283 C154.51118969 342.1376197 159.47028793 342.12544905 164.4295969 342.1094141 C176.7505054 342.07322259 189.07140864 342.0669868 201.39236546 342.06951237 C210.96276846 342.07122503 220.53298065 342.06405342 230.10333037 342.0295338 C235.02867844 342.0127702 239.95356073 342.01450868 244.87890673 342.03035653 C247.95061198 342.03617041 251.02209841 342.02538272 254.09376431 342.0101099 C255.51268187 342.00639638 256.93163675 342.0094549 258.35052013 342.01998043 C266.34191988 342.0752864 271.92648956 341.73136963 278.77926731 337.50615788 C281.38819639 336.47939525 284.03449269 335.63248809 286.71676731 334.81865788 C287.42204563 334.6044318 288.12732395 334.39020573 288.85397434 334.16948795 C293.91116101 332.67799703 298.51995658 331.61738197 303.77926731 331.50615788 C304.41058567 331.4871442 305.04190403 331.46813053 305.69235325 331.44854069 C320.21089166 331.05050435 331.93035065 332.47018818 345.77926731 337.50615788 C345.77926731 231.24615788 345.77926731 124.98615788 345.77926731 15.50615788 C232.25926731 15.50615788 118.73926731 15.50615788 1.77926731 15.50615788 C1.77926731 170.93615788 1.77926731 326.36615788 1.77926731 486.50615788 C18.27926731 486.50615788 34.77926731 486.50615788 51.77926731 486.50615788 C56.537888 488.88546822 56.537888 488.88546822 57.77926731 492.50615788 C58.15426731 495.00615788 58.15426731 495.00615788 57.77926731 497.50615788 C55.67114658 500.20453224 54.46893354 501.37355438 51.0675211 502.0275507 C50.03162342 502.03676548 48.99572575 502.04598026 47.92843723 502.05547428 C46.75008808 502.07453831 45.57173893 502.09360233 44.35768223 502.11324406 C43.08785999 502.11142124 41.81803776 502.10959843 40.50973606 502.10772038 C39.20023487 502.11629063 37.89073368 502.12486088 36.54155064 502.13369083 C33.7699575 502.14860132 30.99887384 502.14804554 28.22726536 502.13750553 C24.68936837 502.12593947 21.15357367 502.15971791 17.61602402 502.20619488 C14.22634343 502.24290272 10.83711393 502.23529567 7.44723606 502.23272038 C5.55161175 502.26034962 5.55161175 502.26034962 3.61769199 502.28853703 C-3.00199383 502.21911046 -7.27786405 501.88764227 -12.07234097 497.08608341 C-14.82971926 493.2925587 -14.36247753 489.07163198 -14.35216045 484.60779095 C-14.35421309 483.79034291 -14.35626572 482.97289487 -14.35838056 482.13067567 C-14.36407369 479.36793294 -14.36259047 476.6052397 -14.36117458 473.8424921 C-14.36375689 471.85118724 -14.36676967 469.85988289 -14.37017798 467.86857927 C-14.37826694 462.37804765 -14.38003861 456.88752908 -14.38077545 451.39699221 C-14.38262269 445.48278005 -14.3901683 439.56857472 -14.39691067 433.65436649 C-14.41121667 420.03955166 -14.41702199 406.42473782 -14.42160261 392.80991704 C-14.42393748 386.08457957 -14.42753998 379.35924296 -14.43129799 372.63390616 C-14.44413349 349.62016669 -14.45485326 326.60642771 -14.45830059 303.59268475 C-14.45852222 302.14774226 -14.45874401 300.70279977 -14.45896594 299.25785729 C-14.45918658 297.80939437 -14.45940707 296.36093146 -14.45962739 294.91246855 C-14.46006995 292.00652385 -14.46051706 289.10057914 -14.46096706 286.19463444 C-14.46107645 285.47412787 -14.46118585 284.7536213 -14.46129855 284.01128121 C-14.46493056 260.63989101 -14.48085603 237.2685318 -14.50415743 213.89715347 C-14.52873842 189.1972695 -14.5424726 164.49740325 -14.54366851 139.79750669 C-14.54383997 137.0875504 -14.5440554 134.37759411 -14.54430294 131.66763783 C-14.54435871 131.00035276 -14.54441448 130.33306769 -14.54447194 129.64556187 C-14.54555243 119.56127615 -14.55487202 109.47701908 -14.56848812 99.39274311 C-14.58385427 87.92685248 -14.5890302 76.46101497 -14.58075002 64.99511601 C-14.57683128 59.14141546 -14.57783259 53.287822 -14.59180737 47.43413448 C-14.60447298 42.08003933 -14.60341378 36.72613255 -14.59121665 31.37203793 C-14.58924687 29.43059614 -14.59239662 27.48914134 -14.60106102 25.54771788 C-14.61206249 22.91698256 -14.60473068 20.28692281 -14.59266949 17.65620708 C-14.60026468 16.89530085 -14.60785987 16.13439461 -14.61568522 15.35043061 C-14.55594748 9.35106604 -13.11895125 6.38964532 -8.92202848 2.22529274 C-5.67392592 0.15816393 -3.82874128 0.00419119 0 0 Z " fill="#020202" transform="translate(61.22073268890381,-0.5061578750610352)"/>
<path d="M0 0 C12.21 0 24.42 0 37 0 C37 14.19 37 28.38 37 43 C37.99 42.67 38.98 42.34 40 42 C42.22818441 41.93062938 44.45834524 41.91542916 46.6875 41.9375 C48.45673828 41.95103516 48.45673828 41.95103516 50.26171875 41.96484375 C51.16535156 41.97644531 52.06898437 41.98804688 53 42 C52.8453125 40.14375 52.8453125 40.14375 52.6875 38.25 C52.69359446 34.81882161 52.81910506 34.21813802 55.125 31.4375 C58 30 58 30 61.0625 29.9375 C64.78105976 31.28251098 66.0288205 32.58834317 68 36 C68.06392796 37.99897804 68.07187608 40.00129196 68 42 C68.95261719 41.96519531 69.90523438 41.93039063 70.88671875 41.89453125 C72.14097656 41.86746094 73.39523438 41.84039062 74.6875 41.8125 C75.92886719 41.77769531 77.17023438 41.74289063 78.44921875 41.70703125 C82.23720101 42.01957104 84.05804058 42.63446886 87 45 C88.125 48.375 88.125 48.375 88 52 C86.01978431 54.7480697 84.43883724 56.67590586 81.02828979 57.44412231 C78.63959316 57.60864677 76.29622702 57.6135655 73.90234375 57.56640625 C73.03106339 57.57204086 72.15978302 57.57767548 71.26210022 57.58348083 C68.48668251 57.59990784 65.712862 57.58440252 62.9375 57.5625 C60.15871885 57.5459038 57.38098535 57.53680509 54.60218811 57.55223083 C52.87597832 57.56150901 51.14954701 57.55235169 49.42356873 57.52259827 C44.62422688 57.54212298 44.62422688 57.54212298 40.47094727 59.80834961 C38.30953413 63.0287655 38.45906013 65.21342091 39 69 C40.4553754 71.34913455 40.4553754 71.34913455 43 73 C45.83943234 73.35882523 48.30019624 73.48766655 51.1328125 73.43359375 C52.76041756 73.44320857 54.38802171 73.45297927 56.015625 73.46289062 C58.56293945 73.45433767 61.10999676 73.43763163 63.65722656 73.4152832 C82.74774916 73.30187048 82.74774916 73.30187048 90 79 C96.39141893 85.81842147 97.47645108 91.40975633 97.4140625 100.6640625 C96.62169607 107.0478449 93.03574647 110.96425353 88.625 115.375 C81.80392046 119.59757305 75.97045716 120.44098841 68 120 C68.0825 120.886875 68.165 121.77375 68.25 122.6875 C68 126 68 126 66.5 128.875 C63.47084317 131.44978331 61.79349229 131.74545844 57.90625 131.484375 C56 131 56 131 53.5 128.875 C52 126 52 126 52 120 C47.05 120 42.1 120 37 120 C37 132.87 37 145.74 37 159 C33.7 159.33 30.4 159.66 27 160 C23.63212101 163.36787899 23.6239959 163.69331019 23.61231995 168.15525818 C23.60241531 169.2221991 23.59251068 170.28914001 23.58230591 171.38841248 C23.58680756 172.55888626 23.5913092 173.72936005 23.59594727 174.93530273 C23.58565239 176.78437729 23.58565239 176.78437729 23.57514954 178.67080688 C23.5599668 182.05320694 23.55839228 185.43505673 23.56409192 188.81745028 C23.56717944 191.64057573 23.56109616 194.46365112 23.55505317 197.28676945 C23.540999 203.94683711 23.5425764 210.60677653 23.55395508 217.2668457 C23.56543583 224.13852235 23.55136374 231.0098087 23.5245586 237.8814339 C23.50240863 243.78047449 23.49576264 249.6793925 23.50163502 255.57847172 C23.50500771 259.10204064 23.50256927 262.62535939 23.48538399 266.14889336 C23.46705828 270.07785238 23.48109481 274.00633073 23.49829102 277.93530273 C23.48862305 279.10375229 23.47895508 280.27220184 23.46899414 281.47605896 C23.47882828 282.5458197 23.48866241 283.61558044 23.49879456 284.71775818 C23.49910848 286.11119524 23.49910848 286.11119524 23.49942875 287.53278255 C24.19646833 290.96835384 25.09875057 292.01435744 28 294 C30.97 294.33 33.94 294.66 37 295 C37 305.56 37 316.12 37 327 C41.34542969 326.94199219 45.69085938 326.88398438 50.16796875 326.82421875 C53.63850943 326.79205122 57.10900784 326.76494196 60.57961273 326.74124908 C64.24031107 326.7148729 67.90042818 326.67964385 71.56079102 326.62280273 C75.08808948 326.56837235 78.61482527 326.53855698 82.14251137 326.52561378 C84.13956402 326.51191361 86.13639106 326.47289706 88.13310242 326.43351746 C98.23563332 326.43039246 98.23563332 326.43039246 101.3527832 329.30786133 C103 332 103 332 103.1875 335.5625 C102.00411387 338.98809144 101.17937771 340.32055647 98.12615967 342.20373535 C93.19354677 344.0510403 87.69631486 343.47566677 82.5078125 343.390625 C80.55619705 343.38213531 80.55619705 343.38213531 78.56515503 343.37347412 C75.12240319 343.35827244 71.68033682 343.31903993 68.237854 343.2746582 C64.71855947 343.23358604 61.19915312 343.21543779 57.6796875 343.1953125 C50.78615002 343.15253855 43.89317859 343.08223486 37 343 C37 348.94 37 354.88 37 361 C38.79139404 360.98428955 40.58278809 360.9685791 42.4284668 360.95239258 C48.35560897 360.90396406 54.2827443 360.86952155 60.21002483 360.84456348 C63.80280829 360.82892561 67.39537715 360.80772221 70.98803711 360.77368164 C74.45694391 360.74102035 77.92564464 360.72313286 81.39469337 360.71536827 C83.35838752 360.70714982 85.32199908 360.68374108 87.28556824 360.66011047 C88.4864357 360.65988388 89.68730316 360.65965729 90.92456055 360.65942383 C91.97935104 360.65276199 93.03414154 360.64610016 94.12089539 360.63923645 C97.47424424 361.05942474 99.33429205 361.9402134 102 364 C103.0625 367.375 103.0625 367.375 103 371 C101.23358828 373.80189446 99.96950178 375.51524911 97 377 C95.09018054 377.09119671 93.17712814 377.11752537 91.26513672 377.11352539 C90.06404266 377.11344986 88.86294861 377.11337433 87.62545776 377.11329651 C86.32335358 377.10813522 85.02124939 377.10297394 83.6796875 377.09765625 C82.33733167 377.09579138 80.99497516 377.0943678 79.65261841 377.09336853 C76.11804325 377.08954878 72.58350913 377.07972312 69.0489502 377.06866455 C65.44279536 377.05843878 61.8366339 377.05386841 58.23046875 377.04882812 C51.15362744 377.03810037 44.07682071 377.02050795 37 377 C37 383.6 37 390.2 37 397 C38.65291046 396.99111755 40.30582092 396.98223511 42.00881958 396.9730835 C57.57660366 396.89203989 73.14432229 396.83181442 88.71226692 396.79275131 C96.71614179 396.77213379 104.71985909 396.74402884 112.72363281 396.69824219 C119.70045162 396.65834942 126.6771563 396.63256129 133.65408599 396.62364602 C137.34772171 396.61843534 141.04103094 396.60620571 144.73456192 396.57707977 C148.85980915 396.5448139 152.98449026 396.54404214 157.10986328 396.54589844 C158.33193985 396.53151733 159.55401642 396.51713623 160.81312561 396.50231934 C167.14466389 396.53320199 171.26473972 396.59190451 176 401 C179.17638949 405.76458424 178.33327939 411.19916383 178.31567383 416.76904297 C178.31252127 418.8608852 178.33595219 420.95130209 178.36132812 423.04296875 C178.3636021 424.38020656 178.36430416 425.71744815 178.36328125 427.0546875 C178.36626221 428.26624512 178.36924316 429.47780273 178.37231445 430.72607422 C177.95860553 434.36399986 177.26777149 436.14479186 175 439 C171.33544853 441.62553207 168.83330788 442.37346546 164.34953308 442.36076355 C163.22357727 442.36488754 162.09762146 442.36901154 160.93754578 442.3732605 C159.09903801 442.35708176 159.09903801 442.35708176 157.22338867 442.34057617 C155.92543365 442.34101425 154.62747864 442.34145233 153.29019165 442.34190369 C149.73882288 442.34276327 146.18775903 442.32514374 142.63646102 442.30418181 C138.92223268 442.28540876 135.2079971 442.28366408 131.49372864 442.28010559 C124.46375834 442.27078696 117.43392825 442.24617569 110.40401965 442.21605712 C102.39923905 442.18250741 94.3944517 442.16602568 86.38961828 442.15097082 C69.9263172 442.1196259 53.46320922 442.06461618 37 442 C37 451.57 37 461.14 37 471 C24.79 471 12.58 471 0 471 C0 315.57 0 160.14 0 0 Z " fill="#D6E9FB" transform="translate(63,15)"/>
<path d="M0 0 C1.21171875 0.41378906 2.4234375 0.82757813 3.671875 1.25390625 C12.13187558 4.29758616 19.00746305 8.26340415 26 14 C26.69351563 14.51949219 27.38703125 15.03898437 28.1015625 15.57421875 C41.17462319 25.91287431 49.76156948 42.92647121 53 59 C53.36620862 63.0123871 53.37718842 66.9737926 53.3125 71 C53.31572266 72.00289063 53.31894531 73.00578125 53.32226562 74.0390625 C53.25246051 83.86254639 51.96754426 93.02083574 47.875 102 C47.57150635 102.67861084 47.2680127 103.35722168 46.95532227 104.05639648 C44.05706927 110.29475882 40.3416945 115.6695138 36 121 C35.53207031 121.63035156 35.06414062 122.26070313 34.58203125 122.91015625 C23.79453139 136.79787601 5.09120608 145.38198288 -12 148 C-33.4903395 149.50382685 -52.85971881 145.08559081 -70 131.5625 C-83.63403432 119.5792232 -94.37734485 103.28728783 -97 85 C-98.66857699 57.15892993 -98.66857699 57.15892993 -93 45 C-92.50242187 43.84886719 -92.00484375 42.69773437 -91.4921875 41.51171875 C-82.7568248 22.14607558 -66.93064194 8.16878213 -47.25 0.625 C-45.50836239 0.05702006 -43.75854504 -0.48675337 -42 -1 C-41.27425781 -1.22429687 -40.54851562 -1.44859375 -39.80078125 -1.6796875 C-27.28885614 -4.86771728 -12.1063245 -4.28900534 0 0 Z " fill="#4EBF22" transform="translate(396,349)"/>
<path d="M0 0 C1.16639511 -0.00852997 2.33279022 -0.01705994 3.53453064 -0.02584839 C5.44844856 -0.02448883 5.44844856 -0.02448883 7.40103149 -0.02310181 C8.76133086 -0.02908762 10.12162683 -0.03589329 11.48191833 -0.04345703 C15.17413352 -0.06111896 18.866256 -0.06581249 22.55850935 -0.0670886 C24.86620134 -0.06851066 27.1738698 -0.07278128 29.48155594 -0.07808304 C37.53497056 -0.09658398 45.58831898 -0.10475358 53.64175415 -0.10317993 C61.14447414 -0.10197852 68.64690646 -0.1230805 76.14955366 -0.15466726 C82.5946991 -0.18083327 89.03975061 -0.1915471 95.48494875 -0.19026911 C99.33274425 -0.18975957 103.18028407 -0.19543826 107.02802658 -0.21662521 C110.64788024 -0.23601333 114.2672345 -0.23612866 117.88710594 -0.22159195 C119.84448544 -0.21850951 121.80186502 -0.23517635 123.75917053 -0.25247192 C134.56846564 -0.17510312 134.56846564 -0.17510312 139.28237915 4.26742554 C142.45876864 9.03200977 141.61565854 14.46658936 141.59805298 20.03646851 C141.59490042 22.12831074 141.61833134 24.21872763 141.64370728 26.31039429 C141.64598125 27.6476321 141.64668331 28.98487369 141.6456604 30.32211304 C141.64864136 31.53367065 141.65162231 32.74522827 141.6546936 33.99349976 C141.24731972 37.57571864 140.44955023 39.4153661 138.28237915 42.26742554 C134.84265059 44.56057791 133.57581248 44.52186663 129.52642822 44.53485107 C127.72624489 44.54764603 127.72624489 44.54764603 125.88969421 44.56069946 C124.57117966 44.55979309 123.2526651 44.55888672 121.89419556 44.55795288 C120.49301291 44.56393658 119.09183356 44.57074175 117.69065857 44.57830811 C113.88275311 44.5959921 110.0749375 44.6006645 106.26699495 44.60193968 C103.08857121 44.6038381 99.91016843 44.61119502 96.73175275 44.61828387 C89.23266691 44.63457472 81.73362909 44.63945221 74.23452759 44.63803101 C66.4983489 44.63682952 58.76244917 44.65793087 51.02634108 44.68951833 C44.3850551 44.71566937 37.74386029 44.72639879 31.10252321 44.72512019 C27.13569931 44.72461018 23.16912325 44.73031425 19.20235062 44.75147629 C15.47089248 44.77083904 11.73991906 44.77099705 8.00844383 44.75644302 C5.98764577 44.75335448 3.96684777 44.77004528 1.94612122 44.787323 C0.74035934 44.77893402 -0.46540253 44.77054504 -1.70770264 44.76190186 C-2.75372839 44.76299139 -3.79975414 44.76408092 -4.87747765 44.76520348 C-8.47112034 44.13536339 -10.14160207 42.80777047 -12.71762085 40.26742554 C-14.40888278 35.19363976 -13.98232535 29.80863276 -14.01278687 24.49838257 C-14.02431423 23.09788923 -14.04477855 21.69744008 -14.0743103 20.29721069 C-14.11707759 18.26875096 -14.13316549 16.24159314 -14.1434021 14.21273804 C-14.15798462 13.00118042 -14.17256714 11.7896228 -14.18759155 10.54135132 C-13.6228891 6.607502 -12.52577843 5.03457236 -9.71762085 2.26742554 C-6.43631773 0.20424969 -3.84173898 0.01270412 0 0 Z " fill="#030503" transform="translate(99.71762084960938,411.7325744628906)"/>
<path d="M0 0 C1.21171875 0.41378906 2.4234375 0.82757813 3.671875 1.25390625 C12.13187558 4.29758616 19.00746305 8.26340415 26 14 C26.69351563 14.51949219 27.38703125 15.03898437 28.1015625 15.57421875 C41.17462319 25.91287431 49.76156948 42.92647121 53 59 C53.36620862 63.0123871 53.37718842 66.9737926 53.3125 71 C53.31572266 72.00289063 53.31894531 73.00578125 53.32226562 74.0390625 C53.25246051 83.86254639 51.96754426 93.02083574 47.875 102 C47.57150635 102.67861084 47.2680127 103.35722168 46.95532227 104.05639648 C44.05706927 110.29475882 40.3416945 115.6695138 36 121 C35.53207031 121.63035156 35.06414062 122.26070313 34.58203125 122.91015625 C23.79453139 136.79787601 5.09120608 145.38198288 -12 148 C-33.4903395 149.50382685 -52.85971881 145.08559081 -70 131.5625 C-83.63403432 119.5792232 -94.37734485 103.28728783 -97 85 C-98.66857699 57.15892993 -98.66857699 57.15892993 -93 45 C-92.50242187 43.84886719 -92.00484375 42.69773437 -91.4921875 41.51171875 C-82.7568248 22.14607558 -66.93064194 8.16878213 -47.25 0.625 C-45.50836239 0.05702006 -43.75854504 -0.48675337 -42 -1 C-41.27425781 -1.22429687 -40.54851562 -1.44859375 -39.80078125 -1.6796875 C-27.28885614 -4.86771728 -12.1063245 -4.28900534 0 0 Z M-58 21 C-58.80050781 21.52335937 -59.60101563 22.04671875 -60.42578125 22.5859375 C-73.41823244 31.78611882 -81.69784573 46.99842789 -84.52734375 62.43359375 C-86.7191502 78.97176971 -83.21982053 94.04322443 -74 108 C-71.21203924 111.57520867 -68.22365495 114.81579537 -65 118 C-64.38640625 118.63550781 -63.7728125 119.27101563 -63.140625 119.92578125 C-52.16933802 130.49853858 -36.89197717 135.49034116 -21.91162109 135.28369141 C-3.89380037 134.71353434 12.43166471 127.58610121 24.9296875 114.4609375 C30.71111604 107.58867338 36.95523111 99.00170639 37.375 89.75 C37.31559625 86.11509227 37.31559625 86.11509227 35.625 84 C34.03412093 82.82530086 34.03412093 82.82530086 32 83 C32.33 82.34 32.66 81.68 33 81 C33.09829064 78.34326192 33.13901663 75.7186515 33.125 73.0625 C33.12886719 72.33353516 33.13273437 71.60457031 33.13671875 70.85351562 C33.1308304 67.64142264 33.02261853 65.0678556 32 62 C32.639375 61.690625 33.27875 61.38125 33.9375 61.0625 C35.93610821 60.1654837 35.93610821 60.1654837 37 59 C38.29416802 50.74967884 34.33952466 43.79426483 30 37 C27.24709174 33.3769761 24.26279014 30.16615698 21 27 C20.36320312 26.35417969 19.72640625 25.70835937 19.0703125 25.04296875 C6.65530121 13.22037502 -10.08998879 9.4061865 -26.734375 9.7265625 C-38.3708077 10.26029534 -48.43801125 14.51495712 -58 21 Z " fill="#F8DA2F" transform="translate(396,349)"/>
<path d="M0 0 C0.92060211 -0.00671722 1.84120422 -0.01343445 2.78970337 -0.02035522 C5.83845387 -0.03938167 8.88698481 -0.04326164 11.93579102 -0.04541016 C14.05184521 -0.0518344 16.1678985 -0.05856248 18.28395081 -0.06558228 C22.72171082 -0.07756636 27.15939291 -0.08126189 31.59716797 -0.08007812 C37.28822505 -0.07987477 42.97878369 -0.1071891 48.66972256 -0.14162254 C53.0405762 -0.16384068 57.41130887 -0.16791724 61.78221321 -0.16685867 C63.88061302 -0.16922184 65.9790158 -0.1780854 68.07736015 -0.19352341 C71.01026384 -0.21308217 73.94207942 -0.20738529 76.875 -0.1953125 C77.74422592 -0.20655151 78.61345184 -0.21779053 79.50901794 -0.22937012 C83.34433536 -0.18917764 85.35710436 -0.16802218 88.54530334 2.09823608 C90.6619167 5.28325381 90.47729094 7.55764848 90.00219727 11.29052734 C88.45956914 13.39411115 87.32111409 14.13106893 85.00219727 15.29052734 C82.28640141 15.38369405 79.59645829 15.41630435 76.88061523 15.40405273 C76.04151611 15.40419876 75.20241699 15.40434479 74.33789062 15.40449524 C71.55669596 15.40379703 68.77556777 15.3960089 65.99438477 15.38818359 C64.06910234 15.38631909 62.14381944 15.38489534 60.21853638 15.38389587 C55.14518937 15.38007325 50.07187088 15.37024513 44.99853516 15.35919189 C39.82397853 15.3489723 34.64941732 15.34439708 29.47485352 15.33935547 C19.31728889 15.32862265 9.15974544 15.31154927 -0.99780273 15.29052734 C-0.99780273 19.91052734 -0.99780273 24.53052734 -0.99780273 29.29052734 C45.20219727 29.29052734 91.40219727 29.29052734 139.00219727 29.29052734 C139.00219727 24.67052734 139.00219727 20.05052734 139.00219727 15.29052734 C137.31610352 15.33693359 135.63000977 15.38333984 133.89282227 15.43115234 C131.6792983 15.4686697 129.46575519 15.50506989 127.25219727 15.54052734 C125.58543945 15.59080078 125.58543945 15.59080078 123.88500977 15.64208984 C122.81508789 15.65498047 121.74516602 15.66787109 120.64282227 15.68115234 C119.16604004 15.71257324 119.16604004 15.71257324 117.65942383 15.74462891 C114.23896119 15.1600956 113.08750547 14.01634906 111.00219727 11.29052734 C110.45204628 7.43947046 110.26844287 5.29759935 112.59619141 2.1027832 C115.844567 -0.34396383 117.95729382 -0.2115763 121.99829102 -0.20556641 C123.00412987 -0.20774925 123.00412987 -0.20774925 124.0302887 -0.2099762 C125.44487869 -0.20832045 126.8594873 -0.19679518 128.27392578 -0.17602539 C130.42957828 -0.1471084 132.58276289 -0.15541269 134.73852539 -0.16845703 C147.58220651 -0.11031296 147.58220651 -0.11031296 152.78979492 5.06811523 C154.43928261 8.09173312 154.39063422 10.41440836 154.40063477 13.84912109 C154.40450195 15.12207031 154.40836914 16.39501953 154.41235352 17.70654297 C154.40606934 18.3669458 154.39978516 19.02734863 154.39331055 19.70776367 C154.37727352 21.71846701 154.39316003 23.7271525 154.41235352 25.73779297 C154.40848633 27.01203125 154.40461914 28.28626953 154.40063477 29.59912109 C154.39725098 30.76241943 154.39386719 31.92571777 154.39038086 33.12426758 C153.95338373 36.68868001 153.21713339 38.47875034 151.00219727 41.29052734 C147.10494394 44.14507803 144.34126443 44.66792235 139.5501709 44.6782074 C138.2463295 44.68811203 136.9424881 44.69801666 135.59913635 44.70822144 C134.16122342 44.70398366 132.7233114 44.69942582 131.28540039 44.69458008 C129.76569619 44.70028452 128.24599627 44.70724907 126.7263031 44.71537781 C122.60443226 44.73331492 118.48277423 44.73214 114.36087608 44.72643542 C110.91890127 44.7233448 107.4769674 44.72943451 104.03499842 44.73547417 C95.91546884 44.74951918 87.79604448 44.74795792 79.67651367 44.73657227 C71.30067911 44.72508675 62.92516459 44.73917394 54.5493722 44.76596874 C47.35602389 44.78811898 40.1627761 44.79476478 32.96939611 44.78889233 C28.67398253 44.78552043 24.37877418 44.78795335 20.08338928 44.80514336 C16.04492586 44.82060009 12.00693709 44.81667147 7.96849251 44.79783821 C6.48703668 44.79414897 5.00554578 44.79727063 3.52412224 44.807724 C1.50085865 44.82091015 -0.52252736 44.80699301 -2.54577637 44.79173279 C-4.24365673 44.79141886 -4.24365673 44.79141886 -5.97583771 44.79109859 C-9.66962336 44.17924409 -11.3211398 42.85312109 -13.99780273 40.29052734 C-17.52184758 35.22629504 -16.36684066 28.31202242 -16.37280273 22.41552734 C-16.39729492 21.14837891 -16.42178711 19.88123047 -16.44702148 18.57568359 C-16.48373215 6.93840367 -16.48373215 6.93840367 -11.99780273 2.29052734 C-8.03465631 -0.35157027 -4.60139106 -0.00478688 0 0 Z " fill="#010102" transform="translate(229.997802734375,51.70947265625)"/>
<path d="M0 0 C10.4124168 8.13045028 18.99968198 17.49904594 23.25 30.25 C23.61859373 33.76581712 23.85319333 37.04361334 22.25 40.25 C19.08009169 41.83495415 15.70936747 41.96140218 12.25 41.25 C9.65742968 39.24524395 8.61880166 37.13489189 7.4375 34.125 C2.19447116 21.96353837 -5.78000058 13.29626361 -18.1328125 8.21484375 C-30.92354287 3.49945509 -44.11894549 4.20344437 -56.734375 9.50390625 C-68.74431778 15.59181924 -76.57292786 25.36002896 -81.14135742 37.97900391 C-82.28824223 42.25831498 -82.28013006 46.53050138 -82.25 50.9375 C-82.24427979 51.90776123 -82.23855957 52.87802246 -82.23266602 53.87768555 C-81.90416292 67.13837113 -77.08931517 76.69662147 -67.875 86.1796875 C-57.37855795 96.0412641 -45.59502799 98.79750547 -31.52734375 98.55859375 C-19.59493893 97.5837644 -8.77527862 91.74923058 -0.5 83.1875 C3.58064603 78.33438599 6.15363825 72.90657521 8.8046875 67.19140625 C10.25 64.25 10.25 64.25 12.25 62.25 C19.15410959 61.70205479 19.15410959 61.70205479 22.25 63.25 C23.99120589 66.73241179 24.01621379 69.53244423 23.25 73.25 C17.22696597 89.60959408 5.00580148 102.02180232 -10.75390625 109.41015625 C-16.95391137 112.01876897 -22.99584109 113.88721737 -29.75 114.25 C-31.51537109 114.34667969 -31.51537109 114.34667969 -33.31640625 114.4453125 C-50.18056064 115.06630751 -64.28130916 109.99363226 -77.0625 98.8125 C-78.6404235 97.30767519 -80.20415821 95.78776248 -81.75 94.25 C-82.70519531 93.34701172 -82.70519531 93.34701172 -83.6796875 92.42578125 C-93.6499918 82.2117584 -98.73598749 66.36388986 -99.125 52.375 C-98.65890569 35.40916722 -92.82598233 19.44983856 -80.75 7.25 C-57.92783685 -12.65869551 -25.79897809 -18.11340839 0 0 Z " fill="#030300" transform="translate(409.75,369.75)"/>
<path d="M0 0 C0 0.66 0 1.32 0 2 C-1.31224136 3.07419304 -2.67724678 4.08426609 -4.0625 5.0625 C-13.16823314 11.99884217 -20.66803481 22.62572079 -23 34 C-23.2475 35.175625 -23.495 36.35125 -23.75 37.5625 C-23.78080608 41.63660402 -21.83192021 43.64532481 -19.06347656 46.48803711 C-16.75729004 48.71823903 -14.4048658 50.87622241 -12 53 C-8.01227068 51.4180231 -5.47775677 48.61920099 -2.60546875 45.5546875 C-1.55739755 44.46671824 -0.50854496 43.37950127 0.54101562 42.29296875 C2.18166551 40.58425537 3.81627441 38.87098009 5.43774414 37.14404297 C7.01158569 35.47313315 8.60694711 33.82543183 10.20703125 32.1796875 C10.92147148 31.40164261 10.92147148 31.40164261 11.65034485 30.60787964 C14.3711163 27.84642348 15.80881965 27.02191748 19.7097168 26.57470703 C23 27 23 27 25.4375 28.625 C27 31 27 31 27.6875 33.75 C25.82327247 42.56271194 14.74280334 50.41009156 8.47338867 56.65698242 C6.67052659 58.45442236 4.87315015 60.25722661 3.07617188 62.06054688 C1.93000853 63.20605047 0.78353558 64.35124439 -0.36328125 65.49609375 C-0.89971756 66.03455429 -1.43615387 66.57301483 -1.98884583 67.12779236 C-6.67503574 71.78430814 -6.67503574 71.78430814 -10.6875 72.4375 C-15.38256937 71.8173965 -17.72310305 69.25750703 -21 66 C-17.97743408 76.01224961 -11.84340993 84.00534691 -3.76171875 90.5625 C-2.05916064 91.95172701 -0.52664929 93.4216795 1 95 C-14.72099946 95.57282994 -26.8042364 93.28167815 -39.125 82.875 C-47.76874998 74.78240671 -53.78703018 64.70037807 -54.46875 52.73046875 C-54.50287813 50.88309835 -54.5126936 49.03514201 -54.5 47.1875 C-54.49427979 46.21917236 -54.48855957 45.25084473 -54.48266602 44.25317383 C-54.15639322 31.16161539 -48.89461401 22.08720099 -39.90234375 12.84375 C-28.17814542 1.76055722 -15.71408315 -0.49363612 0 0 Z " fill="#46A71F" transform="translate(381,374)"/>
<path d="M0 0 C3.71855976 1.34501098 4.9663205 2.65084317 6.9375 6.0625 C7.00142796 8.06147804 7.00937608 10.06379196 6.9375 12.0625 C7.89011719 12.02769531 8.84273437 11.99289063 9.82421875 11.95703125 C11.07847656 11.92996094 12.33273438 11.90289062 13.625 11.875 C14.86636719 11.84019531 16.10773438 11.80539063 17.38671875 11.76953125 C21.17470101 12.08207104 22.99554058 12.69696886 25.9375 15.0625 C27.0625 18.4375 27.0625 18.4375 26.9375 22.0625 C24.95728431 24.8105697 23.37633724 26.73840586 19.96578979 27.50662231 C17.57709316 27.67114677 15.23372702 27.6760655 12.83984375 27.62890625 C11.96856339 27.63454086 11.09728302 27.64017548 10.19960022 27.64598083 C7.42418251 27.66240784 4.650362 27.64690252 1.875 27.625 C-0.90378115 27.6084038 -3.68151465 27.59930509 -6.46031189 27.61473083 C-8.18652168 27.62400901 -9.91295299 27.61485169 -11.63893127 27.58509827 C-16.43827312 27.60462298 -16.43827312 27.60462298 -20.59155273 29.87084961 C-22.75296587 33.0912655 -22.60343987 35.27592091 -22.0625 39.0625 C-20.6071246 41.41163455 -20.6071246 41.41163455 -18.0625 43.0625 C-15.22306766 43.42132523 -12.76230376 43.55016655 -9.9296875 43.49609375 C-8.30208244 43.50570857 -6.67447829 43.51547927 -5.046875 43.52539062 C-2.49956055 43.51683767 0.04749676 43.50013163 2.59472656 43.4777832 C21.68524916 43.36437048 21.68524916 43.36437048 28.9375 49.0625 C35.32891893 55.88092147 36.41395108 61.47225633 36.3515625 70.7265625 C35.55919607 77.1103449 31.97324647 81.02675353 27.5625 85.4375 C20.74142046 89.66007305 14.90795716 90.50348841 6.9375 90.0625 C7.02 90.949375 7.1025 91.83625 7.1875 92.75 C6.9375 96.0625 6.9375 96.0625 5.4375 98.9375 C2.40834317 101.51228331 0.73099229 101.80795844 -3.15625 101.546875 C-5.0625 101.0625 -5.0625 101.0625 -7.5625 98.9375 C-9.26810432 95.66842505 -9.18305287 93.68913232 -9.0625 90.0625 C-10.08730469 90.12050781 -11.11210938 90.17851562 -12.16796875 90.23828125 C-13.52860011 90.28519957 -14.88928096 90.33069752 -16.25 90.375 C-16.92353516 90.41689453 -17.59707031 90.45878906 -18.29101562 90.50195312 C-22.22351775 90.59786781 -23.89752955 90.18908517 -27.05078125 87.76953125 C-29.0625 85.0625 -29.0625 85.0625 -29.0625 81.4375 C-28.0779787 78.1147406 -27.68910758 77.1117836 -25.0625 75.0625 C-22.03073339 74.75491861 -19.19401287 74.62150862 -16.16015625 74.62109375 C-15.28604599 74.60788589 -14.41193573 74.59467804 -13.51133728 74.58106995 C-10.71585928 74.54014408 -7.92070996 74.51849873 -5.125 74.5 C-2.33296145 74.47620217 0.45876786 74.44804892 3.25062561 74.40821838 C4.98785138 74.38389684 6.72524078 74.36900942 8.46263123 74.36460876 C9.64889854 74.34932884 9.64889854 74.34932884 10.85913086 74.33374023 C11.89812782 74.32732765 11.89812782 74.32732765 12.95811462 74.32078552 C15.31656363 74.01303684 16.91510861 73.30221194 18.9375 72.0625 C20.46241998 69.01266004 20.17312548 66.4201631 19.9375 63.0625 C18.99799997 61.20159453 18.99799997 61.20159453 16.9375 60.0625 C14.18664548 59.79111188 11.65129766 59.69304996 8.90234375 59.7265625 C7.2714805 59.71403675 5.64062111 59.70099905 4.00976562 59.6875 C1.45143572 59.68359229 -1.10650326 59.68739332 -3.66479492 59.70214844 C-23.76984463 59.7724663 -23.76984463 59.7724663 -31.65234375 52.61987305 C-33 51.125 -33 51.125 -35.0625 48.0625 C-35.9596875 46.763125 -35.9596875 46.763125 -36.875 45.4375 C-39.23687912 38.72479091 -39.19199249 30.53987995 -36.30859375 23.9453125 C-32.72295157 18.52750833 -27.31913079 13.91631653 -21.0625 12.0625 C-17.73046875 11.8671875 -17.73046875 11.8671875 -14.25 11.9375 C-12.50783203 11.96457031 -12.50783203 11.96457031 -10.73046875 11.9921875 C-9.85003906 12.01539063 -8.96960938 12.03859375 -8.0625 12.0625 C-8.165625 10.825 -8.26875 9.5875 -8.375 8.3125 C-8.36890554 4.88132161 -8.24339494 4.28063802 -5.9375 1.5 C-3.0625 0.0625 -3.0625 0.0625 0 0 Z " fill="#040405" transform="translate(124.0625,44.9375)"/>
<path d="M0 0 C41.91 0 83.82 0 127 0 C127 8.58 127 17.16 127 26 C85.09 26 43.18 26 0 26 C0 17.42 0 8.84 0 0 Z " fill="#F6F6F6" transform="translate(142,269)"/>
<path d="M0 0 C41.91 0 83.82 0 127 0 C127 8.25 127 16.5 127 25 C85.09 25 43.18 25 0 25 C0 16.75 0 8.5 0 0 Z " fill="#FBFBFB" transform="translate(142,229)"/>
<path d="M0 0 C41.58 0 83.16 0 126 0 C126 8.25 126 16.5 126 25 C84.42 25 42.84 25 0 25 C0 16.75 0 8.5 0 0 Z " fill="#FEFEFE" transform="translate(142,189)"/>
<path d="M0 0 C28.38 0 56.76 0 86 0 C86 8.58 86 17.16 86 26 C57.62 26 29.24 26 0 26 C0 17.42 0 8.84 0 0 Z " fill="#84C1F4" transform="translate(283,269)"/>
<path d="M0 0 C6.93 0 13.86 0 21 0 C21.495 2.97 21.495 2.97 22 6 C25.04763934 7.01587978 27.34718967 7.19804406 30.54296875 7.31640625 C32.15268555 7.37924805 32.15268555 7.37924805 33.79492188 7.44335938 C34.91447266 7.48267578 36.03402344 7.52199219 37.1875 7.5625 C38.31865234 7.60568359 39.44980469 7.64886719 40.61523438 7.69335938 C43.41001025 7.7994901 46.20498898 7.90025397 49 8 C49 12.62 49 17.24 49 22 C2.8 22 -43.4 22 -91 22 C-91 17.38 -91 12.76 -91 8 C-89.9314679 7.98969254 -88.86293579 7.97938507 -87.76202393 7.96876526 C-77.69737006 7.87105429 -67.63277834 7.76832231 -57.56822586 7.66066074 C-52.39381278 7.60547126 -47.219394 7.55205756 -42.04492188 7.50268555 C-37.05228508 7.45498345 -32.05971666 7.40263843 -27.06716156 7.34705925 C-25.16138154 7.32666221 -23.25558278 7.30794476 -21.34976959 7.29092598 C-18.68265507 7.26682335 -16.01566934 7.23677672 -13.34863281 7.20532227 C-12.1639592 7.19668907 -12.1639592 7.19668907 -10.95535278 7.18788147 C-7.47352109 7.14113579 -4.35130994 6.93013936 -1 6 C-0.67 4.02 -0.34 2.04 0 0 Z " fill="#0692FB" transform="translate(320,59)"/>
<path d="M0 0 C28.05 0 56.1 0 85 0 C85 8.25 85 16.5 85 25 C56.95 25 28.9 25 0 25 C0 16.75 0 8.5 0 0 Z " fill="#88C7FB" transform="translate(284,229)"/>
<path d="M0 0 C28.05 0 56.1 0 85 0 C85 8.25 85 16.5 85 25 C56.95 25 28.9 25 0 25 C0 16.75 0 8.5 0 0 Z " fill="#89C8FC" transform="translate(284,189)"/>
<path d="M0 0 C41.25 0 82.5 0 125 0 C125 4.62 125 9.24 125 14 C83.75 14 42.5 14 0 14 C0 9.38 0 4.76 0 0 Z " fill="#4FC123" transform="translate(101,427)"/>
<path d="M0 0 C3.00339193 2.00226129 3.81463343 3.25853373 4.6875 6.75 C2.82327247 15.56271194 -8.25719666 23.41009156 -14.52661133 29.65698242 C-16.32947341 31.45442236 -18.12684985 33.25722661 -19.92382812 35.06054688 C-21.06999147 36.20605047 -22.21646442 37.35124439 -23.36328125 38.49609375 C-23.89971756 39.03455429 -24.43615387 39.57301483 -24.98884583 40.12779236 C-29.62936508 44.73892668 -29.62936508 44.73892668 -33.625 45.5 C-41.79109068 44.29020879 -48.8189459 34.3336637 -54.4375 28.6875 C-55.25154297 27.87732422 -56.06558594 27.06714844 -56.90429688 26.23242188 C-57.67708984 25.45833984 -58.44988281 24.68425781 -59.24609375 23.88671875 C-60.29301392 22.83810669 -60.29301392 22.83810669 -61.36108398 21.76831055 C-63.70423566 19.24016402 -63.98475972 18.13716254 -64.375 14.625 C-64 11 -64 11 -61.875 8.5 C-58.26566932 6.61687095 -56.87977687 6.94229529 -53 8 C-50.66650391 9.76586914 -50.66650391 9.76586914 -48.4765625 12.03515625 C-47.68378906 12.84404297 -46.89101563 13.65292969 -46.07421875 14.48632812 C-44.86185547 15.7615332 -44.86185547 15.7615332 -43.625 17.0625 C-42.79355469 17.91650391 -41.96210938 18.77050781 -41.10546875 19.65039062 C-39.05857871 21.75609934 -37.02427283 23.87257749 -35 26 C-31.01227068 24.4180231 -28.47775677 21.61920099 -25.60546875 18.5546875 C-24.55739755 17.46671824 -23.50854496 16.37950127 -22.45898438 15.29296875 C-20.81833449 13.58425537 -19.18372559 11.87098009 -17.56225586 10.14404297 C-15.98841431 8.47313315 -14.39305289 6.82543183 -12.79296875 5.1796875 C-12.07852852 4.40164261 -12.07852852 4.40164261 -11.34965515 3.60787964 C-7.67653211 -0.12016898 -5.13128109 -0.6632553 0 0 Z " fill="#000200" transform="translate(404,401)"/>
<path d="M0 0 C0.73236374 -0.00861557 1.46472748 -0.01723114 2.21928406 -0.02610779 C4.63100923 -0.04873961 7.04156967 -0.04203438 9.45336914 -0.03295898 C11.13579146 -0.03819611 12.81821084 -0.04447292 14.50062561 -0.05174255 C18.02366977 -0.06214177 21.54630991 -0.05759279 25.06933594 -0.04296875 C29.57662639 -0.02578747 34.08264127 -0.04926954 38.58978939 -0.08445835 C42.06348565 -0.10645594 45.53687784 -0.10498515 49.01062202 -0.09669304 C50.67195598 -0.09587469 52.33331253 -0.10271594 53.99458122 -0.11746407 C56.32139528 -0.13495364 58.64593234 -0.12033443 60.97265625 -0.09765625 C61.6538855 -0.10934845 62.33511475 -0.12104065 63.0369873 -0.13308716 C66.74401676 -0.05984944 69.13141991 0.62246284 72.02076721 2.84632874 C74.55102539 5.53344727 74.55102539 5.53344727 74.61352539 9.15844727 C73.1746835 13.7288862 73.1746835 13.7288862 70.55102539 15.53344727 C67.92716148 15.83460606 65.53934534 15.9536311 62.91430664 15.9375 C62.13840179 15.94436325 61.36249695 15.9512265 60.56307983 15.95829773 C57.99637596 15.97661073 55.43028062 15.97272235 52.86352539 15.96704102 C51.08137818 15.97160035 49.29923272 15.97690517 47.51708984 15.98292542 C43.78125874 15.99186511 40.04564131 15.98942331 36.30981445 15.97949219 C31.51763113 15.96799551 26.72618388 15.98822005 21.93409729 16.01740932 C18.25381776 16.03573642 14.5737158 16.03548598 10.8934021 16.0297718 C9.12632209 16.02961819 7.35923034 16.0356954 5.5921936 16.04806328 C3.12357086 16.06290784 0.65632323 16.05234611 -1.81225586 16.03515625 C-2.54481598 16.04482422 -3.2773761 16.05449219 -4.03213501 16.06445312 C-7.24808948 16.01745482 -8.99251166 15.95861106 -11.39501953 13.72084045 C-12.97766906 10.43618736 -12.96157605 8.12165732 -12.44897461 4.53344727 C-8.64185638 0.50568114 -5.31611341 -0.05077517 0 0 Z " fill="#070708" transform="translate(309.448974609375,107.466552734375)"/>
<path d="M0 0 C0.99854256 -0.00810448 0.99854256 -0.00810448 2.01725769 -0.01637268 C4.20662598 -0.02882831 6.39467093 -0.01239218 8.58398438 0.00561523 C10.1118578 0.00546017 11.63973161 0.00396996 13.16760254 0.00120544 C16.3653305 -0.00017712 19.56260916 0.01235494 22.76025391 0.03515625 C26.85262952 0.06354091 30.94425893 0.06080187 35.03668976 0.04806614 C38.19035174 0.0411006 41.34384222 0.04890814 44.4974823 0.06132317 C46.00611208 0.06582919 47.51476032 0.06618189 49.02339172 0.06225777 C51.13446593 0.05933682 53.24452329 0.07589261 55.35546875 0.09765625 C56.55506226 0.10305923 57.75465576 0.10846222 58.99060059 0.11402893 C62.51032214 0.54216466 64.40252464 1.31568319 67.17773438 3.50170898 C68.24023438 6.87670898 68.24023438 6.87670898 68.17773438 10.50170898 C66.61132812 13.18882751 66.61132812 13.18882751 64.17773438 15.50170898 C60.99023438 16.12989807 60.99023438 16.12989807 57.17773438 16.1328125 C56.13311035 16.14354546 56.13311035 16.14354546 55.06738281 16.15449524 C52.7701617 16.17137541 50.47489426 16.15198698 48.17773438 16.13061523 C46.5787744 16.13144401 44.97981451 16.13390373 43.38085938 16.13792419 C40.03163981 16.14078169 36.68308917 16.12608672 33.33398438 16.09863281 C29.04291467 16.06454925 24.75304102 16.0705682 20.46191406 16.08929539 C17.16070606 16.09986882 13.85977592 16.09092461 10.55859375 16.07591057 C8.9765709 16.07073076 7.394519 16.07120814 5.8125 16.07745552 C3.60027778 16.08291225 1.38976206 16.0625219 -0.82226562 16.03515625 C-2.08039063 16.02895767 -3.33851562 16.02275909 -4.63476562 16.01637268 C-8.39820739 15.40871563 -9.59416245 14.54949723 -11.82226562 11.50170898 C-12.38476562 8.00170898 -12.38476562 8.00170898 -11.82226562 4.50170898 C-8.04883691 0.58758217 -5.34392986 0.00074024 0 0 Z " fill="#040505" transform="translate(97.822265625,375.498291015625)"/>
<path d="M0 0 C0.67544861 -0.00861557 1.35089722 -0.01723114 2.04681396 -0.02610779 C4.26858375 -0.0487197 6.48908738 -0.0420393 8.7109375 -0.03295898 C10.26123427 -0.03819644 11.81152784 -0.04447337 13.36181641 -0.05174255 C16.60659815 -0.0621376 19.8509411 -0.05759811 23.09570312 -0.04296875 C27.24889485 -0.02577401 31.40070397 -0.04928753 35.55374146 -0.08445835 C38.75375492 -0.10644315 41.95343801 -0.10498856 45.15350342 -0.09669304 C46.68448402 -0.09587424 48.21548906 -0.10272402 49.74639893 -0.11746407 C51.88908334 -0.13493407 54.02928924 -0.12035354 56.171875 -0.09765625 C57.3892334 -0.09669449 58.6065918 -0.09573273 59.86083984 -0.09474182 C64.01516474 0.71444346 65.529975 2.21833513 68.0859375 5.53344727 C68.1484375 9.15844727 68.1484375 9.15844727 67.0859375 12.53344727 C64.72234983 14.97083638 63.33362136 15.50295957 59.93640137 15.92112732 C58.69604126 15.9265303 57.45568115 15.93193329 56.17773438 15.9375 C55.14774071 15.94779488 55.14774071 15.94779488 54.09693909 15.95829773 C51.83264347 15.97656315 49.5690408 15.97272935 47.3046875 15.96704102 C45.72814712 15.97160259 44.15160874 15.97690809 42.57507324 15.98292542 C39.27311111 15.99185568 35.97139085 15.98943404 32.66943359 15.97949219 C28.43896319 15.96799551 24.20932662 15.98822429 19.97896576 16.01740932 C16.72412824 16.03575787 13.46949112 16.03548174 10.21461487 16.0297718 C8.6549004 16.02961846 7.09517247 16.0356737 5.5355072 16.04806328 C3.35451964 16.06294915 1.17507987 16.05231691 -1.00585938 16.03515625 C-2.86639954 16.034907 -2.86639954 16.034907 -4.76452637 16.03465271 C-8.50867979 15.43882209 -9.69446397 14.56148408 -11.9140625 11.53344727 C-12.4765625 8.03344727 -12.4765625 8.03344727 -11.9140625 4.53344727 C-8.12327921 0.59416706 -5.37081411 0.02734725 0 0 Z " fill="#020203" transform="translate(97.9140625,341.466552734375)"/>
<path d="M0 0 C8.58 0 17.16 0 26 0 C26 8.58 26 17.16 26 26 C17.42 26 8.84 26 0 26 C0 17.42 0 8.84 0 0 Z " fill="#E8E6E8" transform="translate(101,269)"/>
<path d="M0 0 C5.76635004 0.04413411 11.53160315 0.11394772 17.29736328 0.20751953 C19.25853747 0.23573553 21.21982551 0.25694694 23.18115234 0.27099609 C26.00156977 0.29241699 28.82061743 0.33906209 31.640625 0.390625 C32.95489471 0.39246796 32.95489471 0.39246796 34.29571533 0.39434814 C40.35423769 0.53994066 40.35423769 0.53994066 43.55371094 2.81933594 C45.68727221 6.036245 45.53840632 8.23115578 45 12 C43.55371094 14.19433594 43.55371094 14.19433594 41 16 C37.8756705 16.55176705 34.80462587 16.46517733 31.640625 16.390625 C30.73624695 16.38496521 29.8318689 16.37930542 28.90008545 16.37347412 C26.01618147 16.35111248 23.13352739 16.30091686 20.25 16.25 C18.29298671 16.22993471 16.33595392 16.21168399 14.37890625 16.1953125 C9.58545711 16.15124839 4.79294035 16.08222252 0 16 C0 10.72 0 5.44 0 0 Z " fill="#E9F5FE" transform="translate(100,103)"/>
<path d="M0 0 C8.58 0 17.16 0 26 0 C26 8.25 26 16.5 26 25 C17.42 25 8.84 25 0 25 C0 16.75 0 8.5 0 0 Z " fill="#F0EDF0" transform="translate(101,229)"/>
<path d="M0 0 C8.58 0 17.16 0 26 0 C26 8.25 26 16.5 26 25 C17.42 25 8.84 25 0 25 C0 16.75 0 8.5 0 0 Z " fill="#F1EFF1" transform="translate(101,189)"/>
<path d="M0 0 C41.25 0 82.5 0 125 0 C125 0.33 125 0.66 125 1 C92.33 1 59.66 1 26 1 C26 5.29 26 9.58 26 14 C17.42 14 8.84 14 0 14 C0 9.38 0 4.76 0 0 Z " fill="#40991C" transform="translate(101,427)"/>
<path d="M0 0 C8.58 0 17.16 0 26 0 C26 4.62 26 9.24 26 14 C17.42 14 8.84 14 0 14 C0 9.38 0 4.76 0 0 Z " fill="#0180F9" transform="translate(229,67)"/>
<path d="M0 0 C2.64 0 5.28 0 8 0 C8 7.92 8 15.84 8 24 C5.36 24 2.72 24 0 24 C0 16.08 0 8.16 0 0 Z " fill="#FCFCFC" transform="translate(119,270)"/>
<path d="M0 0 C2.64 0 5.28 0 8 0 C8 7.92 8 15.84 8 24 C5.36 24 2.72 24 0 24 C0 16.08 0 8.16 0 0 Z " fill="#FCFCFC" transform="translate(119,230)"/>
<path d="M0 0 C2.31 0 4.62 0 7 0 C7 7.92 7 15.84 7 24 C4.69 24 2.38 24 0 24 C0 16.08 0 8.16 0 0 Z " fill="#FFFFFF" transform="translate(119,190)"/>
</svg>
