<?xml version="1.0" encoding="UTF-8"?>
<svg version="1.1" xmlns="http://www.w3.org/2000/svg" width="512" height="512">
<path d="M0 0 C1.0094165 -0.0112793 2.01883301 -0.02255859 3.05883789 -0.03417969 C4.16026123 -0.02608276 5.26168457 -0.01798584 6.39648438 -0.00964355 C7.56107178 -0.01665283 8.72565918 -0.02366211 9.92553711 -0.03088379 C13.78067771 -0.04850975 17.63508612 -0.03682384 21.49023438 -0.02331543 C24.1653739 -0.026009 26.84049107 -0.02988396 29.515625 -0.03491211 C35.12442987 -0.0421874 40.733024 -0.03260414 46.34179688 -0.0135498 C52.82441344 0.008219 59.30652679 0.00116752 65.78913116 -0.02085543 C71.35700027 -0.03901302 76.92471797 -0.04156609 82.49260712 -0.03110075 C85.81719107 -0.02486765 89.14148689 -0.02559741 92.46606445 -0.0372467 C96.17238595 -0.04738291 99.87773545 -0.03195028 103.58398438 -0.00964355 C104.68540771 -0.01774048 105.78683105 -0.0258374 106.92163086 -0.03417969 C108.43575562 -0.01726074 108.43575562 -0.01726074 109.98046875 0 C110.85650757 0.0015081 111.73254639 0.0030162 112.63513184 0.00457001 C115.79475072 0.67988675 117.00432304 2.00996239 118.99023438 4.50793457 C119.47125244 7.57049561 119.47125244 7.57049561 119.44433594 11.20422363 C119.44492004 11.86805054 119.44550415 12.53187744 119.44610596 13.21582031 C119.44332702 15.40227195 119.41224765 17.58734719 119.38085938 19.77355957 C119.37339622 21.29241186 119.36770364 22.81127379 119.3637085 24.33013916 C119.34845779 28.32196782 119.3091816 32.31321154 119.26489258 36.30480957 C119.21672109 41.0971569 119.19840309 45.88970016 119.17507935 50.68222046 C119.13632936 57.95786495 119.05967379 65.23222675 118.99023438 72.50793457 C140.11023438 72.50793457 161.23023438 72.50793457 182.99023438 72.50793457 C182.99023438 114.74793457 182.99023438 156.98793457 182.99023438 200.50793457 C98.51023437 200.50793457 14.03023437 200.50793457 -73.00976562 200.50793457 C-73.00976562 158.26793457 -73.00976562 116.02793457 -73.00976562 72.50793457 C-51.88976562 72.50793457 -30.76976562 72.50793457 -9.00976562 72.50793457 C-9.079375 65.21441895 -9.079375 65.21441895 -9.15039062 57.77355957 C-9.17082931 54.69280905 -9.19008495 51.61214214 -9.20507812 48.53137207 C-9.22898818 43.641547 -9.25727064 38.75202158 -9.31152344 33.86242676 C-9.35499093 29.92019112 -9.37890458 25.9782768 -9.3892746 22.03582001 C-9.39666444 20.53188773 -9.41109529 19.027973 -9.43268585 17.52417755 C-9.46173374 15.41713998 -9.46572133 13.31142928 -9.46386719 11.20422363 C-9.47274963 10.00509338 -9.48163208 8.80596313 -9.49078369 7.57049561 C-8.61628158 2.0026879 -5.42423308 0.00933783 0 0 Z " fill="#44586B" transform="translate(201.009765625,303.4920654296875)"/>
<path d="M0 0 C0.85247314 -0.00700928 1.70494629 -0.01401855 2.58325195 -0.02124023 C5.3995832 -0.03883756 8.21490864 -0.02719147 11.03125 -0.01367188 C12.98893425 -0.01636629 14.9466172 -0.02024829 16.90429688 -0.02526855 C21.00664007 -0.03116595 25.10863482 -0.02259281 29.2109375 -0.00390625 C34.47045628 0.01888337 39.72915864 0.00576159 44.98864746 -0.01819611 C49.0309871 -0.03264751 53.07313305 -0.0280511 57.11547852 -0.01768494 C59.05476986 -0.01501583 60.99407877 -0.01829385 62.93334961 -0.02760315 C65.6435405 -0.03775789 68.35240775 -0.02228315 71.0625 0 C71.86469971 -0.00809692 72.66689941 -0.01619385 73.4934082 -0.02453613 C76.76826377 0.02536914 79.1531127 0.30653183 82.03216553 1.91339111 C84.40794937 6.04056709 84.05423698 10.02329477 83.98535156 14.70214844 C83.98593567 15.73661102 83.98651978 16.77107361 83.98712158 17.83688354 C83.98433442 21.25683116 83.95321137 24.67590772 83.921875 28.09570312 C83.91441489 30.46652755 83.90872087 32.83735813 83.90472412 35.20819092 C83.88944983 41.44890358 83.85015199 47.689244 83.8059082 53.92980957 C83.76499453 60.2975562 83.74672142 66.66536295 83.7265625 73.03320312 C83.68365994 85.52815836 83.61538646 98.02283729 83.53125 110.51757812 C84.20526855 110.7141098 84.87928711 110.91064148 85.57373047 111.11312866 C86.91008545 111.50741562 86.91008545 111.50741562 88.2734375 111.90966797 C89.15370605 112.16807465 90.03397461 112.42648132 90.94091797 112.69271851 C102.84657784 116.48393058 115.57742673 123.37293454 122.15625 134.33007812 C124.58524876 140.12497517 124.59115233 146.823599 122.87109375 152.81835938 C117.1640928 165.54175976 103.18973792 171.98550803 90.84375 176.76757812 C76.56328661 182.03657668 61.20378758 184.62849941 46.0078125 184.72070312 C45.22814117 184.72771744 44.44846985 184.73473175 43.64517212 184.74195862 C41.14880512 184.75933656 38.65267523 184.76580893 36.15625 184.76757812 C34.87735901 184.76859024 34.87735901 184.76859024 33.57263184 184.7696228 C21.31319914 184.75418526 9.49418932 184.4343879 -2.46875 181.51757812 C-3.20851074 181.35128906 -3.94827148 181.185 -4.71044922 181.01367188 C-21.40514965 177.21382436 -40.44601256 170.29632792 -50.46875 155.51757812 C-53.37773254 149.52029219 -53.62416281 142.61341275 -51.81640625 136.20507812 C-46.07370727 123.58592844 -32.47331719 117.32702024 -20.21875 112.51757812 C-14.82401316 110.51757812 -14.82401316 110.51757812 -12.46875 110.51757812 C-12.47763245 109.1984845 -12.48651489 107.87939087 -12.4956665 106.52032471 C-12.57668325 94.10119182 -12.63668232 81.68211241 -12.67599869 69.26277542 C-12.69689102 62.87754571 -12.72523927 56.49252899 -12.77050781 50.10742188 C-12.81390599 43.94771984 -12.8378747 37.78822292 -12.84825897 31.62837982 C-12.85566112 29.27597575 -12.87011541 26.92358314 -12.89167023 24.57126617 C-12.92062327 21.28131168 -12.92470929 17.99220942 -12.92285156 14.70214844 C-12.94442322 13.23695267 -12.94442322 13.23695267 -12.96643066 11.74215698 C-12.94277166 7.88092946 -12.91677924 5.29588779 -10.96966553 1.91339111 C-7.37467313 -0.09304894 -4.00998355 -0.04047437 0 0 Z " fill="#4A5E73" transform="translate(372.46875,7.482421875)"/>
<path d="M0 0 C0.85247314 -0.00700928 1.70494629 -0.01401855 2.58325195 -0.02124023 C5.3995832 -0.03883756 8.21490864 -0.02719147 11.03125 -0.01367188 C12.98893425 -0.01636629 14.9466172 -0.02024829 16.90429688 -0.02526855 C21.00664007 -0.03116595 25.10863482 -0.02259281 29.2109375 -0.00390625 C34.47045628 0.01888337 39.72915864 0.00576159 44.98864746 -0.01819611 C49.0309871 -0.03264751 53.07313305 -0.0280511 57.11547852 -0.01768494 C59.05476986 -0.01501583 60.99407877 -0.01829385 62.93334961 -0.02760315 C65.6435405 -0.03775789 68.35240775 -0.02228315 71.0625 0 C71.86469971 -0.00809692 72.66689941 -0.01619385 73.4934082 -0.02453613 C76.76826377 0.02536914 79.1531127 0.30653183 82.03216553 1.91339111 C84.40794937 6.04056709 84.05423698 10.02329477 83.98535156 14.70214844 C83.98593567 15.73661102 83.98651978 16.77107361 83.98712158 17.83688354 C83.98433442 21.25683116 83.95321137 24.67590772 83.921875 28.09570312 C83.91441489 30.46652755 83.90872087 32.83735813 83.90472412 35.20819092 C83.88944983 41.44890358 83.85015199 47.689244 83.8059082 53.92980957 C83.76499453 60.2975562 83.74672142 66.66536295 83.7265625 73.03320312 C83.68365994 85.52815836 83.61538646 98.02283729 83.53125 110.51757812 C84.20526855 110.7141098 84.87928711 110.91064148 85.57373047 111.11312866 C86.91008545 111.50741562 86.91008545 111.50741562 88.2734375 111.90966797 C89.15370605 112.16807465 90.03397461 112.42648132 90.94091797 112.69271851 C102.84657784 116.48393058 115.57742673 123.37293454 122.15625 134.33007812 C124.58524876 140.12497517 124.59115233 146.823599 122.87109375 152.81835938 C117.1640928 165.54175976 103.18973792 171.98550803 90.84375 176.76757812 C76.56328661 182.03657668 61.20378758 184.62849941 46.0078125 184.72070312 C45.22814117 184.72771744 44.44846985 184.73473175 43.64517212 184.74195862 C41.14880512 184.75933656 38.65267523 184.76580893 36.15625 184.76757812 C34.87735901 184.76859024 34.87735901 184.76859024 33.57263184 184.7696228 C21.31319914 184.75418526 9.49418932 184.4343879 -2.46875 181.51757812 C-3.20851074 181.35128906 -3.94827148 181.185 -4.71044922 181.01367188 C-21.40514965 177.21382436 -40.44601256 170.29632792 -50.46875 155.51757812 C-53.37773254 149.52029219 -53.62416281 142.61341275 -51.81640625 136.20507812 C-46.07370727 123.58592844 -32.47331719 117.32702024 -20.21875 112.51757812 C-14.82401316 110.51757812 -14.82401316 110.51757812 -12.46875 110.51757812 C-12.47763245 109.1984845 -12.48651489 107.87939087 -12.4956665 106.52032471 C-12.57668325 94.10119182 -12.63668232 81.68211241 -12.67599869 69.26277542 C-12.69689102 62.87754571 -12.72523927 56.49252899 -12.77050781 50.10742188 C-12.81390599 43.94771984 -12.8378747 37.78822292 -12.84825897 31.62837982 C-12.85566112 29.27597575 -12.87011541 26.92358314 -12.89167023 24.57126617 C-12.92062327 21.28131168 -12.92470929 17.99220942 -12.92285156 14.70214844 C-12.94442322 13.23695267 -12.94442322 13.23695267 -12.96643066 11.74215698 C-12.94277166 7.88092946 -12.91677924 5.29588779 -10.96966553 1.91339111 C-7.37467313 -0.09304894 -4.00998355 -0.04047437 0 0 Z " fill="#4A5E73" transform="translate(68.46875,7.482421875)"/>
<path d="M0 0 C0 11.22 0 22.44 0 34 C10.56 34 21.12 34 32 34 C32 23.44 32 12.88 32 2 C42.56 2 53.12 2 64 2 C64 12.56 64 23.12 64 34 C74.56 34 85.12 34 96 34 C96 22.78 96 11.56 96 0 C110.3922274 4.31766822 126.43900878 10.17859048 134.625 23.8125 C137.05399876 29.60739704 137.05990233 36.30602087 135.33984375 42.30078125 C129.6328428 55.02418163 115.65848792 61.4679299 103.3125 66.25 C89.03203661 71.51899856 73.67253758 74.11092128 58.4765625 74.203125 C57.69689117 74.21013931 56.91721985 74.21715363 56.11392212 74.22438049 C53.61755512 74.24175844 51.12142523 74.2482308 48.625 74.25 C47.34610901 74.25101212 47.34610901 74.25101212 46.04138184 74.25204468 C33.78194914 74.23660713 21.96293932 73.91680978 10 71 C9.26023926 70.83371094 8.52047852 70.66742188 7.75830078 70.49609375 C-8.93639965 66.69624623 -27.97726256 59.7787498 -38 45 C-40.90898254 39.00271407 -41.15541281 32.09583462 -39.34765625 25.6875 C-33.60495727 13.06835032 -20.00456719 6.80944211 -7.75 2 C-2.35526316 0 -2.35526316 0 0 0 Z " fill="#70AAE3" transform="translate(360,118)"/>
<path d="M0 0 C0 11.22 0 22.44 0 34 C10.56 34 21.12 34 32 34 C32 23.44 32 12.88 32 2 C42.56 2 53.12 2 64 2 C64 12.56 64 23.12 64 34 C74.56 34 85.12 34 96 34 C96 22.78 96 11.56 96 0 C110.3922274 4.31766822 126.43900878 10.17859048 134.625 23.8125 C137.05399876 29.60739704 137.05990233 36.30602087 135.33984375 42.30078125 C129.6328428 55.02418163 115.65848792 61.4679299 103.3125 66.25 C89.03203661 71.51899856 73.67253758 74.11092128 58.4765625 74.203125 C57.69689117 74.21013931 56.91721985 74.21715363 56.11392212 74.22438049 C53.61755512 74.24175844 51.12142523 74.2482308 48.625 74.25 C47.34610901 74.25101212 47.34610901 74.25101212 46.04138184 74.25204468 C33.78194914 74.23660713 21.96293932 73.91680978 10 71 C9.26023926 70.83371094 8.52047852 70.66742188 7.75830078 70.49609375 C-8.93639965 66.69624623 -27.97726256 59.7787498 -38 45 C-40.90898254 39.00271407 -41.15541281 32.09583462 -39.34765625 25.6875 C-33.60495727 13.06835032 -20.00456719 6.80944211 -7.75 2 C-2.35526316 0 -2.35526316 0 0 0 Z " fill="#70AAE3" transform="translate(56,118)"/>
<path d="M0 0 C15.84 0 31.68 0 48 0 C48 13.2 48 26.4 48 40 C32.16 40 16.32 40 0 40 C0 26.8 0 13.6 0 0 Z " fill="#ADD8E6" transform="translate(232,464)"/>
<path d="M0 0 C4.28283602 1.57576042 6.68508441 4.8382044 9.5 8.25 C10.57273975 9.5261904 11.64566146 10.80222786 12.71875 12.078125 C13.26402344 12.73103516 13.80929688 13.38394531 14.37109375 14.05664062 C16.8883743 17.05987101 19.44487164 20.02897925 22 23 C22.99758345 24.16390172 23.99497863 25.32796483 24.9921875 26.4921875 C27.01598264 28.85350157 29.0422764 31.21264006 31.0703125 33.5703125 C37.44928659 40.99079318 43.75990755 48.46218921 50 56 C47.14982856 58.88955204 44.29079467 61.69599665 41.1875 64.3125 C40.58292969 64.82425781 39.97835937 65.33601563 39.35546875 65.86328125 C38.90816406 66.23839844 38.46085937 66.61351562 38 67 C34.40278644 65.5045292 32.36902779 63.47293692 29.8125 60.5625 C29.02488281 59.66660156 28.23726562 58.77070313 27.42578125 57.84765625 C24.30662031 54.18603254 21.27513645 50.45815478 18.25 46.71875 C16.06498431 44.07852271 13.80828609 41.5327028 11.5 39 C7.59088268 34.7108296 3.92453534 30.26562127 0.28125 25.75 C-2.76647001 22.07603615 -5.99031335 18.57980378 -9.25 15.09375 C-11 13 -11 13 -12 10 C-10.82630859 9.04287109 -10.82630859 9.04287109 -9.62890625 8.06640625 C-8.61699219 7.24011719 -7.60507813 6.41382813 -6.5625 5.5625 C-5.55316406 4.73878906 -4.54382813 3.91507813 -3.50390625 3.06640625 C-1.70216039 1.58798996 -1.70216039 1.58798996 0 0 Z " fill="#5B7FA6" transform="translate(165,213)"/>
<path d="M0 0 C3.71045247 1.57780923 6.29906384 3.90703248 9.25 6.625 C10.14203125 7.44226563 11.0340625 8.25953125 11.953125 9.1015625 C12.96632813 10.04128906 12.96632813 10.04128906 14 11 C10.09918902 16.48222084 5.82594449 21.44506117 1.24536133 26.35986328 C-2.63395899 30.54404822 -6.24162361 34.90685637 -9.8203125 39.3515625 C-12.67832648 42.82420314 -15.7039064 46.12735894 -18.734375 49.44921875 C-21.90346438 53.01717628 -24.8840994 56.72691721 -27.859375 60.45703125 C-30.10659805 63.12663381 -32.50099504 65.56652839 -35 68 C-36.79574993 66.56760415 -38.58646907 65.1288996 -40.375 63.6875 C-41.37273437 62.88699219 -42.37046875 62.08648437 -43.3984375 61.26171875 C-46 59 -46 59 -48 56 C-47.38253906 55.33355469 -46.76507813 54.66710937 -46.12890625 53.98046875 C-40.96024356 48.3555162 -36.01468511 42.63067311 -31.21484375 36.68359375 C-29.04367173 34.05291443 -26.79758643 31.52057576 -24.5 29 C-20.59039263 24.71029191 -16.92492365 20.26299868 -13.27734375 15.75 C-10.24775341 12.09162676 -7.06398217 8.58803001 -3.84765625 5.09375 C-1.86054661 2.93666737 -1.86054661 2.93666737 0 0 Z " fill="#5B80A5" transform="translate(345,213)"/>
<path d="M0 0 C10.56 0 21.12 0 32 0 C32 10.56 32 21.12 32 32 C21.44 32 10.88 32 0 32 C0 21.44 0 10.88 0 0 Z " fill="#ADD8E6" transform="translate(392,120)"/>
<path d="M0 0 C10.56 0 21.12 0 32 0 C32 10.56 32 21.12 32 32 C21.44 32 10.88 32 0 32 C0 21.44 0 10.88 0 0 Z " fill="#ADD8E6" transform="translate(88,120)"/>
<path d="M0 0 C5.28 0 10.56 0 16 0 C16 5.28 16 10.56 16 16 C10.72 16 5.44 16 0 16 C0 10.72 0 5.44 0 0 Z " fill="#ADD8E6" transform="translate(344,464)"/>
<path d="M0 0 C5.28 0 10.56 0 16 0 C16 5.28 16 10.56 16 16 C10.72 16 5.44 16 0 16 C0 10.72 0 5.44 0 0 Z " fill="#ADD8E6" transform="translate(152,464)"/>
<path d="M0 0 C5.28 0 10.56 0 16 0 C16 5.28 16 10.56 16 16 C10.72 16 5.44 16 0 16 C0 10.72 0 5.44 0 0 Z " fill="#ADD8E6" transform="translate(344,432)"/>
<path d="M0 0 C5.28 0 10.56 0 16 0 C16 5.28 16 10.56 16 16 C10.72 16 5.44 16 0 16 C0 10.72 0 5.44 0 0 Z " fill="#ADD8E6" transform="translate(152,432)"/>
<path d="M0 0 C5.28 0 10.56 0 16 0 C16 5.28 16 10.56 16 16 C10.72 16 5.44 16 0 16 C0 10.72 0 5.44 0 0 Z " fill="#ADD8E6" transform="translate(280,424)"/>
<path d="M0 0 C5.28 0 10.56 0 16 0 C16 5.28 16 10.56 16 16 C10.72 16 5.44 16 0 16 C0 10.72 0 5.44 0 0 Z " fill="#ADD8E6" transform="translate(248,424)"/>
<path d="M0 0 C5.28 0 10.56 0 16 0 C16 5.28 16 10.56 16 16 C10.72 16 5.44 16 0 16 C0 10.72 0 5.44 0 0 Z " fill="#ADD8E6" transform="translate(216,424)"/>
<path d="M0 0 C5.28 0 10.56 0 16 0 C16 5.28 16 10.56 16 16 C10.72 16 5.44 16 0 16 C0 10.72 0 5.44 0 0 Z " fill="#ADD8E6" transform="translate(344,400)"/>
<path d="M0 0 C5.28 0 10.56 0 16 0 C16 5.28 16 10.56 16 16 C10.72 16 5.44 16 0 16 C0 10.72 0 5.44 0 0 Z " fill="#ADD8E6" transform="translate(152,400)"/>
<path d="M0 0 C5.28 0 10.56 0 16 0 C16 5.28 16 10.56 16 16 C10.72 16 5.44 16 0 16 C0 10.72 0 5.44 0 0 Z " fill="#ADD8E6" transform="translate(280,392)"/>
<path d="M0 0 C5.28 0 10.56 0 16 0 C16 5.28 16 10.56 16 16 C10.72 16 5.44 16 0 16 C0 10.72 0 5.44 0 0 Z " fill="#ADD8E6" transform="translate(248,392)"/>
<path d="M0 0 C5.28 0 10.56 0 16 0 C16 5.28 16 10.56 16 16 C10.72 16 5.44 16 0 16 C0 10.72 0 5.44 0 0 Z " fill="#ADD8E6" transform="translate(216,392)"/>
<path d="M0 0 C5.28 0 10.56 0 16 0 C16 5.28 16 10.56 16 16 C10.72 16 5.44 16 0 16 C0 10.72 0 5.44 0 0 Z " fill="#ADD8E6" transform="translate(280,360)"/>
<path d="M0 0 C5.28 0 10.56 0 16 0 C16 5.28 16 10.56 16 16 C10.72 16 5.44 16 0 16 C0 10.72 0 5.44 0 0 Z " fill="#ADD8E6" transform="translate(248,360)"/>
<path d="M0 0 C5.28 0 10.56 0 16 0 C16 5.28 16 10.56 16 16 C10.72 16 5.44 16 0 16 C0 10.72 0 5.44 0 0 Z " fill="#ADD8E6" transform="translate(216,360)"/>
<path d="M0 0 C5.28 0 10.56 0 16 0 C16 5.28 16 10.56 16 16 C10.72 16 5.44 16 0 16 C0 10.72 0 5.44 0 0 Z " fill="#ADD8E6" transform="translate(280,328)"/>
<path d="M0 0 C5.28 0 10.56 0 16 0 C16 5.28 16 10.56 16 16 C10.72 16 5.44 16 0 16 C0 10.72 0 5.44 0 0 Z " fill="#ADD8E6" transform="translate(248,328)"/>
<path d="M0 0 C5.28 0 10.56 0 16 0 C16 5.28 16 10.56 16 16 C10.72 16 5.44 16 0 16 C0 10.72 0 5.44 0 0 Z " fill="#ADD8E6" transform="translate(216,328)"/>
<path d="M0 0 C5.28 0 10.56 0 16 0 C16 5.28 16 10.56 16 16 C10.72 16 5.44 16 0 16 C0 10.72 0 5.44 0 0 Z " fill="#ADD8E6" transform="translate(424,88)"/>
<path d="M0 0 C5.28 0 10.56 0 16 0 C16 5.28 16 10.56 16 16 C10.72 16 5.44 16 0 16 C0 10.72 0 5.44 0 0 Z " fill="#ADD8E6" transform="translate(400,88)"/>
<path d="M0 0 C5.28 0 10.56 0 16 0 C16 5.28 16 10.56 16 16 C10.72 16 5.44 16 0 16 C0 10.72 0 5.44 0 0 Z " fill="#ADD8E6" transform="translate(376,88)"/>
<path d="M0 0 C5.28 0 10.56 0 16 0 C16 5.28 16 10.56 16 16 C10.72 16 5.44 16 0 16 C0 10.72 0 5.44 0 0 Z " fill="#ADD8E6" transform="translate(120,88)"/>
<path d="M0 0 C5.28 0 10.56 0 16 0 C16 5.28 16 10.56 16 16 C10.72 16 5.44 16 0 16 C0 10.72 0 5.44 0 0 Z " fill="#ADD8E6" transform="translate(96,88)"/>
<path d="M0 0 C5.28 0 10.56 0 16 0 C16 5.28 16 10.56 16 16 C10.72 16 5.44 16 0 16 C0 10.72 0 5.44 0 0 Z " fill="#ADD8E6" transform="translate(72,88)"/>
<path d="M0 0 C5.28 0 10.56 0 16 0 C16 5.28 16 10.56 16 16 C10.72 16 5.44 16 0 16 C0 10.72 0 5.44 0 0 Z " fill="#ADD8E6" transform="translate(424,56)"/>
<path d="M0 0 C5.28 0 10.56 0 16 0 C16 5.28 16 10.56 16 16 C10.72 16 5.44 16 0 16 C0 10.72 0 5.44 0 0 Z " fill="#ADD8E6" transform="translate(400,56)"/>
<path d="M0 0 C5.28 0 10.56 0 16 0 C16 5.28 16 10.56 16 16 C10.72 16 5.44 16 0 16 C0 10.72 0 5.44 0 0 Z " fill="#ADD8E6" transform="translate(376,56)"/>
<path d="M0 0 C5.28 0 10.56 0 16 0 C16 5.28 16 10.56 16 16 C10.72 16 5.44 16 0 16 C0 10.72 0 5.44 0 0 Z " fill="#ADD8E6" transform="translate(120,56)"/>
<path d="M0 0 C5.28 0 10.56 0 16 0 C16 5.28 16 10.56 16 16 C10.72 16 5.44 16 0 16 C0 10.72 0 5.44 0 0 Z " fill="#ADD8E6" transform="translate(96,56)"/>
<path d="M0 0 C5.28 0 10.56 0 16 0 C16 5.28 16 10.56 16 16 C10.72 16 5.44 16 0 16 C0 10.72 0 5.44 0 0 Z " fill="#ADD8E6" transform="translate(72,56)"/>
<path d="M0 0 C5.28 0 10.56 0 16 0 C16 5.28 16 10.56 16 16 C10.72 16 5.44 16 0 16 C0 10.72 0 5.44 0 0 Z " fill="#ADD8E6" transform="translate(424,24)"/>
<path d="M0 0 C5.28 0 10.56 0 16 0 C16 5.28 16 10.56 16 16 C10.72 16 5.44 16 0 16 C0 10.72 0 5.44 0 0 Z " fill="#ADD8E6" transform="translate(400,24)"/>
<path d="M0 0 C5.28 0 10.56 0 16 0 C16 5.28 16 10.56 16 16 C10.72 16 5.44 16 0 16 C0 10.72 0 5.44 0 0 Z " fill="#ADD8E6" transform="translate(376,24)"/>
<path d="M0 0 C5.28 0 10.56 0 16 0 C16 5.28 16 10.56 16 16 C10.72 16 5.44 16 0 16 C0 10.72 0 5.44 0 0 Z " fill="#ADD8E6" transform="translate(120,24)"/>
<path d="M0 0 C5.28 0 10.56 0 16 0 C16 5.28 16 10.56 16 16 C10.72 16 5.44 16 0 16 C0 10.72 0 5.44 0 0 Z " fill="#ADD8E6" transform="translate(96,24)"/>
<path d="M0 0 C5.28 0 10.56 0 16 0 C16 5.28 16 10.56 16 16 C10.72 16 5.44 16 0 16 C0 10.72 0 5.44 0 0 Z " fill="#ADD8E6" transform="translate(72,24)"/>
</svg>
