<?xml version="1.0" encoding="UTF-8"?>
<svg version="1.1" xmlns="http://www.w3.org/2000/svg" width="512" height="512">
<path d="M0 0 C1.07245103 -0.00307895 1.07245103 -0.00307895 2.16656774 -0.0062201 C4.56871614 -0.01188653 6.97080714 -0.01043329 9.37296104 -0.00901413 C11.11010313 -0.01159797 12.84724461 -0.01461119 14.58438528 -0.01801753 C19.3633189 -0.02608859 24.14223751 -0.02787716 28.92117715 -0.028615 C34.0733628 -0.03046538 39.22554065 -0.03801266 44.37772179 -0.04475021 C55.64639889 -0.05833501 66.91507243 -0.06435854 78.18375635 -0.06876087 C85.21978042 -0.07152316 92.25580311 -0.0757605 99.29182625 -0.08026505 C118.77174417 -0.09245811 138.25166099 -0.10275722 157.73158264 -0.10614014 C159.60191638 -0.10646949 159.60191638 -0.10646949 161.51003464 -0.10680549 C162.75991214 -0.10702377 164.00978964 -0.10724204 165.29754221 -0.10746694 C167.8302807 -0.1079104 170.36301919 -0.10835697 172.89575768 -0.10880661 C174.78024744 -0.10913875 174.78024744 -0.10913875 176.70280771 -0.10947761 C197.05816697 -0.11342532 217.41349043 -0.13087835 237.76883586 -0.15416613 C258.66636802 -0.17788125 279.56388221 -0.19034207 300.46142805 -0.19150805 C312.19499624 -0.19242475 323.92851779 -0.19817558 335.66207314 -0.21632767 C345.65395245 -0.23173082 355.6457707 -0.23684784 365.63765962 -0.22858956 C370.73467381 -0.22468379 375.83156503 -0.22560919 380.92856407 -0.23964691 C385.59824585 -0.25239001 390.26771233 -0.25118465 394.93739383 -0.2390562 C396.6231645 -0.23709992 398.30895045 -0.24017445 399.99469967 -0.24890056 C417.47472615 -0.33362669 432.5450176 3.18555085 445.57105064 15.64705276 C454.06442278 25.00889796 459.93953287 36.86281705 459.95917797 49.58716965 C459.9615302 50.23652536 459.96388243 50.88588108 459.96630594 51.55491424 C459.97298498 53.73990002 459.97253805 55.92482619 459.97212791 58.10982132 C459.97542723 59.68864549 459.97915294 61.26746882 459.98326939 62.84629107 C459.99328998 67.19229192 459.99700629 71.53827897 459.9996587 75.88428974 C460.00356163 80.5688886 460.01314005 85.25347651 460.02187157 89.93806839 C460.0416373 101.25579969 460.05170277 112.57353188 460.06059936 123.89127612 C460.06498247 129.22137304 460.07034926 134.55146896 460.07558823 139.88156509 C460.09260136 157.60115986 460.1070951 175.320754 460.11433697 193.04035568 C460.11624686 197.63907243 460.11816719 202.23778917 460.12012291 206.83650589 C460.12060665 207.97949223 460.12109039 209.12247857 460.12158879 210.30010086 C460.12988743 228.81190251 460.1552212 247.3236395 460.18770359 265.83541292 C460.2207829 284.84240738 460.23878656 303.84936899 460.24198121 322.85639238 C460.2441456 333.52753361 460.25288383 344.19858059 460.27844238 354.86969376 C460.30016134 363.95871517 460.30819393 373.04761943 460.2984756 382.13666385 C460.29393426 386.77207982 460.29580749 391.40725413 460.31523705 396.04263687 C460.33289351 400.29181386 460.33185097 404.54057335 460.31633975 408.78975493 C460.31396743 410.32147236 460.31826766 411.85321889 460.3301684 413.38489193 C460.45178856 430.08112018 455.65596202 443.60712338 444.22339439 455.95955276 C437.32322283 462.20791659 428.90936862 466.98452578 419.82495689 469.13142776 C419.10669216 469.3034656 418.38842742 469.47550344 417.64839709 469.65275455 C414.27365044 470.22489376 411.07417769 470.25950538 407.64991379 470.26285553 C406.93494643 470.26490816 406.21997908 470.2669608 405.48334605 470.26907563 C403.08119765 470.27474206 400.67910665 470.27328882 398.27695274 470.27186966 C396.53981066 470.2744535 394.80266918 470.27746672 393.06552851 470.28087306 C388.28659488 470.28894412 383.50767628 470.29073269 378.72873664 470.29147053 C373.57655099 470.29332091 368.42437314 470.30086819 363.272192 470.30760574 C352.0035149 470.32119054 340.73484136 470.32721407 329.46615744 470.3316164 C322.43013337 470.33437869 315.39411068 470.33861603 308.35808754 470.34312057 C288.87816962 470.35531364 269.3982528 470.36561275 249.91833115 470.36899567 C248.04799741 470.36932502 248.04799741 470.36932502 246.13987914 470.36966102 C244.89000165 470.3698793 243.64012415 470.37009757 242.35237157 470.37032247 C239.81963309 470.37076593 237.2868946 470.3712125 234.75415611 470.37166214 C232.86966635 470.37199428 232.86966635 470.37199428 230.94710608 470.37233314 C210.59174682 470.37628085 190.23642336 470.39373388 169.88107793 470.41702166 C148.98354577 470.44073678 128.08603158 470.4531976 107.18848574 470.45436358 C95.45491755 470.45528028 83.721396 470.4610311 71.98784065 470.4791832 C61.99596134 470.49458635 52.00414309 470.49970337 42.01225416 470.49144509 C36.91523998 470.48753932 31.81834876 470.48846471 26.72134972 470.50250244 C22.05166794 470.51524554 17.38220146 470.51404018 12.71251996 470.50191173 C11.02674929 470.49995545 9.34096334 470.50302998 7.65521412 470.51175609 C-9.82481236 470.59648222 -24.89510381 467.07730468 -37.92113686 454.61580276 C-46.41450899 445.25395757 -52.28961908 433.40003848 -52.30926418 420.67568588 C-52.31161641 420.02633017 -52.31396864 419.37697445 -52.31639215 418.70794129 C-52.32307119 416.52295551 -52.32262426 414.33802934 -52.32221413 412.15303421 C-52.32551344 410.57421004 -52.32923916 408.99538671 -52.33335561 407.41656446 C-52.34337619 403.07056361 -52.3470925 398.72457656 -52.34974492 394.37856579 C-52.35364785 389.69396693 -52.36322626 385.00937901 -52.37195778 380.32478714 C-52.39172351 369.00705584 -52.40178898 357.68932365 -52.41068557 346.37157941 C-52.41506869 341.04148249 -52.42043547 335.71138657 -52.42567444 330.38129044 C-52.44268757 312.66169567 -52.45718131 294.94210153 -52.46442318 277.22249985 C-52.46633307 272.6237831 -52.4682534 268.02506636 -52.47020912 263.42634964 C-52.47069286 262.2833633 -52.4711766 261.14037696 -52.471675 259.96275467 C-52.47997365 241.45095302 -52.50530741 222.93921603 -52.5377898 204.42744261 C-52.57086911 185.42044815 -52.58887277 166.41348654 -52.59206742 147.40646315 C-52.59423181 136.73532192 -52.60297004 126.06427494 -52.62852859 115.39316177 C-52.65024755 106.30414036 -52.65828014 97.2152361 -52.64856181 88.12619168 C-52.64402047 83.49077571 -52.6458937 78.8556014 -52.66532326 74.22021866 C-52.68297973 69.97104167 -52.68193718 65.72228218 -52.66642597 61.4731006 C-52.66405364 59.94138317 -52.66835387 58.40963664 -52.68025462 56.8779636 C-52.80187478 40.18173535 -48.00604823 26.65573215 -36.57348061 14.30330276 C-29.67330904 8.05493894 -21.25945483 3.27832975 -12.17504311 1.13142776 C-11.45677837 0.95938993 -10.73851363 0.78735209 -9.9984833 0.61010098 C-6.62373665 0.03796177 -3.4242639 0.00335015 0 0 Z M-6.11254311 46.19392776 C-8.60713404 49.74683001 -9.25120025 51.79047081 -9.17504311 56.13142776 C-7.57417885 59.27386502 -6.12411822 61.37871302 -3.36254311 63.56892776 C0.04316489 64.44468125 2.43775981 64.02279542 5.82495689 63.13142776 C8.68757946 61.12150128 10.46510562 59.69393989 11.27026939 56.19783401 C11.48812875 52.35624734 11.05815269 50.49676785 8.94995689 47.19392776 C6.02653539 44.35648924 5.1856934 44.16691004 1.01245689 43.75642776 C-2.40546234 43.81235735 -3.14969358 44.11362916 -6.11254311 46.19392776 Z M34.82495689 48.13142776 C33.2503995 51.28054255 33.47696571 53.65151592 33.82495689 57.13142776 C36.29514234 61.17354941 37.76461399 62.80953795 42.32495689 64.19392776 C47.1331219 64.10806768 49.25566555 62.64660562 52.63745689 59.38142776 C54.37063798 56.0975057 54.27428323 53.79022792 53.82495689 50.13142776 C52.02933284 47.37813755 50.77240767 45.60515315 47.82495689 44.13142776 C41.95876571 43.65059242 39.11980899 43.70642864 34.82495689 48.13142776 Z M77.82495689 48.13142776 C76.2105643 51.36021296 76.2431297 54.64046459 76.82495689 58.13142776 C79.35401831 61.73342433 81.06283177 62.89586182 85.26245689 64.19392776 C89.70565623 64.1159769 91.48641161 63.00412952 94.82495689 60.13142776 C96.93353142 57.47279032 96.82519304 56.14441569 96.76245689 52.69392776 C95.61670723 48.34007904 94.50721907 46.71684589 90.82495689 44.13142776 C85.32709992 42.86525464 81.78555922 44.05080719 77.82495689 48.13142776 Z M-30.17504311 107.13142776 C-30.23691811 158.92080276 -30.29879311 210.71017776 -30.36254311 264.06892776 C-30.38985512 280.43220657 -30.41716713 296.79548538 -30.44530678 313.65462112 C-30.45533899 328.30001355 -30.45533899 328.30001355 -30.46137428 342.94540787 C-30.46417351 349.47754524 -30.47518488 356.00960577 -30.49176979 362.54172134 C-30.51086988 370.07560089 -30.51954997 377.60940664 -30.51537796 385.14331058 C-30.51357117 388.99699294 -30.5164302 392.85051039 -30.5326885 396.70416248 C-30.55000202 400.83305805 -30.54402053 404.96159532 -30.53580666 409.09051895 C-30.54891365 410.8891506 -30.54891365 410.8891506 -30.56228542 412.72411823 C-30.50305958 423.78601993 -28.16178119 432.18947513 -20.17504311 440.13142776 C-10.85884765 447.12978968 -2.61147722 448.43126917 8.75218773 448.3719368 C9.95056599 448.37364565 11.14894426 448.3753545 12.38363701 448.37711513 C15.69716995 448.37983373 19.01046513 448.37360647 22.32396924 448.36355901 C25.90192994 448.35490442 29.47988357 448.35784609 33.05785179 448.35936356 C39.25267772 448.36041114 45.44746145 448.3541478 51.64227676 448.34288788 C60.59888142 448.32661865 69.55546571 448.32142342 78.51208354 448.3189119 C93.04436473 448.31453703 107.57662345 448.30123357 122.10889244 448.28230667 C136.22380015 448.26394249 150.33870175 448.24978862 164.453619 448.24129105 C165.32398265 448.2407656 166.19434629 448.24024015 167.09108459 448.23969878 C171.45753892 448.23708867 175.82399329 448.23456126 180.19044769 448.23207498 C216.40196663 448.21134896 252.61346001 448.17612909 288.82495689 448.13142776 C288.82906578 447.06706497 288.83317467 446.00270218 288.83740807 444.90608597 C288.85923137 440.94531143 288.91355295 436.98552581 288.97754478 433.02522659 C289.00069714 431.31340918 289.01511404 429.60144987 289.02051353 427.88948441 C289.02982393 425.42366278 289.07085469 422.96006402 289.11792564 420.49470901 C289.113993 419.73305939 289.11006035 418.97140976 289.10600853 418.18667984 C289.21614298 414.14772959 289.65506656 412.33931153 292.24414635 409.17122269 C296.01386686 406.19174914 298.00968616 405.66842096 302.82495689 406.13142776 C308.40390426 409.2893225 308.40390426 409.2893225 309.82495689 412.13142776 C309.98172465 414.82798222 310.08332005 417.50272753 310.14136314 420.20174026 C310.16214424 420.99796799 310.18292534 421.79419571 310.20433617 422.61455154 C310.26979838 425.16175462 310.32870105 427.70906202 310.38745689 430.25642776 C310.43064529 431.98169903 310.47425968 433.7069597 310.51831627 435.43220901 C310.62547634 439.66517461 310.72675312 443.8982453 310.82495689 448.13142776 C323.67329735 448.22433437 336.52155716 448.29529762 349.37016582 448.33867645 C355.33706958 448.35950194 361.30374256 448.38772759 367.27051353 448.43318558 C373.0347341 448.47682286 378.79873346 448.50060273 384.56310654 448.51093674 C386.75621774 448.51829605 388.9493176 448.53266672 391.14233398 448.55434799 C410.85080336 448.80291031 410.85080336 448.80291031 428.03980064 439.89705276 C434.83130831 433.17985043 437.87385033 425.80244865 438.07105255 416.35062122 C438.07943759 414.01077109 438.07677566 411.67086581 438.06546593 409.33102798 C438.06717478 408.03872802 438.06888363 406.74642805 438.07064426 405.41496748 C438.07510534 401.83924197 438.06713122 398.26363683 438.05708814 394.68792665 C438.04843803 390.8277547 438.0513749 386.96758935 438.05289268 383.10741043 C438.05394055 376.42312453 438.04767425 369.73887773 438.03641701 363.05460167 C438.02015162 353.39030812 438.01495294 343.72603345 438.01244102 334.0617277 C438.00806555 318.38141844 437.99476046 302.70113001 437.9758358 287.02083206 C437.95747318 271.79036437 437.94331854 256.55990234 437.93482018 241.32942581 C437.93429473 240.39036127 437.93376928 239.45129673 437.93322791 238.48377568 C437.93061781 233.77268771 437.9280904 229.06159971 437.9256041 224.35051167 C437.90487621 185.2774652 437.86800892 146.20445726 437.82495689 107.13142776 C395.91495689 107.13142776 354.00495689 107.13142776 310.82495689 107.13142776 C310.49495689 119.01142776 310.16495689 130.89142776 309.82495689 143.13142776 C305.82495689 148.13142776 305.82495689 148.13142776 303.82495689 149.13142776 C296.73536852 149.71254157 296.73536852 149.71254157 292.88745689 147.25642776 C282.73556767 136.79690553 289.29615589 124.0945916 288.82495689 107.13142776 C183.55495689 107.13142776 78.28495689 107.13142776 -30.17504311 107.13142776 Z " fill="#2F5EFD" transform="translate(52.1750431060791,20.868572235107422)"/>
<path d="M0 0 C3.6578218 2.03993908 5.66946174 3.50419262 8 7 C8.62989846 13.40396768 7.81671681 15.67578209 4 21 C2.38443041 22.7695753 0.72031069 24.49579066 -0.984375 26.1796875 C-1.91894531 27.1078125 -2.85351562 28.0359375 -3.81640625 28.9921875 C-4.79416093 29.95323683 -5.77202688 30.91417296 -6.75 31.875 C-7.74395327 32.8589068 -8.73744722 33.84327783 -9.73046875 34.828125 C-12.14917427 37.22334794 -14.57243438 39.61376276 -17 42 C-15.98602142 42.00142502 -14.97204285 42.00285004 -13.92733765 42.00431824 C-4.36349375 42.02100018 5.19992531 42.06381032 14.76354408 42.13209057 C19.68015243 42.16635638 24.59645019 42.19146992 29.51318359 42.19555664 C34.25969949 42.19984046 39.00551478 42.22831005 43.75181198 42.27343178 C45.56101778 42.28640412 47.37030743 42.29071538 49.17955399 42.28615379 C51.71763658 42.28124576 54.25367311 42.30734663 56.79150391 42.34057617 C57.90928726 42.32763771 57.90928726 42.32763771 59.0496521 42.31443787 C64.78156627 42.43993975 67.12318306 44.07099933 71 48 C72.61429923 51.22859847 72.59570657 54.50993653 72 58 C70.26397895 61.02508145 68.16419863 63.41790069 65 65 C62.40726808 65.1223236 59.83961114 65.1856668 57.24560547 65.20532227 C56.04547821 65.22017166 56.04547821 65.22017166 54.82110596 65.23532104 C52.16983017 65.26697262 49.51853644 65.29170789 46.8671875 65.31640625 C45.03158089 65.33697262 43.19597904 65.35796901 41.36038208 65.37937927 C36.52382261 65.43463268 31.68722017 65.48402752 26.85058594 65.53222656 C21.9172787 65.58241774 16.98403404 65.63811623 12.05078125 65.69335938 C2.36724092 65.80098092 -7.31635368 65.90241701 -17 66 C-16.31373535 66.67579102 -15.6274707 67.35158203 -14.92041016 68.04785156 C-12.36957457 70.56241881 -9.82541946 73.0836551 -7.28320312 75.60693359 C-6.18312022 76.69697451 -5.08124689 77.78521164 -3.97753906 78.87158203 C-2.38910533 80.4356884 -0.8072766 82.00622208 0.7734375 83.578125 C1.26621185 84.06057678 1.75898621 84.54302856 2.26669312 85.0401001 C6.21665199 88.98876274 7.84454315 91.36770312 8.375 96.9375 C8.29267724 100.09516598 7.97145344 101.04689792 6.25 103.875 C3.16344962 106.79007536 1.34062405 107.82513599 -2.875 108.375 C-10.8554154 107.41735015 -16.55514328 99.73453383 -21.921875 94.34375 C-22.87228746 93.39468685 -23.82299646 92.4459206 -24.77398682 91.49743652 C-26.7573747 89.51698451 -28.7371321 87.53299264 -30.71435547 85.54638672 C-33.24506976 83.00424754 -35.78470039 80.47123566 -38.32709885 77.94078827 C-40.2884168 75.9867039 -42.24493838 74.02787304 -44.20005035 72.06758118 C-45.58776175 70.67789402 -46.97948958 69.29222132 -48.37127686 67.90661621 C-49.21265198 67.05893677 -50.0540271 66.21125732 -50.92089844 65.33789062 C-51.66225037 64.59494751 -52.40360229 63.85200439 -53.16741943 63.08654785 C-55.73564408 60.16240705 -56.87194119 57.98178421 -57.375 54.125 C-56.41735015 46.1445846 -48.73453383 40.44485672 -43.34375 35.078125 C-42.39468685 34.12771254 -41.4459206 33.17700354 -40.49743652 32.22601318 C-38.51698451 30.2426253 -36.53299264 28.2628679 -34.54638672 26.28564453 C-32.00424754 23.75493024 -29.47123566 21.21529961 -26.94078827 18.67290115 C-24.9867039 16.7115832 -23.02787304 14.75506162 -21.06758118 12.79994965 C-19.67789402 11.41223825 -18.29222132 10.02051042 -16.90661621 8.62872314 C-15.63509705 7.36666046 -15.63509705 7.36666046 -14.33789062 6.07910156 C-13.59494751 5.33774963 -12.85200439 4.59639771 -12.08654785 3.83258057 C-8.20247593 0.42126425 -5.18445388 -0.62213447 0 0 Z " fill="#5178FB" transform="translate(227,234)"/>
<path d="M0 0 C3.02508145 1.73602105 5.41790069 3.83580137 7 7 C7.11036536 8.60707758 7.15911485 10.21858225 7.17700195 11.8293457 C7.18983719 12.83411453 7.20267242 13.83888336 7.21589661 14.87409973 C7.22328354 15.96365463 7.23067047 17.05320953 7.23828125 18.17578125 C7.246353 19.29309128 7.25442474 20.41040131 7.26274109 21.56156921 C7.27658946 23.92962081 7.28730823 26.29769243 7.29516602 28.66577148 C7.31238037 32.28733138 7.35626128 35.907979 7.40039062 39.52929688 C7.41051715 41.82811828 7.41903338 44.12694745 7.42578125 46.42578125 C7.44328934 47.50926346 7.46079742 48.59274567 7.47883606 49.70906067 C7.45708972 57.24800237 7.45708972 57.24800237 5.09057617 61.14135742 C2.05035102 63.84429262 0.17856431 64.84627422 -3.875 65.375 C-7.84487514 64.89861498 -9.89536536 63.46959574 -13 61 C-15.15891428 57.76162858 -15.26117536 56.81847576 -15.30639648 53.07299805 C-15.32238388 52.07153244 -15.33837128 51.07006683 -15.35484314 50.03825378 C-15.36020584 48.95699722 -15.36556854 47.87574066 -15.37109375 46.76171875 C-15.38463646 45.09143364 -15.38463646 45.09143364 -15.39845276 43.3874054 C-15.41296986 41.0295379 -15.4218456 38.67162999 -15.42553711 36.3137207 C-15.43742014 32.71170822 -15.48658325 29.11141576 -15.53710938 25.50976562 C-15.54657498 23.21875836 -15.55380936 20.92774057 -15.55859375 18.63671875 C-15.57812607 17.56153488 -15.59765839 16.48635101 -15.61778259 15.37858582 C-15.56754315 7.02214786 -15.56754315 7.02214786 -12.59008789 3.33520508 C-8.65339741 -0.21408745 -5.22118326 -0.89118527 0 0 Z " fill="#446EFC" transform="translate(356,213)"/>
<path d="M0 0 C2.82424288 2.19022918 4.41508603 3.83017207 6 7 C6.11019544 8.57113906 6.15909332 10.14678278 6.17700195 11.72167969 C6.18983719 12.70320007 6.20267242 13.68472046 6.21589661 14.69598389 C6.22328354 15.76052795 6.23067047 16.82507202 6.23828125 17.921875 C6.246353 19.01461731 6.25442474 20.10735962 6.26274109 21.23321533 C6.27659019 23.54999196 6.28730864 25.86678906 6.29516602 28.18359375 C6.31236269 31.7217496 6.35624077 35.25896736 6.40039062 38.796875 C6.41051878 41.04686812 6.4190345 43.2968692 6.42578125 45.546875 C6.44328934 46.60332214 6.46079742 47.65976929 6.47883606 48.74822998 C6.46101942 54.80245378 6.09836929 58.41669278 2 63 C-1.71453232 64.85726616 -5.95579425 64.58501089 -10 64 C-12.82424288 61.80977082 -14.41508603 60.16982793 -16 57 C-16.11019544 55.42886094 -16.15909332 53.85321722 -16.17700195 52.27832031 C-16.18983719 51.29679993 -16.20267242 50.31527954 -16.21589661 49.30401611 C-16.22328354 48.23947205 -16.23067047 47.17492798 -16.23828125 46.078125 C-16.246353 44.98538269 -16.25442474 43.89264038 -16.26274109 42.76678467 C-16.27659019 40.45000804 -16.28730864 38.13321094 -16.29516602 35.81640625 C-16.31236269 32.2782504 -16.35624077 28.74103264 -16.40039062 25.203125 C-16.41051878 22.95313188 -16.4190345 20.7031308 -16.42578125 18.453125 C-16.44328934 17.39667786 -16.46079742 16.34023071 -16.47883606 15.25177002 C-16.46101942 9.19754622 -16.09836929 5.58330722 -12 1 C-8.28546768 -0.85726616 -4.04420575 -0.58501089 0 0 Z " fill="#6587FA" transform="translate(357,320)"/>
</svg>
