<?xml version="1.0" encoding="UTF-8"?>
<svg version="1.1" xmlns="http://www.w3.org/2000/svg" width="512" height="512">
<path d="M0 0 C1.27033197 -0.00668677 1.27033197 -0.00668677 2.56632721 -0.01350862 C3.96226147 -0.01323207 3.96226147 -0.01323207 5.38639641 -0.01294994 C6.37491281 -0.01662663 7.36342922 -0.02030332 8.38190067 -0.02409142 C11.7097289 -0.03514546 15.03752593 -0.03897504 18.3653698 -0.04278088 C20.74526888 -0.04904426 23.12516699 -0.05569095 25.50506401 -0.0626936 C32.65853139 -0.08193379 39.81199936 -0.09252422 46.96548539 -0.10142139 C50.33545385 -0.10580566 53.70542074 -0.11117216 57.07538795 -0.11641026 C68.28054096 -0.13342309 79.48569299 -0.14791632 90.69085693 -0.155159 C93.59847452 -0.15706885 96.50609209 -0.15898919 99.41370964 -0.16094494 C100.49770278 -0.16167055 100.49770278 -0.16167055 101.60359477 -0.16241082 C113.30501911 -0.17070756 125.0063411 -0.19603817 136.70772077 -0.22852562 C148.72554314 -0.2616191 160.74331354 -0.27960988 172.76118171 -0.28280324 C179.50701612 -0.28496637 186.25270134 -0.29368591 192.99849129 -0.31926441 C199.34651828 -0.34253371 205.69427694 -0.34678272 212.04233551 -0.33650303 C214.37032463 -0.33600728 216.6983269 -0.34233925 219.02627563 -0.35605907 C222.20905562 -0.37376487 225.39087133 -0.36667749 228.57365227 -0.35352612 C229.94951002 -0.36997998 229.94951002 -0.36997998 231.35316288 -0.38676625 C239.24046791 -0.30829969 246.11652099 1.92829152 251.95185661 7.42366505 C252.60478943 8.03034079 253.25772224 8.63701653 253.9304409 9.26207638 C254.56751724 9.87988413 255.20459358 10.49769188 255.86097527 11.13422108 C256.47398239 11.71946489 257.08698952 12.30470871 257.71857262 12.90768719 C259.63207812 14.75594959 261.52180444 16.62587582 263.4068737 18.50311756 C264.1136274 19.20330006 264.82038109 19.90348255 265.54855156 20.6248827 C267.85868483 22.91549376 270.16495085 25.20993991 272.47035027 27.50531483 C273.26339813 28.29428717 274.056446 29.08325951 274.87352562 29.8961401 C279.06321755 34.06507094 283.24969588 38.23719939 287.43372917 42.41180897 C291.74486384 46.71184165 296.06755598 51.00006117 300.39289284 55.28580093 C303.72988888 58.59663654 307.05795339 61.91634228 310.38368797 65.23848629 C311.97348263 66.82342126 313.5666442 68.40498669 315.16327477 69.98303509 C317.3959575 72.19131832 319.61561855 74.41195371 321.83265495 76.63593006 C322.4883094 77.27877445 323.14396385 77.92161884 323.81948662 78.58394337 C330.1047926 84.94101213 333.97026944 91.70309608 334.00814629 100.78300953 C334.01887924 102.54749691 334.01887924 102.54749691 334.02982903 104.3476305 C334.03251793 105.63966389 334.03520683 106.93169727 334.03797722 108.26288319 C334.04424302 109.63613017 334.05088993 111.00937546 334.05788994 112.3826189 C334.07891221 116.89225557 334.089288 121.40189252 334.09925652 125.91156483 C334.10330423 127.46390329 334.10742115 129.01624158 334.1116066 130.56857967 C334.13065125 137.85893614 334.14488594 145.1492825 334.15321857 152.43965906 C334.16300014 160.85875281 334.18934645 169.2775843 334.22971946 177.6965856 C334.25985116 184.20281416 334.27468448 190.70896738 334.27799958 197.21526438 C334.28035273 201.10215046 334.2893476 204.98875611 334.31446075 208.87556744 C334.33769644 212.53067155 334.34199328 216.18530965 334.33169937 219.84046841 C334.33096597 221.82211379 334.35008715 223.80373527 334.36976433 225.78528309 C334.3593486 227.55400021 334.3593486 227.55400021 334.34872246 229.35844898 C334.35111081 230.3832735 334.35349916 231.40809801 334.35595989 232.46397781 C333.72663689 235.85892267 332.58175959 237.06682581 329.86097527 239.13422108 C328.87097527 239.13422108 327.88097527 239.13422108 326.86097527 239.13422108 C326.86097527 245.07422108 326.86097527 251.01422108 326.86097527 257.13422108 C329.50097527 255.81422108 332.14097527 254.49422108 334.86097527 253.13422108 C341.01542673 251.69177151 345.33270278 251.96634991 350.86097527 255.13422108 C356.25380922 260.61143793 359.92541792 266.99231338 363.71986198 273.62421131 C365.20429316 276.21843791 366.70463411 278.80333938 368.2042675 281.38879871 C368.97396396 282.71587563 369.74290318 284.04339202 370.51109123 285.37134266 C374.05989449 291.50005089 377.69990389 297.57197115 381.36097527 303.63422108 C387.49077725 313.80458352 393.52227487 324.02942828 399.48988152 334.29559803 C402.99148927 340.30897701 406.54587188 346.27732488 410.23597527 352.17718983 C410.93013542 353.29738514 411.62429558 354.41758045 412.33949089 355.57172108 C413.64546507 357.67137425 414.96613051 359.76199243 416.30433464 361.84125233 C420.02280878 367.84644489 422.25785872 372.96116006 421.86097527 380.13422108 C419.13138204 389.38450922 412.36591674 393.32772994 404.42347527 397.82172108 C403.59009636 398.30705311 402.75671745 398.79238514 401.89808464 399.2924242 C395.32908712 403.05726468 390.00727023 405.4218353 382.29847527 405.32172108 C381.2040612 405.31527576 380.10964714 405.30883045 378.98206902 405.30218983 C375.86097527 405.13422108 375.86097527 405.13422108 373.22816277 404.47015858 C370.15009853 404.03333758 369.06430716 404.82343112 366.54847527 406.57172108 C365.85109245 407.04480701 365.15370964 407.51789295 364.43519402 408.00531483 C363.91570183 408.37785389 363.39620964 408.75039295 362.86097527 409.13422108 C363.50035027 410.20672108 364.13972527 411.27922108 364.79847527 412.38422108 C368.27610517 418.21766479 368.86554745 424.59661959 367.40003777 431.21625233 C364.98238537 438.42654505 360.94617531 444.30316017 354.29847527 448.13422108 C347.65654154 451.14227009 339.77750445 451.43973081 332.86097527 449.13422108 C332.81972527 450.12422108 332.77847527 451.11422108 332.73597527 452.13422108 C331.88048558 458.15931273 327.69439202 462.39482569 323.42347527 466.44672108 C316.1006973 471.26903827 310.52305826 471.51825431 301.86097527 471.13422108 C301.73142448 471.98693592 301.73142448 471.98693592 301.59925652 472.85687733 C300.32999986 479.83196666 298.31771398 484.61557757 292.48597527 488.86468983 C285.29838738 493.36762807 278.31502526 495.53462815 269.79066277 493.68500233 C268.13419701 493.21220542 266.495195 492.67896099 264.86097527 492.13422108 C264.52066277 492.84707264 264.18035027 493.5599242 263.82972527 494.29437733 C260.09971855 501.66510867 256.09653851 507.51643946 248.55628777 511.28656483 C240.65958546 513.77002048 231.91836764 513.15598129 224.54847527 509.50922108 C221.6512063 507.87706686 218.86347084 506.13583586 216.07191277 504.32953358 C215.19792839 503.77008045 214.32394402 503.21062733 213.42347527 502.63422108 C212.28072136 501.84531483 212.28072136 501.84531483 211.11488152 501.04047108 C208.83526373 499.85936557 208.83526373 499.85936557 206.26722527 500.84906483 C203.69527538 502.17015896 203.69527538 502.17015896 200.79847527 504.19672108 C194.76841391 508.17399559 187.8876536 507.73938955 180.86097527 507.13422108 C173.88747329 505.09102941 168.79664294 500.14129279 164.86097527 494.13422108 C164.86097527 493.47422108 164.86097527 492.81422108 164.86097527 492.13422108 C164.15327995 492.2914867 163.44558464 492.44875233 162.71644402 492.61078358 C154.51716735 494.11379736 147.37667494 493.87425685 140.05238152 489.67718983 C133.53174122 485.08600815 130.82927045 479.74841559 128.86097527 472.13422108 C128.13652214 472.16902576 127.41206902 472.20383045 126.66566277 472.23968983 C125.69886589 472.26676014 124.73206902 472.29383045 123.73597527 472.32172108 C122.78464714 472.35652576 121.83331902 472.39133045 120.85316277 472.42718983 C117.86097527 472.13422108 117.86097527 472.13422108 115.13050652 470.65375233 C110.60583888 468.55089007 106.60254811 468.61994425 101.67347527 468.63422108 C100.77177605 468.6058617 99.87007683 468.57750233 98.94105339 468.54828358 C96.47311757 468.54093306 94.26868774 468.58894673 91.86097527 469.13422108 C89.78379893 471.46623365 89.78379893 471.46623365 88.86097527 474.13422108 C85.64956153 475.73992794 82.1509332 475.29048054 78.62269402 475.29535389 C77.77039711 475.30031879 76.9181002 475.3052837 76.03997612 475.31039906 C73.20946769 475.32504704 70.37901544 475.33182956 67.54847527 475.33734608 C65.57988801 475.3430985 63.61130077 475.34885622 61.64271355 475.35461903 C57.50664318 475.36513865 53.37059229 475.37097399 49.23451042 475.37445545 C43.95327368 475.37992058 38.67229732 475.40390195 33.39114189 475.43242741 C29.3194436 475.45112786 25.24780685 475.45626348 21.17606926 475.45779133 C19.23055929 475.46080528 17.28505007 475.46879102 15.33958244 475.48197651 C0.78433484 475.57352512 -10.6438279 475.08384523 -22.13902473 465.13422108 C-30.58862639 456.42612301 -34.26078101 446.19388955 -34.26765919 434.18785191 C-34.27028874 433.15249049 -34.27028874 433.15249049 -34.27297142 432.09621269 C-34.27763152 429.77819398 -34.27516589 427.46023801 -34.2727375 425.14221668 C-34.27460547 423.46552137 -34.27690612 421.78882649 -34.27960283 420.11213231 C-34.28572903 415.50035908 -34.28558626 410.88860395 -34.28440845 406.27682757 C-34.28420465 401.30464221 -34.28972125 396.33246269 -34.29446602 391.36028004 C-34.30277778 381.61691879 -34.3055211 371.8735636 -34.3060784 362.1301991 C-34.30655334 354.21086679 -34.30860699 346.29153647 -34.31177902 338.37220478 C-34.32058727 315.92496142 -34.32519817 293.47772284 -34.32444855 271.03047773 C-34.32440859 269.81996206 -34.32436864 268.60944639 -34.32432747 267.36224842 C-34.32428659 266.15025651 -34.32424571 264.9382646 -34.32420359 263.68954566 C-34.32379714 244.04739475 -34.33336599 224.40526301 -34.34746584 204.76311764 C-34.36182548 184.60010326 -34.36873624 164.43709823 -34.36787206 144.27407861 C-34.36753993 132.95194613 -34.37029385 121.62983375 -34.38105011 110.30770588 C-34.39014972 100.66748248 -34.39233481 91.02728829 -34.38554069 81.38706246 C-34.38227268 76.46854511 -34.38222894 71.55008381 -34.39089394 66.63157177 C-34.39874747 62.1273366 -34.3973392 57.62320203 -34.3886098 53.11896935 C-34.38707228 51.49110897 -34.38890046 49.86324114 -34.39446988 48.23538956 C-34.44442566 32.59595162 -32.68026662 21.21730411 -21.78746223 9.47406483 C-15.97837 4.34184322 -7.88541727 0.01926307 0 0 Z " fill="#020202" transform="translate(62.13902473449707,-0.13422107696533203)"/>
<path d="M0 0 C0.95744867 -0.00256327 1.91489735 -0.00512655 2.90135962 -0.0077675 C6.09974171 -0.01269681 9.29764855 0.00377374 12.49598694 0.02018738 C14.79255665 0.02103383 17.08912717 0.02055815 19.38569641 0.01885986 C25.61449329 0.01799921 31.84311682 0.03563656 38.07187343 0.05658174 C44.58348 0.07533669 51.09509056 0.07709805 57.60671997 0.08065796 C68.53419586 0.08892256 79.46160775 0.10766064 90.38905334 0.13444519 C101.64230533 0.16199959 112.89554004 0.1832264 124.14881897 0.19596863 C125.19001533 0.19715088 125.19001533 0.19715088 126.25224596 0.19835702 C129.73464001 0.20227225 133.21703418 0.20606335 136.69942844 0.20979273 C165.57054009 0.24087203 194.44158719 0.29391694 223.31263733 0.36076355 C223.31850357 0.9900174 223.32436981 1.61927124 223.33041382 2.26759338 C223.39466496 8.85476395 223.47916446 15.4414602 223.5750885 22.02824402 C223.60821184 24.48195619 223.63628239 26.93574225 223.65907288 29.38957214 C223.69285062 32.92976683 223.745179 36.46929204 223.80091858 40.00920105 C223.81050346 41.63793655 223.81050346 41.63793655 223.82028198 43.29957581 C224.04350784 55.03168155 227.08836452 65.62102301 235.19935608 74.4037323 C241.2723928 79.99951662 247.53471671 82.76812334 255.31263733 85.36076355 C255.31263733 97.57076355 255.31263733 109.78076355 255.31263733 122.36076355 C250.85676872 122.36956291 250.85676872 122.36956291 246.31088257 122.37854004 C219.07673387 122.43370342 191.84265057 122.50365267 164.60858365 122.58974983 C161.03996452 122.60101814 157.471345 122.61215657 153.90272522 122.62321472 C152.83704307 122.62652025 152.83704307 122.62652025 151.749832 122.62989255 C140.24280413 122.66527516 128.73577632 122.69013385 117.22871421 122.71111057 C105.42340693 122.73286496 93.61817032 122.76591191 81.81292313 122.80946511 C75.18124975 122.8336068 68.54963526 122.85214088 61.91791725 122.85837746 C55.67909305 122.86440891 49.44046937 122.88433857 43.20171928 122.91503906 C40.90916458 122.92385043 38.61658371 122.9275355 36.32401276 122.92577171 C33.19887831 122.92412618 30.07436038 122.94075712 26.9493103 122.96203613 C26.03782882 122.95718856 25.12634733 122.95234098 24.18724519 122.94734651 C19.46909032 123.00052558 16.05442483 123.14133066 12.31263733 126.36076355 C11.06425352 129.76605351 11.06425352 129.76605351 11.31263733 133.36076355 C12.64598018 135.74691962 12.64598018 135.74691962 15.31263733 137.36076355 C18.50639049 137.96137075 21.66317078 137.90702641 24.90498352 137.87974548 C26.38018892 137.89099736 26.38018892 137.89099736 27.88519645 137.90247655 C31.18967314 137.92282064 34.49346807 137.91463766 37.79798889 137.90666199 C40.16308779 137.91539331 42.52818077 137.92587754 44.89326477 137.93798828 C51.32262165 137.96592258 57.75178649 137.96925132 64.18119526 137.96826839 C70.21695798 137.9691783 76.25265244 137.99218614 82.28837177 138.013235 C94.24339114 138.05432931 106.19837639 138.07763227 118.15345764 138.08976746 C129.76677227 138.10159378 141.38002263 138.12178628 152.99330139 138.15324402 C153.70912944 138.15518012 154.42495748 138.15711622 155.16247728 138.15911099 C158.75357223 138.16887549 162.34466671 138.17880462 165.93576097 138.18881559 C195.72802332 138.27165518 225.52028021 138.32453369 255.31263733 138.36076355 C255.31263733 148.59076355 255.31263733 158.82076355 255.31263733 169.36076355 C252.31478149 169.36440918 249.31692566 169.36805481 246.22822571 169.37181091 C218.74980438 169.40707289 191.27148775 169.46208251 163.79315378 169.5386845 C160.19320339 169.5487022 156.59325255 169.55854629 152.99330139 169.56828308 C151.91825394 169.57119514 151.91825394 169.57119514 150.82148835 169.57416603 C139.21031373 169.60520387 127.59915889 169.62217165 115.98795059 169.63395777 C104.07754406 169.64636012 92.16724147 169.67384069 80.25690055 169.71537662 C73.56542226 169.73827822 66.8741017 169.75367039 60.18257904 169.7526474 C53.88871947 169.75190457 47.59518897 169.76970324 41.30141449 169.80193138 C38.98747761 169.81047383 36.67350401 169.8121511 34.35955811 169.80656624 C31.20764408 169.79997025 28.05679066 169.81774174 24.90498352 169.84178162 C23.9828073 169.8340212 23.06063107 169.82626078 22.11051011 169.8182652 C17.0892029 169.8741229 17.0892029 169.8741229 12.71702194 172.17054367 C10.99970339 174.4270985 10.99970339 174.4270985 11.25013733 177.92326355 C11.98559988 181.38224136 11.98559988 181.38224136 14.27675152 183.05068684 C18.54510129 184.89260909 22.34582421 184.78397391 26.9493103 184.75949097 C28.41354668 184.76946121 28.41354668 184.76946121 29.90736359 184.77963287 C33.18098831 184.79829759 36.45424864 184.79565519 39.72792053 184.7931366 C42.07346108 184.80215161 44.4189969 184.81247818 46.76452637 184.82402039 C53.13594028 184.85164694 59.50726495 184.86088263 65.87873101 184.86687446 C71.86155513 184.87529437 77.84432179 184.89742059 83.82710745 184.91949294 C95.67618907 184.96276114 107.52526544 184.99272769 119.37440491 185.014328 C130.88387125 185.0353376 142.39329466 185.06261251 153.90272522 185.09831238 C154.61231655 185.1005112 155.32190788 185.10271003 156.05300198 185.10497548 C159.61285809 185.11604513 163.1727138 185.12723794 166.73256934 185.13849199 C196.25922461 185.23167757 225.7858924 185.30082455 255.31263733 185.36076355 C255.31263733 215.06076355 255.31263733 244.76076355 255.31263733 275.36076355 C250.03263733 276.02076355 244.75263733 276.68076355 239.31263733 277.36076355 C235.03965294 278.35418841 230.84473449 279.37844698 226.62513733 280.54826355 C224.58230159 281.11422742 222.5367841 281.67062101 220.48841858 282.2162323 C219.61096985 282.46010681 218.73352112 282.70398132 217.82948303 282.95524597 C212.5757262 283.80173837 209.02557178 281.75559188 204.50013733 279.29826355 C193.53423513 274.15606083 182.70850826 275.26399134 171.46107483 279.1381073 C169.30810851 279.97418479 167.16767289 280.84306957 165.03919983 281.7396698 C156.62336521 285.2479334 149.59256439 287.00529121 140.59779358 284.64982605 C137.88933044 283.5116725 136.24750043 282.57934456 134.31263733 280.36076355 C133.66776841 277.40063606 133.62357661 274.65762532 133.58998108 271.6302948 C132.98774932 264.53074577 129.42254781 258.06306684 124.14466858 253.3412323 C120.22282486 250.1407425 116.00573139 247.56739358 111.62513733 245.04826355 C110.50655334 244.38600769 110.50655334 244.38600769 109.3653717 243.71037292 C103.60170742 240.3529485 98.16156767 238.08898603 91.31263733 239.36076355 C83.44941892 242.34822287 80.47535416 248.79479527 76.43763733 255.79826355 C75.69702408 257.0536214 74.95488741 258.30808158 74.21131897 259.56169128 C72.27542018 262.83478691 70.36009549 266.11943829 68.44978333 269.40751648 C66.64031731 272.51559073 64.81390255 275.61364248 62.98841858 278.71232605 C60.14950033 283.53624259 57.32140958 288.36635211 54.50013733 293.2006073 C50.44540873 300.14603404 46.35360218 307.06899741 42.25013733 313.98576355 C41.60407532 315.0751825 40.95801331 316.16460144 40.29237366 317.28703308 C37.18346861 322.52752641 34.07180179 327.76636943 30.95809937 333.00401306 C29.47446838 335.50023353 27.99188095 337.99707288 26.50944519 340.4940033 C25.46174759 342.25767681 24.41248623 344.02041338 23.36317444 345.78312683 C22.73032532 346.84902039 22.0974762 347.91491394 21.44544983 349.0131073 C20.8874469 349.95146423 20.32944397 350.88982117 19.75453186 351.85661316 C16.91936695 356.78046796 15.29695027 360.55076801 16.31263733 366.36076355 C19.08993452 372.7430397 23.20862471 376.2267187 29.12513733 379.61076355 C30.13544006 380.22177917 30.13544006 380.22177917 31.16615295 380.84513855 C40.0653157 386.15908836 47.69357459 390.36160173 58.31263733 389.36076355 C60.69849525 388.73952578 62.96377644 387.98410454 65.26966858 387.1146698 C67.28541661 386.37080867 69.19787577 385.74647478 71.31263733 385.36076355 C71.97263733 385.69076355 72.63263733 386.02076355 73.31263733 386.36076355 C71.94184985 390.20447918 70.15733951 393.19910338 67.75013733 396.48576355 C62.60359319 403.52615034 62.65533067 409.78719841 63.31263733 418.36076355 C64.97702305 425.01830642 69.78475031 429.55197733 75.31263733 433.36076355 C78.93826973 435.11433739 82.1222705 435.69639968 86.12513733 435.98576355 C87.10095764 436.06052917 88.07677795 436.1352948 89.08216858 436.21232605 C89.81822327 436.26131042 90.55427795 436.3102948 91.31263733 436.36076355 C91.53177795 436.91763855 91.75091858 437.47451355 91.97669983 438.04826355 C92.2938092 438.81138855 92.61091858 439.57451355 92.93763733 440.36076355 C93.23927795 441.10326355 93.54091858 441.84576355 93.85169983 442.61076355 C95.89806346 446.46274214 98.69555431 449.87131952 101.31263733 453.36076355 C94.71263733 453.36076355 88.11263733 453.36076355 81.31263733 453.36076355 C80.65263733 451.71076355 79.99263733 450.06076355 79.31263733 448.36076355 C76.78827226 445.83639848 75.21353592 446.11514494 71.76956177 446.08178711 C70.99607895 446.08434006 70.22259613 446.08689301 69.42567444 446.08952332 C68.61078552 446.08429657 67.79589661 446.07906982 66.95631409 446.07368469 C65.18243275 446.06342647 63.40852116 446.05766112 61.63461113 446.0558033 C58.82162282 446.05214593 56.00898911 446.03543337 53.19607544 446.01504517 C45.19666667 445.95959505 37.19720381 445.9290459 29.19764709 445.90446472 C24.30634805 445.8885276 19.41529642 445.85823501 14.52412605 445.81970024 C12.6643545 445.80809436 10.80453853 445.80212028 8.94473076 445.80201912 C6.33134805 445.80182557 3.71863919 445.78344766 1.10536194 445.76139832 C0.34604874 445.76597549 -0.41326447 445.77055267 -1.19558716 445.77526855 C-9.61244369 445.66321379 -16.75362795 443.4324921 -22.68736267 437.36076355 C-26.84943142 431.4244796 -27.81125497 426.64456697 -27.82158375 419.50341415 C-27.82393598 418.81065071 -27.82628821 418.11788727 -27.82871172 417.404131 C-27.83539434 415.07152392 -27.83494372 412.73897265 -27.83453369 410.40635681 C-27.83783276 408.72156192 -27.84155842 407.03676782 -27.84567517 405.35197473 C-27.85569814 400.71321215 -27.85941243 396.07446251 -27.86206448 391.43569064 C-27.86596657 386.4362373 -27.87554489 381.43679421 -27.88427734 376.43734741 C-27.904043 364.36026827 -27.91410747 352.28318828 -27.92300513 340.20609701 C-27.92738731 334.5208381 -27.93275425 328.83558013 -27.937994 323.15032196 C-27.95500533 304.25548369 -27.96950048 285.360646 -27.97674274 266.46580124 C-27.97865268 261.56213632 -27.98057301 256.65847141 -27.98252869 251.75480652 C-27.98301243 250.53600557 -27.98349617 249.31720461 -27.98399457 248.0614703 C-27.99229853 228.30862857 -28.01764208 208.55584732 -28.05010936 188.80303201 C-28.08315982 168.53044306 -28.10118963 148.25788487 -28.10438699 127.98526883 C-28.1065538 116.5999662 -28.11532766 105.21475181 -28.14084816 93.8294754 C-28.16252752 84.13537993 -28.17061914 74.44139414 -28.16088138 64.74727717 C-28.15632886 59.80047162 -28.15827827 54.85389251 -28.17764282 49.90711784 C-28.19521901 45.3781276 -28.19432196 40.8495299 -28.17874553 36.32053581 C-28.17636103 34.68256488 -28.18073652 33.04456717 -28.19257418 31.40663728 C-28.25554958 22.11723181 -28.26154885 14.78794482 -22.01158142 7.3724823 C-21.20140564 6.71699402 -21.20140564 6.71699402 -20.37486267 6.04826355 C-19.84247986 5.59838074 -19.31009705 5.14849792 -18.76158142 4.6849823 C-12.44848175 0.65458534 -7.34423133 -0.07241894 0 0 Z " fill="#F3F7F7" transform="translate(71.68736267089844,14.639236450195313)"/>
<path d="M0 0 C1.27033197 -0.00668677 1.27033197 -0.00668677 2.56632721 -0.01350862 C3.96226147 -0.01323207 3.96226147 -0.01323207 5.38639641 -0.01294994 C6.37491281 -0.01662663 7.36342922 -0.02030332 8.38190067 -0.02409142 C11.7097289 -0.03514546 15.03752593 -0.03897504 18.3653698 -0.04278088 C20.74526888 -0.04904426 23.12516699 -0.05569095 25.50506401 -0.0626936 C32.65853139 -0.08193379 39.81199936 -0.09252422 46.96548539 -0.10142139 C50.33545385 -0.10580566 53.70542074 -0.11117216 57.07538795 -0.11641026 C68.28054096 -0.13342309 79.48569299 -0.14791632 90.69085693 -0.155159 C93.59847452 -0.15706885 96.50609209 -0.15898919 99.41370964 -0.16094494 C100.49770278 -0.16167055 100.49770278 -0.16167055 101.60359477 -0.16241082 C113.30501911 -0.17070756 125.0063411 -0.19603817 136.70772077 -0.22852562 C148.72554314 -0.2616191 160.74331354 -0.27960988 172.76118171 -0.28280324 C179.50701612 -0.28496637 186.25270134 -0.29368591 192.99849129 -0.31926441 C199.34651828 -0.34253371 205.69427694 -0.34678272 212.04233551 -0.33650303 C214.37032463 -0.33600728 216.6983269 -0.34233925 219.02627563 -0.35605907 C222.20905562 -0.37376487 225.39087133 -0.36667749 228.57365227 -0.35352612 C229.94951002 -0.36997998 229.94951002 -0.36997998 231.35316288 -0.38676625 C239.24046791 -0.30829969 246.11652099 1.92829152 251.95185661 7.42366505 C252.60478943 8.03034079 253.25772224 8.63701653 253.9304409 9.26207638 C254.56751724 9.87988413 255.20459358 10.49769188 255.86097527 11.13422108 C256.47398239 11.71946489 257.08698952 12.30470871 257.71857262 12.90768719 C259.63207812 14.75594959 261.52180444 16.62587582 263.4068737 18.50311756 C264.1136274 19.20330006 264.82038109 19.90348255 265.54855156 20.6248827 C267.85868483 22.91549376 270.16495085 25.20993991 272.47035027 27.50531483 C273.26339813 28.29428717 274.056446 29.08325951 274.87352562 29.8961401 C279.06321755 34.06507094 283.24969588 38.23719939 287.43372917 42.41180897 C291.74486384 46.71184165 296.06755598 51.00006117 300.39289284 55.28580093 C303.72988888 58.59663654 307.05795339 61.91634228 310.38368797 65.23848629 C311.97348263 66.82342126 313.5666442 68.40498669 315.16327477 69.98303509 C317.3959575 72.19131832 319.61561855 74.41195371 321.83265495 76.63593006 C322.4883094 77.27877445 323.14396385 77.92161884 323.81948662 78.58394337 C330.1047926 84.94101213 333.97026944 91.70309608 334.00814629 100.78300953 C334.01887924 102.54749691 334.01887924 102.54749691 334.02982903 104.3476305 C334.03251793 105.63966389 334.03520683 106.93169727 334.03797722 108.26288319 C334.04424302 109.63613017 334.05088993 111.00937546 334.05788994 112.3826189 C334.07891221 116.89225557 334.089288 121.40189252 334.09925652 125.91156483 C334.10330423 127.46390329 334.10742115 129.01624158 334.1116066 130.56857967 C334.13065125 137.85893614 334.14488594 145.1492825 334.15321857 152.43965906 C334.16300014 160.85875281 334.18934645 169.2775843 334.22971946 177.6965856 C334.25985116 184.20281416 334.27468448 190.70896738 334.27799958 197.21526438 C334.28035273 201.10215046 334.2893476 204.98875611 334.31446075 208.87556744 C334.33769644 212.53067155 334.34199328 216.18530965 334.33169937 219.84046841 C334.33096597 221.82211379 334.35008715 223.80373527 334.36976433 225.78528309 C334.3593486 227.55400021 334.3593486 227.55400021 334.34872246 229.35844898 C334.35111081 230.3832735 334.35349916 231.40809801 334.35595989 232.46397781 C333.72944915 235.84375164 332.54230591 237.04930413 329.86097527 239.13422108 C327.57191277 239.19281483 327.57191277 239.19281483 325.23597527 238.57172108 C324.45995964 238.38480701 323.68394402 238.19789295 322.88441277 238.00531483 C320.86097527 237.13422108 320.86097527 237.13422108 318.86097527 234.13422108 C318.61487961 231.6879673 318.61487961 231.6879673 318.62046623 228.72426319 C318.61634224 227.03945347 318.61634224 227.03945347 318.61213493 225.32060719 C318.61932549 224.08774479 318.62651604 222.85488239 318.63392448 221.58466053 C318.63363243 220.28699757 318.63334038 218.9893346 318.63303947 217.65234852 C318.63246498 214.0926671 318.64423481 210.53312011 318.65818739 206.97346997 C318.67067873 203.25388248 318.67186399 199.53429201 318.6742382 195.81468678 C318.68045768 188.77052102 318.6968748 181.72641725 318.71693718 174.68227881 C318.73928167 166.6630235 318.75028596 158.64376525 318.76032805 150.62448657 C318.78124063 134.1276951 318.81642566 117.630966 318.86097527 101.13422108 C318.22363457 101.14310352 317.58629387 101.15198597 316.92963982 101.16113758 C310.24522256 101.25021556 303.56097624 101.31020425 296.87611198 101.35394764 C294.38743544 101.37395775 291.89880528 101.4011745 289.41029167 101.43597889 C285.81561082 101.48496452 282.22155614 101.50729691 278.62660027 101.52484608 C276.98053795 101.55581379 276.98053795 101.55581379 275.30122185 101.58740711 C262.13363264 101.59115949 252.61461941 97.48071039 243.15003777 88.51312733 C236.29190775 81.25464962 232.7233521 71.69734046 232.74744987 61.79315662 C232.74752541 60.75245518 232.74760094 59.71175373 232.74767876 58.63951588 C232.75284004 57.52788578 232.75800133 56.41625568 232.76331902 55.27093983 C232.76544144 53.55026043 232.76544144 53.55026043 232.76760674 51.79481983 C232.77319666 48.13709353 232.78574737 44.47942882 232.79847527 40.82172108 C232.80349157 38.33930009 232.80805425 35.85687814 232.81214714 33.37445545 C232.8231628 27.29435637 232.83989096 21.21429313 232.86097527 15.13422108 C203.34830022 15.14771346 173.83574485 15.18669337 144.32315958 15.2610767 C140.83609079 15.26984307 137.34902149 15.27839295 133.86195183 15.28680897 C133.16776169 15.28848803 132.47357155 15.29016709 131.75834535 15.29189704 C120.52950373 15.31854078 109.30071315 15.32766023 98.07184316 15.3302625 C86.54333024 15.33332584 75.01498881 15.35568719 63.48653877 15.39474565 C57.01393005 15.41606651 50.54157 15.42868072 44.06892586 15.42037487 C37.97361474 15.4128293 31.87880727 15.42867924 25.78358841 15.46228123 C23.54957437 15.47050822 21.31551019 15.47027192 19.08150101 15.46081829 C16.02344516 15.44916129 12.96703035 15.46836927 9.90910149 15.49498463 C9.03163895 15.48431137 8.15417641 15.47363811 7.2501241 15.46264142 C0.63561929 15.56953917 -4.6406314 17.41988181 -10.13902473 21.13422108 C-15.43875258 26.76719911 -17.26262097 31.09685434 -17.2704525 38.86852264 C-17.27250513 39.56013224 -17.27455777 40.25174184 -17.2766726 40.9643093 C-17.28236042 43.29901494 -17.28088316 45.63366192 -17.27946663 47.9683733 C-17.28204925 49.65230497 -17.28506212 51.33623602 -17.28847003 53.02016622 C-17.2965555 57.66119001 -17.29833046 62.30219836 -17.2990675 66.94322836 C-17.30091538 71.94337959 -17.30846141 76.94352274 -17.31520271 81.94366932 C-17.32879784 92.88376147 -17.33481268 103.82384996 -17.33921337 114.76394916 C-17.34197397 121.59256204 -17.34621101 128.4211735 -17.35071754 135.24978542 C-17.36291207 154.14887338 -17.37321082 173.0479602 -17.37659264 191.947052 C-17.3768122 193.15718714 -17.37703177 194.36732229 -17.37725799 195.61412819 C-17.37747627 196.82719394 -17.37769454 198.0402597 -17.37791944 199.29008502 C-17.3783629 201.7483029 -17.37880947 204.20652078 -17.37925911 206.66473866 C-17.37948054 207.88410511 -17.37970197 209.10347156 -17.37993011 210.35978851 C-17.38387835 230.11914842 -17.40133234 249.87847145 -17.42461863 269.63781711 C-17.44832255 289.9148947 -17.46079406 310.19195378 -17.46196055 330.46904546 C-17.46287789 341.85769871 -17.46864486 353.24630393 -17.48678017 364.63494396 C-17.50216824 374.33271172 -17.50730928 384.03041661 -17.49904206 393.72819426 C-17.4951309 398.67697974 -17.49608793 403.62563857 -17.51009941 408.57440853 C-17.52281033 413.10523374 -17.52166553 417.63583676 -17.5095087 422.16666154 C-17.50754682 423.80533266 -17.51065276 425.44401937 -17.51935306 427.08266857 C-17.79816136 440.38077357 -17.79816136 440.38077357 -11.82652473 451.88422108 C-4.40588487 458.0968498 0.66240732 459.28258898 10.16786003 459.27606678 C10.99121849 459.27954121 11.81457695 459.28301563 12.66288567 459.28659534 C14.44492294 459.29392858 16.22696921 459.29928687 18.00901794 459.30288601 C20.82920632 459.31007067 23.64922266 459.32574996 26.46935844 459.34422779 C34.48553502 459.39661966 42.50161334 459.44471297 50.51795769 459.46014881 C55.42573875 459.47021758 60.33308062 459.4995062 65.24068832 459.54146862 C67.11016777 459.55379158 68.97970917 459.55889752 70.84922791 459.55667019 C73.46112634 459.55432288 76.07175763 459.57643639 78.68348503 459.60419178 C79.45606148 459.59759037 80.22863792 459.59098896 81.02462578 459.58418751 C84.53637381 459.64555363 86.48789417 459.84811107 89.31347466 462.01500416 C91.15446733 464.53614231 91.78466805 466.00562512 91.86097527 469.13422108 C89.66694541 473.731236 89.66694541 473.731236 86.86097527 475.13422108 C84.10680333 475.24311773 81.37753626 475.29154879 78.62269402 475.29535389 C77.77039711 475.30031879 76.9181002 475.3052837 76.03997612 475.31039906 C73.20946769 475.32504704 70.37901544 475.33182956 67.54847527 475.33734608 C65.57988801 475.3430985 63.61130077 475.34885622 61.64271355 475.35461903 C57.50664318 475.36513865 53.37059229 475.37097399 49.23451042 475.37445545 C43.95327368 475.37992058 38.67229732 475.40390195 33.39114189 475.43242741 C29.3194436 475.45112786 25.24780685 475.45626348 21.17606926 475.45779133 C19.23055929 475.46080528 17.28505007 475.46879102 15.33958244 475.48197651 C0.78433484 475.57352512 -10.6438279 475.08384523 -22.13902473 465.13422108 C-30.58862639 456.42612301 -34.26078101 446.19388955 -34.26765919 434.18785191 C-34.27028874 433.15249049 -34.27028874 433.15249049 -34.27297142 432.09621269 C-34.27763152 429.77819398 -34.27516589 427.46023801 -34.2727375 425.14221668 C-34.27460547 423.46552137 -34.27690612 421.78882649 -34.27960283 420.11213231 C-34.28572903 415.50035908 -34.28558626 410.88860395 -34.28440845 406.27682757 C-34.28420465 401.30464221 -34.28972125 396.33246269 -34.29446602 391.36028004 C-34.30277778 381.61691879 -34.3055211 371.8735636 -34.3060784 362.1301991 C-34.30655334 354.21086679 -34.30860699 346.29153647 -34.31177902 338.37220478 C-34.32058727 315.92496142 -34.32519817 293.47772284 -34.32444855 271.03047773 C-34.32440859 269.81996206 -34.32436864 268.60944639 -34.32432747 267.36224842 C-34.32428659 266.15025651 -34.32424571 264.9382646 -34.32420359 263.68954566 C-34.32379714 244.04739475 -34.33336599 224.40526301 -34.34746584 204.76311764 C-34.36182548 184.60010326 -34.36873624 164.43709823 -34.36787206 144.27407861 C-34.36753993 132.95194613 -34.37029385 121.62983375 -34.38105011 110.30770588 C-34.39014972 100.66748248 -34.39233481 91.02728829 -34.38554069 81.38706246 C-34.38227268 76.46854511 -34.38222894 71.55008381 -34.39089394 66.63157177 C-34.39874747 62.1273366 -34.3973392 57.62320203 -34.3886098 53.11896935 C-34.38707228 51.49110897 -34.38890046 49.86324114 -34.39446988 48.23538956 C-34.44442566 32.59595162 -32.68026662 21.21730411 -21.78746223 9.47406483 C-15.97837 4.34184322 -7.88541727 0.01926307 0 0 Z " fill="#020101" transform="translate(62.13902473449707,-0.13422107696533203)"/>
<path d="M0 0 C17.82 0.33 35.64 0.66 54 1 C54.02187378 7.01988159 54.02187378 7.01988159 54.04418945 13.16137695 C54.09444691 26.39689945 54.16087461 39.63229889 54.23571491 52.86770344 C54.28070902 60.89510601 54.32011524 68.92246386 54.34643555 76.94995117 C54.36938647 83.94550226 54.40275168 90.94091224 54.44870156 97.93635148 C54.47267326 101.64150644 54.49137604 105.34652131 54.49761391 109.05175209 C54.50476701 113.18485117 54.53516717 117.31746168 54.56762695 121.45043945 C54.56547432 123.29973305 54.56547432 123.29973305 54.5632782 125.18638611 C54.58208542 126.87119583 54.58208542 126.87119583 54.60127258 128.59004211 C54.60588155 129.56806447 54.61049051 130.54608683 54.61523914 131.55374622 C55.06475805 134.41172231 55.71075978 135.28875436 58 137 C60.10332891 137.71447643 60.10332891 137.71447643 62 138 C63.63551243 152.27637835 63.63551243 152.27637835 62 159 C59.00921441 162.26869045 56.35548243 163.6214743 52.34765625 165.453125 C45.9811482 168.39494202 42.21325139 173.60843916 39.58007812 180.01782227 C38.52328674 183.62897093 38.68784072 187.20731063 38.8125 190.9375 C38.83280273 192.10635742 38.83280273 192.10635742 38.85351562 193.29882812 C38.88849776 195.19952404 38.94229041 197.09985834 39 199 C33.96558411 201.51720794 27.7939046 200.86649591 22.55810547 199.24267578 C17.36081278 197.34651002 12.27320584 195.19568528 7.21313477 192.96142578 C4.82923156 191.9258151 2.41323291 190.96529316 0 190 C0 160.3 0 130.6 0 100 C-7.17830566 100.02094727 -14.35661133 100.04189453 -21.75244141 100.06347656 C-44.71926703 100.12767393 -67.68609884 100.17216874 -90.65298835 100.20426132 C-94.22031928 100.20926416 -97.78764994 100.21444144 -101.35498047 100.21972656 C-102.06517292 100.2207758 -102.77536537 100.22182505 -103.50707881 100.22290608 C-115.00701845 100.24031219 -126.50687813 100.27185098 -138.00677033 100.30861118 C-149.8063838 100.34601494 -161.60595538 100.36823465 -173.4056257 100.37635398 C-180.03348185 100.38135036 -186.66118915 100.39386516 -193.28899002 100.42292023 C-199.52533115 100.45003812 -205.76141588 100.4584522 -211.99781036 100.45243073 C-214.28836077 100.45353257 -216.57891962 100.46150776 -218.8694191 100.4768219 C-221.99428655 100.49669248 -225.11818309 100.49194929 -228.24307251 100.48101807 C-229.15164116 100.49266943 -230.0602098 100.5043208 -230.99631083 100.51632524 C-236.44902031 100.46468823 -239.75159492 99.76634895 -244 96 C-245.1875 92.5625 -245.1875 92.5625 -245 89 C-243.01104618 86.19612207 -241.41614599 84.31446032 -237.95916307 83.54682481 C-235.38912857 83.3674934 -232.86348794 83.35791356 -230.28739929 83.39872742 C-229.3030746 83.39445529 -228.31874991 83.39018317 -227.3045972 83.38578159 C-224.0029777 83.37753916 -220.7026257 83.40505849 -217.40112305 83.43237305 C-215.03588389 83.43378324 -212.67064254 83.43299211 -210.30540466 83.43016052 C-203.88009469 83.42872386 -197.45524985 83.45815489 -191.03004813 83.49303031 C-184.99691122 83.52347342 -178.963723 83.52614455 -172.93052349 83.53128967 C-160.98150791 83.54222961 -149.0326631 83.57549554 -137.08374023 83.62280273 C-125.47730361 83.66870617 -113.87091339 83.7040942 -102.2644043 83.7253418 C-101.54883898 83.72665541 -100.83327365 83.72796903 -100.09602454 83.72932246 C-96.5062009 83.7358477 -92.91637693 83.74216623 -89.32655275 83.74838197 C-59.55091437 83.80020561 -29.77548154 83.8896398 0 84 C0 73.77 0 63.54 0 53 C-2.99563522 53.01110306 -5.99127045 53.02220612 -9.0776825 53.03364563 C-36.54122823 53.13311749 -64.00473858 53.20777355 -91.46841822 53.25532665 C-95.0670806 53.26158026 -98.66574255 53.26805187 -102.2644043 53.2746582 C-103.33905829 53.27662553 -103.33905829 53.27662553 -104.43542246 53.2786326 C-116.03952533 53.30039577 -127.64350449 53.33982226 -139.24753394 53.38576398 C-151.152231 53.43250338 -163.05686323 53.46029004 -174.96164829 53.47044247 C-181.64931266 53.47669057 -188.33675169 53.49235072 -195.02432823 53.52865028 C-201.31569537 53.56252341 -207.6066655 53.57307032 -213.89811516 53.56553841 C-216.21005662 53.56691682 -218.522011 53.57690048 -220.83387375 53.59602737 C-223.98554038 53.62082879 -227.13569929 53.61495146 -230.28739929 53.60127258 C-231.66629437 53.62311889 -231.66629437 53.62311889 -233.07304591 53.64540654 C-237.52759029 53.59298618 -239.4315537 53.42281081 -243.10703754 50.68898296 C-245 48 -245 48 -245 44.375 C-243.65591398 39.83870968 -243.65591398 39.83870968 -241 38 C-238.27517001 37.09172334 -236.71226372 36.87548013 -233.91392231 36.87695217 C-233.07890102 36.87496112 -232.24387972 36.87297007 -231.38355476 36.87091869 C-230.007594 36.87528795 -230.007594 36.87528795 -228.60383606 36.87974548 C-227.62938732 36.87889106 -226.65493859 36.87803663 -225.6509611 36.87715632 C-222.37121149 36.87550336 -219.09151252 36.88101992 -215.81176758 36.88647461 C-213.46652732 36.88675655 -211.12128696 36.88659862 -208.77604675 36.8860321 C-202.39625489 36.88574439 -196.0164817 36.89163702 -189.63669419 36.89860606 C-183.64880151 36.90421226 -177.66090882 36.9052284 -171.67301401 36.90625793 C-159.81170958 36.90844732 -147.95041202 36.91510435 -136.08911133 36.92456055 C-124.5659997 36.93373758 -113.04288994 36.94081699 -101.51977539 36.94506836 C-100.80965861 36.94533108 -100.09954184 36.94559381 -99.36790637 36.94586449 C-95.80550933 36.94716952 -92.24311227 36.94843323 -88.6807152 36.94967639 C-59.12047225 36.96004548 -29.56023656 36.97793568 0 37 C0 24.79 0 12.58 0 0 Z " fill="#E4E9EE" transform="translate(327,100)"/>
<path d="M0 0 C-1.43770951 3.83389204 -3.19830545 7.41563869 -5.09765625 11.03515625 C-6.63944024 14.3923742 -7.12626344 17.50712484 -7.17700195 21.18261719 C-7.18983719 21.99736511 -7.20267242 22.81211304 -7.21589661 23.65155029 C-7.22328354 24.52450745 -7.23067047 25.3974646 -7.23828125 26.296875 C-7.25038887 27.65827606 -7.25038887 27.65827606 -7.26274109 29.04718018 C-7.27655639 30.96698104 -7.28728994 32.88680621 -7.29516602 34.80664062 C-7.30668026 36.7617924 -7.32712326 38.71691288 -7.35668945 40.671875 C-7.39952774 43.50542439 -7.41555776 46.33804129 -7.42578125 49.171875 C-7.45204338 50.46916534 -7.45204338 50.46916534 -7.47883606 51.79266357 C-7.45348137 58.96302335 -5.60042004 64.26271575 -0.625 69.5 C6.20766474 72.32730955 13.31539414 72.18356624 20.33203125 69.9296875 C29.84793456 65.54878107 35.24678495 59.12617289 40 50 C48.31858304 54.46067418 56.4907598 59.15163328 64.625 63.9375 C65.90689871 64.69010814 67.1887998 65.44271223 68.47070312 66.1953125 C77.51647876 71.51194232 86.52243721 76.89297559 95.50610352 82.31396484 C101.21976743 85.75505012 106.95616767 89.15238902 112.72265625 92.50390625 C113.37620087 92.88433075 114.02974548 93.26475525 114.70309448 93.65670776 C117.88436162 95.50800533 121.06842479 97.35413443 124.2578125 99.19140625 C138.3581016 107.3581016 138.3581016 107.3581016 144 113 C144.77613478 119.65258385 144.77613478 119.65258385 142.94921875 122.82421875 C141.17093333 124.99068447 139.52353867 126.73823066 137 128 C132.00497621 128.47162173 129.27495243 127.41116824 125.01953125 124.84375 C124.45747986 124.50975693 123.89542847 124.17576385 123.31634521 123.83164978 C121.47419216 122.73316452 119.64364106 121.61672748 117.8125 120.5 C116.52477969 119.72795805 115.23627441 118.957224 113.94702148 118.18774414 C111.28297146 116.59537511 108.62323232 114.9961519 105.96679688 113.39111328 C102.18134405 111.10571607 98.38275571 108.84314134 94.578125 106.58984375 C93.98760345 106.24003448 93.39708191 105.89022522 92.78866577 105.52981567 C89.91330403 103.82737928 87.03691126 102.12668823 84.16064453 100.42578125 C83.08411621 99.78898437 82.00758789 99.1521875 80.8984375 98.49609375 C79.88233398 97.89522949 78.86623047 97.29436523 77.81933594 96.67529297 C75.34291962 95.20376814 72.87669764 93.7170711 70.4140625 92.22265625 C69.17208282 91.48142251 67.92991882 90.74049744 66.6875 90 C65.70136719 89.401875 64.71523438 88.80375 63.69921875 88.1875 C60.56952431 86.81061561 58.38534645 86.68397049 55 87 C53 88 53 88 52 90 C51.33278464 92.91440699 51.33278464 92.91440699 52 96 C56.08189636 100.98157963 61.29190041 103.68089268 66.875 106.75 C68.76892845 107.81125301 70.66215408 108.87376122 72.5546875 109.9375 C73.48249023 110.45699219 74.41029297 110.97648437 75.36621094 111.51171875 C80.73499207 114.54546827 86.00318809 117.74360009 91.26806641 120.953125 C93.05945459 122.03593759 94.86236103 123.0973438 96.66796875 124.15625 C97.84126256 124.85397042 99.01444441 125.55187915 100.1875 126.25 C101.21230469 126.85328125 102.23710937 127.4565625 103.29296875 128.078125 C106.20208266 130.14346994 108.07080004 132.0005534 110 135 C110.47756487 138.18197714 109.96421292 140.94190459 109 144 C106.28514277 147.47841082 104.54076529 147.91671992 100.1953125 148.5859375 C92.87722486 148.45362056 86.89478561 143.80358902 80.875 140.0625 C79.574427 139.27389348 78.27274407 138.48711463 76.9699707 137.70214844 C74.43234046 136.16932437 71.90131807 134.62653236 69.37646484 133.07275391 C65.33631959 130.59257797 61.26454519 128.16874264 57.1875 125.75 C54.26136005 124.00315222 51.38058173 122.26437826 48.58203125 120.3203125 C45.14960139 117.93757508 43.37875064 116.99389112 39.125 117.0625 C35.93297696 117.75095649 35.93297696 117.75095649 34 120 C33.42753274 124.47234655 33.42753274 124.47234655 35.08129883 128.45776367 C37.87102994 130.70012675 40.92131335 132.45121325 44.01171875 134.23828125 C44.69877396 134.64153122 45.38582916 135.04478119 46.09370422 135.46025085 C49.02157822 137.17858588 51.95556591 138.88635676 54.8894043 140.59448242 C73.37537802 151.37537802 73.37537802 151.37537802 78 156 C78.58169863 160.61544489 78.6241677 164.00133167 76.125 168 C72.86560902 171.0676621 70.59447248 171.32874772 66.11816406 171.25927734 C62.64063795 170.83360506 60.28105004 169.20789798 57.375 167.3125 C56.0827123 166.49761687 54.78969429 165.68389118 53.49609375 164.87109375 C52.79081543 164.41976074 52.08553711 163.96842773 51.35888672 163.50341797 C46.75385511 160.56843715 42.10322406 157.71220201 37.4375 154.875 C36.02766846 153.98615112 36.02766846 153.98615112 34.58935547 153.0793457 C29.39930522 149.8314804 29.39930522 149.8314804 23.46875 149.0625 C20.10094978 150.27763425 20.10094978 150.27763425 18 153 C17.52341823 156.43524752 17.52341823 156.43524752 19 160 C21.71988907 162.48044059 24.80177896 164.20100066 28 166 C29.81551882 167.0573334 31.62809377 168.11973993 33.4375 169.1875 C34.26121094 169.65542969 35.08492187 170.12335938 35.93359375 170.60546875 C38 172 38 172 40 175 C40.54531842 178.06526351 40.54325893 180.93408329 40 184 C37.18328876 187.55795103 34.95825855 189.72661641 30.42578125 190.359375 C25.60245535 189.85339326 22.28373584 187.73637674 18.1875 185.25 C17.41212891 184.8065625 16.63675781 184.363125 15.83789062 183.90625 C10.22070416 180.56444178 10.22070416 180.56444178 9.21606445 177.99511719 C9 176 9 176 9.9375 173.5 C11.87454097 167.11915915 12.23603754 159.89806309 9.5 153.6875 C5.48334293 146.87479542 -0.66943764 142.59624083 -8 140 C-7.96519531 139.16597656 -7.93039062 138.33195313 -7.89453125 137.47265625 C-7.68046386 128.57356901 -7.96533581 120.21233416 -14.37109375 113.34765625 C-21.1520051 107.73754974 -28.37716757 106.18032539 -37 106 C-37.17015625 105.40832031 -37.3403125 104.81664062 -37.515625 104.20703125 C-40.05941059 95.91266655 -43.21740749 92.09831237 -50.87890625 88.015625 C-56.17204391 85.48115761 -61.23173192 85.3005881 -67 86 C-69.80149337 87.06741907 -72.30397218 88.32580233 -74.90625 89.80859375 C-77 91 -77 91 -80 92 C-80.32871094 91.54109375 -80.65742188 91.0821875 -80.99609375 90.609375 C-84.90801832 85.56309832 -88.73936455 82.54663627 -95 81 C-101.11511838 80.43298785 -106.50628488 80.06681293 -112 83 C-114.75 82.625 -114.75 82.625 -117 82 C-116.3255891 78.4393612 -114.85696663 75.74677622 -113.04296875 72.625 C-112.43138916 71.56804932 -111.81980957 70.51109863 -111.18969727 69.42211914 C-110.52897217 68.29281982 -109.86824707 67.16352051 -109.1875 66 C-108.49966282 64.81712462 -107.81208418 63.63409887 -107.12475586 62.45092773 C-102.2237058 54.02946274 -97.23591187 45.66125218 -92.19921875 37.3203125 C-87.49899929 29.52652712 -82.8819361 21.68288481 -78.25415039 13.84594727 C-77.60051514 12.74049561 -76.94687988 11.63504395 -76.2734375 10.49609375 C-75.68997559 9.50794678 -75.10651367 8.5197998 -74.50537109 7.50170898 C-73.38421623 5.63851179 -72.20620091 3.80930136 -71 2 C-67.75103118 3.05591487 -64.70950835 4.13986635 -61.625 5.625 C-48.65280756 10.23194685 -37.18236776 6.21507397 -25.04516602 1.20214844 C-16.42271102 -2.26798959 -8.74770398 -3.90307749 0 0 Z " fill="#FDEAE1" transform="translate(270,307)"/>
<path d="M0 0 C1.37182617 1.88818359 1.37182617 1.88818359 2.79296875 4.3984375 C3.33228027 5.33856689 3.8715918 6.27869629 4.42724609 7.24731445 C5.00812988 8.27945068 5.58901367 9.31158691 6.1875 10.375 C7.45338358 12.5852334 8.72035083 14.79484641 9.98828125 17.00390625 C10.31650879 17.57833969 10.64473633 18.15277313 10.98291016 18.74461365 C14.54488003 24.97465012 18.20689968 31.14446695 21.875 37.3125 C23.22664393 39.58979542 24.57820585 41.86713952 25.9296875 44.14453125 C26.60225586 45.27713379 27.27482422 46.40973633 27.96777344 47.57666016 C29.98265069 50.97077462 31.995643 54.36599841 34.0078125 57.76171875 C34.66789307 58.87562988 35.32797363 59.98954102 36.00805664 61.13720703 C37.32811108 63.36571908 38.64761656 65.5945564 39.96655273 67.82373047 C43.09392058 73.10727714 46.22775726 78.38649071 49.38485718 83.65231323 C50.87884981 86.14509444 52.36913436 88.64008259 53.85913086 91.13525391 C54.57179434 92.32630706 55.28628153 93.5162711 56.00268555 94.70507812 C56.99465445 96.35141405 57.97990253 98.00179382 58.96484375 99.65234375 C59.5280835 100.59070068 60.09132324 101.52905762 60.67163086 102.49584961 C61.84867406 104.71473071 62.54294254 106.54641776 63 109 C60.02810394 111.04449587 57.02177489 113.03007958 54 115 C52.90365234 115.74830078 52.90365234 115.74830078 51.78515625 116.51171875 C46.79053414 119.66384012 42.65123945 120.59403371 36.7734375 120.76171875 C28.46425236 118.4796186 24.71078359 110.77126981 20.73242188 103.79882812 C20.00858131 102.51201857 19.2852754 101.22490813 18.5625 99.9375 C17.13024291 97.42352467 15.69159419 94.91321635 14.25390625 92.40234375 C13.90365387 91.78861908 13.55340149 91.17489441 13.1925354 90.54257202 C10.71147359 86.20541378 8.18292704 81.90008811 5.58984375 77.62890625 C4.94781006 76.56873291 4.30577637 75.50855957 3.64428711 74.41625977 C2.22601785 71.90973851 2.22601785 71.90973851 0 71 C-4.11082609 70.63724048 -4.11082609 70.63724048 -7.875 72.0625 C-9.63769606 75.09825432 -9.26230428 77.53878694 -9 81 C-7.59523998 84.35175182 -7.59523998 84.35175182 -5.52734375 87.60546875 C-5.1666127 88.21078934 -4.80588165 88.81610992 -4.43421936 89.43977356 C-3.28282432 91.36464537 -2.11092497 93.2759958 -0.9375 95.1875 C-0.17630956 96.45031413 0.5834682 97.71398091 1.34179688 98.97851562 C4.25749865 103.8309916 7.18353714 108.67654126 10.15576172 113.49462891 C11.12860107 115.10023682 11.12860107 115.10023682 12.12109375 116.73828125 C12.70173584 117.68356689 13.28237793 118.62885254 13.88061523 119.6027832 C15 122 15 122 14 125 C12.328125 126.45703125 12.328125 126.45703125 10.25 127.8125 C9.57453125 128.27269531 8.8990625 128.73289062 8.203125 129.20703125 C5.1330372 130.31204512 3.92346483 129.34575584 1 128 C-0.66553676 127.0749839 -2.31054657 126.11240099 -3.9375 125.12109375 C-4.89954346 124.53859863 -5.86158691 123.95610352 -6.8527832 123.35595703 C-7.89136475 122.72286621 -8.92994629 122.08977539 -10 121.4375 C-12.26351925 120.06765452 -14.52761744 118.69883804 -16.79296875 117.33203125 C-17.38103806 116.97695496 -17.96910736 116.62187866 -18.57499695 116.25604248 C-25.11622259 112.31405383 -31.71471355 108.4712517 -38.3125 104.625 C-48.80898825 98.50276753 -59.2193325 92.25162635 -69.58770752 85.9151001 C-77.76152107 80.92238775 -85.98991904 76.07607341 -94.38671875 71.46875 C-97 70 -97 70 -98 69 C-103.02499694 69.28469203 -103.02499694 69.28469203 -107 72 C-107.49632366 74.23775983 -107.92408694 76.49100873 -108.3125 78.75 C-109.53219208 84.67855304 -110.35071243 88.09037182 -115 92 C-119.5930008 94.50527317 -122.84161666 95.13059198 -128 95 C-128.09943082 89.73475555 -128.17173199 84.47006657 -128.21972656 79.20410156 C-128.23974959 77.41559316 -128.26697654 75.62714946 -128.30175781 73.83886719 C-128.35068955 71.25699838 -128.37306165 68.6760005 -128.390625 66.09375 C-128.41127014 65.30383667 -128.43191528 64.51392334 -128.45318604 63.70007324 C-128.45580294 57.11560357 -126.61187042 52.09746739 -122.34936523 47.04248047 C-116.19218504 42.41002649 -109.48330404 40.83899148 -102.0625 39.125 C-100.83853516 38.81820312 -99.61457031 38.51140625 -98.35351562 38.1953125 C-86.78546205 35.40752982 -79.61207267 35.1503277 -68.6875 39.9375 C-66.94225692 40.67778992 -65.1961926 41.41614748 -63.44921875 42.15234375 C-62.30972778 42.6472229 -62.30972778 42.6472229 -61.1472168 43.15209961 C-51.95436228 46.78220578 -40.59256086 45.34632433 -31 44 C-30.6596875 44.6496875 -30.319375 45.299375 -29.96875 45.96875 C-27.34935045 50.83050276 -27.34935045 50.83050276 -22.92578125 53.73828125 C-19.67546996 53.85243266 -17.4976241 53.39206748 -14.9375 51.375 C-13.63716254 48.08081178 -14.10544295 46.44244722 -15 43 C-16.52384874 40.14419189 -18.3024999 37.4646227 -20.0625 34.75 C-26.40198959 24.465178 -26.40198959 24.465178 -25.58203125 18.00390625 C-23.47214252 10.73965846 -18.1516291 7.6693928 -12 4 C-11.18144531 3.49726563 -10.36289062 2.99453125 -9.51953125 2.4765625 C-3.40424514 -1.13474838 -3.40424514 -1.13474838 0 0 Z " fill="#F9CEA1" transform="translate(405,269)"/>
<path d="M0 0 C1.37182617 1.88818359 1.37182617 1.88818359 2.79296875 4.3984375 C3.33228027 5.33856689 3.8715918 6.27869629 4.42724609 7.24731445 C5.00812988 8.27945068 5.58901367 9.31158691 6.1875 10.375 C7.45338358 12.5852334 8.72035083 14.79484641 9.98828125 17.00390625 C10.31650879 17.57833969 10.64473633 18.15277313 10.98291016 18.74461365 C14.54488003 24.97465012 18.20689968 31.14446695 21.875 37.3125 C23.22664393 39.58979542 24.57820585 41.86713952 25.9296875 44.14453125 C26.60225586 45.27713379 27.27482422 46.40973633 27.96777344 47.57666016 C29.98265069 50.97077462 31.995643 54.36599841 34.0078125 57.76171875 C34.66789307 58.87562988 35.32797363 59.98954102 36.00805664 61.13720703 C37.32811108 63.36571908 38.64761656 65.5945564 39.96655273 67.82373047 C43.09392058 73.10727714 46.22775726 78.38649071 49.38485718 83.65231323 C50.87884981 86.14509444 52.36913436 88.64008259 53.85913086 91.13525391 C54.57179434 92.32630706 55.28628153 93.5162711 56.00268555 94.70507812 C56.99465445 96.35141405 57.97990253 98.00179382 58.96484375 99.65234375 C59.5280835 100.59070068 60.09132324 101.52905762 60.67163086 102.49584961 C61.84867406 104.71473071 62.54294254 106.54641776 63 109 C60.02810394 111.04449587 57.02177489 113.03007958 54 115 C52.90365234 115.74830078 52.90365234 115.74830078 51.78515625 116.51171875 C46.79053414 119.66384012 42.65123945 120.59403371 36.7734375 120.76171875 C28.46425236 118.4796186 24.71078359 110.77126981 20.73242188 103.79882812 C20.00858131 102.51201857 19.2852754 101.22490813 18.5625 99.9375 C17.13024291 97.42352467 15.69159419 94.91321635 14.25390625 92.40234375 C13.90365387 91.78861908 13.55340149 91.17489441 13.1925354 90.54257202 C10.71147359 86.20541378 8.18292704 81.90008811 5.58984375 77.62890625 C4.94781006 76.56873291 4.30577637 75.50855957 3.64428711 74.41625977 C2.22601785 71.90973851 2.22601785 71.90973851 0 71 C-1.08410156 71.1546875 -2.16820312 71.309375 -3.28515625 71.46875 C-7 71 -7 71 -8.50732422 69.41015625 C-9.94946047 67.15891599 -11.21177085 64.87591259 -12.4375 62.5 C-13.10555664 61.28376953 -13.10555664 61.28376953 -13.78710938 60.04296875 C-14.882665 58.04034019 -15.95161961 56.02760892 -17 54 C-16.484375 53.29875 -15.96875 52.5975 -15.4375 51.875 C-13.59960137 48.19920274 -13.77562929 46.90655245 -15 43 C-16.53963024 40.15244913 -18.3023222 37.46489678 -20.0625 34.75 C-26.40198959 24.465178 -26.40198959 24.465178 -25.58203125 18.00390625 C-23.47214252 10.73965846 -18.1516291 7.6693928 -12 4 C-10.77216797 3.24589844 -10.77216797 3.24589844 -9.51953125 2.4765625 C-3.40424514 -1.13474838 -3.40424514 -1.13474838 0 0 Z " fill="#7B8994" transform="translate(405,269)"/>
<path d="M0 0 C4.23404798 1.5666781 8.13731429 3.60224166 12.0625 5.8125 C12.97999023 6.3084668 12.97999023 6.3084668 13.91601562 6.81445312 C18.91298512 9.62896243 22.16778169 12.50334507 24 18 C25.72387442 29.57458537 15.19745779 41.83052312 9.4609375 51.28125 C5.67844699 57.51482927 1.96264067 63.78714362 -1.75 70.0625 C-2.41741211 71.18833496 -3.08482422 72.31416992 -3.77246094 73.47412109 C-6.95090464 78.8364859 -10.122177 84.20285132 -13.27404785 89.58088684 C-14.70974226 92.02956346 -16.14896681 94.47615613 -17.58850098 96.9225769 C-18.59469055 98.63588987 -19.59576619 100.35220294 -20.59667969 102.06860352 C-30.3436179 118.62447427 -30.3436179 118.62447427 -36 121 C-42.87755599 122.71022707 -47.91739892 120.82305629 -53.8449707 117.41894531 C-57.2741047 115.3418086 -60.64838636 113.20035597 -64 111 C-63.60639024 104.81326193 -60.59839924 100.45596414 -57.4375 95.3125 C-56.24450231 93.33350774 -55.05180743 91.35433291 -53.859375 89.375 C-53.22837891 88.33472656 -52.59738281 87.29445313 -51.94726562 86.22265625 C-48.65574017 80.77529717 -45.4258546 75.2915704 -42.1875 69.8125 C-40.8258134 67.51545076 -39.46384312 65.21857178 -38.1015625 62.921875 C-35.40402452 58.37263383 -32.71190456 53.82023569 -30.0234375 49.265625 C-22.93391882 37.26267359 -15.79050249 25.29496134 -8.5625 13.375 C-8.18707062 12.75497101 -7.81164124 12.13494202 -7.42483521 11.49612427 C-6.36952527 9.75421803 -5.31177716 8.01378963 -4.25390625 6.2734375 C-3.34620483 4.77949463 -3.34620483 4.77949463 -2.42016602 3.25537109 C-1 1 -1 1 0 0 Z " fill="#7A8994" transform="translate(167,268)"/>
<path d="M0 0 C1.02077796 -0.00538554 2.04155592 -0.01077108 3.09326655 -0.01631981 C6.5241777 -0.03066221 9.95470645 -0.02348006 13.38563538 -0.01637268 C15.84113883 -0.02207295 18.29663963 -0.02903586 20.75213623 -0.03717041 C26.73575936 -0.05328563 32.71923144 -0.05519476 38.70286148 -0.04995751 C43.56591144 -0.04591784 48.42893036 -0.04735694 53.29197884 -0.05270576 C54.32976094 -0.0538284 54.32976094 -0.0538284 55.38850834 -0.05497371 C56.79396355 -0.05650517 58.19941876 -0.05804352 59.60487396 -0.05958868 C72.78829357 -0.07332018 85.97165385 -0.0678715 99.1550721 -0.05640347 C111.21803735 -0.04647058 123.28084923 -0.0594115 135.34379082 -0.08333766 C147.72776348 -0.10771564 160.11166466 -0.11733973 172.49566084 -0.11068493 C179.44924953 -0.10718978 186.40272025 -0.10944418 193.35629082 -0.12693596 C199.89391793 -0.1431773 206.43129928 -0.13849656 212.96893501 -0.11963081 C215.37116056 -0.11593319 217.77340765 -0.11908733 220.1756134 -0.1295166 C223.44953035 -0.14264744 226.7224639 -0.13124841 229.99633789 -0.11352539 C230.95178228 -0.1231304 231.90722667 -0.1327354 232.89162391 -0.14263147 C237.09248684 -0.09569223 239.46899456 0.04046683 243.1555872 2.20025539 C245.06166077 4.38768005 245.06166077 4.38768005 245.62416077 7.88768005 C245.06166077 11.38768005 245.06166077 11.38768005 243.65002346 13.57426357 C239.65279749 16.37473488 235.85623341 15.94323088 231.08535767 15.90234375 C229.5480654 15.91276204 229.5480654 15.91276204 227.97971672 15.92339081 C224.53488821 15.9417325 221.0907428 15.93137622 217.64588928 15.92112732 C215.18053164 15.92818214 212.71517833 15.9369253 210.24983215 15.94723511 C204.24210582 15.96744389 198.23464926 15.96874422 192.2269165 15.96060956 C187.34431261 15.95431254 182.46176398 15.95544384 177.57916069 15.96188164 C176.53721554 15.96323412 176.53721554 15.96323412 175.474221 15.96461393 C174.06312878 15.96646511 172.65203657 15.96832767 171.24094438 15.97020148 C158.00457223 15.98678558 144.76830662 15.97805575 131.53194087 15.96121591 C119.42044233 15.9465198 107.30919189 15.96114487 95.1977253 15.98998607 C82.76402098 16.01937429 70.33043118 16.03035396 57.89669365 16.02080387 C56.49045465 16.01978131 55.08421564 16.0187867 53.67797661 16.01782036 C52.64011436 16.01710577 52.64011436 16.01710577 51.5812852 16.01637675 C46.70488823 16.01421177 41.82859958 16.02402115 36.95222664 16.03859138 C30.38828676 16.05793015 23.82473446 16.05104453 17.26078796 16.02639198 C14.84888886 16.02136984 12.43695481 16.02490995 10.02508354 16.03754044 C6.73783507 16.05339587 3.45212252 16.03858933 0.16494751 16.01586914 C-1.27405549 16.03362273 -1.27405549 16.03362273 -2.74212927 16.05173498 C-7.28393612 15.98775543 -9.31859932 15.84595329 -13.0658884 13.07498074 C-14.93833923 10.38768005 -14.93833923 10.38768005 -15.00083923 6.76268005 C-13.93833923 3.38768005 -13.93833923 3.38768005 -12.49307919 1.70097256 C-8.45288793 -0.37593272 -4.47810112 -0.02810305 0 0 Z " fill="#010101" transform="translate(96.93833923339844,183.61231994628906)"/>
<path d="M0 0 C0.88132204 -0.00843994 1.76264407 -0.01687988 2.67067283 -0.02557558 C4.12425078 -0.01656051 4.12425078 -0.01656051 5.60719395 -0.00736332 C6.63599015 -0.01274886 7.66478636 -0.01813439 8.72475821 -0.02368313 C12.18874694 -0.03804582 15.652358 -0.03083843 19.11636448 -0.023736 C21.59304711 -0.02943521 24.06972711 -0.03639772 26.54640293 -0.04453373 C32.58530676 -0.0606588 38.62406096 -0.06255571 44.66297167 -0.05732083 C49.57039044 -0.05328324 54.47777844 -0.05471778 59.38519573 -0.06006908 C60.0830254 -0.06081751 60.78085507 -0.06156593 61.4998311 -0.06233703 C62.91736758 -0.06386847 64.33490405 -0.06540682 65.75244052 -0.066952 C79.0531409 -0.08068767 92.35378249 -0.07523192 105.65448154 -0.06376678 C117.82811634 -0.05383371 130.00159917 -0.0667744 142.17521053 -0.09070098 C154.66875776 -0.11507176 167.16223416 -0.12470481 179.65580469 -0.11804825 C186.6725332 -0.11455146 193.6891448 -0.11681825 200.70585537 -0.13429928 C207.30256132 -0.15052973 213.89902356 -0.14587112 220.49573803 -0.12699413 C222.92095857 -0.1232937 225.34620043 -0.12645871 227.77140141 -0.13687992 C231.07418357 -0.14999175 234.37598794 -0.13862886 237.67872715 -0.12088871 C238.6455484 -0.13049372 239.61236964 -0.14009872 240.6084885 -0.14999479 C247.05049143 -0.0784691 247.05049143 -0.0784691 250.29802895 2.19289207 C252.39559764 5.45062936 252.31432439 7.59800196 251.70645237 11.38031673 C249.58175206 13.81716381 247.84066153 15.18261632 244.60736179 15.74620259 C241.94645369 15.90130217 239.31326578 15.91798616 236.64785862 15.89498043 C235.11541004 15.90539872 235.11541004 15.90539872 233.55200291 15.91602749 C230.1240982 15.93434337 226.69688197 15.92402006 223.26895237 15.913764 C220.8132993 15.92082007 218.35765058 15.92956377 215.90200901 15.93987179 C209.92182492 15.96006776 203.94191191 15.96138487 197.96172142 15.95324624 C193.10154794 15.94694644 188.24142995 15.94808307 183.38125706 15.95451832 C182.68953781 15.95541997 181.99781857 15.95632163 181.28513813 15.95725061 C179.87992444 15.9591018 178.47471077 15.96096436 177.06949711 15.96283817 C163.89273198 15.97941671 150.71607392 15.97069678 137.53931522 15.95385259 C125.48284534 15.93915334 113.42662461 15.95378695 101.37018681 15.98262275 C88.9906913 16.01201078 76.61131082 16.02299093 64.23178196 16.01344055 C62.83173722 16.01241799 61.43169246 16.01142339 60.03164768 16.01045704 C59.34279861 16.00998065 58.65394955 16.00950426 57.94422626 16.00901343 C53.08985887 16.00684862 48.23560031 16.01665678 43.38125706 16.03122807 C36.84767204 16.05056638 30.3144764 16.04368165 23.78088474 16.01902866 C21.3802727 16.01400662 18.97962555 16.01754638 16.57904148 16.03017712 C13.30717074 16.04603297 10.03684306 16.03122573 6.76504612 16.00850582 C5.81028385 16.02034155 4.85552158 16.03217728 3.87182713 16.04437166 C-0.66074708 15.98022391 -2.68120632 15.83295792 -6.42220974 13.06761742 C-8.29354763 10.38031673 -8.29354763 10.38031673 -8.29354763 6.75531673 C-6.82982615 1.81525674 -5.20358135 0.00702584 0 0 Z " fill="#020202" transform="translate(90.29354763031006,137.61968326568604)"/>
<path d="M0 0 C4.50802601 1.25805377 7.4912812 2.90407165 11 6 C10.34 6.66 9.68 7.32 9 8 C8.42753274 12.47234655 8.42753274 12.47234655 10.08129883 16.45776367 C12.87102994 18.70012675 15.92131335 20.45121325 19.01171875 22.23828125 C19.69877396 22.64153122 20.38582916 23.04478119 21.09370422 23.46025085 C24.02157822 25.17858588 26.95556591 26.88635676 29.8894043 28.59448242 C48.37537802 39.37537802 48.37537802 39.37537802 53 44 C53.58169863 48.61544489 53.6241677 52.00133167 51.125 56 C47.86560902 59.0676621 45.59447248 59.32874772 41.11816406 59.25927734 C37.64063795 58.83360506 35.28105004 57.20789798 32.375 55.3125 C31.0827123 54.49761687 29.78969429 53.68389118 28.49609375 52.87109375 C27.79081543 52.41976074 27.08553711 51.96842773 26.35888672 51.50341797 C21.75385511 48.56843715 17.10322406 45.71220201 12.4375 42.875 C11.4976123 42.28243408 10.55772461 41.68986816 9.58935547 41.0793457 C4.39930522 37.8314804 4.39930522 37.8314804 -1.53125 37.0625 C-4.89905022 38.27763425 -4.89905022 38.27763425 -7 41 C-7.47658177 44.43524752 -7.47658177 44.43524752 -6 48 C-3.28011093 50.48044059 -0.19822104 52.20100066 3 54 C4.81551882 55.0573334 6.62809377 56.11973993 8.4375 57.1875 C9.26121094 57.65542969 10.08492188 58.12335938 10.93359375 58.60546875 C13 60 13 60 15 63 C15.54531842 66.06526351 15.54325893 68.93408329 15 72 C12.18328876 75.55795103 9.95825855 77.72661641 5.42578125 78.359375 C0.60245535 77.85339326 -2.71626416 75.73637674 -6.8125 73.25 C-7.97555664 72.58484375 -7.97555664 72.58484375 -9.16210938 71.90625 C-14.77929584 68.56444178 -14.77929584 68.56444178 -15.78393555 65.99511719 C-16 64 -16 64 -15.0625 61.5 C-13.08585007 54.98868259 -12.74238164 47.80271605 -15.75 41.5625 C-17.55206905 38.47967473 -19.64687285 35.68928818 -22 33 C-21.09121094 33.08701172 -21.09121094 33.08701172 -20.1640625 33.17578125 C-13.06017017 33.55829853 -7.85204608 32.10820054 -2 28 C2.8124142 22.92093489 3.26975059 17.4203621 3.234375 10.734375 C2.94060394 7.30704597 1.79099871 4.91037291 0 2 C0 1.34 0 0.68 0 0 Z " fill="#FBD9CB" transform="translate(295,419)"/>
<path d="M0 0 C1.89318466 -0.01073296 1.89318466 -0.01073296 3.82461548 -0.02168274 C7.28348216 -0.04019913 10.74157814 -0.02725775 14.20041275 -0.00759244 C17.82071072 0.00879397 21.44095986 -0.0000188 25.0612793 -0.00511169 C31.14091299 -0.0096327 37.22023903 0.00623727 43.29980469 0.03417969 C50.32773702 0.06623195 57.35511447 0.06621609 64.3830862 0.04896492 C71.14491671 0.03309869 77.90654386 0.0398339 84.66836548 0.05690193 C87.54551611 0.06377292 90.42250376 0.0627396 93.2996521 0.05535698 C97.31726891 0.04627019 101.33402917 0.07023156 105.3515625 0.09765625 C106.54649323 0.09113037 107.74142395 0.08460449 108.9725647 0.07788086 C110.06612274 0.09060532 111.15968079 0.10332977 112.28637695 0.11643982 C113.71105034 0.1206502 113.71105034 0.1206502 115.164505 0.12494564 C118.43765026 0.78466129 119.63596778 2.03641123 121.67578125 4.63110352 C122.17578125 7.63110352 122.17578125 7.63110352 121.67578125 10.63110352 C119.80868215 12.93385908 118.31930384 14.30934222 115.67578125 15.63110352 C114.01470989 15.73244857 112.34961277 15.77055141 110.68547058 15.77827454 C109.10191017 15.78900749 109.10191017 15.78900749 107.48635864 15.79995728 C106.32321136 15.80264618 105.16006409 15.80533508 103.96166992 15.80810547 C102.74045944 15.81467667 101.51924896 15.82124786 100.2610321 15.82801819 C96.90553721 15.84437389 93.55010542 15.85598051 90.19458556 15.86422372 C88.0983167 15.86937355 86.00205226 15.87544929 83.90578651 15.88173485 C77.34745115 15.90078771 70.78912706 15.91501851 64.23076934 15.92334682 C56.65950968 15.93312001 49.08854232 15.95944092 41.51738566 15.99984771 C35.66593305 16.03000516 29.81456423 16.04481532 23.9630354 16.04812783 C20.46788751 16.05047881 16.97305184 16.05944466 13.47798729 16.084589 C9.57792167 16.1121935 5.67824081 16.10803968 1.77807617 16.10107422 C0.62100159 16.11388428 -0.536073 16.12669434 -1.72821045 16.13989258 C-9.53291335 16.08896593 -9.53291335 16.08896593 -13.51420593 13.7853241 C-15.8801549 10.96944572 -16.39928581 9.30938952 -16.32421875 5.63110352 C-13.07567302 -1.35229743 -6.70320306 -0.06558973 0 0 Z " fill="#060606" transform="translate(98.32421875,85.368896484375)"/>
<path d="M0 0 C6.07726891 4.98665596 11.59365019 10.47551599 17.12397194 16.04880714 C18.79871015 17.73643472 20.47666284 19.42080788 22.15544128 21.10441589 C25.71063114 24.67095847 29.2618397 28.24144877 32.8125 31.8125 C36.94635988 35.96997241 41.08184169 40.12580474 45.22153282 44.27747154 C46.875476 45.93790127 48.52638407 47.60130905 50.17720032 49.2648468 C51.18545058 50.27672746 52.1938403 51.28846919 53.20239258 52.30004883 C54.08284744 53.18574051 54.96330231 54.07143219 55.87043762 54.98396301 C57.83348978 57.03763644 57.83348978 57.03763644 60 58 C60 58.66 60 59.32 60 60 C54.44989917 60.07453648 48.90009414 60.12878399 43.34960938 60.16479492 C41.46414103 60.17981793 39.57870725 60.20024231 37.69335938 60.22631836 C34.9725691 60.26298863 32.25224359 60.27979146 29.53125 60.29296875 C28.69758911 60.30845261 27.86392822 60.32393646 27.00500488 60.33988953 C18.94590041 60.34217155 12.53969913 58.19691495 6.5390625 52.67578125 C0.31012631 45.89351316 -0.15229569 38.73829064 -0.09765625 29.98046875 C-0.0962413 29.12189774 -0.09482635 28.26332672 -0.09336853 27.3787384 C-0.08779057 24.64828951 -0.07524214 21.91792393 -0.0625 19.1875 C-0.05748215 17.3313814 -0.05291974 15.4752615 -0.04882812 13.61914062 C-0.03782836 9.0793952 -0.02057893 4.5397117 0 0 Z " fill="#F57C82" transform="translate(310,26)"/>
<path d="M0 0 C0.33 0 0.66 0 1 0 C1.18304688 1.06992187 1.36609375 2.13984375 1.5546875 3.2421875 C3.12822342 9.51152941 6.7393547 14.69208707 10.125 20.125 C11.48252469 22.34849825 12.83930064 24.57245382 14.1953125 26.796875 C14.84918945 27.86228516 15.50306641 28.92769531 16.17675781 30.02539062 C18.48412403 33.78984564 20.76763626 37.5656165 23 41.375 C23.61875 42.41398437 24.2375 43.45296875 24.875 44.5234375 C26 47 26 47 25 50 C23.328125 51.45703125 23.328125 51.45703125 21.25 52.8125 C20.57453125 53.27269531 19.8990625 53.73289062 19.203125 54.20703125 C16.1301589 55.31308111 14.92753949 54.34930655 12 53 C10.27577599 52.03993036 8.57227592 51.04206505 6.88671875 50.015625 C5.89663818 49.4162915 4.90655762 48.81695801 3.88647461 48.19946289 C2.83081299 47.55614014 1.77515137 46.91281738 0.6875 46.25 C-1.5461096 44.89847383 -3.78050687 43.54824869 -6.015625 42.19921875 C-6.58668472 41.8543895 -7.15774445 41.50956024 -7.74610901 41.15428162 C-13.98241801 37.3954082 -20.2684548 33.72376373 -26.5625 30.0625 C-27.60897705 29.45374023 -28.6554541 28.84498047 -29.73364258 28.21777344 C-32.15501847 26.81056181 -34.57705845 25.40451363 -37 24 C-33.64942819 21.21455746 -30.27877673 18.86648157 -26.5078125 16.6875 C-25.47269531 16.08679688 -24.43757813 15.48609375 -23.37109375 14.8671875 C-21.76427734 13.94292969 -21.76427734 13.94292969 -20.125 13 C-18.52978516 12.07574219 -18.52978516 12.07574219 -16.90234375 11.1328125 C-8.74217613 6.40903845 -8.74217613 6.40903845 -5.71777344 4.7421875 C-2.259126 2.99726432 -2.259126 2.99726432 0 0 Z " fill="#FBB681" transform="translate(394,344)"/>
<path d="M0 0 C9.12424438 5.10892395 18.13648367 10.40654266 27.125 15.75 C28.2277124 16.39976807 29.3304248 17.04953613 30.46655273 17.71899414 C31.51141846 18.34281982 32.55628418 18.96664551 33.6328125 19.609375 C34.57012207 20.16592773 35.50743164 20.72248047 36.47314453 21.29589844 C39.02278427 23.01536562 41.02561712 24.64163056 43 27 C43.9297184 33.40472674 43.9297184 33.40472674 41.94140625 36.81640625 C40.17285592 38.99429464 38.52557048 40.73721476 36 42 C31.00497621 42.47162173 28.27495243 41.41116824 24.01953125 38.84375 C23.45698135 38.50953033 22.89443146 38.17531067 22.31483459 37.83096313 C20.47306881 36.73288056 18.64297772 35.61677979 16.8125 34.5 C15.53279747 33.73168684 14.25235016 32.96461292 12.97119141 32.19873047 C10.31560047 30.6093676 7.664169 29.01335363 5.01513672 27.41308594 C1.092237 25.04841907 -2.85464016 22.72632637 -6.80859375 20.4140625 C-8.65456802 19.33202383 -10.50034355 18.24964676 -12.34609985 17.16723633 C-13.52649232 16.4756585 -14.70745695 15.78505627 -15.88900757 15.09545898 C-17.53538224 14.13318899 -19.1779382 13.16439442 -20.8203125 12.1953125 C-21.75117676 11.64891113 -22.68204102 11.10250977 -23.64111328 10.53955078 C-25.73096969 9.1755853 -27.33326486 7.84247226 -29 6 C-28.0925 6.33 -27.185 6.66 -26.25 7 C-19.77383204 8.83337545 -12.69202219 9.08625457 -6.4375 6.5625 C-5.633125 6.046875 -4.82875 5.53125 -4 5 C-3.01 4.67 -2.02 4.34 -1 4 C-0.26676204 1.98491642 -0.26676204 1.98491642 0 0 Z " fill="#FAD9CA" transform="translate(371,393)"/>
<path d="M0 0 C3.64496619 1.36727242 6.92373334 3.00996531 10.28125 4.9765625 C11.2825293 5.56123291 12.28380859 6.14590332 13.31542969 6.74829102 C14.36633789 7.36760498 15.41724609 7.98691895 16.5 8.625 C17.57411133 9.25656006 18.64822266 9.88812012 19.75488281 10.53881836 C21.88014335 11.79087123 24.00420166 13.04496743 26.12695312 14.30126953 C28.52285739 15.71788254 30.92426568 17.12431074 33.328125 18.52734375 C34.45734375 19.19894531 35.5865625 19.87054688 36.75 20.5625 C37.69359375 21.12066406 38.6371875 21.67882812 39.609375 22.25390625 C42.34762719 24.25390417 44.14746885 26.15858859 46 29 C46.47756487 32.18197714 45.96421292 34.94190459 45 38 C42.28514277 41.47841082 40.54076529 41.91671992 36.1953125 42.5859375 C28.87767762 42.45362875 22.89413624 37.80414607 16.875 34.0625 C15.57806243 33.27540402 14.28004227 32.49008918 12.98095703 31.70654297 C10.4472333 30.1747967 7.92005829 28.63312893 5.3984375 27.08154297 C2.57228123 25.35052226 -0.26578815 23.64819686 -3.125 21.97265625 C-3.82222168 21.56329834 -4.51944336 21.15394043 -5.23779297 20.73217773 C-5.86057129 20.36680908 -6.48334961 20.00144043 -7.125 19.625 C-10.46359099 17.65326744 -13.41385116 15.907188 -16 13 C-15.32453125 12.76925781 -14.6490625 12.53851563 -13.953125 12.30078125 C-7.45315455 9.92434697 -4.10362412 7.89170463 -0.75 1.6875 C-0.5025 1.130625 -0.255 0.57375 0 0 Z " fill="#FBD9CB" transform="translate(334,413)"/>
<path d="M0 0 C2.97361628 1.78152067 5.42653612 3.85307225 7 7 C7.36966225 11.53619436 6.84754028 13.99347542 4.3125 17.75 C3.68085938 18.6884375 3.04921875 19.626875 2.3984375 20.59375 C1.60163591 21.73104731 0.80184425 22.86625235 0 24 C-0.49854492 24.70898438 -0.99708984 25.41796875 -1.51074219 26.1484375 C-17.0299378 48.13627815 -17.0299378 48.13627815 -21.37890625 50.04296875 C-25.46848765 50.31365661 -27.38636009 50.37074078 -31 48.1875 C-34.20807212 44.67867112 -34.45505683 42.10142864 -34.39306641 37.46972656 C-33.67416539 32.95270629 -30.97884099 29.87840982 -28.1875 26.375 C-26.99599097 24.80997408 -25.80458657 23.24486849 -24.61328125 21.6796875 C-24.0095166 20.90206055 -23.40575195 20.12443359 -22.78369141 19.32324219 C-21.07701402 17.10031008 -19.42544576 14.84811611 -17.79296875 12.5703125 C-17.29966064 11.88275879 -16.80635254 11.19520508 -16.2980957 10.48681641 C-15.36959416 9.1905142 -14.44229122 7.8933524 -13.51635742 6.59521484 C-9.50887338 1.086556 -6.93971479 -0.82335599 0 0 Z " fill="#F7CCA0" transform="translate(212,407)"/>
<path d="M0 0 C2.97672584 1.77280561 5.42804007 3.85608015 7 7 C7.75322908 12.66163396 5.54658852 15.86638002 2.3125 20.25 C1.82716797 20.92949707 1.34183594 21.60899414 0.84179688 22.30908203 C-0.20534628 23.77129999 -1.25881193 25.22900657 -2.31787109 26.68261719 C-4.07242731 29.09977939 -5.79792521 31.53584061 -7.51953125 33.9765625 C-8.67885917 35.60996324 -9.83899831 37.24278853 -11 38.875 C-11.82697388 40.04337402 -11.82697388 40.04337402 -12.6706543 41.23535156 C-13.19183838 41.95948242 -13.71302246 42.68361328 -14.25 43.4296875 C-14.70890625 44.07147949 -15.1678125 44.71327148 -15.640625 45.37451172 C-17.49115838 47.58730828 -19.22247158 48.86167566 -22.0859375 49.37109375 C-26.33203313 49.494274 -28.40730178 49.40748002 -32 46.9375 C-34.55434826 43.18580099 -35.29544394 41.57938105 -35 37 C-33.14272467 33.01717623 -30.56442536 29.54873068 -28 26 C-26.94858737 24.51216473 -25.8978537 23.02384951 -24.84765625 21.53515625 C-8.90433801 -0.8904338 -8.90433801 -0.8904338 0 0 Z " fill="#F7CCA0" transform="translate(241,428)"/>
<path d="M0 0 C3.5386994 1.65139305 4.81070153 2.71605229 7 6 C8.19410047 12.36853584 5.55271146 15.99814411 2.015625 21.203125 C-6.19650655 32.59825328 -6.19650655 32.59825328 -9 34 C-16.08958838 34.5811138 -16.08958838 34.5811138 -19.9375 32.125 C-22.99154604 28.97840711 -23.45228879 26.66981214 -23.39257812 22.26416016 C-22.63239429 17.87986605 -19.88826448 14.66326007 -17.25 11.1875 C-16.71117187 10.43791016 -16.17234375 9.68832031 -15.6171875 8.91601562 C-11.0737862 2.71593507 -8.21863142 -0.8651191 0 0 Z " fill="#F7CC9F" transform="translate(172,402)"/>
<path d="M0 0 C2.8100346 1.79363911 4.50940468 3.01880935 6 6 C7.10192178 12.47379043 4.48649982 16.18765627 0.859375 21.46875 C-4.6800216 29.00977731 -4.6800216 29.00977731 -9.9375 30.125 C-13.23957287 30.36890311 -14.87311558 29.76489796 -17.4375 27.6875 C-20.61288511 24.35721805 -21.63436517 22.17700791 -21.6171875 17.49609375 C-20.08001738 11.27931081 -14.62088115 5.33632834 -9.94921875 1.171875 C-6.78669179 -0.72944381 -3.52712282 -0.65083814 0 0 Z " fill="#FAB580" transform="translate(261,462)"/>
</svg>
