<?xml version="1.0" encoding="UTF-8"?>
<svg version="1.1" xmlns="http://www.w3.org/2000/svg" width="512" height="512">
<path d="M0 0 C0.8313446 -0.00860046 1.66268921 -0.01720093 2.51922607 -0.02606201 C3.88220573 -0.03245193 3.88220573 -0.03245193 5.27272034 -0.03897095 C6.71214493 -0.05123718 6.71214493 -0.05123718 8.1806488 -0.06375122 C11.35920079 -0.08858453 14.53770829 -0.10511298 17.71632385 -0.11953735 C19.34304362 -0.12752287 19.34304362 -0.12752287 21.00262642 -0.13566971 C26.73897215 -0.16238795 32.47529618 -0.18177008 38.21168518 -0.19619751 C44.14492729 -0.21287306 50.07761695 -0.25767926 56.01064968 -0.30856895 C60.56677922 -0.34216423 65.1227761 -0.35376627 69.67901802 -0.35942459 C71.86675824 -0.36615475 74.0544892 -0.38142227 76.2421093 -0.4053154 C79.2996522 -0.4368136 82.35568387 -0.43702702 85.41334534 -0.42959595 C86.31997421 -0.44600128 87.22660309 -0.46240662 88.16070557 -0.47930908 C94.29251012 -0.4181613 94.29251012 -0.4181613 97.50112915 2.56536865 C98.9077301 5.15390015 98.9077301 5.15390015 98.9077301 7.15390015 C105.1777301 7.15390015 111.4477301 7.15390015 117.9077301 7.15390015 C118.2377301 5.83390015 118.5677301 4.51390015 118.9077301 3.15390015 C120.0859375 1.42915344 120.0859375 1.42915344 121.9077301 0.15390015 C124.66885376 -0.23377991 124.66885376 -0.23377991 128.05641174 -0.25015259 C129.32525711 -0.26283676 130.59410248 -0.27552094 131.90139771 -0.28858948 C133.2902289 -0.28653663 134.67905898 -0.28354745 136.06788635 -0.2796936 C137.49696094 -0.28425718 138.92603333 -0.28956328 140.35510254 -0.295578 C143.35540148 -0.30452004 146.3554345 -0.30207818 149.35572815 -0.29214478 C153.17650736 -0.28072045 156.99635333 -0.30075852 160.81700993 -0.33006191 C163.77271245 -0.34854113 166.7281969 -0.34810725 169.68394279 -0.34242439 C171.09077185 -0.34227224 172.4976167 -0.34822769 173.90439034 -0.36071587 C190.55849418 -0.48760217 199.56686429 4.93606763 211.36602783 16.36495972 C212.88848186 17.87873324 214.40566243 19.39782428 215.91822815 20.92147827 C216.757005 21.75835678 217.59578186 22.59523529 218.4599762 23.45747375 C221.20136164 26.19518726 223.93553458 28.93997746 226.66944885 31.68515015 C228.58807681 33.60598474 230.50806316 35.52545962 232.427948 37.44503784 C236.4380571 41.45607896 240.44430213 45.47094596 244.44801331 49.4883728 C249.05833114 54.11442723 253.67386611 58.73522285 258.29242486 63.3530488 C263.23916755 68.29911299 268.18208535 73.24898631 273.12390161 78.19997215 C274.53582404 79.61401239 275.94852322 81.0272769 277.36122704 82.4405365 C280.00514292 85.08663271 282.64573335 87.7360033 285.28541565 90.38632202 C286.05805252 91.15850571 286.83068939 91.93068939 287.6267395 92.72627258 C291.71550369 96.83901705 295.64163994 101.03481303 299.41253185 105.44172096 C301.55650858 107.89682839 303.8736693 110.14398174 306.2280426 112.39608765 C307.1856667 113.32646741 308.14267992 114.25747628 309.09913635 115.1890564 C310.56545363 116.61226111 312.03508887 118.03114396 313.51564026 119.43954468 C324.54819694 129.96048893 329.29454036 139.24390374 330.0846138 154.58951569 C330.15213632 158.39742293 330.15586547 162.2021953 330.13478088 166.01034546 C330.13421531 167.46037284 330.13453618 168.9104008 330.13566589 170.36042786 C330.13623471 174.25840474 330.12455766 178.15625604 330.11051798 182.05420399 C330.09793116 186.14209655 330.0968339 190.22999266 330.09446716 194.31790161 C330.08827559 202.04175191 330.07189653 209.76554492 330.05176818 217.48937011 C330.02933648 226.28995654 330.01839755 235.09054586 330.00837731 243.89115381 C329.98752799 261.97876828 329.95239766 280.06632959 329.9077301 298.15390015 C330.51110199 298.27856155 331.11447388 298.40322296 331.73612976 298.53166199 C332.93506363 298.7871003 332.93506363 298.7871003 334.15821838 299.04769897 C334.94721527 299.21361038 335.73621216 299.37952179 336.54911804 299.55046082 C340.21866377 300.4892961 343.44069597 302.09019431 346.7827301 303.84140015 C347.47253967 304.19661743 348.16234924 304.55183472 348.87306213 304.91781616 C359.01957269 310.2178619 367.63321067 316.22032763 375.9077301 324.15390015 C377.14329651 325.27731812 377.14329651 325.27731812 378.40382385 326.4234314 C396.89007765 343.81377624 408.44869011 369.85245375 409.2436676 395.1578064 C409.27378834 397.67719124 409.2862524 400.19683771 409.2827301 402.71640015 C409.28191437 403.70460251 409.28191437 403.70460251 409.28108215 404.71276855 C409.239625 415.66525013 408.36293823 425.74883275 404.9077301 436.15390015 C404.69342346 436.80310425 404.47911682 437.45230835 404.25831604 438.1211853 C394.71136934 465.99076552 374.60246137 488.74699701 348.43067932 502.07748413 C324.01022188 513.90441756 292.76251206 516.73949112 266.9077301 508.15390015 C266.258526 507.93959351 265.6093219 507.72528687 264.94044495 507.50448608 C247.6071478 501.56682708 233.56252566 491.88665302 220.5952301 479.09140015 C220.00806213 478.51373901 219.42089417 477.93607788 218.81593323 477.34091187 C208.9077301 467.35627403 208.9077301 467.35627403 208.9077301 463.15390015 C208.20020222 463.15758732 207.49267433 463.16127449 206.76370621 463.16507339 C189.5545377 463.25337909 172.34542668 463.3195876 155.1360817 463.36114883 C146.81378802 463.38178135 138.49164551 463.40991498 130.16944885 463.45565796 C122.91650885 463.49550479 115.66367831 463.52132795 108.4106319 463.53025413 C104.56951267 463.53547259 100.72870661 463.54775174 96.88768768 463.57682037 C93.27286173 463.60395574 89.65847816 463.61234914 86.04356003 463.60633087 C84.08333955 463.60795729 82.12316735 463.62948999 80.16307068 463.65158081 C78.99641876 463.64608215 77.82976685 463.6405835 76.62776184 463.63491821 C75.61378956 463.63860538 74.59981728 463.64229256 73.55511856 463.64609146 C70.17510956 463.01769442 68.96840674 461.86061802 66.9077301 459.15390015 C66.9077301 458.16390015 66.9077301 457.17390015 66.9077301 456.15390015 C60.6377301 456.15390015 54.3677301 456.15390015 47.9077301 456.15390015 C47.2477301 457.80390015 46.5877301 459.45390015 45.9077301 461.15390015 C43.48395483 463.57767542 42.87557459 463.41257348 39.55665588 463.44442749 C38.6545639 463.45718719 37.75247192 463.4699469 36.82304382 463.48309326 C35.84294342 463.48531891 34.86284302 463.48754456 33.8530426 463.48983765 C32.84111847 463.49649445 31.82919434 463.50315125 30.78660583 463.51000977 C28.63624389 463.52015581 26.48585033 463.52482619 24.33546448 463.52450562 C21.08035832 463.52883677 17.82665482 463.5650185 14.5717926 463.6031189 C-1.80224185 463.69297385 -14.20476762 462.12163477 -26.7797699 450.71640015 C-27.5428949 449.87077515 -28.3060199 449.02515015 -29.0922699 448.15390015 C-29.57309021 447.67694702 -30.05391052 447.1999939 -30.54930115 446.70858765 C-37.20874485 439.72881627 -41.20366963 429.78531145 -41.22928429 420.1438446 C-41.23435883 419.12816249 -41.23943337 418.11248037 -41.24466169 417.06602001 C-41.24515945 415.95202485 -41.2456572 414.83802969 -41.24617004 413.6902771 C-41.2505523 412.50545148 -41.25493455 411.32062586 -41.2594496 410.09989643 C-41.27050674 406.81018798 -41.27705963 403.520527 -41.28163075 400.23080683 C-41.28759271 396.68338213 -41.29920066 393.13597491 -41.30992126 389.58856201 C-41.33442528 381.02359103 -41.34906618 372.45861429 -41.36198133 363.89361906 C-41.36569367 361.47534491 -41.36966683 359.05707134 -41.373734 356.63879776 C-41.39896261 341.62544068 -41.42101809 326.61208269 -41.43346214 311.59870911 C-41.43639187 308.12263994 -41.43935354 304.6465708 -41.44236755 301.17050171 C-41.4431136 300.30653467 -41.44385965 299.44256764 -41.44462831 298.55241978 C-41.45729447 284.54235159 -41.49053642 270.53240995 -41.53216939 256.52240098 C-41.57454779 242.14397638 -41.59815211 227.76561668 -41.60338271 213.38712978 C-41.60680066 205.31179236 -41.6186015 197.236653 -41.65148544 189.16137695 C-41.67943046 182.28772701 -41.69050967 175.41431576 -41.67928998 168.54061341 C-41.67408967 165.03213764 -41.67707785 161.52416218 -41.70175552 158.01575851 C-41.72825939 154.21614117 -41.71623486 150.41721261 -41.70027161 146.61752319 C-41.72109474 144.94653045 -41.72109474 144.94653045 -41.74233854 143.24178028 C-41.66486367 135.79850745 -41.66486367 135.79850745 -38.67926979 132.43742371 C-36.0922699 131.15390015 -36.0922699 131.15390015 -34.0922699 131.15390015 C-34.0922699 124.88390015 -34.0922699 118.61390015 -34.0922699 112.15390015 C-35.7422699 111.49390015 -37.3922699 110.83390015 -39.0922699 110.15390015 C-41.88962163 107.35654842 -41.35795573 105.61117366 -41.38279724 101.6914978 C-41.38951447 101.02773132 -41.39623169 100.36396484 -41.40315247 99.68008423 C-41.42221125 97.47596817 -41.42606244 95.27215612 -41.4282074 93.06796265 C-41.43463668 91.53015011 -41.44136514 89.99233879 -41.44837952 88.45452881 C-41.4603767 85.22131525 -41.46405853 81.98820863 -41.46287537 78.75497437 C-41.46267358 74.64184461 -41.4898168 70.52941684 -41.52441978 66.41645241 C-41.54684578 63.2333675 -41.55070793 60.05044626 -41.54965591 56.8672905 C-41.55199446 55.35325102 -41.5607179 53.83920579 -41.57632065 52.3252449 C-41.71400182 37.56709314 -38.77837235 25.6283208 -28.6547699 14.46640015 C-27.8091449 13.70327515 -26.9635199 12.94015015 -26.0922699 12.15390015 C-25.61531677 11.67307983 -25.13836365 11.19225952 -24.6469574 10.6968689 C-18.40615178 4.74247707 -8.71470355 0.06724967 0 0 Z " fill="#F7F6F7" transform="translate(72.09226989746094,-0.153900146484375)"/>
<path d="M0 0 C1.26876984 -0.01260864 2.53753967 -0.02521729 3.84475708 -0.03820801 C5.22837883 -0.03104354 6.61199553 -0.0228384 7.99560547 -0.01367188 C9.42325098 -0.01636907 10.85089469 -0.02025339 12.27853394 -0.02526855 C15.27294377 -0.03116446 18.26687621 -0.02260613 21.26123047 -0.00390625 C25.07417417 0.01876033 28.88598388 0.0058408 32.69888496 -0.01819611 C35.65032239 -0.03275854 38.60149819 -0.02799875 41.55294418 -0.01768494 C42.95697034 -0.01503986 44.36102124 -0.0182082 45.76501846 -0.02760315 C62.39329172 -0.11437928 71.41389613 5.31627322 83.1960907 16.7286377 C84.71854473 18.24241122 86.23572529 19.76150225 87.74829102 21.28515625 C88.58706787 22.12203476 89.42584473 22.95891327 90.29003906 23.82115173 C93.03142451 26.55886524 95.76559745 29.30365544 98.49951172 32.04882812 C100.41813968 33.96966272 102.33812603 35.8891376 104.25801086 37.80871582 C108.26811996 41.81975694 112.274365 45.83462393 116.27807617 49.85205078 C120.88839401 54.47810521 125.50392898 59.09890082 130.12248772 63.71672678 C135.06923042 68.66279097 140.01214822 73.61266429 144.95396447 78.56365013 C146.3658869 79.97769037 147.77858609 81.39095488 149.1912899 82.80421448 C151.83520578 85.45031069 154.47579622 88.09968128 157.11547852 90.75 C157.88811539 91.52218369 158.66075226 92.29436737 159.45680237 93.08995056 C163.54556656 97.20269502 167.4717028 101.398491 171.24259472 105.80539894 C173.38657145 108.26050637 175.70373217 110.50765972 178.05810547 112.75976562 C179.01572957 113.69014539 179.97274279 114.62115426 180.92919922 115.55273438 C182.3955165 116.97593908 183.86515173 118.39482194 185.34570312 119.80322266 C196.37825981 130.3241669 201.12460323 139.60758172 201.91467667 154.95319366 C201.98219918 158.76110091 201.98592834 162.56587328 201.96484375 166.37402344 C201.96427818 167.82405082 201.96459904 169.27407878 201.96572876 170.72410583 C201.96629757 174.62208272 201.95462052 178.51993401 201.94058084 182.41788197 C201.92799403 186.50577453 201.92689677 190.59367064 201.92453003 194.68157959 C201.91833845 202.40542989 201.9019594 210.1292229 201.88183105 217.85304809 C201.85939934 226.65363452 201.84846041 235.45422384 201.83844018 244.25483179 C201.81759086 262.34244626 201.78246053 280.43000757 201.73779297 298.51757812 C202.34116486 298.64223953 202.94453674 298.76690094 203.56619263 298.89533997 C204.7651265 299.15077827 204.7651265 299.15077827 205.98828125 299.41137695 C206.77727814 299.57728836 207.56627502 299.74319977 208.37918091 299.91413879 C212.04872664 300.85297408 215.27075884 302.45387229 218.61279297 304.20507812 C219.30260254 304.56029541 219.99241211 304.9155127 220.703125 305.28149414 C230.84963555 310.58153987 239.46327354 316.58400561 247.73779297 324.51757812 C248.97335937 325.64099609 248.97335937 325.64099609 250.23388672 326.78710938 C268.72014052 344.17745421 280.27875298 370.21613173 281.07373047 395.52148438 C281.10385121 398.04086922 281.11631526 400.56051569 281.11279297 403.08007812 C281.11197723 404.06828049 281.11197723 404.06828049 281.11114502 405.07644653 C281.06968787 416.0289281 280.1930011 426.11251072 276.73779297 436.51757812 C276.52348633 437.16678223 276.30917969 437.81598633 276.08837891 438.48486328 C266.54143221 466.3544435 246.43252424 489.11067499 220.26074219 502.44116211 C195.84028475 514.26809554 164.59257493 517.1031691 138.73779297 508.51757812 C137.76398682 508.19611816 137.76398682 508.19611816 136.77050781 507.86816406 C119.43721067 501.93050506 105.39258853 492.250331 92.42529297 479.45507812 C91.838125 478.87741699 91.25095703 478.29975586 90.64599609 477.70458984 C80.73779297 467.71995201 80.73779297 467.71995201 80.73779297 463.51757812 C80.03026508 463.5212653 79.3227372 463.52495247 78.59376907 463.52875137 C61.38460057 463.61705707 44.17548955 463.68326557 26.96614456 463.72482681 C18.64385089 463.74545933 10.32170838 463.77359296 1.99951172 463.81933594 C-5.25342828 463.85918277 -12.50625882 463.88500593 -19.75930524 463.8939321 C-23.60042446 463.89915056 -27.44123052 463.91142972 -31.28224945 463.94049835 C-34.8970754 463.96763372 -38.51145898 463.97602712 -42.12637711 463.97000885 C-44.08659758 463.97163527 -46.04676979 463.99316796 -48.00686646 464.01525879 C-49.17351837 464.00976013 -50.34017029 464.00426147 -51.54217529 463.99859619 C-52.55614758 464.00228336 -53.57011986 464.00597054 -54.61481857 464.00976944 C-57.9794671 463.38422815 -59.18426245 462.18481724 -61.26220703 459.51757812 C-61.32080078 457.22851562 -61.32080078 457.22851562 -60.69970703 454.89257812 C-60.51279297 454.1165625 -60.32587891 453.34054687 -60.13330078 452.54101562 C-59.26220703 450.51757812 -59.26220703 450.51757812 -56.26220703 448.51757812 C-53.89404011 448.27148247 -53.89404011 448.27148247 -51.04206848 448.27706909 C-49.96093277 448.27431976 -48.87979706 448.27157043 -47.76589966 448.26873779 C-46.57979095 448.27592834 -45.39368225 448.2831189 -44.17163086 448.29052734 C-42.29828819 448.29008926 -42.29828819 448.29008926 -40.38710022 448.28964233 C-36.96167298 448.29079789 -33.53648608 448.30083627 -30.11110139 448.31479025 C-26.53165026 448.32728299 -22.95219601 448.32846696 -19.37272644 448.33084106 C-12.59417927 448.33706012 -5.81569653 448.35347668 0.96282226 448.37354004 C8.67978551 448.39588581 16.39675182 448.40688914 24.11373937 448.41693091 C39.98846123 448.43784256 55.86311879 448.47302678 71.73779297 448.51757812 C71.12073486 446.82036621 71.12073486 446.82036621 70.49121094 445.08886719 C69.94554946 443.57040279 69.40015351 442.05184296 68.85498047 440.53320312 C68.58451904 439.79150879 68.31405762 439.04981445 68.03540039 438.28564453 C63.93647951 426.81864823 62.4872778 415.39799182 62.23779297 403.26757812 C62.2070166 402.37393555 62.17624023 401.48029297 62.14453125 400.55957031 C62.14367826 396.09163347 62.30553933 394.10674576 65.01904297 390.40820312 C67.73779297 388.51757812 67.73779297 388.51757812 71.73779297 388.51757812 C71.67591797 387.56882812 71.61404297 386.62007813 71.55029297 385.64257812 C71.51581379 381.4102584 72.77669261 377.80779469 74.17919922 373.84960938 C74.79784855 371.26685657 74.69967028 369.97220491 73.73779297 367.51757812 C73.07779297 366.85757812 72.41779297 366.19757813 71.73779297 365.51757812 C71.00725981 359.40697261 72.70432205 355.77273007 75.73779297 350.70507812 C76.14497559 350.00511719 76.5521582 349.30515625 76.97167969 348.58398438 C80.40936976 342.79980737 84.31120953 337.5856954 88.73779297 332.51757812 C89.28822266 331.83566406 89.83865234 331.15375 90.40576172 330.45117188 C107.07460339 310.21891987 133.16500775 298.25215417 158.73779297 294.51757812 C160.73115184 294.42997612 162.72688637 294.38700895 164.72216797 294.38476562 C165.82173828 294.38347656 166.92130859 294.3821875 168.05419922 294.38085938 C169.18728516 294.38472656 170.32037109 294.38859375 171.48779297 294.39257812 C172.63634766 294.38871094 173.78490234 294.38484375 174.96826172 294.38085938 C176.06267578 294.38214844 177.15708984 294.3834375 178.28466797 294.38476562 C179.28336914 294.38589355 180.28207031 294.38702148 181.31103516 294.38818359 C183.73779297 294.51757812 183.73779297 294.51757812 185.73779297 295.51757812 C185.73779297 246.67757812 185.73779297 197.83757812 185.73779297 147.51757812 C152.66478534 147.67569886 152.66478534 147.67569886 119.59204102 147.87792969 C113.16711426 147.89599609 113.16711426 147.89599609 110.15071106 147.89935303 C108.06282635 147.90545903 105.97495495 147.91945146 103.88716125 147.93988037 C87.67888745 148.09042466 75.33885835 147.52832896 63.05419922 135.92773438 C56.03377296 128.48713298 54.13842037 119.7909566 54.19189453 109.83544922 C54.18155685 108.81961761 54.17121918 107.80378601 54.16056824 106.75717163 C54.13132049 103.43495435 54.12964486 100.11335108 54.12841797 96.79101562 C54.11342419 94.4735906 54.09669455 92.15617622 54.07830811 89.83877563 C54.03475724 83.76600635 54.01466256 77.6933812 53.99957275 71.6204834 C53.97995751 65.4129183 53.93799244 59.20550786 53.89794922 52.99804688 C53.82277984 40.83793847 53.77240797 28.6778649 53.73779297 16.51757812 C53.00751892 16.5139325 52.27724487 16.51028687 51.52484131 16.50653076 C44.63868479 16.46864545 37.7529174 16.41178677 30.86710739 16.33367538 C27.32707632 16.29418557 23.78729453 16.26200495 20.24707031 16.24658203 C16.17586353 16.22852441 12.10558843 16.17858088 8.03466797 16.12695312 C6.12980621 16.12511017 6.12980621 16.12511017 4.1864624 16.12322998 C3.00554016 16.10351135 1.82461792 16.08379272 0.60791016 16.06347656 C-0.43133606 16.05459412 -1.47058228 16.04571167 -2.5413208 16.03656006 C-5.974707 15.38167586 -7.14114773 14.25034785 -9.26220703 11.51757812 C-10.26220703 8.01757812 -10.26220703 8.01757812 -10.26220703 4.51757812 C-7.25782453 0.43406653 -4.94147261 0.01409517 0 0 Z " fill="#DA4854" transform="translate(200.26220703125,-0.517578125)"/>
<path d="M0 0 C1.26876984 -0.01260864 2.53753967 -0.02521729 3.84475708 -0.03820801 C5.22837883 -0.03104354 6.61199553 -0.0228384 7.99560547 -0.01367188 C9.42325098 -0.01636907 10.85089469 -0.02025339 12.27853394 -0.02526855 C15.27294377 -0.03116446 18.26687621 -0.02260613 21.26123047 -0.00390625 C25.07417417 0.01876033 28.88598388 0.0058408 32.69888496 -0.01819611 C35.65032239 -0.03275854 38.60149819 -0.02799875 41.55294418 -0.01768494 C42.95697034 -0.01503986 44.36102124 -0.0182082 45.76501846 -0.02760315 C62.39329172 -0.11437928 71.41389613 5.31627322 83.1960907 16.7286377 C84.71854473 18.24241122 86.23572529 19.76150225 87.74829102 21.28515625 C88.58706787 22.12203476 89.42584473 22.95891327 90.29003906 23.82115173 C93.03142451 26.55886524 95.76559745 29.30365544 98.49951172 32.04882812 C100.41813968 33.96966272 102.33812603 35.8891376 104.25801086 37.80871582 C108.26811996 41.81975694 112.274365 45.83462393 116.27807617 49.85205078 C120.88839401 54.47810521 125.50392898 59.09890082 130.12248772 63.71672678 C135.06923042 68.66279097 140.01214822 73.61266429 144.95396447 78.56365013 C146.3658869 79.97769037 147.77858609 81.39095488 149.1912899 82.80421448 C151.83520578 85.45031069 154.47579622 88.09968128 157.11547852 90.75 C157.88811539 91.52218369 158.66075226 92.29436737 159.45680237 93.08995056 C163.54556656 97.20269502 167.4717028 101.398491 171.24259472 105.80539894 C173.38657145 108.26050637 175.70373217 110.50765972 178.05810547 112.75976562 C179.01572957 113.69014539 179.97274279 114.62115426 180.92919922 115.55273438 C182.3955165 116.97593908 183.86515173 118.39482194 185.34570312 119.80322266 C196.37825981 130.3241669 201.12460323 139.60758172 201.91467667 154.95319366 C201.98219918 158.76110091 201.98592834 162.56587328 201.96484375 166.37402344 C201.96427818 167.82405082 201.96459904 169.27407878 201.96572876 170.72410583 C201.96629757 174.62208272 201.95462052 178.51993401 201.94058084 182.41788197 C201.92799403 186.50577453 201.92689677 190.59367064 201.92453003 194.68157959 C201.91833845 202.40542989 201.9019594 210.1292229 201.88183105 217.85304809 C201.85939934 226.65363452 201.84846041 235.45422384 201.83844018 244.25483179 C201.81759086 262.34244626 201.78246053 280.43000757 201.73779297 298.51757812 C202.34116486 298.64223953 202.94453674 298.76690094 203.56619263 298.89533997 C204.7651265 299.15077827 204.7651265 299.15077827 205.98828125 299.41137695 C206.77727814 299.57728836 207.56627502 299.74319977 208.37918091 299.91413879 C212.04872664 300.85297408 215.27075884 302.45387229 218.61279297 304.20507812 C219.30260254 304.56029541 219.99241211 304.9155127 220.703125 305.28149414 C230.84963555 310.58153987 239.46327354 316.58400561 247.73779297 324.51757812 C248.97335937 325.64099609 248.97335937 325.64099609 250.23388672 326.78710938 C268.72014052 344.17745421 280.27875298 370.21613173 281.07373047 395.52148438 C281.10385121 398.04086922 281.11631526 400.56051569 281.11279297 403.08007812 C281.11197723 404.06828049 281.11197723 404.06828049 281.11114502 405.07644653 C281.06968787 416.0289281 280.1930011 426.11251072 276.73779297 436.51757812 C276.52348633 437.16678223 276.30917969 437.81598633 276.08837891 438.48486328 C266.54143221 466.3544435 246.43252424 489.11067499 220.26074219 502.44116211 C195.84028475 514.26809554 164.59257493 517.1031691 138.73779297 508.51757812 C137.76398682 508.19611816 137.76398682 508.19611816 136.77050781 507.86816406 C119.43721067 501.93050506 105.39258853 492.250331 92.42529297 479.45507812 C91.838125 478.87741699 91.25095703 478.29975586 90.64599609 477.70458984 C80.73779297 467.71995201 80.73779297 467.71995201 80.73779297 463.51757812 C80.03026508 463.5212653 79.3227372 463.52495247 78.59376907 463.52875137 C61.38460057 463.61705707 44.17548955 463.68326557 26.96614456 463.72482681 C18.64385089 463.74545933 10.32170838 463.77359296 1.99951172 463.81933594 C-5.25342828 463.85918277 -12.50625882 463.88500593 -19.75930524 463.8939321 C-23.60042446 463.89915056 -27.44123052 463.91142972 -31.28224945 463.94049835 C-34.8970754 463.96763372 -38.51145898 463.97602712 -42.12637711 463.97000885 C-44.08659758 463.97163527 -46.04676979 463.99316796 -48.00686646 464.01525879 C-49.17351837 464.00976013 -50.34017029 464.00426147 -51.54217529 463.99859619 C-52.55614758 464.00228336 -53.57011986 464.00597054 -54.61481857 464.00976944 C-57.9794671 463.38422815 -59.18426245 462.18481724 -61.26220703 459.51757812 C-61.32080078 457.22851562 -61.32080078 457.22851562 -60.69970703 454.89257812 C-60.51279297 454.1165625 -60.32587891 453.34054687 -60.13330078 452.54101562 C-59.26220703 450.51757812 -59.26220703 450.51757812 -56.26220703 448.51757812 C-53.89404011 448.27148247 -53.89404011 448.27148247 -51.04206848 448.27706909 C-49.96093277 448.27431976 -48.87979706 448.27157043 -47.76589966 448.26873779 C-46.57979095 448.27592834 -45.39368225 448.2831189 -44.17163086 448.29052734 C-42.29828819 448.29008926 -42.29828819 448.29008926 -40.38710022 448.28964233 C-36.96167298 448.29079789 -33.53648608 448.30083627 -30.11110139 448.31479025 C-26.53165026 448.32728299 -22.95219601 448.32846696 -19.37272644 448.33084106 C-12.59417927 448.33706012 -5.81569653 448.35347668 0.96282226 448.37354004 C8.67978551 448.39588581 16.39675182 448.40688914 24.11373937 448.41693091 C39.98846123 448.43784256 55.86311879 448.47302678 71.73779297 448.51757812 C71.12073486 446.82036621 71.12073486 446.82036621 70.49121094 445.08886719 C69.94554946 443.57040279 69.40015351 442.05184296 68.85498047 440.53320312 C68.58451904 439.79150879 68.31405762 439.04981445 68.03540039 438.28564453 C63.93647951 426.81864823 62.4872778 415.39799182 62.23779297 403.26757812 C62.2070166 402.37393555 62.17624023 401.48029297 62.14453125 400.55957031 C62.1436752 396.07556464 62.29937777 394.10906711 65.04248047 390.40820312 C67.73779297 388.51757812 67.73779297 388.51757812 71.36279297 388.51757812 C74.69199863 389.50400943 75.71215623 389.85798932 77.73779297 392.51757812 C78.12255859 394.65551758 78.12255859 394.65551758 78.14404297 397.13085938 C78.16362061 398.04206543 78.18319824 398.95327148 78.20336914 399.89208984 C78.214729 400.86162598 78.22608887 401.83116211 78.23779297 402.83007812 C79.08262847 430.81157349 89.64342583 454.24124949 109.69091797 473.84570312 C129.36052346 491.71075765 155.02176508 497.5318289 180.89257812 496.70117188 C187.47309638 496.27654945 193.49457466 494.60775843 199.73779297 492.51757812 C201.44322266 491.95683594 201.44322266 491.95683594 203.18310547 491.38476562 C227.92607957 482.5521673 245.79983554 464.87319797 256.94482422 441.46679688 C267.089218 419.47585908 267.67307293 393.67690856 259.55029297 370.95507812 C254.95697848 359.76059311 248.80080335 349.56538367 240.73779297 340.51757812 C240.06232422 339.75960938 239.38685547 339.00164062 238.69091797 338.22070312 C224.39834895 323.09353154 202.34354069 311.74580312 181.296875 310.35644531 C154.46942704 309.91488349 128.91433787 315.25370858 108.93334961 334.31591797 C107.52162076 335.70315497 106.12938903 337.11014598 104.73779297 338.51757812 C103.92439453 339.32066406 103.11099609 340.12375 102.27294922 340.95117188 C96.91263303 346.53139847 93.21031 352.45949624 89.56201172 359.22070312 C84.56827647 368.24578352 84.56827647 368.24578352 80.30029297 369.64257812 C76.73779297 369.51757812 76.73779297 369.51757812 73.80029297 368.01757812 C71.73779297 365.51757812 71.73779297 365.51757812 71.35888672 362.34960938 C71.82390483 357.64669426 73.34384096 354.70436339 75.73779297 350.70507812 C76.14497559 350.00511719 76.5521582 349.30515625 76.97167969 348.58398438 C80.40936976 342.79980737 84.31120953 337.5856954 88.73779297 332.51757812 C89.28822266 331.83566406 89.83865234 331.15375 90.40576172 330.45117188 C107.07460339 310.21891987 133.16500775 298.25215417 158.73779297 294.51757812 C160.73115184 294.42997612 162.72688637 294.38700895 164.72216797 294.38476562 C165.82173828 294.38347656 166.92130859 294.3821875 168.05419922 294.38085938 C169.18728516 294.38472656 170.32037109 294.38859375 171.48779297 294.39257812 C172.63634766 294.38871094 173.78490234 294.38484375 174.96826172 294.38085938 C176.06267578 294.38214844 177.15708984 294.3834375 178.28466797 294.38476562 C179.28336914 294.38589355 180.28207031 294.38702148 181.31103516 294.38818359 C183.73779297 294.51757812 183.73779297 294.51757812 185.73779297 295.51757812 C185.73779297 246.67757812 185.73779297 197.83757812 185.73779297 147.51757812 C152.66478534 147.67569886 152.66478534 147.67569886 119.59204102 147.87792969 C113.16711426 147.89599609 113.16711426 147.89599609 110.15071106 147.89935303 C108.06282635 147.90545903 105.97495495 147.91945146 103.88716125 147.93988037 C87.67888745 148.09042466 75.33885835 147.52832896 63.05419922 135.92773438 C56.03377296 128.48713298 54.13842037 119.7909566 54.19189453 109.83544922 C54.18155685 108.81961761 54.17121918 107.80378601 54.16056824 106.75717163 C54.13132049 103.43495435 54.12964486 100.11335108 54.12841797 96.79101562 C54.11342419 94.4735906 54.09669455 92.15617622 54.07830811 89.83877563 C54.03475724 83.76600635 54.01466256 77.6933812 53.99957275 71.6204834 C53.97995751 65.4129183 53.93799244 59.20550786 53.89794922 52.99804688 C53.82277984 40.83793847 53.77240797 28.6778649 53.73779297 16.51757812 C53.00751892 16.5139325 52.27724487 16.51028687 51.52484131 16.50653076 C44.63868479 16.46864545 37.7529174 16.41178677 30.86710739 16.33367538 C27.32707632 16.29418557 23.78729453 16.26200495 20.24707031 16.24658203 C16.17586353 16.22852441 12.10558843 16.17858088 8.03466797 16.12695312 C6.12980621 16.12511017 6.12980621 16.12511017 4.1864624 16.12322998 C3.00554016 16.10351135 1.82461792 16.08379272 0.60791016 16.06347656 C-0.43133606 16.05459412 -1.47058228 16.04571167 -2.5413208 16.03656006 C-5.974707 15.38167586 -7.14114773 14.25034785 -9.26220703 11.51757812 C-10.26220703 8.01757812 -10.26220703 8.01757812 -10.26220703 4.51757812 C-7.25782453 0.43406653 -4.94147261 0.01409517 0 0 Z " fill="#020101" transform="translate(200.26220703125,-0.517578125)"/>
<path d="M0 0 C0.8313446 -0.00860046 1.66268921 -0.01720093 2.51922607 -0.02606201 C3.88220573 -0.03245193 3.88220573 -0.03245193 5.27272034 -0.03897095 C6.71214493 -0.05123718 6.71214493 -0.05123718 8.1806488 -0.06375122 C11.35920079 -0.08858453 14.53770829 -0.10511298 17.71632385 -0.11953735 C19.34304362 -0.12752287 19.34304362 -0.12752287 21.00262642 -0.13566971 C26.73897215 -0.16238795 32.47529618 -0.18177008 38.21168518 -0.19619751 C44.14492729 -0.21287306 50.07761695 -0.25767926 56.01064968 -0.30856895 C60.56677922 -0.34216423 65.1227761 -0.35376627 69.67901802 -0.35942459 C71.86675824 -0.36615475 74.0544892 -0.38142227 76.2421093 -0.4053154 C79.2996522 -0.4368136 82.35568387 -0.43702702 85.41334534 -0.42959595 C86.31997421 -0.44600128 87.22660309 -0.46240662 88.16070557 -0.47930908 C94.27286119 -0.41835725 94.27286119 -0.41835725 97.5050354 2.49505615 C98.9077301 5.15390015 98.9077301 5.15390015 98.8452301 8.27890015 C97.90608214 11.15895389 97.28138938 12.34991909 94.9077301 14.15390015 C91.88795858 15.66378591 88.77443204 15.27196571 85.46388245 15.24813843 C83.87227904 15.2453512 82.28067543 15.24268139 80.68907166 15.2401123 C79.84296703 15.23706211 78.99686241 15.23401192 78.12511826 15.23086929 C73.64506062 15.21953632 69.16510503 15.24002987 64.68507385 15.25546265 C58.98355127 15.27373501 53.28256857 15.28250517 47.58106995 15.25350952 C42.97477065 15.23091892 38.3696468 15.24247072 33.76343155 15.27651596 C32.01166245 15.28326977 30.25979841 15.27764756 28.50811386 15.25915909 C17.47577959 14.82679478 17.47577959 14.82679478 7.89601135 19.53475952 C5.38205844 22.29791691 3.25802556 25.20795571 1.5327301 28.52890015 C1.07124573 29.38225952 0.60976135 30.2356189 0.1342926 31.11483765 C-3.47465676 40.05675676 -3.37920237 48.95534992 -3.35296631 58.42985535 C-3.35598994 59.97999734 -3.35988049 61.53013784 -3.36455888 63.08027571 C-3.37482036 67.32379184 -3.37266177 71.5672233 -3.36837828 75.81074631 C-3.36590768 80.39369177 -3.37492939 84.97661703 -3.38241577 89.55955505 C-3.39515572 98.53201343 -3.39695732 107.50444187 -3.39461551 116.47690777 C-3.39283133 123.77159778 -3.39458415 131.06627871 -3.39883995 138.36096764 C-3.39943514 139.39981938 -3.40003033 140.43867112 -3.40064355 141.50900322 C-3.40185533 143.61955264 -3.40306946 145.73010206 -3.40428593 147.84065147 C-3.41515886 167.62735095 -3.4130002 187.41403337 -3.40690108 207.2007338 C-3.40173272 225.2918839 -3.41298569 243.38298014 -3.4319993 261.47411958 C-3.45138372 280.06091151 -3.45963261 298.64767798 -3.45587605 317.23448008 C-3.45396485 327.66519136 -3.45644364 338.09585681 -3.47059059 348.52655983 C-3.48251307 357.40684552 -3.48389957 366.28705717 -3.47180042 375.16734389 C-3.46591772 379.69541201 -3.46479546 384.22334476 -3.47680283 388.75140381 C-3.48768172 392.90225777 -3.48453453 397.05286365 -3.47054114 401.20370611 C-3.46789972 402.6996029 -3.47024321 404.19551926 -3.47827701 405.69139681 C-3.54223976 418.49722947 -2.40109827 430.81936568 5.9077301 441.15390015 C6.31934387 441.68048218 6.73095764 442.20706421 7.15504456 442.74960327 C10.99263723 446.85830704 14.2266883 447.59102152 19.79444885 447.88827515 C22.39448736 447.92264271 24.99506699 447.9269899 27.5952301 447.90390015 C30.2033386 447.9115523 32.811439 447.92683625 35.41944885 447.95077515 C37.14361023 447.94062378 37.14361023 447.94062378 38.90260315 447.93026733 C41.8399036 448.1488527 43.47480967 448.53996842 45.9077301 450.15390015 C46.8764801 451.9234314 46.8764801 451.9234314 47.4077301 453.96640015 C47.70163635 454.96606812 47.70163635 454.96606812 48.0014801 455.9859314 C47.9077301 458.15390015 47.9077301 458.15390015 46.54249573 460.75009155 C42.55568598 464.38742743 38.88013925 463.85420398 33.6577301 463.7828064 C32.64863586 463.78521835 31.63954163 463.78763031 30.59986877 463.79011536 C28.46140116 463.78913586 26.32290851 463.77571808 24.18458557 463.75082397 C20.94686656 463.71681128 17.71192397 463.73008662 14.47413635 463.74960327 C-1.80258988 463.73865789 -14.29344902 462.0412028 -26.7797699 450.71640015 C-27.5428949 449.87077515 -28.3060199 449.02515015 -29.0922699 448.15390015 C-29.57309021 447.67694702 -30.05391052 447.1999939 -30.54930115 446.70858765 C-37.20874485 439.72881627 -41.20366963 429.78531145 -41.22928429 420.1438446 C-41.23435883 419.12816249 -41.23943337 418.11248037 -41.24466169 417.06602001 C-41.24515945 415.95202485 -41.2456572 414.83802969 -41.24617004 413.6902771 C-41.2505523 412.50545148 -41.25493455 411.32062586 -41.2594496 410.09989643 C-41.27050674 406.81018798 -41.27705963 403.520527 -41.28163075 400.23080683 C-41.28759271 396.68338213 -41.29920066 393.13597491 -41.30992126 389.58856201 C-41.33442528 381.02359103 -41.34906618 372.45861429 -41.36198133 363.89361906 C-41.36569367 361.47534491 -41.36966683 359.05707134 -41.373734 356.63879776 C-41.39896261 341.62544068 -41.42101809 326.61208269 -41.43346214 311.59870911 C-41.43639187 308.12263994 -41.43935354 304.6465708 -41.44236755 301.17050171 C-41.4431136 300.30653467 -41.44385965 299.44256764 -41.44462831 298.55241978 C-41.45729447 284.54235159 -41.49053642 270.53240995 -41.53216939 256.52240098 C-41.57454779 242.14397638 -41.59815211 227.76561668 -41.60338271 213.38712978 C-41.60680066 205.31179236 -41.6186015 197.236653 -41.65148544 189.16137695 C-41.67943046 182.28772701 -41.69050967 175.41431576 -41.67928998 168.54061341 C-41.67408967 165.03213764 -41.67707785 161.52416218 -41.70175552 158.01575851 C-41.72825939 154.21614117 -41.71623486 150.41721261 -41.70027161 146.61752319 C-41.72109474 144.94653045 -41.72109474 144.94653045 -41.74233854 143.24178028 C-41.66486367 135.79850745 -41.66486367 135.79850745 -38.67926979 132.43742371 C-36.0922699 131.15390015 -36.0922699 131.15390015 -34.0922699 131.15390015 C-34.0922699 124.88390015 -34.0922699 118.61390015 -34.0922699 112.15390015 C-35.7422699 111.49390015 -37.3922699 110.83390015 -39.0922699 110.15390015 C-41.88962163 107.35654842 -41.35795573 105.61117366 -41.38279724 101.6914978 C-41.38951447 101.02773132 -41.39623169 100.36396484 -41.40315247 99.68008423 C-41.42221125 97.47596817 -41.42606244 95.27215612 -41.4282074 93.06796265 C-41.43463668 91.53015011 -41.44136514 89.99233879 -41.44837952 88.45452881 C-41.4603767 85.22131525 -41.46405853 81.98820863 -41.46287537 78.75497437 C-41.46267358 74.64184461 -41.4898168 70.52941684 -41.52441978 66.41645241 C-41.54684578 63.2333675 -41.55070793 60.05044626 -41.54965591 56.8672905 C-41.55199446 55.35325102 -41.5607179 53.83920579 -41.57632065 52.3252449 C-41.71400182 37.56709314 -38.77837235 25.6283208 -28.6547699 14.46640015 C-27.8091449 13.70327515 -26.9635199 12.94015015 -26.0922699 12.15390015 C-25.61531677 11.67307983 -25.13836365 11.19225952 -24.6469574 10.6968689 C-18.40615178 4.74247707 -8.71470355 0.06724967 0 0 Z " fill="#E2DFE3" transform="translate(72.09226989746094,-0.153900146484375)"/>
<path d="M0 0 C4.63496371 2.46015544 8.02040453 5.88309743 11.6015625 9.6640625 C12.23320312 10.31375 12.86484375 10.9634375 13.515625 11.6328125 C15.05392289 13.21772547 16.58199756 14.81121618 18.1015625 16.4140625 C20.97621351 15.12093345 22.92702691 13.79848752 25.0546875 11.48046875 C25.59222656 10.91392578 26.12976563 10.34738281 26.68359375 9.76367188 C27.78636627 8.58212989 28.88286132 7.39469427 29.97265625 6.20117188 C34.63082456 1.32724518 39.10174141 -0.86955163 45.71875 -2.0546875 C52.3925296 -2.14705815 57.71824843 -0.62573945 63.1015625 3.4140625 C67.2646584 8.31182239 70.24124006 13.00936505 70.4140625 19.4765625 C70.47013672 20.82427734 70.47013672 20.82427734 70.52734375 22.19921875 C69.39844551 30.72291829 64.97226419 36.26017545 58.8515625 41.9765625 C58.201875 42.60369141 57.5521875 43.23082031 56.8828125 43.87695312 C55.30001161 45.40156281 53.7067634 46.91311625 52.1015625 48.4140625 C53.39649543 51.28923944 54.73036408 53.25834265 57.03515625 55.40234375 C57.60169922 55.94439453 58.16824219 56.48644531 58.75195312 57.04492188 C59.93544673 58.15856995 61.12290859 59.26801712 62.31445312 60.37304688 C66.95102607 64.83068284 69.52985086 68.7108132 70.53515625 75.22265625 C70.54692974 83.14621697 68.85124061 88.05334481 63.8515625 94.1640625 C58.08566163 98.88161776 53.27740285 100.86030547 45.7890625 100.84765625 C37.28769232 99.47606891 32.84559471 95.84173 27.1015625 89.7265625 C26.42222656 89.02466797 25.74289062 88.32277344 25.04296875 87.59960938 C23.38377435 85.88199263 21.73747536 84.15381749 20.1015625 82.4140625 C17.22638556 83.70899543 15.25728235 85.04286408 13.11328125 87.34765625 C12.57123047 87.91419922 12.02917969 88.48074219 11.47070312 89.06445312 C10.35705505 90.24794673 9.24760788 91.43540859 8.14257812 92.62695312 C2.95149782 98.02641209 -1.991128 100.81815328 -9.7109375 100.9765625 C-16.30182119 100.78659969 -20.93637383 98.7217881 -25.8984375 94.4140625 C-31.08129155 88.18030716 -32.37307191 82.19892155 -32.21484375 74.203125 C-31.08933888 64.282008 -20.6957453 56.94266267 -13.8984375 50.4140625 C-15.19337043 47.53888556 -16.52723908 45.56978235 -18.83203125 43.42578125 C-19.39857422 42.88373047 -19.96511719 42.34167969 -20.54882812 41.78320312 C-21.73232173 40.66955505 -22.91978359 39.56010788 -24.11132812 38.45507812 C-29.51078709 33.26399782 -32.30252828 28.321372 -32.4609375 20.6015625 C-32.25334027 13.96675504 -30.29388154 9.37212338 -25.8984375 4.4140625 C-18.42600139 -2.2104376 -9.2506929 -4.16124237 0 0 Z " fill="#030202" transform="translate(352.8984375,353.5859375)"/>
<path d="M0 0 C1.01126953 0.28037109 1.01126953 0.28037109 2.04296875 0.56640625 C3.8125 1.4375 3.8125 1.4375 5.8125 4.4375 C6.06270635 6.63242918 6.06270635 6.63242918 6.06303978 9.24527836 C6.06803848 10.24133565 6.07303717 11.23739294 6.07818735 12.26363379 C6.07352413 13.36088528 6.06886092 14.45813677 6.0640564 15.58863831 C6.06702654 16.7520419 6.06999667 17.91544549 6.07305682 19.11410373 C6.07938808 22.3489197 6.07678172 25.58358978 6.07053804 28.81840146 C6.06601257 32.30528909 6.07304028 35.79215444 6.07884216 39.27903748 C6.0874846 45.32439018 6.08928095 51.36971361 6.08689499 57.41507149 C6.08379975 66.16658565 6.09542842 74.91803502 6.11144479 83.66953289 C6.1374246 97.88197772 6.15743279 112.0944226 6.17089844 126.30688477 C6.17170881 127.15788098 6.17251918 128.0088772 6.1733541 128.88566118 C6.18456582 140.95149832 6.18985429 153.01733085 6.19274123 165.08317249 C6.19304721 166.35648331 6.19304721 166.35648331 6.19335938 167.65551758 C6.19355931 168.50335611 6.19375925 169.35119464 6.19396524 170.22472525 C6.1977013 184.37491884 6.21681035 198.52504238 6.24845374 212.67520088 C6.26735035 221.40075289 6.2733409 230.12612508 6.26263656 238.85169189 C6.25630603 244.83637558 6.26439009 250.82093062 6.28369068 256.80558611 C6.29434908 260.25597977 6.29856478 263.70606085 6.28521919 267.15645218 C6.27408849 270.90376003 6.2875428 274.65021997 6.30697632 278.3974762 C6.29785166 279.47911264 6.288727 280.56074907 6.27932584 281.67516237 C6.37872074 291.54548694 9.06684972 299.46613912 15.890625 306.68359375 C23.78830504 313.8910294 31.91024287 315.71645517 42.32421875 315.78125 C43.66018852 315.8031842 43.66018852 315.8031842 45.02314758 315.82556152 C48.80801573 315.88747419 52.59303797 315.92749872 56.37817383 315.96923828 C59.1520283 316.00297595 61.92553952 316.04806398 64.69921875 316.09375 C65.55343918 316.0990271 66.40765961 316.1043042 67.2877655 316.10974121 C68.08572037 316.12315552 68.88367523 316.13656982 69.70581055 316.15039062 C70.75335762 316.16132751 70.75335762 316.16132751 71.82206726 316.17248535 C74.17707499 316.48604106 75.786518 317.21031555 77.8125 318.4375 C78.78125 320.20703125 78.78125 320.20703125 79.3125 322.25 C79.60640625 323.24966797 79.60640625 323.24966797 79.90625 324.26953125 C79.8125 326.4375 79.8125 326.4375 78.44726562 329.03369141 C74.46045588 332.67102728 70.78490915 332.13780383 65.5625 332.06640625 C64.55340576 332.06881821 63.54431152 332.07123016 62.50463867 332.07371521 C60.36617105 332.07273572 58.22767841 332.05931793 56.08935547 332.03442383 C52.85163645 332.00041113 49.61669387 332.01368647 46.37890625 332.03320312 C30.10218002 332.02225774 17.61132087 330.32480265 5.125 319 C4.361875 318.154375 3.59875 317.30875 2.8125 316.4375 C2.33167969 315.96054687 1.85085937 315.48359375 1.35546875 314.9921875 C-5.30397496 308.01241612 -9.29889973 298.06891131 -9.32451439 288.42744446 C-9.32958893 287.41176234 -9.33466347 286.39608023 -9.33989179 285.34961987 C-9.34038955 284.2356247 -9.34088731 283.12162954 -9.34140015 281.97387695 C-9.3457824 280.78905133 -9.35016465 279.60422571 -9.3546797 278.38349628 C-9.36573685 275.09378783 -9.37228973 271.80412685 -9.37686086 268.51440668 C-9.38282282 264.96698199 -9.39443076 261.41957476 -9.40515137 257.87216187 C-9.42965538 249.30719089 -9.44429628 240.74221414 -9.45721143 232.17721891 C-9.46092377 229.75894476 -9.46489693 227.34067119 -9.4689641 224.92239761 C-9.49419272 209.90904054 -9.51624819 194.89568255 -9.52869225 179.88230896 C-9.53162197 176.40623979 -9.53458364 172.93017066 -9.53759766 169.45410156 C-9.53834371 168.59013453 -9.53908976 167.72616749 -9.53985842 166.83601964 C-9.55252457 152.82595144 -9.58576653 138.8160098 -9.62739949 124.80600083 C-9.6697779 110.42757623 -9.69338221 96.04921654 -9.69861281 81.67072964 C-9.70203076 73.59539221 -9.7138316 65.52025285 -9.74671555 57.44497681 C-9.77466056 50.57132687 -9.78573977 43.69791562 -9.77452008 36.82421327 C-9.76931977 33.31573749 -9.77230795 29.80776204 -9.79698563 26.29935837 C-9.82348949 22.49974102 -9.81146497 18.70081246 -9.79550171 14.90112305 C-9.81632484 13.23013031 -9.81632484 13.23013031 -9.83756864 11.52538013 C-9.76011424 4.08407431 -9.76011424 4.08407431 -6.78499794 0.72468567 C-3.94977636 -0.68030354 -2.97633449 -0.91535239 0 0 Z " fill="#000000" transform="translate(40.1875,131.5625)"/>
<path d="M0 0 C2.87702372 1.38440708 4.95257101 2.70432316 7.20703125 4.9765625 C7.79419922 5.56566406 8.38136719 6.15476562 8.98632812 6.76171875 C9.58896484 7.37660156 10.19160156 7.99148437 10.8125 8.625 C11.40353516 9.21667969 11.99457031 9.80835938 12.60351562 10.41796875 C15.59101076 13.43478499 18.46767639 16.50811951 21.23014832 19.7325592 C24.96179663 24.0133927 28.90285953 28.04386223 32.9230957 32.05249023 C33.68168381 32.81283066 34.44027191 33.57317108 35.22184753 34.35655212 C37.70400032 36.84306975 40.18974918 39.32595511 42.67578125 41.80859375 C44.40991076 43.54339742 46.14389184 45.27834946 47.87773132 47.01344299 C51.49800116 50.63518216 55.1200614 54.25511854 58.7434082 57.8737793 C63.39527075 62.51991937 68.04259526 67.17056877 72.68861103 71.82255459 C76.26145781 75.39900584 79.83667163 78.97308318 83.41261864 82.5464344 C85.12823141 84.26137891 86.84309841 85.97706982 88.55721474 87.69351006 C90.94369682 90.08251952 93.33333966 92.46832079 95.72387695 94.85327148 C96.43504669 95.56646545 97.14621643 96.27965942 97.87893677 97.01446533 C98.85234261 97.98364143 98.85234261 97.98364143 99.84541321 98.97239685 C100.40967671 99.53628333 100.97394022 100.10016981 101.55530262 100.68114376 C102.98363173 102.10545999 102.98363173 102.10545999 105 103 C105 103.66 105 104.32 105 105 C93.40369208 105.09281592 81.80747303 105.16382398 70.21086884 105.20724869 C64.82566679 105.2280939 59.44071951 105.25635573 54.05566406 105.30175781 C48.8555502 105.34532461 43.65568089 105.36916016 38.45539856 105.37950897 C36.47471774 105.38688088 34.4940498 105.40127651 32.51347351 105.42292023 C29.73199893 105.45209818 26.95152569 105.45594999 24.16992188 105.45410156 C23.35711761 105.46848267 22.54431335 105.48286377 21.70687866 105.49768066 C15.46669489 105.45301853 10.141684 103.89928999 5.46990204 99.58795547 C0.3064919 93.73135622 -0.29213385 88.625127 -0.22705078 81.1706543 C-0.22734283 80.29210281 -0.22763489 79.41355133 -0.22793579 78.50837708 C-0.22654595 75.61355607 -0.21100096 72.71899462 -0.1953125 69.82421875 C-0.19158114 67.81354411 -0.18873475 65.80286766 -0.18673706 63.79219055 C-0.17911028 58.50677447 -0.15946992 53.22146875 -0.1373291 47.93609619 C-0.11685015 42.54009494 -0.10773096 37.14407581 -0.09765625 31.74804688 C-0.07622318 21.16531616 -0.0420987 10.58266727 0 0 Z " fill="#A098A3" transform="translate(270,27)"/>
<path d="M0 0 C0.92923096 -0.00367669 1.85846192 -0.00735338 2.81585139 -0.01114148 C5.9488289 -0.02220902 9.08177329 -0.02602733 12.21476746 -0.02983093 C14.45322781 -0.0360932 16.69168711 -0.04273979 18.93014526 -0.04974365 C25.02520587 -0.067174 31.12025862 -0.07771069 37.21533799 -0.08594918 C41.02020483 -0.09109441 44.82506921 -0.09717031 48.62993431 -0.10346031 C59.16165365 -0.12033211 69.69337185 -0.13496756 80.22510242 -0.14220905 C82.95863662 -0.14411899 85.6921708 -0.14603932 88.42570496 -0.147995 C89.44483138 -0.14872061 89.44483138 -0.14872061 90.48454621 -0.14946087 C101.49358779 -0.15776329 112.50252079 -0.18310359 123.51151494 -0.21557567 C134.81059588 -0.24863208 146.10962365 -0.26632361 157.4087593 -0.26985329 C163.75430687 -0.27220839 170.09968283 -0.28122862 176.44518471 -0.30631447 C182.41317187 -0.32952636 188.38087359 -0.33385611 194.34889412 -0.32355309 C196.54149574 -0.32305596 198.73411108 -0.3294282 200.92667007 -0.34310913 C203.91605859 -0.36072104 206.90441081 -0.35377447 209.89379883 -0.34057617 C210.76500659 -0.35154542 211.63621436 -0.36251466 212.53382236 -0.37381631 C216.61044898 -0.33024983 218.64040884 -0.16471713 222.17359447 2.05265522 C224.28026579 4.29957466 224.821536 5.11812173 224.76237488 8.14717102 C224.7752655 8.80717102 224.78815613 9.46717102 224.80143738 10.14717102 C223.73089966 13.37137874 221.99197715 14.35373552 219.13737488 16.14717102 C216.06215022 16.73026564 213.03659272 16.68716254 209.91398621 16.65510559 C208.51629486 16.66446553 208.51629486 16.66446553 207.09036732 16.67401457 C203.96645659 16.68997598 200.84332272 16.67732775 197.71940613 16.66474915 C195.48049972 16.67016885 193.24159688 16.67729065 191.00270081 16.68598938 C184.92012179 16.70424354 178.83781378 16.6971464 172.75522995 16.68447304 C166.39407869 16.6743563 160.03295086 16.68373503 153.67179871 16.6900177 C142.30415273 16.69776448 130.93664454 16.68532241 119.56902611 16.66498035 C109.26329735 16.64710942 98.95774882 16.65021357 88.65202332 16.6686554 C76.68264747 16.69006427 64.7133811 16.69802806 52.74397945 16.68620634 C46.40856536 16.67996548 40.07327541 16.67915216 33.73786926 16.69235229 C27.7821121 16.70389428 21.82669578 16.69591489 15.87097549 16.67277527 C13.6832244 16.6674794 11.49544469 16.66901688 9.30770493 16.67782593 C6.32500191 16.68873 3.34339633 16.67507944 0.36076355 16.65510559 C-0.50839786 16.66402848 -1.37755926 16.67295136 -2.27305889 16.68214464 C-6.29528748 16.62977096 -8.37138543 16.44878861 -11.87268066 14.29901886 C-14.44648482 11.51580806 -14.93984387 9.93088983 -14.86262512 6.14717102 C-10.72327968 -0.27595121 -7.15666632 -0.00150293 0 0 Z " fill="#0C0C0C" transform="translate(100.86262512207031,261.8528289794922)"/>
<path d="M0 0 C0.92923096 -0.00367669 1.85846192 -0.00735338 2.81585139 -0.01114148 C5.9488289 -0.02220902 9.08177329 -0.02602733 12.21476746 -0.02983093 C14.45322781 -0.0360932 16.69168711 -0.04273979 18.93014526 -0.04974365 C25.02520587 -0.067174 31.12025862 -0.07771069 37.21533799 -0.08594918 C41.02020483 -0.09109441 44.82506921 -0.09717031 48.62993431 -0.10346031 C59.16165365 -0.12033211 69.69337185 -0.13496756 80.22510242 -0.14220905 C82.95863662 -0.14411899 85.6921708 -0.14603932 88.42570496 -0.147995 C89.44483138 -0.14872061 89.44483138 -0.14872061 90.48454621 -0.14946087 C101.49358779 -0.15776329 112.50252079 -0.18310359 123.51151494 -0.21557567 C134.81059588 -0.24863208 146.10962365 -0.26632361 157.4087593 -0.26985329 C163.75430687 -0.27220839 170.09968283 -0.28122862 176.44518471 -0.30631447 C182.41317187 -0.32952636 188.38087359 -0.33385611 194.34889412 -0.32355309 C196.54149574 -0.32305596 198.73411108 -0.3294282 200.92667007 -0.34310913 C203.91605859 -0.36072104 206.90441081 -0.35377447 209.89379883 -0.34057617 C210.76500659 -0.35154542 211.63621436 -0.36251466 212.53382236 -0.37381631 C216.61044898 -0.33024983 218.64040884 -0.16471713 222.17359447 2.05265522 C224.28026579 4.29957466 224.821536 5.11812173 224.76237488 8.14717102 C224.7752655 8.80717102 224.78815613 9.46717102 224.80143738 10.14717102 C223.73089966 13.37137874 221.99197715 14.35373552 219.13737488 16.14717102 C216.06215022 16.73026564 213.03659272 16.68716254 209.91398621 16.65510559 C208.51629486 16.66446553 208.51629486 16.66446553 207.09036732 16.67401457 C203.96645659 16.68997598 200.84332272 16.67732775 197.71940613 16.66474915 C195.48049972 16.67016885 193.24159688 16.67729065 191.00270081 16.68598938 C184.92012179 16.70424354 178.83781378 16.6971464 172.75522995 16.68447304 C166.39407869 16.6743563 160.03295086 16.68373503 153.67179871 16.6900177 C142.30415273 16.69776448 130.93664454 16.68532241 119.56902611 16.66498035 C109.26329735 16.64710942 98.95774882 16.65021357 88.65202332 16.6686554 C76.68264747 16.69006427 64.7133811 16.69802806 52.74397945 16.68620634 C46.40856536 16.67996548 40.07327541 16.67915216 33.73786926 16.69235229 C27.7821121 16.70389428 21.82669578 16.69591489 15.87097549 16.67277527 C13.6832244 16.6674794 11.49544469 16.66901688 9.30770493 16.67782593 C6.32500191 16.68873 3.34339633 16.67507944 0.36076355 16.65510559 C-0.50839786 16.66402848 -1.37755926 16.67295136 -2.27305889 16.68214464 C-6.29528748 16.62977096 -8.37138543 16.44878861 -11.87268066 14.29901886 C-14.44648482 11.51580806 -14.93984387 9.93088983 -14.86262512 6.14717102 C-10.72327968 -0.27595121 -7.15666632 -0.00150293 0 0 Z " fill="#0C0C0C" transform="translate(100.86262512207031,201.8528289794922)"/>
<path d="M0 0 C1.61447958 4.03619895 0.19020382 6.9665315 -1 11 C-5.17756884 40.84407091 -1.00932266 69.14754806 17.16015625 93.703125 C30.49821626 110.35446106 45.92991598 121.68764381 66 129 C67.09183594 129.41378906 68.18367188 129.82757813 69.30859375 130.25390625 C78.76082659 133.2251996 88.23337886 133.42211922 98.0625 133.5 C98.73674011 133.51053406 99.41098022 133.52106812 100.10565186 133.53192139 C109.33537529 133.64323773 117.24569539 132.48464545 125.98608398 129.75976562 C129 129 129 129 132 130 C116.35102116 141.24408109 98.08416455 147.42475265 78.8125 147.3125 C77.80654785 147.30758545 76.8005957 147.3026709 75.76416016 147.29760742 C53.66764335 146.95262577 32.49053848 138.83639496 16 124 C15.52175781 123.57090332 15.04351562 123.14180664 14.55078125 122.69970703 C-2.09510124 107.54617712 -13.34618232 86.52980633 -16 64 C-16.06187495 62.24786127 -16.10695938 60.49509516 -16.140625 58.7421875 C-16.15996094 57.78699219 -16.17929687 56.83179688 -16.19921875 55.84765625 C-16.23320284 53.85827966 -16.25131216 51.8685714 -16.25390625 49.87890625 C-16.24454312 44.05612056 -16.24454312 44.05612056 -19.51171875 39.50390625 C-20.33285156 39.00761719 -21.15398437 38.51132812 -22 38 C-23.30980665 31.15989858 -20.16558613 24.42908383 -18 18 C-17.0925 18.0825 -16.185 18.165 -15.25 18.25 C-11.99433368 18.28844471 -11.99433368 18.28844471 -9.85546875 16.41796875 C-7.63571483 13.5252789 -5.98494285 10.5521778 -4.3125 7.3125 C-1.06944444 1.06944444 -1.06944444 1.06944444 0 0 Z " fill="#C22430" transform="translate(294,350)"/>
<path d="M0 0 C0.8313446 -0.00860046 1.66268921 -0.01720093 2.51922607 -0.02606201 C3.88220573 -0.03245193 3.88220573 -0.03245193 5.27272034 -0.03897095 C6.71214493 -0.05123718 6.71214493 -0.05123718 8.1806488 -0.06375122 C11.35920079 -0.08858453 14.53770829 -0.10511298 17.71632385 -0.11953735 C19.34304362 -0.12752287 19.34304362 -0.12752287 21.00262642 -0.13566971 C26.73897215 -0.16238795 32.47529618 -0.18177008 38.21168518 -0.19619751 C44.14492729 -0.21287306 50.07761695 -0.25767926 56.01064968 -0.30856895 C60.56677922 -0.34216423 65.1227761 -0.35376627 69.67901802 -0.35942459 C71.86675824 -0.36615475 74.0544892 -0.38142227 76.2421093 -0.4053154 C79.2996522 -0.4368136 82.35568387 -0.43702702 85.41334534 -0.42959595 C86.31997421 -0.44600128 87.22660309 -0.46240662 88.16070557 -0.47930908 C94.27286119 -0.41835725 94.27286119 -0.41835725 97.5050354 2.49505615 C98.9077301 5.15390015 98.9077301 5.15390015 98.8452301 8.27890015 C97.90608214 11.15895389 97.28138938 12.34991909 94.9077301 14.15390015 C91.62596595 15.79478222 87.98578177 15.30713278 84.37818909 15.31161499 C83.49502518 15.31669571 82.61186127 15.32177643 81.70193481 15.32701111 C79.77907752 15.33772941 77.85620763 15.34634384 75.93333244 15.35313034 C72.88518627 15.36490967 69.8371824 15.3843628 66.78909302 15.40625 C58.1205981 15.46787911 49.45211546 15.52180886 40.78346252 15.55526733 C35.4836719 15.57627502 30.18413693 15.6116341 24.88449287 15.65602493 C22.86842432 15.67014439 20.85231048 15.67889817 18.83619499 15.68207932 C16.00487138 15.68701708 13.17421887 15.71025091 10.34303284 15.73739624 C9.51826447 15.73439011 8.69349609 15.73138397 7.84373474 15.72828674 C-1.20631059 15.85640582 -9.40497503 18.44644487 -15.90867615 24.9781189 C-22.59213606 32.30341421 -25.18133278 38.63611717 -25.26585388 48.53305054 C-25.27934372 49.80109024 -25.29283356 51.06912994 -25.30673218 52.37559509 C-25.31179213 53.0478821 -25.31685207 53.72016911 -25.32206535 54.41282845 C-25.33856471 56.52732411 -25.36180275 58.64164841 -25.38696289 60.75605774 C-25.4575129 66.76496772 -25.51792973 72.77394441 -25.56907654 78.78305054 C-25.60088869 82.46530202 -25.64215956 86.14734938 -25.68927193 89.82943535 C-25.70526637 91.23000866 -25.71759975 92.63062881 -25.72617912 94.03126717 C-25.73835015 95.98896807 -25.76353584 97.94657497 -25.78929138 99.90414429 C-25.79959885 101.01713394 -25.80990631 102.1301236 -25.82052612 103.27684021 C-26.08885564 106.11775201 -26.54176975 107.78206382 -28.0922699 110.15390015 C-29.86180115 111.12265015 -29.86180115 111.12265015 -31.9047699 111.65390015 C-32.57121521 111.84983765 -33.23766052 112.04577515 -33.92430115 112.24765015 C-37.33807889 112.10002733 -38.72644978 110.52787438 -41.0922699 108.15390015 C-41.72045898 105.09616089 -41.72045898 105.09616089 -41.72337341 101.46444702 C-41.73052872 100.80038849 -41.73768402 100.13632996 -41.74505615 99.45214844 C-41.76195032 97.25827986 -41.7425235 95.06645529 -41.72117615 92.87265015 C-41.72200559 91.33769564 -41.72446779 89.80274122 -41.72848511 88.26779175 C-41.73134459 85.04628839 -41.71664244 81.82547957 -41.68919373 78.60409546 C-41.65533936 74.50660548 -41.66105018 70.41037582 -41.6798563 66.31282806 C-41.69051824 63.13825302 -41.6814023 59.96396222 -41.66647148 56.78941345 C-41.66134064 55.28098907 -41.66170846 53.7725343 -41.66801643 52.26411438 C-41.70667548 37.44734402 -38.75950676 25.60752027 -28.6547699 14.46640015 C-27.8091449 13.70327515 -26.9635199 12.94015015 -26.0922699 12.15390015 C-25.61531677 11.67307983 -25.13836365 11.19225952 -24.6469574 10.6968689 C-18.40615178 4.74247707 -8.71470355 0.06724967 0 0 Z " fill="#000000" transform="translate(72.09226989746094,-0.153900146484375)"/>
<path d="M0 0 C8.0514894 1.70319968 14.25317029 10.61101873 19.85766602 16.33081055 C23.74608264 20.37166391 23.74608264 20.37166391 28.875 22.1875 C35.38015691 21.22377305 39.2958506 15.69962265 43.6640625 11.10546875 C44.27443359 10.4727002 44.88480469 9.83993164 45.51367188 9.18798828 C46.74089559 7.91022047 47.95364081 6.61836485 49.15039062 5.31201172 C53.46253117 0.81148848 53.46253117 0.81148848 57.5 0.17578125 C61.1349794 0.85217656 62.78709013 1.93483603 65.25 4.6875 C66 7.4375 66 7.4375 65.25 10.6875 C61.14703469 16.93487226 54.93012084 22.07904113 49.60668945 27.29516602 C45.56583609 31.18358264 45.56583609 31.18358264 43.75 36.3125 C44.71372695 42.81765691 50.23787735 46.7333506 54.83203125 51.1015625 C55.4647998 51.71193359 56.09756836 52.32230469 56.74951172 52.95117188 C58.02727953 54.17839559 59.31913515 55.39114081 60.62548828 56.58789062 C65.11699666 60.89139365 65.11699666 60.89139365 65.79296875 64.9375 C65.01561587 68.87459661 63.44198519 70.3282066 60.25 72.6875 C56.49167566 73.21587468 54.8603002 73.13443399 51.76464844 70.86743164 C50.9709082 70.03590576 50.17716797 69.20437988 49.359375 68.34765625 C48.48539062 67.44982422 47.61140625 66.55199219 46.7109375 65.62695312 C45.81632812 64.67755859 44.92171875 63.72816406 44 62.75 C42.20491553 60.88499369 40.40812759 59.021625 38.609375 57.16015625 C37.82014648 56.32750244 37.03091797 55.49484863 36.21777344 54.63696289 C33.92215922 52.36270984 32.78975722 51.7903109 29.625 51.1875 C21.53848118 52.38550279 15.18301006 61.67615128 9.64233398 67.33081055 C4.50661375 72.55091155 4.50661375 72.55091155 0.375 73 C-2.75 72.6875 -2.75 72.6875 -5.125 71.125 C-7.36585625 67.76371562 -7.15584145 65.67123119 -6.75 61.6875 C-4.92993164 59.08862305 -4.92993164 59.08862305 -2.41015625 56.69921875 C-1.51232422 55.82845703 -0.61449219 54.95769531 0.31054688 54.06054688 C1.73463867 52.73120117 1.73463867 52.73120117 3.1875 51.375 C5.05239413 49.58892212 6.91575725 47.80124384 8.77734375 46.01171875 C9.60999756 45.22885498 10.44265137 44.44599121 11.30053711 43.6394043 C13.58264976 41.35443364 14.14749759 40.22563764 14.75 37.0625 C13.55199721 28.97598118 4.26134872 22.62051006 -1.39331055 17.07983398 C-6.61341155 11.94411375 -6.61341155 11.94411375 -7.0625 7.8125 C-6.75 4.6875 -6.75 4.6875 -5.125 2.3125 C-2.75 0.6875 -2.75 0.6875 0 0 Z " fill="#F6F5F6" transform="translate(342.75,366.3125)"/>
<path d="M0 0 C1.07253525 -0.00860046 2.1450705 -0.01720093 3.25010681 -0.02606201 C4.43195557 -0.03032196 5.61380432 -0.03458191 6.83146667 -0.03897095 C8.69254311 -0.05123718 8.69254311 -0.05123718 10.59121704 -0.06375122 C14.71190567 -0.08863802 18.83255757 -0.10527876 22.95329285 -0.11953735 C24.37156875 -0.12489696 25.78984458 -0.13027447 27.20812035 -0.13566971 C33.10752005 -0.15729847 39.006917 -0.17603539 44.90634632 -0.1872921 C53.36238801 -0.20353296 61.81797032 -0.23671334 70.27383882 -0.29369295 C76.21870648 -0.33238715 82.16345124 -0.35192412 88.10844153 -0.35721266 C91.65955766 -0.36086689 95.21018385 -0.3728943 98.76116371 -0.4053154 C102.72353743 -0.44097398 106.68533415 -0.43702642 110.64787292 -0.42959595 C111.82364899 -0.44600128 112.99942505 -0.46240662 114.21083069 -0.47930908 C122.14503691 -0.4182537 122.14503691 -0.4182537 126.16647339 2.4989624 C128.33327028 5.75406863 128.66797074 7.31969684 127.9337616 11.15390015 C126.06666249 13.45665571 124.57728419 14.83213885 121.9337616 16.15390015 C120.26002095 16.25529834 118.58227856 16.29335116 116.90548706 16.30107117 C115.84136597 16.30822647 114.77724487 16.31538177 113.68087769 16.32275391 C112.50837967 16.32544281 111.33588165 16.32813171 110.12785339 16.3309021 C108.89688934 16.3374733 107.66592529 16.34404449 106.3976593 16.35081482 C103.01530586 16.36717076 99.63301503 16.37877722 96.25063682 16.38702035 C94.137617 16.3921701 92.02460157 16.39824584 89.91158485 16.40453148 C83.30092374 16.4235844 76.6902738 16.43781521 70.0795905 16.44614345 C62.44777134 16.45591674 54.81624216 16.4822379 47.18452519 16.52264434 C41.28636385 16.55280111 35.38828565 16.56761189 29.49004871 16.57092446 C25.96695618 16.57327551 22.4441734 16.58224233 18.92116356 16.60738564 C14.98996567 16.63498863 11.05914951 16.63083652 7.12785339 16.62387085 C5.96142807 16.63668091 4.79500275 16.64949097 3.5932312 16.66268921 C-4.27351352 16.61176041 -4.27351352 16.61176041 -8.26196289 14.30812073 C-10.6212349 11.49126028 -11.14123806 9.82888317 -11.0662384 6.15390015 C-7.8358006 1.14115183 -5.78532199 0.03445735 0 0 Z " fill="#0C0C0C" transform="translate(99.06623840332031,321.8460998535156)"/>
<path d="M0 0 C1.07253525 -0.00860046 2.1450705 -0.01720093 3.25010681 -0.02606201 C4.43195557 -0.03032196 5.61380432 -0.03458191 6.83146667 -0.03897095 C8.69254311 -0.05123718 8.69254311 -0.05123718 10.59121704 -0.06375122 C14.71190567 -0.08863802 18.83255757 -0.10527876 22.95329285 -0.11953735 C24.37156875 -0.12489696 25.78984458 -0.13027447 27.20812035 -0.13566971 C33.10752005 -0.15729847 39.006917 -0.17603539 44.90634632 -0.1872921 C53.36238801 -0.20353296 61.81797032 -0.23671334 70.27383882 -0.29369295 C76.21870648 -0.33238715 82.16345124 -0.35192412 88.10844153 -0.35721266 C91.65955766 -0.36086689 95.21018385 -0.3728943 98.76116371 -0.4053154 C102.72353743 -0.44097398 106.68533415 -0.43702642 110.64787292 -0.42959595 C111.82364899 -0.44600128 112.99942505 -0.46240662 114.21083069 -0.47930908 C122.14503691 -0.4182537 122.14503691 -0.4182537 126.16647339 2.4989624 C128.33327028 5.75406863 128.66797074 7.31969684 127.9337616 11.15390015 C126.06666249 13.45665571 124.57728419 14.83213885 121.9337616 16.15390015 C120.26002095 16.25529834 118.58227856 16.29335116 116.90548706 16.30107117 C115.84136597 16.30822647 114.77724487 16.31538177 113.68087769 16.32275391 C112.50837967 16.32544281 111.33588165 16.32813171 110.12785339 16.3309021 C108.89688934 16.3374733 107.66592529 16.34404449 106.3976593 16.35081482 C103.01530586 16.36717076 99.63301503 16.37877722 96.25063682 16.38702035 C94.137617 16.3921701 92.02460157 16.39824584 89.91158485 16.40453148 C83.30092374 16.4235844 76.6902738 16.43781521 70.0795905 16.44614345 C62.44777134 16.45591674 54.81624216 16.4822379 47.18452519 16.52264434 C41.28636385 16.55280111 35.38828565 16.56761189 29.49004871 16.57092446 C25.96695618 16.57327551 22.4441734 16.58224233 18.92116356 16.60738564 C14.98996567 16.63498863 11.05914951 16.63083652 7.12785339 16.62387085 C5.96142807 16.63668091 4.79500275 16.64949097 3.5932312 16.66268921 C-4.27351352 16.61176041 -4.27351352 16.61176041 -8.26196289 14.30812073 C-10.6212349 11.49126028 -11.14123806 9.82888317 -11.0662384 6.15390015 C-7.8358006 1.14115183 -5.78532199 0.03445735 0 0 Z " fill="#0C0C0C" transform="translate(99.06623840332031,141.84609985351563)"/>
</svg>
