<?xml version="1.0" encoding="UTF-8"?>
<svg version="1.1" xmlns="http://www.w3.org/2000/svg" width="512" height="512">
<path d="M0 0 C5.04091102 3.68486168 9.36293522 8.0011987 13.73120117 12.44604492 C14.63290039 13.33227539 15.53459961 14.21850586 16.46362305 15.1315918 C26.72545534 25.45365495 32.7880788 35.90659059 33.29370117 50.69604492 C32.64041239 70.4367276 19.81067089 82.39173141 6.65208435 95.54733276 C5.76390819 96.43918561 4.87573203 97.33103846 3.96064144 98.24991715 C1.52449113 100.69595602 -0.91468405 103.13895774 -3.35444582 105.58139372 C-5.99628091 108.22717069 -8.63529519 110.8757591 -11.27474976 113.52391052 C-17.62886366 119.89766431 -23.987714 126.26668232 -30.34719339 132.63508195 C-33.34748919 135.63977491 -36.34730189 138.64495009 -39.34718132 141.65005875 C-49.32469871 151.64456409 -59.30346088 161.63782415 -69.28584385 171.62747002 C-71.86830648 174.21184222 -74.4507637 176.79621984 -77.03320312 179.38061523 C-77.67497853 180.02287438 -78.31675394 180.66513353 -78.97797709 181.32685508 C-89.39321642 191.7504097 -99.79989833 202.18246464 -110.20306958 212.61806236 C-120.89938391 223.34744374 -131.60321015 234.06928413 -142.31447262 244.78374302 C-148.32233834 250.79377247 -154.32687885 256.80704343 -160.32303047 262.82876205 C-165.42377318 267.95120552 -170.53128468 273.06677609 -175.64775128 278.17351608 C-178.25637895 280.77759942 -180.86167975 283.38479475 -183.4583149 286.00084114 C-186.27531373 288.83871635 -189.10762716 291.66080032 -191.94166565 294.48165894 C-192.75655962 295.30752215 -193.57145359 296.13338537 -194.41104132 296.98427474 C-200.32645402 302.83344553 -206.04103256 307.24040802 -214.60864258 308.07495117 C-216.14379517 308.235802 -216.14379517 308.235802 -217.70996094 308.39990234 C-218.80187744 308.49762939 -219.89379395 308.59535645 -221.01879883 308.69604492 C-222.17452393 308.81117432 -223.33024902 308.92630371 -224.52099609 309.04492188 C-227.69228515 309.35648343 -230.86457305 309.65292976 -234.0378418 309.94348145 C-236.88028614 310.20785933 -239.72105683 310.48849149 -242.56199646 310.76850891 C-245.496079 311.05649025 -248.43078853 311.33758879 -251.36575317 311.61642456 C-252.78145004 311.75096904 -254.19704243 311.88661826 -255.61251831 312.02346802 C-280.4385672 314.40181896 -280.4385672 314.40181896 -286.08129883 310.13354492 C-290.95508558 302.51876248 -287.86414243 289.84317364 -287.09301758 281.28198242 C-286.98915237 280.10189606 -286.88528717 278.92180969 -286.77827454 277.70596313 C-286.55828273 275.23007487 -286.33544224 272.7544382 -286.10986328 270.27905273 C-285.76917654 266.51272055 -285.44538068 262.74517434 -285.12231445 258.97729492 C-284.90524548 256.55793146 -284.68718026 254.13865712 -284.46801758 251.71948242 C-284.37413254 250.60568207 -284.2802475 249.49188171 -284.18351746 248.34432983 C-283.31522593 239.11474326 -282.52434601 231.42566212 -276.0385046 224.42103958 C-275.22966725 223.54666008 -274.4208299 222.67228059 -273.58748233 221.77140474 C-269.7097023 217.68988393 -265.77150688 213.67568154 -261.79017639 209.69525146 C-260.89932781 208.8007262 -260.00847923 207.90620093 -259.09063524 206.98456883 C-256.64694494 204.53098927 -254.20022911 202.08044748 -251.75292695 199.63047123 C-249.10287352 196.97647602 -246.45564102 194.31966924 -243.80796814 191.66329956 C-237.43308081 185.26876986 -231.05345522 178.87897778 -224.67320052 172.48980415 C-222.26669183 170.07978071 -219.86049898 167.66944207 -217.45432274 165.25908671 C-206.83486422 154.62118419 -196.21406044 143.9846269 -185.58922672 133.35209274 C-182.99681217 130.75776864 -180.40440304 128.16343911 -177.81201172 125.5690918 C-177.16777032 124.92436665 -176.52352891 124.27964151 -175.85976505 123.61537924 C-165.41030875 113.15761211 -154.96940791 102.69134653 -144.53202827 92.22152767 C-133.79729512 81.45370495 -123.05502856 70.69344464 -112.30533499 59.94055676 C-106.27728374 53.91034365 -100.25254478 47.87690172 -94.23622322 41.83498383 C-89.11688837 36.6939172 -83.990746 31.55976195 -78.85567934 26.43440673 C-76.23870725 23.82197027 -73.62502757 21.2064556 -71.02006912 18.58203506 C-68.19067274 15.7316833 -65.34586654 12.89721371 -62.49940491 10.06390381 C-61.27996605 8.82801108 -61.27996605 8.82801108 -60.03589207 7.56715083 C-43.08760637 -9.19317594 -20.49481802 -13.42106305 0 0 Z " fill="#FCBE49" transform="translate(437.081298828125,49.866455078125)"/>
<path d="M0 0 C1.75371666 -0.00856522 1.75371666 -0.00856522 3.54286194 -0.01730347 C4.81161667 -0.01842133 6.0803714 -0.01953918 7.38757324 -0.02069092 C8.74816521 -0.02532428 10.1087559 -0.03034963 11.46934509 -0.03573608 C15.153159 -0.04880717 18.83695474 -0.05529397 22.52078819 -0.05974674 C24.82412839 -0.06268439 27.12746368 -0.06679036 29.43080139 -0.07125092 C36.64320015 -0.08490826 43.85558762 -0.09458507 51.06799841 -0.09845281 C59.38398418 -0.10293757 67.69980593 -0.12051214 76.01574183 -0.1494534 C82.45242476 -0.17107504 88.88906153 -0.18115725 95.32578039 -0.18249393 C99.16680059 -0.18354107 103.00766621 -0.18943018 106.84864807 -0.20731354 C110.46024208 -0.22380398 114.07156541 -0.22594518 117.68318367 -0.21717453 C119.63576858 -0.21603856 121.58834455 -0.22974603 123.5408783 -0.243927 C130.28095062 -0.21182105 135.46976308 -0.11772699 140.68640137 4.64044189 C144.91634129 10.0728731 145.83813091 14.40026251 145.04187012 21.14044189 C143.22617662 26.4630177 139.90357941 29.45098569 135.04187012 32.14044189 C131.96150311 33.1672309 129.85083604 33.27005272 126.62327576 33.2784729 C125.49769257 33.28392624 124.37210938 33.28937958 123.2124176 33.29499817 C121.35863747 33.29656166 121.35863747 33.29656166 119.46740723 33.29815674 C117.47006272 33.30595621 115.47271823 33.31375972 113.47537434 33.32171464 C111.32654522 33.32943027 109.17772035 33.3348121 107.02888298 33.33967209 C102.54379756 33.35036485 98.05878724 33.37061546 93.57374573 33.39279175 C80.8190965 33.45466545 68.06445093 33.50864341 55.30969238 33.54180908 C48.26645347 33.56020364 41.22333978 33.58920344 34.18019301 33.62981379 C30.45640515 33.65080997 26.73277463 33.66633044 23.00892448 33.66862106 C18.84647357 33.67118434 14.68445759 33.69672914 10.52209473 33.72393799 C9.30041092 33.72093185 8.07872711 33.71792572 6.82002258 33.71482849 C-7.37617054 33.85232536 -18.28955466 38.00054678 -28.63000488 47.72247314 C-36.90610372 56.31795163 -42.07080188 67.84435818 -42.08955765 79.87638187 C-42.09531937 81.27008899 -42.09531937 81.27008899 -42.10119748 82.69195181 C-42.100331 83.70419441 -42.09946452 84.71643702 -42.09857178 85.75935364 C-42.1015429 86.8413839 -42.10451402 87.92341416 -42.10757518 89.03823322 C-42.11625956 92.67069925 -42.11777022 96.30313232 -42.1192627 99.93560791 C-42.12389111 102.53753225 -42.1289158 105.13945591 -42.13430786 107.74137878 C-42.14787781 114.81604126 -42.15391412 121.89069805 -42.15831852 128.96537137 C-42.16108381 133.38624202 -42.16532175 137.80711049 -42.16982269 142.22797966 C-42.18201476 154.47719593 -42.19231345 166.72641046 -42.19569778 178.97563267 C-42.19591735 179.75932291 -42.19613692 180.54301315 -42.19636314 181.35045158 C-42.19658141 182.13598174 -42.19679969 182.92151189 -42.19702458 183.73084599 C-42.19746804 185.32253746 -42.19791461 186.91422894 -42.19836426 188.50592041 C-42.1986964 189.69021285 -42.1986964 189.69021285 -42.19903526 190.8984304 C-42.20298008 203.68082146 -42.22042475 216.4631554 -42.24372378 229.24552441 C-42.26747235 242.38100706 -42.27990127 255.5164611 -42.2810657 268.65196556 C-42.28198062 276.02213937 -42.28768632 283.39223879 -42.30588531 290.76239204 C-42.32295354 297.69891496 -42.32451274 304.63529485 -42.31574631 311.57183266 C-42.31497685 314.11302824 -42.31930657 316.65423145 -42.32920456 319.19540787 C-42.34195781 322.67465327 -42.33602842 326.1534021 -42.32562256 329.63264465 C-42.33367896 330.6292722 -42.34173537 331.62589975 -42.35003591 332.65272814 C-42.2471607 347.44263501 -37.60038588 360.11920712 -27.41516113 370.87872314 C-16.45352573 380.96900438 -3.61226131 383.29324005 10.78103638 383.28088379 C12.40536341 383.28534047 12.40536341 383.28534047 14.06250513 383.28988719 C17.69186509 383.29856021 21.32119202 383.30008127 24.95056152 383.30157471 C27.55263336 383.30620388 30.15470453 383.31122868 32.7567749 383.31661987 C39.82724606 383.33018051 46.89771153 383.33622447 53.96819353 383.34063053 C58.38689194 383.343397 62.80558818 383.3476351 67.22428513 383.3521347 C79.46925278 383.36432479 91.71421869 383.37462437 103.95919228 383.3780098 C104.7423474 383.37822936 105.52550252 383.37844893 106.33238962 383.37867515 C107.11737167 383.37889343 107.90235372 383.3791117 108.71112311 383.3793366 C110.3016781 383.37978005 111.89223309 383.38022662 113.48278809 383.38067627 C114.66623228 383.38100841 114.66623228 383.38100841 115.87358443 383.38134727 C128.64944539 383.38529289 141.42524924 383.40274088 154.20108815 383.42603579 C167.3320824 383.4497841 180.46304804 383.46221324 193.59406412 383.46337771 C200.96086959 383.46429256 208.32760063 383.4699967 215.69438553 383.48819733 C222.62681784 383.505265 229.55910705 383.50682497 236.49155426 383.49805832 C239.03113813 383.49728887 241.57072964 383.50161851 244.11029434 383.51151657 C247.58729681 383.52426987 251.06380239 383.51834044 254.540802 383.50793457 C256.03472015 383.52001918 256.03472015 383.52001918 257.55881846 383.53234792 C271.370403 383.43621512 283.79559974 379.41387235 293.91687012 369.82794189 C301.79889258 361.43921799 307.1582943 350.20200174 307.173172 338.58813477 C307.17718018 337.45828659 307.18118835 336.32843842 307.18531799 335.16435242 C307.18478928 333.92895218 307.18426056 332.69355194 307.18371582 331.42071533 C307.18904926 329.41828754 307.19438867 327.41585976 307.19995248 325.4134326 C307.20514604 323.262486 307.20806198 321.11154551 307.21053505 318.96059418 C307.21645598 314.47177807 307.23300719 309.9830408 307.25187683 305.4942627 C307.25821402 303.95595937 307.26453964 302.41765599 307.270854 300.87935257 C307.27401981 300.10901515 307.27718562 299.33867772 307.28044736 298.54499674 C307.32247942 288.09749634 307.35548972 277.65003294 307.36779785 267.20245361 C307.3761897 260.15151038 307.39872154 253.10076281 307.43715352 246.04991746 C307.45687595 242.32168969 307.46933153 238.59375414 307.46431923 234.86547089 C307.45879075 230.7026248 307.4841265 226.54050419 307.51184082 222.37774658 C307.50523941 221.15044327 307.498638 219.92313995 307.49183655 218.65864563 C307.56805035 211.68302048 308.2563104 207.05809972 312.04187012 201.14044189 C316.70879128 196.70117542 320.51935694 195.82828609 326.76452637 195.92950439 C331.63728481 196.38084051 334.72772036 198.5594926 337.85437012 202.14044189 C340.7915572 206.16858418 341.16829822 208.80900305 341.18904114 213.66378784 C341.19977409 215.38747337 341.19977409 215.38747337 341.21072388 217.14598083 C341.21341278 218.4082399 341.21610168 219.67049896 341.21887207 220.9710083 C341.2251388 222.3133105 341.23178579 223.65561097 341.23878479 224.99790955 C341.25982897 229.41259555 341.27019774 233.82728186 341.28015137 238.24200439 C341.28420088 239.76680901 341.28831786 241.29161344 341.29250145 242.81641769 C341.31156566 249.99200469 341.3257857 257.16758142 341.33411342 264.34318888 C341.34384585 272.59122477 341.37005464 280.83898941 341.41061431 289.08692992 C341.44095941 295.48041129 341.45560015 301.87381584 341.45889443 308.26736772 C341.46122702 312.07586542 341.46994773 315.88407387 341.49535561 319.69249344 C341.73223225 357.12805949 341.73223225 357.12805949 333.22937012 372.64044189 C332.88680176 373.29568848 332.5442334 373.95093506 332.19128418 374.6260376 C329.34689395 379.91830743 325.97422281 384.59951081 322.04187012 389.14044189 C321.44632324 389.93321533 320.85077637 390.72598877 320.23718262 391.54278564 C307.30918847 406.84014527 287.52462152 414.86593079 268.04187012 417.14044189 C264.38242174 417.28444094 260.72617955 417.28399895 257.0642395 417.28088379 C255.41942126 417.28534047 255.41942126 417.28534047 253.74137437 417.28988719 C250.07151232 417.29855009 246.40168298 417.30008042 242.73181152 417.30157471 C240.09829557 417.3062047 237.46478255 417.31120939 234.83126831 417.31661987 C227.67787864 417.33017429 220.5244946 417.33622391 213.37109423 417.34063053 C208.89757577 417.34339886 204.42405946 417.34763737 199.95054245 417.3521347 C187.54598692 417.3643255 175.14143311 417.37462395 162.73687172 417.3780098 C161.94363908 417.37822936 161.15040645 417.37844893 160.33313646 417.37867515 C159.14055179 417.37900256 159.14055179 417.37900256 157.9238745 417.3793366 C156.31297851 417.37978005 154.70208251 417.38022661 153.09118652 417.38067627 C152.29213832 417.3808977 151.49309012 417.38111913 150.66982834 417.38134727 C137.74221241 417.38528951 124.81465304 417.40272681 111.88705893 417.42603579 C98.58989708 417.44981592 85.29276352 417.46221473 71.99558008 417.46337771 C64.53976317 417.46429095 57.08401991 417.4699536 49.62822342 417.48819733 C43.27510776 417.50368879 36.9220885 417.50866612 30.56895752 417.50045922 C27.33439453 417.49658388 24.10006324 417.49899941 20.86551666 417.51151657 C-7.83204278 417.61599136 -31.56345336 413.76563833 -53.20812988 393.45294189 C-73.75807443 371.86882806 -76.4201276 346.14080194 -76.34631348 317.70098877 C-76.35038513 315.05466138 -76.35562324 312.40835908 -76.36224365 309.76203918 C-76.37549842 303.35527291 -76.37274044 296.9486128 -76.36400573 290.54184258 C-76.35719677 285.32925245 -76.35632625 280.11669182 -76.35957718 274.90409851 C-76.36003688 274.15876302 -76.36049658 273.41342753 -76.36097021 272.64550611 C-76.3619295 271.13079535 -76.36290214 269.6160846 -76.36388798 268.10137385 C-76.37241768 253.93850411 -76.3626459 239.77569287 -76.34648688 225.61283273 C-76.3330859 213.49261199 -76.33541468 201.37247749 -76.34924316 189.2522583 C-76.36534193 175.13584556 -76.37159394 161.01948394 -76.36240637 146.9030633 C-76.36145085 145.39430397 -76.36050773 143.88554463 -76.35957718 142.37678528 C-76.35911435 141.63468259 -76.35865153 140.89257991 -76.35817467 140.12798926 C-76.35559764 134.92903813 -76.35992783 129.73011976 -76.36701584 124.53117371 C-76.375479 118.18482103 -76.37305052 111.8385795 -76.35717361 105.49223936 C-76.34935498 102.26179892 -76.3477366 99.03157858 -76.35612106 95.80113411 C-76.42038368 68.5117848 -73.09524193 44.93732331 -53.84484863 23.99981689 C-39.64609845 10.0068457 -20.22619876 0.05946972 0 0 Z " fill="#0B4E6B" transform="translate(101.9581298828125,68.85955810546875)"/>
<path d="M0 0 C5.04091102 3.68486168 9.36293522 8.0011987 13.73120117 12.44604492 C15.08375 13.77539062 15.08375 13.77539062 16.46362305 15.1315918 C26.72545534 25.45365495 32.7880788 35.90659059 33.29370117 50.69604492 C32.61895168 71.08521422 18.63877464 83.61056658 5.20556641 97.19677734 C4.12505772 98.29410971 3.04997687 99.3968093 1.97998047 100.50439453 C0.41279714 102.12596932 -1.16988207 103.73080456 -2.75708008 105.33276367 C-3.23317215 105.83152512 -3.70926422 106.33028656 -4.19978333 106.84416199 C-5.56689453 108.20263672 -5.56689453 108.20263672 -8.08129883 110.13354492 C-11.36713187 109.79667095 -13.0389523 108.55428859 -15.34040833 106.2688446 C-15.96158539 105.65901733 -16.58276245 105.04919006 -17.22276306 104.42088318 C-17.89255692 103.74815872 -18.56235077 103.07543427 -19.25244141 102.38232422 C-19.96664246 101.67659271 -20.68084351 100.97086121 -21.41668701 100.2437439 C-23.77762982 97.90622147 -26.1271846 95.5576374 -28.47583008 93.20776367 C-30.10889079 91.5818 -31.74225151 89.9561376 -33.37590027 88.33076477 C-36.79813739 84.92198306 -40.21436532 81.50730777 -43.62695312 78.08886719 C-48.00981451 73.70010035 -52.41066919 69.32987849 -56.81662464 64.96431255 C-60.1940236 61.61270432 -63.55994577 58.24975379 -66.92264366 54.88340187 C-68.54109054 53.26665344 -70.1635468 51.65390864 -71.78998756 50.04520226 C-74.05775587 47.79945771 -76.30921625 45.53854403 -78.55712891 43.27294922 C-79.23704391 42.60629745 -79.91695892 41.93964569 -80.61747742 41.25279236 C-81.52809433 40.32536224 -81.52809433 40.32536224 -82.45710754 39.37919617 C-82.99116117 38.84585505 -83.52521479 38.31251394 -84.07545185 37.76301098 C-85.08129883 36.13354492 -85.08129883 36.13354492 -84.82217598 34.03178692 C-83.95885765 31.81983166 -82.94876715 30.61434755 -81.28076172 28.92895508 C-80.69247086 28.32798004 -80.10417999 27.727005 -79.49806213 27.1078186 C-78.85650681 26.46919891 -78.21495148 25.83057922 -77.55395508 25.17260742 C-76.89100937 24.50441986 -76.22806366 23.8362323 -75.54502869 23.14779663 C-74.13732288 21.73366605 -72.72571761 20.32340817 -71.31054688 18.91674805 C-69.17086377 16.78550313 -67.05037006 14.63643903 -64.9309082 12.48510742 C-46.39192983 -6.1522998 -24.24271503 -15.87537916 0 0 Z " fill="#E63A46" transform="translate(437.081298828125,49.866455078125)"/>
<path d="M0 0 C-1.32994383 2.95265112 -2.77779316 5.02350216 -5.07275391 7.29980469 C-5.69324615 7.92014587 -6.3137384 8.54048706 -6.95303345 9.17962646 C-7.62079803 9.83706848 -8.28856262 10.4945105 -8.9765625 11.171875 C-9.66181 11.8542926 -10.3470575 12.53671021 -11.05307007 13.23980713 C-13.23905845 15.41461598 -15.43190429 17.58236072 -17.625 19.75 C-19.10983255 21.2247999 -20.59421306 22.70005506 -22.078125 24.17578125 C-25.7135291 27.78915448 -29.35509824 31.39620853 -33 35 C-33.495 33.515 -33.495 33.515 -34 32 C-29.48631271 27.43574914 -24.9649178 22.879242 -20.43798828 18.328125 C-18.89777374 16.77783095 -17.35935603 15.22574964 -15.82275391 13.671875 C-13.61827047 11.44322895 -11.40747954 9.22101609 -9.1953125 7 C-8.50567413 6.30003906 -7.81603577 5.60007812 -7.10549927 4.87890625 C-6.46498627 4.23824219 -5.82447327 3.59757812 -5.16455078 2.9375 C-4.60051544 2.36902344 -4.0364801 1.80054688 -3.45535278 1.21484375 C-2 0 -2 0 0 0 Z " fill="#ED6946" transform="translate(386,51)"/>
</svg>
