<?xml version="1.0" encoding="UTF-8"?>
<svg version="1.1" xmlns="http://www.w3.org/2000/svg" width="512" height="512">
<path d="M0 0 C1.71406497 1.61788035 3.37656134 3.29119852 5 5 C6.62058109 6.61599224 8.24152748 8.23161822 9.86279297 9.84692383 C14.51845363 14.48624398 19.1715714 19.12810565 23.82324028 23.77142811 C26.62709022 26.57006325 29.43186818 29.36775511 32.23876953 32.16333008 C34.97001792 34.88363463 37.69874524 37.6064456 40.42581558 40.33093834 C41.45742176 41.36071427 42.4898991 42.38961835 43.52331161 43.41758156 C48.73051059 48.5983996 53.85664503 53.80353413 58.621521 59.40010071 C60.43395163 61.50365577 62.38111948 63.44416709 64.375 65.375 C67.79836045 68.69261959 69.1647576 70.50118352 69.375 75.3125 C69.34446159 79.10537004 69.12929522 79.83226566 66.6875 83 C57.72065421 89.67300152 50.13508587 86 37 86 C37 146.39 37 206.78 37 269 C41.455 270.485 41.455 270.485 46 272 C48.55112707 273.31517731 50.94675423 274.62258026 53.375 276.125 C54.01856445 276.51896973 54.66212891 276.91293945 55.32519531 277.31884766 C82.88966646 294.5552089 100.17486303 320.94491438 107.77734375 352.1953125 C108.28484864 354.79581202 108.68453304 357.36974304 109 360 C109.10957031 360.91007812 109.21914063 361.82015625 109.33203125 362.7578125 C112.54852976 393.55042494 103.90157944 424.47323449 84.625 448.75 C65.5838844 470.94819176 39.70329564 487.79868983 10 491 C8.77667969 491.13277344 7.55335938 491.26554687 6.29296875 491.40234375 C-16.50061444 493.47771068 -38.65172645 489.49884327 -59 479 C-59.9075 478.56171875 -60.815 478.1234375 -61.75 477.671875 C-86.95017583 464.92527443 -106.23039837 440.99613964 -115.4206543 414.52294922 C-116.77505116 410.3860885 -117.95682489 406.22448928 -119 402 C-119.69561035 401.98541748 -120.3912207 401.97083496 -121.10791016 401.95581055 C-124.28081338 401.88102031 -127.45270008 401.78446188 -130.625 401.6875 C-131.71941406 401.66494141 -132.81382812 401.64238281 -133.94140625 401.61914062 C-144.70378708 401.2603946 -144.70378708 401.2603946 -149 398 C-152.25221465 392.91264758 -152.42730422 388.72451295 -152.38095093 382.89086914 C-152.3856309 381.98342736 -152.39031087 381.07598558 -152.39513266 380.14104557 C-152.40708219 377.1055997 -152.39762547 374.07060533 -152.38818359 371.03515625 C-152.39224931 368.85683936 -152.39759118 366.67852454 -152.40411377 364.50021362 C-152.41779314 358.58708009 -152.41248607 352.67410354 -152.40297651 346.76096725 C-152.39538319 340.57379482 -152.40242462 334.38663585 -152.40713501 328.19946289 C-152.4125935 317.80905747 -152.40539845 307.41871602 -152.39111328 297.02832031 C-152.37478663 285.01426737 -152.38007506 273.00039247 -152.3965925 260.98634052 C-152.41020465 250.67282205 -152.41212833 240.35934956 -152.40427649 230.045825 C-152.39959851 223.88535242 -152.39897864 217.72495162 -152.40888596 211.56448364 C-152.41754934 205.77291842 -152.411545 199.98155019 -152.39420319 194.19000626 C-152.39023501 192.0639491 -152.39137802 189.93787537 -152.39799118 187.8118248 C-152.40618351 184.91070268 -152.39591275 182.01021266 -152.38095093 179.10913086 C-152.38764309 178.2669101 -152.39433526 177.42468935 -152.40123022 176.55694675 C-152.35197945 171.63668124 -151.71436168 168.26832856 -149 164 C-145.27417086 160.98857943 -142.35434969 160.62195348 -137.63671875 160.61181641 C-135.73950073 160.59763168 -135.73950073 160.59763168 -133.80395508 160.5831604 C-132.43180018 160.58853044 -131.05964816 160.59468348 -129.6875 160.6015625 C-128.27172699 160.59953995 -126.855955 160.59662701 -125.44018555 160.59286499 C-122.4779261 160.5884501 -119.51593868 160.59484544 -116.55371094 160.60888672 C-112.76401618 160.6259785 -108.97495887 160.61613278 -105.18528748 160.59816933 C-102.26325715 160.58730868 -99.34137699 160.5907882 -96.41934204 160.5985527 C-95.02234826 160.60054842 -93.62534068 160.59811755 -92.22836304 160.59111404 C-90.27333857 160.5834629 -88.31826605 160.59719978 -86.36328125 160.61181641 C-85.25251221 160.61420319 -84.14174316 160.61658997 -82.99731445 160.61904907 C-78.57908398 161.18059476 -76.14695487 162.70548667 -73.21452332 166.0151825 C-71.36770294 170.55393586 -71.5607943 174.90093123 -71.56762695 179.75708008 C-71.55233948 181.38214478 -71.55233948 181.38214478 -71.53674316 183.04003906 C-71.5065786 186.61658883 -71.49734166 190.19287091 -71.48828125 193.76953125 C-71.47143719 196.25104159 -71.45328732 198.73254339 -71.43388367 201.21403503 C-71.38634824 207.74223154 -71.35656157 214.2703934 -71.33044434 220.79870605 C-71.30225478 227.46158063 -71.25412023 234.12433212 -71.20898438 240.78710938 C-71.12291083 253.85800802 -71.05501459 266.92893563 -71 280 C-70.05898438 279.45730469 -69.11796875 278.91460937 -68.1484375 278.35546875 C-66.89067537 277.63272484 -65.63286003 276.91007352 -64.375 276.1875 C-63.75753906 275.83107422 -63.14007813 275.47464844 -62.50390625 275.10742188 C-51.85794151 269 -51.85794151 269 -49 269 C-49 208.61 -49 148.22 -49 86 C-56.92 86 -64.84 86 -73 86 C-79.3671875 82.1796875 -79.3671875 82.1796875 -81 79 C-81.64944469 75.10333189 -81.97042473 72.62440662 -79.921875 69.1953125 C-78.05582215 66.99940182 -76.06463344 65.01219831 -74 63 C-72.88665644 61.8893869 -71.77479645 60.77728549 -70.6640625 59.6640625 C-68.86350923 57.85964849 -67.06032695 56.05912208 -65.23974609 54.27490234 C-62.3629763 51.443347 -59.60861994 48.58109957 -57 45.5 C-50.44883872 37.91059665 -43.08103494 31.02993258 -35.9609375 23.98144531 C-26.30303049 14.51288251 -26.30303049 14.51288251 -17.26635742 4.46069336 C-14.90649894 1.73868964 -12.38679732 -0.35282792 -9.125 -1.875 C-5.70325533 -2.0762791 -3.18430111 -1.2290285 0 0 Z " fill="#FEC81D" transform="translate(377,11)"/>
<path d="M0 0 C0.960271 0.32145996 0.960271 0.32145996 1.93994141 0.64941406 C11.1777154 3.82021133 19.09972862 8.22045044 27 14 C27.75023437 14.515625 28.50046875 15.03125 29.2734375 15.5625 C45.83232676 27.23619971 57.54188951 48.49976872 61.3359375 68.22265625 C65.30846735 93.41235026 59.5995786 116.86703738 45.25 137.75 C30.2584796 157.17481048 9.4688354 170.28215088 -15 174 C-18.75508225 174.28555631 -22.48512265 174.33434097 -26.25 174.3125 C-27.25853027 174.30758545 -28.26706055 174.3026709 -29.30615234 174.29760742 C-53.92812302 173.91270408 -75.94366738 162.89040648 -92.9921875 145.32421875 C-109.38829947 126.34428369 -117.28978511 102.53423124 -116.19970703 77.62207031 C-115.35094122 66.47812802 -112.25384688 55.84712237 -107 46 C-106.33871094 44.65228516 -106.33871094 44.65228516 -105.6640625 43.27734375 C-101.99171891 36.0645363 -97.35484956 30.04671508 -92 24 C-91.44699219 23.36320312 -90.89398438 22.72640625 -90.32421875 22.0703125 C-67.84751025 -2.13537358 -30.81971609 -10.36985223 0 0 Z " fill="#F69119" transform="translate(398,302)"/>
<path d="M0 0 C1.71406497 1.61788035 3.37656134 3.29119852 5 5 C6.62058109 6.61599224 8.24152748 8.23161822 9.86279297 9.84692383 C14.51845363 14.48624398 19.1715714 19.12810565 23.82324028 23.77142811 C26.62709022 26.57006325 29.43186818 29.36775511 32.23876953 32.16333008 C34.97001792 34.88363463 37.69874524 37.6064456 40.42581558 40.33093834 C41.45742176 41.36071427 42.4898991 42.38961835 43.52331161 43.41758156 C48.73051059 48.5983996 53.85664503 53.80353413 58.621521 59.40010071 C60.43395163 61.50365577 62.38111948 63.44416709 64.375 65.375 C67.79836045 68.69261959 69.1647576 70.50118352 69.375 75.3125 C69.34446159 79.10537004 69.12929522 79.83226566 66.6875 83 C57.72065421 89.67300152 50.13508587 86 37 86 C37 146.39 37 206.78 37 269 C31.06 267.515 31.06 267.515 25 266 C22.68947113 265.44998601 20.37740606 264.90628991 18.0625 264.375 C17.02222656 264.13523437 15.98195313 263.89546875 14.91015625 263.6484375 C13.46962891 263.32746094 13.46962891 263.32746094 12 263 C11.22841553 262.82509033 10.45683105 262.65018066 9.66186523 262.4699707 C-8.14357779 259.32629669 -26.85086836 262.34522197 -43.76171875 267.9765625 C-47 269 -47 269 -49 269 C-49 208.61 -49 148.22 -49 86 C-56.92 86 -64.84 86 -73 86 C-79.3671875 82.1796875 -79.3671875 82.1796875 -81 79 C-81.64944469 75.10333189 -81.97042473 72.62440662 -79.921875 69.1953125 C-78.05582215 66.99940182 -76.06463344 65.01219831 -74 63 C-72.88665644 61.8893869 -71.77479645 60.77728549 -70.6640625 59.6640625 C-68.86350923 57.85964849 -67.06032695 56.05912208 -65.23974609 54.27490234 C-62.3629763 51.443347 -59.60861994 48.58109957 -57 45.5 C-50.44883872 37.91059665 -43.08103494 31.02993258 -35.9609375 23.98144531 C-26.30303049 14.51288251 -26.30303049 14.51288251 -17.26635742 4.46069336 C-14.90649894 1.73868964 -12.38679732 -0.35282792 -9.125 -1.875 C-5.70325533 -2.0762791 -3.18430111 -1.2290285 0 0 Z " fill="#76A34F" transform="translate(377,11)"/>
<path d="M0 0 C1.89721802 -0.01418472 1.89721802 -0.01418472 3.83276367 -0.02865601 C5.20491857 -0.02328597 6.57707059 -0.01713293 7.94921875 -0.01025391 C9.36499176 -0.01227645 10.78076375 -0.0151894 12.1965332 -0.01895142 C15.15879265 -0.02336631 18.12078007 -0.01697097 21.08300781 -0.00292969 C24.87270257 0.01416209 28.66175988 0.00431637 32.45143127 -0.01364708 C35.3734616 -0.02450773 38.29534176 -0.0210282 41.21737671 -0.0132637 C42.61437049 -0.01126798 44.01137807 -0.01369886 45.40835571 -0.02070236 C47.36338018 -0.02835351 49.3184527 -0.01461662 51.2734375 0 C52.38420654 0.00238678 53.49497559 0.00477356 54.6394043 0.00723267 C58.10559891 0.44777705 59.88898776 1.24231526 62.63671875 3.38818359 C65.72196547 7.46680749 66.06711963 10.97801909 66.0243988 15.93443298 C66.02978434 16.68584535 66.03516988 17.43725771 66.04071862 18.21144015 C66.05500603 20.72486778 66.0478927 23.23776933 66.04077148 25.7512207 C66.04647465 27.55501224 66.0534387 29.35880017 66.06156921 31.1625824 C66.07952165 36.05927921 66.07832831 40.95579704 66.07262683 45.85251689 C66.069538 49.94058034 66.07562403 54.02860926 66.08166558 58.11666781 C66.09571604 67.7608318 66.09414516 77.40490723 66.08276367 87.04907227 C66.07128159 96.99833101 66.08535849 106.94732022 66.11216015 116.89654344 C66.13431151 125.4393618 66.1409558 133.98209551 66.13508373 142.52494055 C66.13171165 147.62688593 66.13414597 152.72865853 66.15133476 157.83057976 C66.1667928 162.6282379 66.16286101 167.42549652 66.14402962 172.22313881 C66.14034058 173.98314716 66.14346137 175.74318503 66.15391541 177.5031662 C66.16710595 179.90755543 66.1555962 182.31061826 66.13792419 184.71495056 C66.1523317 185.75752082 66.1523317 185.75752082 66.16703027 186.8211531 C66.09239939 191.76249017 64.72871169 194.58207145 61.63671875 198.38818359 C57.94996544 200.50509847 54.67458709 200.64478696 50.47290039 200.6628418 C49.25135757 200.67237381 48.02981476 200.68190582 46.77125549 200.69172668 C45.45970993 200.69081528 44.14816437 200.68990387 42.796875 200.68896484 C41.42833833 200.69285553 40.05980285 200.69719096 38.69126892 200.70195007 C35.82742391 200.70939735 32.96370221 200.70913186 30.09985352 200.70385742 C26.44031726 200.69806396 22.78128733 200.71499745 19.12183475 200.7382021 C16.29671812 200.75297473 13.47172244 200.75380639 10.64657402 200.75069237 C8.64473618 200.75145144 6.64291702 200.76529477 4.64112854 200.77937317 C3.41643356 200.77314438 2.19173859 200.76691559 0.92993164 200.76049805 C-0.67959633 200.76144218 -0.67959633 200.76144218 -2.32164001 200.7624054 C-5.99902676 200.30996601 -8.27090013 199.43753899 -11.36328125 197.38818359 C-14.19081434 192.86413097 -14.79512989 189.0194594 -14.74423218 183.79760742 C-14.74891215 183.05350774 -14.75359212 182.30940805 -14.75841391 181.5427599 C-14.77033908 179.06006126 -14.76091663 176.57791716 -14.75146484 174.09521484 C-14.75553165 172.31098103 -14.76087415 170.52674973 -14.76739502 168.74252319 C-14.78106141 163.90372406 -14.77577274 159.065117 -14.76625776 154.22631454 C-14.75865769 149.16022986 -14.76570775 144.09416151 -14.77041626 139.02807617 C-14.77587279 130.52080333 -14.76868487 122.01360863 -14.75439453 113.50634766 C-14.73806823 103.67355365 -14.74335681 93.84094626 -14.75987375 84.00815678 C-14.77349152 75.56298508 -14.77540684 67.11786953 -14.76755774 58.67269039 C-14.76288283 53.63003925 -14.76225139 48.58747581 -14.77216721 43.54483032 C-14.78083879 38.80384213 -14.77481139 34.06309435 -14.75748444 29.32213211 C-14.75352063 27.58308944 -14.75465183 25.8440265 -14.76127243 24.10499191 C-14.76948232 21.72930887 -14.75917359 19.354394 -14.74423218 16.97875977 C-14.75092434 16.29217694 -14.75761651 15.60559412 -14.76451147 14.89820576 C-14.7091427 10.35288387 -13.73406646 7.25519394 -11.36328125 3.38818359 C-7.63745211 0.37676302 -4.71763094 0.01013707 0 0 Z " fill="#F1AC97" transform="translate(139.36328125,211.61181640625)"/>
<path d="M0 0 C1.89721802 -0.01418472 1.89721802 -0.01418472 3.83276367 -0.02865601 C5.20491857 -0.02328597 6.57707059 -0.01713293 7.94921875 -0.01025391 C9.36499176 -0.01227645 10.78076375 -0.0151894 12.1965332 -0.01895142 C15.15879265 -0.02336631 18.12078007 -0.01697097 21.08300781 -0.00292969 C24.87270257 0.01416209 28.66175988 0.00431637 32.45143127 -0.01364708 C35.3734616 -0.02450773 38.29534176 -0.0210282 41.21737671 -0.0132637 C42.61437049 -0.01126798 44.01137807 -0.01369886 45.40835571 -0.02070236 C47.36338018 -0.02835351 49.3184527 -0.01461662 51.2734375 0 C52.38420654 0.00238678 53.49497559 0.00477356 54.6394043 0.00723267 C59.05505515 0.56845049 61.49031813 2.08808838 64.41404724 5.40379333 C66.26869841 9.93076795 66.1461505 14.28793455 66.19946289 19.13842773 C66.22238907 20.22203583 66.24531525 21.30564392 66.26893616 22.42208862 C66.33822809 26.00580859 66.38303599 29.58916604 66.421875 33.17333984 C66.43659788 34.40045622 66.45132076 35.62757259 66.46648979 36.89187431 C66.53310671 42.72028149 66.58615764 48.54854225 66.62014586 54.37723261 C66.65601935 60.41248043 66.72779018 66.44476486 66.85766602 72.47875977 C66.99508275 78.9688781 67.06312004 85.45626885 67.08181572 91.94778252 C67.10005813 94.41385319 67.14199165 96.87987243 67.20863533 99.34510994 C67.72518942 119.64326434 67.72518942 119.64326434 62.60470581 125.45895386 C59.75205734 128.12055395 56.67535464 130.2267987 53.34942436 132.24978447 C35.96713214 143.80342574 25.40370541 169.07747373 20.63671875 188.38818359 C20.33765625 189.40267578 20.03859375 190.41716797 19.73046875 191.46240234 C16.43055218 203.88292166 15.43573948 219.89927343 18.63671875 232.38818359 C18.75877204 235.06359175 18.68139188 237.70779598 18.63671875 240.38818359 C14.7618624 240.47569772 10.88726232 240.52874794 7.01171875 240.57568359 C5.91730469 240.60082031 4.82289063 240.62595703 3.6953125 240.65185547 C-7.00880142 240.7491656 -7.00880142 240.7491656 -11.36328125 237.38818359 C-14.61403551 232.29921344 -14.79059324 228.11367448 -14.74423218 222.27905273 C-14.74891215 221.37161096 -14.75359212 220.46416918 -14.75841391 219.52922916 C-14.77036344 216.4937833 -14.76090672 213.45878893 -14.75146484 210.42333984 C-14.75553056 208.24502296 -14.76087243 206.06670813 -14.76739502 203.88839722 C-14.78107439 197.97526368 -14.77576732 192.06228714 -14.76625776 186.14915085 C-14.75866444 179.96197841 -14.76570587 173.77481945 -14.77041626 167.58764648 C-14.77587475 157.19724107 -14.7686797 146.80689961 -14.75439453 136.41650391 C-14.73806788 124.40245097 -14.74335631 112.38857607 -14.75987375 100.37452412 C-14.7734859 90.06100564 -14.77540958 79.74753315 -14.76755774 69.4340086 C-14.76287976 63.27353601 -14.76225989 57.11313522 -14.77216721 50.95266724 C-14.78083059 45.16110201 -14.77482625 39.36973379 -14.75748444 33.57818985 C-14.75351626 31.45213269 -14.75465927 29.32605897 -14.76127243 27.20000839 C-14.76946476 24.29888627 -14.759194 21.39839625 -14.74423218 18.49731445 C-14.75092434 17.6550937 -14.75761651 16.81287294 -14.76451147 15.94513035 C-14.7152607 11.02486484 -14.07764293 7.65651215 -11.36328125 3.38818359 C-7.63745211 0.37676302 -4.71763094 0.01013707 0 0 Z " fill="#F1AC96" transform="translate(239.36328125,171.61181640625)"/>
<path d="M0 0 C1.89721802 -0.01418472 1.89721802 -0.01418472 3.83276367 -0.02865601 C5.20491857 -0.02328597 6.57707059 -0.01713293 7.94921875 -0.01025391 C9.36499176 -0.01227645 10.78076375 -0.0151894 12.1965332 -0.01895142 C15.15879265 -0.02336631 18.12078007 -0.01697097 21.08300781 -0.00292969 C24.87270257 0.01416209 28.66175988 0.00431637 32.45143127 -0.01364708 C35.3734616 -0.02450773 38.29534176 -0.0210282 41.21737671 -0.0132637 C42.61437049 -0.01126798 44.01137807 -0.01369886 45.40835571 -0.02070236 C47.36338018 -0.02835351 49.3184527 -0.01461662 51.2734375 0 C52.38420654 0.00238678 53.49497559 0.00477356 54.6394043 0.00723267 C58.10559891 0.44777705 59.88898776 1.24231526 62.63671875 3.38818359 C65.36998465 7.16173936 66.01368457 9.78826107 66.0243988 14.4158783 C66.03430344 15.62571884 66.04420807 16.83555939 66.05441284 18.08206177 C66.04991119 19.40116547 66.04540955 20.72026917 66.04077148 22.0793457 C66.04647663 23.48905478 66.05344145 24.89875923 66.06156921 26.30845642 C66.07950021 30.13082206 66.07833239 33.95295813 66.07262683 37.77535319 C66.06953481 40.96870212 66.07562758 44.16200695 66.08166558 47.3553496 C66.09570905 54.89001326 66.09415108 62.42456354 66.08276367 69.95922852 C66.07128287 77.72725286 66.0853577 85.49493194 66.11216015 93.26291078 C66.13432566 99.93738482 66.14095261 106.61175054 66.13508373 113.28625876 C66.13171493 117.2703955 66.13412394 121.25431094 66.15133476 125.23841667 C66.16681553 128.98552032 66.16283636 132.73211301 66.14402962 136.47919655 C66.13859376 138.50573142 66.15284926 140.53228929 66.16772461 142.55877686 C66.07503348 153.98864181 66.07503348 153.98864181 61.63671875 158.38818359 C57.94996544 160.50509847 54.67458709 160.64478696 50.47290039 160.6628418 C49.25135757 160.67237381 48.02981476 160.68190582 46.77125549 160.69172668 C45.45970993 160.69081528 44.14816437 160.68990387 42.796875 160.68896484 C41.42833833 160.69285553 40.05980285 160.69719096 38.69126892 160.70195007 C35.82742391 160.70939735 32.96370221 160.70913186 30.09985352 160.70385742 C26.44031726 160.69806396 22.78128733 160.71499745 19.12183475 160.7382021 C16.29671812 160.75297473 13.47172244 160.75380639 10.64657402 160.75069237 C8.64473618 160.75145144 6.64291702 160.76529477 4.64112854 160.77937317 C3.41643356 160.77314438 2.19173859 160.76691559 0.92993164 160.76049805 C-0.67959633 160.76144218 -0.67959633 160.76144218 -2.32164001 160.7624054 C-5.99902676 160.30996601 -8.27090013 159.43753899 -11.36328125 157.38818359 C-13.86646768 153.23917186 -14.73895982 150.13523381 -14.74423218 145.31616211 C-14.75269165 144.12177521 -14.76115112 142.92738831 -14.76986694 141.69680786 C-14.76379425 140.40000092 -14.75772156 139.10319397 -14.75146484 137.76708984 C-14.75553337 136.37693876 -14.76087684 134.98679092 -14.76739502 133.59664917 C-14.78104109 129.83217779 -14.77578129 126.0679538 -14.76625776 122.30347824 C-14.75864707 118.35848081 -14.76571069 114.41350415 -14.77041626 110.46850586 C-14.77586971 103.84436248 -14.768693 97.22031953 -14.75439453 90.59619141 C-14.73806876 82.9446422 -14.74335756 75.29333283 -14.75987375 67.64178944 C-14.77350034 61.06496285 -14.77540256 54.48820834 -14.76755774 47.91137218 C-14.76288766 43.98653928 -14.76223802 40.06181901 -14.77216721 36.13699341 C-14.78085172 32.44657321 -14.77478815 28.75646136 -14.75748444 25.06607437 C-14.75164424 23.07057363 -14.76052247 21.07504673 -14.76986694 19.07955933 C-14.76140747 17.88517242 -14.752948 16.69078552 -14.74423218 15.46020508 C-14.7431011 14.42637192 -14.74197002 13.39253876 -14.74080467 12.32737732 C-14.15844837 7.79346528 -12.64377283 4.4231475 -9.07348633 1.53744507 C-5.86041661 0.17494403 -3.48773443 0.00749432 0 0 Z " fill="#F1AC97" transform="translate(39.36328125,251.61181640625)"/>
<path d="M0 0 C0.67546875 0.67675781 1.3509375 1.35351562 2.046875 2.05078125 C4.19629952 4.20096368 6.35446328 6.34208684 8.515625 8.48046875 C9.76045512 9.71610709 11.00524615 10.95178482 12.25 12.1875 C12.88679688 12.81591797 13.52359375 13.44433594 14.1796875 14.09179688 C14.78554688 14.69443359 15.39140625 15.29707031 16.015625 15.91796875 C16.56508789 16.46219482 17.11455078 17.0064209 17.68066406 17.56713867 C20.52176683 20.65271087 20.38784107 23.71763887 20.35546875 27.73828125 C19.78672178 31.35701199 17.84834388 32.88030223 15 35 C6.45599625 37.84800125 -2.99382928 36 -12 36 C-12 96.39 -12 156.78 -12 219 C-19.24774 217.188065 -26.0157654 215.44448211 -33 213 C-33.07001058 187.36622238 -33.12294914 161.73245905 -33.15543652 136.09860516 C-33.17092037 124.19697058 -33.19203887 112.29539533 -33.22631836 100.39379883 C-33.25617426 90.02311805 -33.27556394 79.65248022 -33.28226548 69.28175765 C-33.28618421 63.78804669 -33.29542521 58.29445863 -33.31719017 52.80078697 C-33.33749516 47.63394783 -33.34384596 42.46728266 -33.33932304 37.30040741 C-33.34015093 35.40045286 -33.3461521 33.50049272 -33.35761642 31.60057259 C-33.37246698 29.0133805 -33.36898106 26.42685172 -33.36076355 23.83964539 C-33.36950207 23.0818671 -33.3782406 22.32408881 -33.38724393 21.54334754 C-33.34367478 16.49430696 -33.34367478 16.49430696 -31.63246632 14.03307819 C-29.26085644 12.53224572 -27.38724887 12.63100386 -24.59765625 12.62890625 C-23.54255859 12.61150391 -22.48746094 12.59410156 -21.40039062 12.57617188 C-19.17904899 12.56707334 -16.95768801 12.56185126 -14.73632812 12.56054688 C-13.67994141 12.54185547 -12.62355469 12.52316406 -11.53515625 12.50390625 C-10.569729 12.50205322 -9.60430176 12.5002002 -8.60961914 12.49829102 C-5.27729589 11.86200402 -4.10864279 10.59875813 -2 8 C-1.11753997 5.90010889 -1.11753997 5.90010889 -0.75 3.75 C-0.5025 2.5125 -0.255 1.275 0 0 Z " fill="#5B7B39" transform="translate(426,61)"/>
<path d="M0 0 C4.55555556 0.55555556 4.55555556 0.55555556 6 2 C6.04080783 3.99958364 6.04254356 6.00045254 6 8 C7.11375 7.9175 8.2275 7.835 9.375 7.75 C16.53212645 7.78800244 22.76889436 10.45719168 27.9375 15.375 C32.95030027 20.96710974 34.33452793 25.40385475 34.30078125 32.828125 C34 35 34 35 32 37 C29.06546739 36.63318342 28.13562754 36.13562754 26 34 C25.5078125 32.01171875 25.5078125 32.01171875 25.125 29.6875 C24.2458479 25.5064942 23.22711223 22.96545448 20 20 C15.08477193 17.40327574 11.68144302 16.81163472 6 16 C6 26.89 6 37.78 6 49 C8.97 49 11.94 49 15 49 C21.3139929 50.67437738 27.75391819 54.32852011 31.21875 59.9921875 C35.70790194 68.74603379 36.50643917 78.49938749 34.28125 88.1015625 C31.13417248 96.50222911 25.46951854 101.04350349 17.6875 105.25 C13.79247524 106.33698365 10.01726439 106.15753978 6 106 C6.04125 106.94875 6.0825 107.8975 6.125 108.875 C6 112 6 112 4 114 C-0.55555556 113.44444444 -0.55555556 113.44444444 -2 112 C-2.04080783 110.00041636 -2.04254356 107.99954746 -2 106 C-3.27875 106.103125 -4.5575 106.20625 -5.875 106.3125 C-12.67055174 106.28044551 -18.09884447 103.60675783 -23.1171875 99.09765625 C-27.80170075 94.03410562 -30.03919587 89.64543548 -30.1875 82.6875 C-30 79 -30 79 -29 78 C-26.5625 77.8125 -26.5625 77.8125 -24 78 C-21.69801153 80.30198847 -21.63923003 81.19038911 -21.125 84.3125 C-20.2540708 88.4862607 -19.1729822 91.00329459 -16 94 C-11.04268249 97.1546566 -8.28228953 97.21471381 -2 98 C-2 84.47 -2 70.94 -2 57 C-5.3 57 -8.6 57 -12 57 C-19.91584116 53.90249694 -24.62681284 49.34070701 -29 42 C-31.03419668 35.70880895 -31.20039004 27.7663516 -28.5 21.6875 C-24.60903916 15.08799044 -18.30451014 10.17853811 -11 8 C-7.97957146 7.78702106 -5.02084344 7.8150504 -2 8 C-2.04125 7.05125 -2.0825 6.1025 -2.125 5.125 C-2 2 -2 2 0 0 Z " fill="#9B5321" transform="translate(369,330)"/>
<path d="M0 0 C22.87350101 18.49346891 35.40382795 46.0644123 38.484375 75.01513672 C41.34456056 104.99895699 32.34392608 135.17553854 13.625 158.75 C-5.4161156 180.94819176 -31.29670436 197.79868983 -61 201 C-62.22332031 201.13277344 -63.44664062 201.26554688 -64.70703125 201.40234375 C-87.50061444 203.47771068 -109.65172645 199.49884327 -130 189 C-130.9075 188.56171875 -131.815 188.1234375 -132.75 187.671875 C-143.76554845 182.10005689 -153.60005418 173.99994195 -162 165 C-161.505 164.01 -161.505 164.01 -161 163 C-160.195625 163.70962891 -160.195625 163.70962891 -159.375 164.43359375 C-134.85880515 185.11913316 -104.05187042 192.35279232 -72.50390625 189.79785156 C-43.65792196 186.48581264 -15.6906349 170.78803525 2.46191406 148.17919922 C12.58478794 134.92143401 19.83452504 120.15882316 24 104 C24.29777344 102.97519531 24.59554687 101.95039063 24.90234375 100.89453125 C32.42260373 71.88781419 24.96555166 40.51173193 10.32714844 15.13525391 C7.8010165 11.07095112 4.82164773 7.48732906 1.6171875 3.93359375 C0 2 0 2 0 0 Z " fill="#FFAA1A" transform="translate(448,301)"/>
<path d="M0 0 C4.73526074 0.63482292 6.96383749 1.17668424 10 5 C11.16860595 8.50581784 11.14812734 11.65860748 11.14717102 15.30574036 C11.15084771 16.05544387 11.1545244 16.80514738 11.1583125 17.57756919 C11.1693513 20.09704846 11.17319349 22.61648649 11.17700195 25.13598633 C11.18326639 26.93947989 11.18991317 28.74297216 11.19691467 30.54646301 C11.21432452 35.45148598 11.22487611 40.35649921 11.2331202 45.26154542 C11.23826976 48.32519529 11.24434547 51.38884212 11.25063133 54.45248985 C11.26968226 64.03557232 11.28391434 73.61864709 11.2922433 83.20174485 C11.30202029 94.26847418 11.32835232 105.33500373 11.36874419 116.40166265 C11.3988857 124.95291561 11.41371026 133.50411123 11.41702431 142.05541629 C11.41937677 147.16412286 11.42836285 152.27261599 11.45348549 157.38126564 C11.47673724 162.18707085 11.48101111 166.99252162 11.47072411 171.79836845 C11.47022795 173.56161298 11.4765718 175.32487479 11.49028015 177.0880661 C11.50795958 179.4969059 11.50091329 181.9044682 11.48774719 184.31330872 C11.49871644 185.00971979 11.50968568 185.70613087 11.52098733 186.42364532 C11.45576736 191.37195019 10.09766854 194.18964685 7 198 C3.31324669 200.11691487 0.03786834 200.25660336 -4.16381836 200.2746582 C-5.38536118 200.28419022 -6.60690399 200.29372223 -7.86546326 200.30354309 C-9.17700882 200.30263168 -10.48855438 200.30172028 -11.83984375 200.30078125 C-13.20838042 200.30467193 -14.5769159 200.30900737 -15.94544983 200.31376648 C-18.80929484 200.32121375 -21.67301654 200.32094827 -24.53686523 200.31567383 C-28.19640149 200.30988037 -31.85543142 200.32681385 -35.514884 200.3500185 C-38.34000063 200.36479114 -41.16499631 200.36562279 -43.99014473 200.36250877 C-45.99198257 200.36326784 -47.99380173 200.37711117 -49.99559021 200.39118958 C-51.22028519 200.38496078 -52.44498016 200.37873199 -53.70678711 200.37231445 C-55.31631508 200.37325859 -55.31631508 200.37325859 -56.95835876 200.3742218 C-60.54373895 199.93310224 -62.92404238 198.87397971 -66 197 C-68 194 -68 194 -67.625 191.3125 C-67.41875 190.549375 -67.2125 189.78625 -67 189 C-66.25941849 188.99413376 -65.51883698 188.98826752 -64.7558136 188.98222351 C-57.76700466 188.92425275 -50.77846798 188.85215085 -43.78997517 188.76428509 C-40.19732735 188.71961054 -36.60479216 188.68034838 -33.01196289 188.65356445 C-29.54284303 188.62750177 -26.07415725 188.58707944 -22.60530663 188.53681374 C-20.64178155 188.51207779 -18.67808842 188.50210773 -16.71443176 188.49235535 C-15.5135643 188.47256119 -14.31269684 188.45276703 -13.07543945 188.43237305 C-12.02064896 188.42126999 -10.96585846 188.41016693 -9.87910461 188.39872742 C-6.57927391 187.94173361 -4.67385609 186.95748075 -2 185 C-0.52342088 182.04684177 -0.84626683 179.05053979 -0.84178162 175.81210327 C-0.83684364 175.06310434 -0.83190566 174.31410541 -0.82681805 173.54240954 C-0.81139664 171.01964904 -0.80306991 168.49691407 -0.79467773 165.97412109 C-0.78510285 164.17089105 -0.77509301 162.36766326 -0.76467896 160.56443787 C-0.73758154 155.65770243 -0.71659821 150.75095733 -0.69667697 145.84418821 C-0.67484719 140.72053981 -0.64744382 135.59692137 -0.62062073 130.47329712 C-0.57065308 120.76586346 -0.52572939 111.0584132 -0.48259836 101.35094702 C-0.43326074 90.30151432 -0.37832975 79.25211166 -0.32291877 68.20270801 C-0.20903622 45.46850003 -0.10221088 22.73426324 0 0 Z " fill="#E59178" transform="translate(194,212)"/>
<path d="M0 0 C15.15532403 11.6083333 24.86650623 30.80829382 27.71435547 49.55224609 C30.68372693 74.9974754 24.98381055 98.95482914 9.2421875 119.3515625 C-5.92535605 137.26723241 -25.50955156 149.43080916 -49 153 C-52.75508225 153.28555631 -56.48512265 153.33434097 -60.25 153.3125 C-61.25853027 153.30758545 -62.26706055 153.3026709 -63.30615234 153.29760742 C-84.81255909 152.96140818 -105.15122879 144.64288644 -121 130 C-122.36501351 128.35917896 -123.70718499 126.69828881 -125 125 C-122.59838483 126.13945245 -120.3519867 127.3919226 -118.07421875 128.76953125 C-109.61965263 133.86957517 -101.53782807 137.36777259 -92 140 C-91.12472656 140.24621094 -90.24945313 140.49242187 -89.34765625 140.74609375 C-66.94719999 145.87731991 -42.9720532 140.69565652 -23.53125 128.96875 C-1.7473663 114.65362643 10.6917778 94.29211756 16 69 C19.71002723 46.98391734 15.36766342 24.83837935 3.296875 6.05078125 C2.05346679 4.08454839 1.00353027 2.09699958 0 0 Z " fill="#EF7916" transform="translate(432,323)"/>
<path d="M0 0 C4.73526074 0.63482292 6.96383749 1.17668424 10 5 C11.05958606 8.17875817 11.13359383 10.44697231 11.14717102 13.78718567 C11.15432632 14.99427689 11.16148163 16.2013681 11.16885376 17.44503784 C11.17169396 18.78472875 11.1744057 20.12441993 11.17700195 21.46411133 C11.18326772 22.8735216 11.18991462 24.28293022 11.19691467 25.69233704 C11.2179423 30.32222343 11.22831514 34.95211012 11.23828125 39.58203125 C11.24232915 41.1764242 11.24644608 42.77081698 11.25063133 44.36520958 C11.26967935 51.85526232 11.28391177 59.34530521 11.2922433 66.83537751 C11.30201776 75.47971038 11.32834419 84.12378731 11.36874419 92.76802999 C11.39890536 99.4509337 11.41371213 106.13376404 11.41702431 112.81673449 C11.41937462 116.80763937 11.42833239 120.79827072 11.45348549 124.78910255 C11.47677178 128.54434378 11.48099749 132.29913147 11.47072411 136.05442619 C11.47022878 137.43066034 11.47654846 138.80691685 11.49028015 140.18308258 C11.60024278 151.85902016 11.60024278 151.85902016 9.28312683 155.74076843 C5.1402713 159.84026473 1.52182129 160.25022675 -4.16381836 160.2746582 C-5.38536118 160.28419022 -6.60690399 160.29372223 -7.86546326 160.30354309 C-9.17700882 160.30263168 -10.48855438 160.30172028 -11.83984375 160.30078125 C-13.20838042 160.30467193 -14.5769159 160.30900737 -15.94544983 160.31376648 C-18.80929484 160.32121375 -21.67301654 160.32094827 -24.53686523 160.31567383 C-28.19640149 160.30988037 -31.85543142 160.32681385 -35.514884 160.3500185 C-38.34000063 160.36479114 -41.16499631 160.36562279 -43.99014473 160.36250877 C-45.99198257 160.36326784 -47.99380173 160.37711117 -49.99559021 160.39118958 C-51.22028519 160.38496078 -52.44498016 160.37873199 -53.70678711 160.37231445 C-55.31631508 160.37325859 -55.31631508 160.37325859 -56.95835876 160.3742218 C-60.54373895 159.93310224 -62.92404238 158.87397971 -66 157 C-68 154 -68 154 -67.625 151.3125 C-67.41875 150.549375 -67.2125 149.78625 -67 149 C-66.25941849 148.99413376 -65.51883698 148.98826752 -64.7558136 148.98222351 C-57.76700466 148.92425275 -50.77846798 148.85215085 -43.78997517 148.76428509 C-40.19732735 148.71961054 -36.60479216 148.68034838 -33.01196289 148.65356445 C-29.54284303 148.62750177 -26.07415725 148.58707944 -22.60530663 148.53681374 C-20.64178155 148.51207779 -18.67808842 148.50210773 -16.71443176 148.49235535 C-15.5135643 148.47256119 -14.31269684 148.45276703 -13.07543945 148.43237305 C-12.02064896 148.42126999 -10.96585846 148.41016693 -9.87910461 148.39872742 C-6.57927391 147.94173361 -4.67385609 146.95748075 -2 145 C-0.67004133 142.34008267 -0.86004712 140.31054453 -0.84178162 137.33065796 C-0.8319928 136.1246846 -0.82220398 134.91871124 -0.81211853 133.67619324 C-0.80621399 132.33279459 -0.80040357 130.98939552 -0.79467773 129.64599609 C-0.78510157 128.23684907 -0.77509165 126.82770493 -0.76467896 125.41856384 C-0.73759543 121.58617832 -0.71660457 117.75378043 -0.69667697 113.92135191 C-0.67483865 109.91878718 -0.64743944 105.9162607 -0.62062073 101.91372681 C-0.57066466 94.33125572 -0.52573666 86.74876343 -0.48259836 79.16625082 C-0.43325086 70.53514636 -0.37832353 61.90408026 -0.32291877 53.27301288 C-0.20905401 35.51537752 -0.10222477 17.75770598 0 0 Z " fill="#E59178" transform="translate(94,252)"/>
<path d="M0 0 C3.91939465 3.80411834 7.49102731 7.81576108 11 12 C10.59988018 13.27613973 10.17907912 14.54580367 9.75 15.8125 C9.51796875 16.52019531 9.2859375 17.22789063 9.046875 17.95703125 C8 20 8 20 4 23 C-4.58 23.33 -13.16 23.66 -22 24 C-22 87.36 -22 150.72 -22 216 C-25.63 215.01 -29.26 214.02 -33 213 C-33.07001058 187.36622238 -33.12294914 161.73245905 -33.15543652 136.09860516 C-33.17092037 124.19697058 -33.19203887 112.29539533 -33.22631836 100.39379883 C-33.25617426 90.02311805 -33.27556394 79.65248022 -33.28226548 69.28175765 C-33.28618421 63.78804669 -33.29542521 58.29445863 -33.31719017 52.80078697 C-33.33749516 47.63394783 -33.34384596 42.46728266 -33.33932304 37.30040741 C-33.34015093 35.40045286 -33.3461521 33.50049272 -33.35761642 31.60057259 C-33.37246698 29.0133805 -33.36898106 26.42685172 -33.36076355 23.83964539 C-33.36950207 23.0818671 -33.3782406 22.32408881 -33.38724393 21.54334754 C-33.34367478 16.49430696 -33.34367478 16.49430696 -31.63246632 14.03307819 C-29.26085644 12.53224572 -27.38724887 12.63100386 -24.59765625 12.62890625 C-23.54255859 12.61150391 -22.48746094 12.59410156 -21.40039062 12.57617188 C-19.17904899 12.56707334 -16.95768801 12.56185126 -14.73632812 12.56054688 C-13.67994141 12.54185547 -12.62355469 12.52316406 -11.53515625 12.50390625 C-10.569729 12.50205322 -9.60430176 12.5002002 -8.60961914 12.49829102 C-5.27729589 11.86200402 -4.10864279 10.59875813 -2 8 C-1.11753997 5.90010889 -1.11753997 5.90010889 -0.75 3.75 C-0.5025 2.5125 -0.255 1.275 0 0 Z " fill="#648940" transform="translate(426,61)"/>
<path d="M0 0 C6.94915254 1.15819209 6.94915254 1.15819209 10 5 C10.94455887 7.8336766 11.14426486 9.65507168 11.18754578 12.59684753 C11.20337204 13.54020966 11.2191983 14.48357178 11.23550415 15.45552063 C11.25367691 17.00543953 11.25367691 17.00543953 11.2722168 18.58666992 C11.28842575 19.67641113 11.3046347 20.76615234 11.32133484 21.88891602 C11.47083263 32.60695673 11.5479932 43.32590035 11.61233491 54.04474562 C11.65382561 60.79541334 11.73275652 67.54436412 11.84183758 74.29426688 C11.93326123 80.14989948 11.96970848 86.00495894 11.98771095 91.86123085 C12.00365102 94.34723232 12.03689539 96.83318604 12.08786583 99.31871605 C12.48865971 119.84424039 12.48865971 119.84424039 8.74014282 124.34487915 C3.04990303 129 3.04990303 129 0 129 C0 86.43 0 43.86 0 0 Z " fill="#E59278" transform="translate(294,172)"/>
<path d="M0 0 C3.53571429 0.53571429 3.53571429 0.53571429 5 2 C5.09795069 3.51586112 5.12631815 5.03627553 5.12698364 6.55529785 C5.12980347 7.53968338 5.13262329 8.52406891 5.13552856 9.5382843 C5.13350433 10.62715439 5.1314801 11.71602448 5.12939453 12.83789062 C5.13114685 13.97759811 5.13289917 15.1173056 5.13470459 16.29154968 C5.13912586 20.07979836 5.13618414 23.8680008 5.1328125 27.65625 C5.13348546 30.27559417 5.13445542 32.89493827 5.13571167 35.51428223 C5.1375332 41.01229356 5.13512749 46.51029148 5.13037109 52.00830078 C5.1249285 58.37316987 5.12669117 64.73800692 5.1321975 71.10287523 C5.13727429 77.21484332 5.1367471 83.32679716 5.13381577 89.43876648 C5.13314622 92.04481511 5.13397587 94.65086455 5.13629532 97.25691223 C5.13882022 100.89200033 5.13498353 104.52702596 5.12939453 108.16210938 C5.13141876 109.25097946 5.13344299 110.33984955 5.13552856 111.4617157 C5.13270874 112.44610123 5.12988892 113.43048676 5.12698364 114.44470215 C5.12660662 115.30527977 5.12622959 116.16585739 5.12584114 117.05251312 C5 119 5 119 4 120 C1.5 120.125 1.5 120.125 -1 120 C-2.60737162 118.39262838 -2.12937343 116.67639854 -2.13371277 114.45143127 C-2.13797775 113.46849091 -2.14224274 112.48555054 -2.14663696 111.4728241 C-2.14618378 110.38552505 -2.14573059 109.29822601 -2.14526367 108.17797852 C-2.14862228 107.03987732 -2.1519809 105.90177612 -2.15544128 104.72918701 C-2.16498437 100.94574916 -2.16689606 97.1623554 -2.16796875 93.37890625 C-2.17117892 90.76195761 -2.1745428 88.14500916 -2.17805481 85.52806091 C-2.18445743 80.03424795 -2.18593651 74.54044705 -2.18530273 69.04663086 C-2.18470178 62.6897097 -2.19525538 56.33287336 -2.2110464 49.97597367 C-2.22567732 43.86934463 -2.22929137 37.76275642 -2.22869301 31.65611076 C-2.22987728 29.05367626 -2.23432383 26.4512412 -2.24202538 23.84881783 C-2.25176873 20.21627796 -2.24896967 16.58395907 -2.24291992 12.95141602 C-2.24853943 11.8661412 -2.25415894 10.78086639 -2.25994873 9.66270447 C-2.25575424 8.67694427 -2.25155975 7.69118408 -2.24723816 6.67555237 C-2.24778293 5.81589654 -2.24832769 4.95624071 -2.24888897 4.07053471 C-2 2 -2 2 0 0 Z " fill="#90B46A" transform="translate(339,125)"/>
<path d="M0 0 C10.36842105 0 10.36842105 0 15 4 C20.94382015 10.16933095 21.35025474 15.1144566 21.28125 23.47265625 C20.79857091 29.52625654 18.86122718 33.18649659 14.5625 37.375 C9.15746728 40.80258173 6.78753437 41 0 41 C0 27.47 0 13.94 0 0 Z " fill="#F49019" transform="translate(375,387)"/>
<path d="M0 0 C0 10.89 0 21.78 0 33 C-10.35135135 33 -10.35135135 33 -15 29 C-19.53348179 23.97641207 -20.375139 20.1052849 -20.26953125 13.5 C-19.77611958 8.92342798 -17.69102202 6.41043208 -14.234375 3.52734375 C-8.88892276 -0.25024947 -7.43340709 0 0 0 Z " fill="#F59019" transform="translate(367,346)"/>
<path d="M0 0 C9.9 0 19.8 0 30 0 C31.28317892 3.84953676 31.06643637 6.94738135 31 11 C27.12514365 11.08751413 23.25054357 11.14056435 19.375 11.1875 C18.28058594 11.21263672 17.18617188 11.23777344 16.05859375 11.26367188 C5.71178492 11.35773377 5.71178492 11.35773377 1 8 C0.34 7.01 -0.32 6.02 -1 5 C-0.67 3.35 -0.34 1.7 0 0 Z " fill="#E69277" transform="translate(227,401)"/>
<path d="M0 0 C3.53571429 0.53571429 3.53571429 0.53571429 5 2 C5.125 4.5 5.125 4.5 5 7 C4 8 4 8 1.5 8.125 C-1 8 -1 8 -2 7 C-2.1875 4.5625 -2.1875 4.5625 -2 2 C-1.34 1.34 -0.68 0.68 0 0 Z " fill="#8FB469" transform="translate(339,109)"/>
</svg>
