<?xml version="1.0" encoding="UTF-8"?>
<svg version="1.1" xmlns="http://www.w3.org/2000/svg" width="512" height="512">
<path d="M0 0 C10.73182738 0.83926552 21.45186152 1.37992197 32.21017992 1.73667043 C33.36409048 1.77505105 33.36409048 1.77505105 34.54131237 1.81420703 C38.40610809 1.94142506 42.27102586 2.06443129 46.13600361 2.18597525 C68.8064295 2.90651884 91.45913454 3.88748213 114.08688128 5.46965307 C116.49645085 5.63798022 118.90641106 5.80081825 121.31674731 5.95778555 C124.59937694 6.17502693 127.8792098 6.41652682 131.15945971 6.66687673 C132.58894832 6.75785672 132.58894832 6.75785672 134.04731548 6.85067469 C140.59063704 7.39588027 144.66574397 8.89546672 149.19446814 13.91398042 C151.00132779 18.55446706 150.74319556 23.08092499 150.70277941 28.01640981 C150.70534269 29.15590949 150.70790596 30.29540918 150.71054691 31.46943915 C150.71549673 35.29588252 150.69897153 39.1219332 150.68259203 42.94834036 C150.68007626 45.68796184 150.68208823 48.4275756 150.68391955 51.16719717 C150.68549238 57.06960596 150.67608222 62.97191523 150.65920603 68.87429899 C150.63482186 77.40813166 150.62701136 85.94191624 150.62324206 94.47577997 C150.61667666 108.32147842 150.5967131 122.16712383 150.56833422 136.01279348 C150.54079594 149.46233505 150.51956123 162.91186222 150.50681078 176.36142629 C150.50602261 177.19049745 150.50523444 178.0195686 150.50442239 178.87376312 C150.50050727 183.03298167 150.49671615 187.19220032 150.49298668 191.35141903 C150.46188801 225.85471157 150.4090498 260.35794114 150.34201586 294.86118215 C151.36867861 294.85347799 152.39534136 294.84577383 153.45311511 294.83783621 C154.81525114 294.83160486 156.17738805 294.82556217 157.53952563 294.81967825 C158.21440272 294.81411413 158.88927981 294.80855001 159.58460772 294.80281729 C164.68588156 294.78630548 169.34493677 295.25075894 174.27951586 296.48618215 C175.02620532 296.66439504 175.77289477 296.84260793 176.54221117 297.02622122 C193.48662037 301.25695456 209.01760859 308.42986007 222.34201586 319.86118215 C223.16314867 320.56114309 223.98428149 321.26110403 224.83029711 321.9822759 C246.91624924 341.32005189 261.11001594 368.41118313 263.34201586 397.86118215 C264.91525135 425.96373543 258.07681646 455.82965233 239.35764086 477.6072759 C238.69248461 478.35106497 238.02732836 479.09485403 237.34201586 479.86118215 C236.65623461 480.67715872 235.97045336 481.49313528 235.26389086 482.3338384 C217.67649635 502.79974533 192.27746239 516.87079172 165.34201586 519.86118215 C153.71976837 520.55751765 142.06023731 520.41733922 130.42204332 520.38408083 C125.68668071 520.37494894 120.95137497 520.38903934 116.21602404 520.40000051 C106.96751181 520.41769894 97.71913011 520.41398626 88.47061297 520.40234995 C80.95585139 520.39328863 73.4411262 520.39210323 65.92636073 520.39644521 C64.31756045 520.39736461 64.31756045 520.39736461 62.67625916 520.39830258 C60.49708669 520.39958155 58.31791422 520.40087841 56.13874177 520.40219295 C35.75508722 520.41357144 15.37150491 520.40052432 -5.01213779 520.37899148 C-22.50064926 520.36108966 -39.98905462 520.36425526 -57.47756422 520.38266653 C-77.81219488 520.4040642 -98.14676259 520.41250805 -118.48140293 520.40021747 C-120.6482466 520.39894331 -122.81509027 520.39768583 -124.98193395 520.39644521 C-126.0479597 520.39582811 -127.11398544 520.39521101 -128.212315 520.39457521 C-135.72433396 520.39112148 -143.23631294 520.39695045 -150.74832571 520.40636343 C-159.89280339 520.41757102 -169.0371437 520.41456807 -178.18160561 520.39324045 C-182.84674677 520.3827185 -187.5116587 520.3786282 -192.17679822 520.39183706 C-196.4454405 520.40374099 -200.71364061 520.39723181 -204.98224267 520.37592685 C-206.52752726 520.3714527 -208.07284908 520.37374529 -209.6181098 520.38343 C-211.71701601 520.39557764 -213.81440356 520.38313839 -215.9132303 520.36454672 C-217.0793045 520.36389731 -218.24537871 520.3632479 -219.44678849 520.36257881 C-224.61780341 519.55517563 -227.69524469 517.0350136 -230.95834005 513.05644602 C-233.95521033 507.17887939 -233.58337423 500.19703268 -233.85228956 493.73696035 C-233.92999246 492.17710321 -234.00902981 490.61731208 -234.08928251 489.05758405 C-234.3037839 484.77516496 -234.49285513 480.49195801 -234.67610562 476.20810086 C-234.79524626 473.46511593 -234.92130506 470.72253176 -235.04951322 467.97995657 C-236.68408772 432.91156803 -237.66562492 397.82383749 -238.4057787 362.72608845 C-238.52763907 356.94852678 -238.65373299 351.17106462 -238.78249586 345.39365286 C-238.80803876 344.24412344 -238.83358166 343.09459402 -238.85989858 341.91023038 C-239.22775605 325.80067028 -239.85490552 309.72010414 -240.69687921 293.62861353 C-249.94789563 116.69613694 -249.94789563 116.69613694 -199.76162241 60.56507092 C-144.08654321 -0.10974688 -77.95006514 -6.17024676 0 0 Z " fill="#CCE6FB" transform="translate(240.6579841375351,-7.861182153224945)"/>
<path d="M0 0 C0.9375017 -0.12055665 1.8750034 -0.2411133 2.84091425 -0.36532319 C22.42651539 -2.48319134 40.54078059 2.72854749 59.98144531 6.26928711 C59.98144531 59.39928711 59.98144531 112.52928711 59.98144531 167.26928711 C2.91894531 167.51928711 2.91894531 167.51928711 -15.08129883 167.56713867 C-20.41810155 167.60036933 -20.41810155 167.60036933 -25.75486755 167.63885498 C-28.12702638 167.6534441 -30.49924109 167.6602395 -32.8714447 167.66082764 C-36.47041501 167.66324661 -40.06843146 167.69059682 -43.66723633 167.72338867 C-44.71941125 167.7183646 -45.77158617 167.71334053 -46.85564518 167.70816422 C-53.11861163 167.7974712 -56.90554313 168.57699271 -62.01855469 172.26928711 C-65.2552389 175.92360799 -65.48747183 179.35103216 -65.29980469 184.05834961 C-64.71400985 188.66334788 -63.04449349 191.36056169 -59.60946655 194.40313721 C-55.02656526 197.31804589 -49.95070064 196.84008264 -44.68896484 196.81518555 C-43.5566745 196.82552322 -42.42438416 196.8358609 -41.25778198 196.84651184 C-37.52424876 196.87595217 -33.79125739 196.87743935 -30.05761719 196.87866211 C-27.4654334 196.89364283 -24.87325917 196.91036974 -22.28109741 196.92877197 C-16.16139607 196.96800584 -10.04186506 196.98965958 -3.92205942 197.00274587 C3.04781259 197.01863469 10.017504 197.05705812 16.98727107 197.09733915 C31.31862167 197.17966267 45.64991147 197.23082743 59.98144531 197.26928711 C59.98144531 207.16928711 59.98144531 217.06928711 59.98144531 227.26928711 C56.53441162 227.27863281 53.08737793 227.28797852 49.53588867 227.29760742 C38.14439443 227.33138094 26.75306185 227.38673155 15.36171627 227.45318985 C8.45541444 227.49295557 1.54922615 227.52536048 -5.35717773 227.5402832 C-12.02279436 227.55470652 -18.68800833 227.5898457 -25.3534832 227.63759613 C-27.89592873 227.65242849 -30.4384245 227.66032918 -32.98091316 227.66117096 C-36.54340215 227.66353664 -40.1049155 227.69058678 -43.66723633 227.72338867 C-44.71740433 227.71835831 -45.76757233 227.71332794 -46.8495636 227.70814514 C-53.11503288 227.79734469 -56.90342655 228.57546425 -62.01855469 232.26928711 C-65.2552389 235.92360799 -65.48747183 239.35103216 -65.29980469 244.05834961 C-64.71400985 248.66334788 -63.04449349 251.36056169 -59.60946655 254.40313721 C-55.02656526 257.31804589 -49.95070064 256.84008264 -44.68896484 256.81518555 C-43.5566745 256.82552322 -42.42438416 256.8358609 -41.25778198 256.84651184 C-37.52424876 256.87595217 -33.79125739 256.87743935 -30.05761719 256.87866211 C-27.4654334 256.89364283 -24.87325917 256.91036974 -22.28109741 256.92877197 C-16.16139607 256.96800584 -10.04186506 256.98965958 -3.92205942 257.00274587 C3.04781259 257.01863469 10.017504 257.05705812 16.98727107 257.09733915 C31.31862167 257.17966267 45.64991147 257.23082743 59.98144531 257.26928711 C59.98144531 267.16928711 59.98144531 277.06928711 59.98144531 287.26928711 C56.53441162 287.27863281 53.08737793 287.28797852 49.53588867 287.29760742 C38.14439443 287.33138094 26.75306185 287.38673155 15.36171627 287.45318985 C8.45541444 287.49295557 1.54922615 287.52536048 -5.35717773 287.5402832 C-12.02279436 287.55470652 -18.68800833 287.5898457 -25.3534832 287.63759613 C-27.89592873 287.65242849 -30.4384245 287.66032918 -32.98091316 287.66117096 C-36.54340215 287.66353664 -40.1049155 287.69058678 -43.66723633 287.72338867 C-44.71740433 287.71835831 -45.76757233 287.71332794 -46.8495636 287.70814514 C-53.11503288 287.79734469 -56.90342655 288.57546425 -62.01855469 292.26928711 C-65.2552389 295.92360799 -65.48747183 299.35103216 -65.29980469 304.05834961 C-64.71400985 308.66334788 -63.04449349 311.36056169 -59.60946655 314.40313721 C-55.02656526 317.31804589 -49.95070064 316.84008264 -44.68896484 316.81518555 C-43.5566745 316.82552322 -42.42438416 316.8358609 -41.25778198 316.84651184 C-37.52424876 316.87595217 -33.79125739 316.87743935 -30.05761719 316.87866211 C-27.4654334 316.89364283 -24.87325917 316.91036974 -22.28109741 316.92877197 C-16.16139607 316.96800584 -10.04186506 316.98965958 -3.92205942 317.00274587 C3.04781259 317.01863469 10.017504 317.05705812 16.98727107 317.09733915 C31.31862167 317.17966267 45.64991147 317.23082743 59.98144531 317.26928711 C59.98144531 327.16928711 59.98144531 337.06928711 59.98144531 347.26928711 C56.53441162 347.27863281 53.08737793 347.28797852 49.53588867 347.29760742 C38.14439443 347.33138094 26.75306185 347.38673155 15.36171627 347.45318985 C8.45541444 347.49295557 1.54922615 347.52536048 -5.35717773 347.5402832 C-12.02279436 347.55470652 -18.68800833 347.5898457 -25.3534832 347.63759613 C-27.89592873 347.65242849 -30.4384245 347.66032918 -32.98091316 347.66117096 C-36.54340215 347.66353664 -40.1049155 347.69058678 -43.66723633 347.72338867 C-44.71740433 347.71835831 -45.76757233 347.71332794 -46.8495636 347.70814514 C-53.11503288 347.79734469 -56.90342655 348.57546425 -62.01855469 352.26928711 C-65.2552389 355.92360799 -65.48747183 359.35103216 -65.29980469 364.05834961 C-64.71400985 368.66334788 -63.04449349 371.36056169 -59.60946655 374.40313721 C-55.02656526 377.31804589 -49.95070064 376.84008264 -44.68896484 376.81518555 C-43.5566745 376.82552322 -42.42438416 376.8358609 -41.25778198 376.84651184 C-37.52424876 376.87595217 -33.79125739 376.87743935 -30.05761719 376.87866211 C-27.4654334 376.89364283 -24.87325917 376.91036974 -22.28109741 376.92877197 C-16.16139607 376.96800584 -10.04186506 376.98965958 -3.92205942 377.00274587 C3.04781259 377.01863469 10.017504 377.05705812 16.98727107 377.09733915 C31.31862167 377.17966267 45.64991147 377.23082743 59.98144531 377.26928711 C59.98144531 387.16928711 59.98144531 397.06928711 59.98144531 407.26928711 C56.53441162 407.27863281 53.08737793 407.28797852 49.53588867 407.29760742 C38.14439443 407.33138094 26.75306185 407.38673155 15.36171627 407.45318985 C8.45541444 407.49295557 1.54922615 407.52536048 -5.35717773 407.5402832 C-12.02279436 407.55470652 -18.68800833 407.5898457 -25.3534832 407.63759613 C-27.89592873 407.65242849 -30.4384245 407.66032918 -32.98091316 407.66117096 C-36.54340215 407.66353664 -40.1049155 407.69058678 -43.66723633 407.72338867 C-44.71740433 407.71835831 -45.76757233 407.71332794 -46.8495636 407.70814514 C-53.11503288 407.79734469 -56.90342655 408.57546425 -62.01855469 412.26928711 C-65.2552389 415.92360799 -65.48747183 419.35103216 -65.29980469 424.05834961 C-64.71400985 428.66334788 -63.04449349 431.36056169 -59.60946655 434.40313721 C-55.02656526 437.31804589 -49.95070064 436.84008264 -44.68896484 436.81518555 C-43.5566745 436.82552322 -42.42438416 436.8358609 -41.25778198 436.84651184 C-37.52424876 436.87595217 -33.79125739 436.87743935 -30.05761719 436.87866211 C-27.4654334 436.89364283 -24.87325917 436.91036974 -22.28109741 436.92877197 C-16.16139607 436.96800584 -10.04186506 436.98965958 -3.92205942 437.00274587 C3.73207489 437.02019456 11.38602247 437.06462243 19.04003906 437.10913086 C32.68716938 437.18837076 46.33404017 437.22691702 59.98144531 437.26928711 C59.98144531 463.99928711 59.98144531 490.72928711 59.98144531 518.26928711 C14.58231632 518.43049925 14.58231632 518.43049925 -4.42089844 518.46459961 C-17.54970539 518.48834758 -30.67840977 518.51628731 -43.80712891 518.57104492 C-53.36809534 518.61090306 -62.92897867 518.63671766 -72.49002588 518.64564109 C-77.55296068 518.65085755 -82.61565775 518.66312472 -87.67851639 518.69220734 C-92.4440481 518.71936019 -97.20924416 518.72773233 -101.97484589 518.72171783 C-103.72358143 518.72281813 -105.47232822 518.73077281 -107.22099686 518.74610901 C-109.61027733 518.76603538 -111.99829353 518.76121735 -114.38760376 518.75030518 C-115.42361707 518.76778222 -115.42361707 518.76778222 -116.48055995 518.78561234 C-121.45672284 518.72425666 -124.27764525 517.51695696 -128.01855469 514.26928711 C-133.30862189 507.81931013 -132.880578 500.12737888 -133.21286011 492.14506531 C-133.29056301 490.58520817 -133.36960036 489.02541704 -133.44985306 487.465689 C-133.66435445 483.18326992 -133.85342568 478.90006297 -134.03667617 474.61620581 C-134.15581681 471.87322089 -134.28187561 469.13063672 -134.41008377 466.38806152 C-136.04465827 431.31967298 -137.02619547 396.23194244 -137.76634925 361.1341934 C-137.88820962 355.35663174 -138.01430354 349.57916957 -138.14306641 343.80175781 C-138.16860931 342.65222839 -138.19415221 341.50269898 -138.22046913 340.31833533 C-138.58832645 324.20878191 -139.21543019 308.12820558 -140.05735253 292.03671822 C-149.08538008 119.46365833 -149.08538008 119.46365833 -101.26167842 66.34404388 C-95.0313718 59.5727562 -88.4181534 53.22455496 -81.69042969 46.95288086 C-81.10826712 46.40460899 -80.52610456 45.85633712 -79.9263007 45.29145095 C-56.87288078 23.58942411 -32.38002051 4.14888406 0 0 Z " fill="#E9F3FE" transform="translate(140.0185546875,-6.269287109375)"/>
<path d="M0 0 C0.68449219 0.21430664 1.36898437 0.42861328 2.07421875 0.64941406 C15.69725083 5.03919973 28.10627004 11.6540131 39 21 C40.23169922 22.04994141 40.23169922 22.04994141 41.48828125 23.12109375 C63.57423337 42.45886974 77.76800007 69.55000098 80 99 C81.57323549 127.10255328 74.73480059 156.96847018 56.015625 178.74609375 C55.35046875 179.48988281 54.6853125 180.23367188 54 181 C53.31421875 181.81597656 52.6284375 182.63195312 51.921875 183.47265625 C34.42528747 203.83289389 8.88160542 218.19459142 -18 221 C-52.35584623 223.07077784 -82.48575967 214.62029485 -108.68139648 192.09179688 C-124.18313691 178.28120109 -134.79174927 160.70302732 -141 141 C-141.21172852 140.35208496 -141.42345703 139.70416992 -141.64160156 139.03662109 C-147.78045034 119.48667399 -147.69185654 94.36677485 -141 75 C-140.57589844 73.75089844 -140.15179688 72.50179687 -139.71484375 71.21484375 C-134.62837486 57.12588747 -127.12623199 44.04679853 -117 33 C-116.16855469 32.08734375 -115.33710938 31.1746875 -114.48046875 30.234375 C-85.75231389 0.11818337 -39.99259618 -12.75492024 0 0 Z " fill="#EF2B6C" transform="translate(424,291)"/>
<path d="M0 0 C17.44685701 0 17.44685701 0 23.9375 1.625 C25.05753418 1.89231934 25.05753418 1.89231934 26.20019531 2.16503906 C43.14460451 6.39577241 58.67559273 13.56867792 72 25 C73.23169922 26.04994141 73.23169922 26.04994141 74.48828125 27.12109375 C96.57423337 46.45886974 110.76800007 73.55000098 113 103 C114.57323549 131.10255328 107.73480059 160.96847018 89.015625 182.74609375 C88.35046875 183.48988281 87.6853125 184.23367188 87 185 C86.31421875 185.81597656 85.6284375 186.63195312 84.921875 187.47265625 C69.15877516 205.8156879 47.9297227 218.1911337 24.375 223.4375 C23.66053711 223.60161377 22.94607422 223.76572754 22.20996094 223.93481445 C14.59059039 225.45511539 8.143154 225 0 225 C0 206.19 0 187.38 0 168 C3.3 166.35 6.6 164.7 10 163 C13.66407757 158.11456325 14.12875011 155.50660376 14.31640625 149.58203125 C14.35830078 148.32841797 14.40019531 147.07480469 14.44335938 145.78320312 C14.48267578 144.47287109 14.52199219 143.16253906 14.5625 141.8125 C14.60570992 140.47720022 14.649325 139.14191348 14.69335938 137.80664062 C14.79956502 134.53786703 14.90160997 131.26901667 15 128 C15.81678223 127.98541748 16.63356445 127.97083496 17.47509766 127.95581055 C21.1921976 127.88113077 24.90841919 127.78453388 28.625 127.6875 C29.91019531 127.66494141 31.19539063 127.64238281 32.51953125 127.61914062 C33.76347656 127.58369141 35.00742187 127.54824219 36.2890625 127.51171875 C37.43068848 127.48553467 38.57231445 127.45935059 39.74853516 127.43237305 C44.67078124 126.77782298 47.94907963 125.13613013 51.3125 121.5 C54.14112473 117.30944484 54.41496987 113.97963845 54 109 C51.84864987 103.71126426 49.85810631 101.32703882 44.57226562 98.82299805 C39.21117503 97.10771365 33.5818772 97.31483701 28 97.25 C26.74832031 97.22035156 25.49664062 97.19070313 24.20703125 97.16015625 C21.13795759 97.08987212 18.06962548 97.03696808 15 97 C14.9906543 96.1529248 14.98130859 95.30584961 14.97167969 94.43310547 C14.92747388 91.26805648 14.86577473 88.10395188 14.79248047 84.93945312 C14.76438377 83.57401836 14.74311323 82.20842436 14.72900391 80.84277344 C14.70742018 78.87145962 14.6586454 76.90050369 14.609375 74.9296875 C14.58842773 73.74616699 14.56748047 72.56264648 14.54589844 71.34326172 C13.89143247 67.33509673 12.52573231 65.1494195 10 62 C6.60821712 59.95079785 3.85857346 58.96464337 0 58 C0 38.86 0 19.72 0 0 Z " fill="#CD175B" transform="translate(391,287)"/>
<path d="M0 0 C1.41038858 -0.00935994 1.41038858 -0.00935994 2.84926987 -0.01890898 C5.98994 -0.03482335 9.12983236 -0.02224053 12.27050781 -0.00964355 C14.52616833 -0.01506534 16.78182531 -0.02218832 19.03747559 -0.03088379 C25.157259 -0.04911308 31.27677256 -0.04205104 37.39656067 -0.02936745 C43.80214157 -0.01923785 50.20769943 -0.02863302 56.61328125 -0.03491211 C68.05911149 -0.04265465 79.50479231 -0.03022683 90.95059729 -0.00987476 C101.32161782 0.00799551 111.69245926 0.00489116 122.06347656 -0.0135498 C134.11639613 -0.03497147 146.16918047 -0.04291568 158.22212601 -0.03110075 C164.59893341 -0.02486578 170.97561752 -0.02403044 177.35241699 -0.0372467 C183.34760311 -0.0488042 189.3424511 -0.04078081 195.33760071 -0.01766968 C197.53741393 -0.01238212 199.73725562 -0.01389712 201.9370575 -0.02272034 C204.94084393 -0.03365718 207.94354807 -0.01993396 210.94726562 0 C211.817019 -0.00892289 212.68677238 -0.01784577 213.58288193 -0.02703905 C219.3571726 0.0472474 222.70442244 1.21812724 227.47363281 4.50793457 C230.54484823 7.7407929 231.41237032 11.07909714 232.03613281 15.44543457 C231.76943025 20.1725076 229.71805999 24.10505862 226.47363281 27.50793457 C221.26673821 30.78930114 216.99020106 30.94065356 211.0362854 30.90907288 C209.62211147 30.91926788 209.62211147 30.91926788 208.17936838 30.92966884 C205.02425157 30.94864016 201.86952296 30.94620403 198.71435547 30.94372559 C196.45061239 30.95270309 194.18687392 30.96291131 191.92314148 30.97425842 C185.77643689 31.00076204 179.62985758 31.00779202 173.48310137 31.00970578 C168.35133808 31.01255503 163.21960394 31.02359207 158.08785188 31.03422207 C146.67216293 31.05725403 135.25655554 31.06622849 123.84084935 31.06420601 C123.15634758 31.06408614 122.47184581 31.06396627 121.76660156 31.06384277 C120.73859078 31.06365881 120.73859078 31.06365881 119.68981211 31.06347113 C108.58274125 31.06225175 97.47597549 31.09096295 86.36899288 31.13325787 C74.95560052 31.17637561 63.54241871 31.19651792 52.1289314 31.19447654 C45.72459527 31.19371159 39.32060455 31.20226554 32.91633987 31.2340107 C26.89316509 31.26305198 20.870666 31.26329356 14.84746742 31.2414608 C12.638384 31.23832306 10.42925853 31.24541347 8.22024727 31.26354218 C5.20102019 31.28671313 2.18412468 31.27276839 -0.83505249 31.24964905 C-1.7064661 31.26507974 -2.5778797 31.28051043 -3.47569978 31.29640871 C-9.97740316 31.18660233 -13.87795757 29.02631349 -18.52636719 24.50793457 C-21.21498922 20.3629756 -21.19698641 15.3126242 -20.52636719 10.50793457 C-16.27273476 1.49023381 -9.09159261 -0.09327156 0 0 Z " fill="#5B6BAC" transform="translate(94.5263671875,220.4920654296875)"/>
<path d="M0 0 C1.41038858 -0.00935994 1.41038858 -0.00935994 2.84926987 -0.01890898 C5.98994 -0.03482335 9.12983236 -0.02224053 12.27050781 -0.00964355 C14.52616833 -0.01506534 16.78182531 -0.02218832 19.03747559 -0.03088379 C25.157259 -0.04911308 31.27677256 -0.04205104 37.39656067 -0.02936745 C43.80214157 -0.01923785 50.20769943 -0.02863302 56.61328125 -0.03491211 C68.05911149 -0.04265465 79.50479231 -0.03022683 90.95059729 -0.00987476 C101.32161782 0.00799551 111.69245926 0.00489116 122.06347656 -0.0135498 C134.11639613 -0.03497147 146.16918047 -0.04291568 158.22212601 -0.03110075 C164.59893341 -0.02486578 170.97561752 -0.02403044 177.35241699 -0.0372467 C183.34760311 -0.0488042 189.3424511 -0.04078081 195.33760071 -0.01766968 C197.53741393 -0.01238212 199.73725562 -0.01389712 201.9370575 -0.02272034 C204.94084393 -0.03365718 207.94354807 -0.01993396 210.94726562 0 C211.817019 -0.00892289 212.68677238 -0.01784577 213.58288193 -0.02703905 C219.3571726 0.0472474 222.70442244 1.21812724 227.47363281 4.50793457 C230.54484823 7.7407929 231.41237032 11.07909714 232.03613281 15.44543457 C231.76943025 20.1725076 229.71805999 24.10505862 226.47363281 27.50793457 C221.26673821 30.78930114 216.99020106 30.94065356 211.0362854 30.90907288 C209.62211147 30.91926788 209.62211147 30.91926788 208.17936838 30.92966884 C205.02425157 30.94864016 201.86952296 30.94620403 198.71435547 30.94372559 C196.45061239 30.95270309 194.18687392 30.96291131 191.92314148 30.97425842 C185.77643689 31.00076204 179.62985758 31.00779202 173.48310137 31.00970578 C168.35133808 31.01255503 163.21960394 31.02359207 158.08785188 31.03422207 C146.67216293 31.05725403 135.25655554 31.06622849 123.84084935 31.06420601 C123.15634758 31.06408614 122.47184581 31.06396627 121.76660156 31.06384277 C120.73859078 31.06365881 120.73859078 31.06365881 119.68981211 31.06347113 C108.58274125 31.06225175 97.47597549 31.09096295 86.36899288 31.13325787 C74.95560052 31.17637561 63.54241871 31.19651792 52.1289314 31.19447654 C45.72459527 31.19371159 39.32060455 31.20226554 32.91633987 31.2340107 C26.89316509 31.26305198 20.870666 31.26329356 14.84746742 31.2414608 C12.638384 31.23832306 10.42925853 31.24541347 8.22024727 31.26354218 C5.20102019 31.28671313 2.18412468 31.27276839 -0.83505249 31.24964905 C-1.7064661 31.26507974 -2.5778797 31.28051043 -3.47569978 31.29640871 C-9.97740316 31.18660233 -13.87795757 29.02631349 -18.52636719 24.50793457 C-21.21498922 20.3629756 -21.19698641 15.3126242 -20.52636719 10.50793457 C-16.27273476 1.49023381 -9.09159261 -0.09327156 0 0 Z " fill="#5B6BAC" transform="translate(94.5263671875,160.4920654296875)"/>
<path d="M0 0 C0.09275117 12.26550155 0.16379124 24.53091942 0.20724869 36.79670048 C0.22810794 42.49244146 0.25639569 48.1879422 0.30175781 53.88354492 C0.34527415 59.38191013 0.36914961 64.8800445 0.37950897 70.37856865 C0.38688989 72.47450837 0.40130315 74.5704357 0.42292023 76.66627693 C0.4520307 79.60600033 0.45595275 82.54477439 0.45410156 85.48461914 C0.46848267 86.34777237 0.48286377 87.2109256 0.49768066 88.10023499 C0.45831449 93.89182091 -0.68265772 97.22662737 -4 102 C-8.86412978 106.42193616 -13.78844124 106.13922533 -20.0612793 106.11352539 C-20.98830658 106.11367142 -21.91533386 106.11381744 -22.87045288 106.1139679 C-25.93839854 106.11327054 -29.00628368 106.10548637 -32.07421875 106.09765625 C-34.1998542 106.09579144 -36.32549007 106.09436784 -38.4511261 106.09336853 C-44.04889103 106.08954829 -49.64663007 106.07972219 -55.24438477 106.06866455 C-60.95523732 106.05843984 -66.66609406 106.05386863 -72.37695312 106.04882812 C-83.5846468 106.03809951 -94.79232125 106.02102897 -106 106 C-101.05986697 100.04326397 -95.72293094 94.58125506 -90.24682617 89.11743164 C-89.27200019 88.14124818 -88.29738653 87.16485265 -87.32296753 86.18826294 C-84.69549896 83.55626489 -82.06491296 80.92740405 -79.43358779 78.29926229 C-76.67657879 75.54479584 -73.92202256 72.78787825 -71.16706848 70.03135681 C-66.54815192 65.41062592 -61.92714145 60.79199697 -57.30493164 56.17456055 C-51.95542199 50.83051145 -46.60955038 45.48284334 -41.26551646 40.13331896 C-36.67362415 35.53689755 -32.07979725 30.94241648 -27.48432904 26.34957021 C-24.74075927 23.60756185 -21.99787547 20.86487647 -19.25673485 18.12043953 C-16.68576934 15.54659762 -14.11239347 12.9751908 -11.5370903 10.40568924 C-10.13653674 9.00709967 -8.73845959 7.60603162 -7.34043884 6.20491028 C-6.51473389 5.38202515 -5.68902893 4.55914001 -4.83830261 3.71131897 C-4.11695727 2.99035066 -3.39561193 2.26938234 -2.65240765 1.52656651 C-1 -0 -1 -0 0 0 Z " fill="#CDE7FC" transform="translate(116,1)"/>
<path d="M0 0 C4.27639678 4.73870994 5.12515443 7.21448066 5.09765625 13.5390625 C5.09282227 15.49199219 5.09282227 15.49199219 5.08789062 17.484375 C5.07953466 18.86458399 5.07106971 20.24479232 5.0625 21.625 C5.05748501 23.01301926 5.0529221 24.40104022 5.04882812 25.7890625 C5.03700976 29.19275132 5.02053434 32.59635439 5 36 C6.16402344 35.9685791 6.16402344 35.9685791 7.3515625 35.93652344 C10.90090748 35.85287241 14.45004435 35.80118371 18 35.75 C19.22074219 35.71648437 20.44148438 35.68296875 21.69921875 35.6484375 C28.9854523 35.56966741 33.85063616 35.97616121 40 40 C43.46350444 43.64112005 44.8688304 46.26200278 45.25 51.3125 C44.93534408 55.95367488 43.88640961 59.08781977 40.5703125 62.44921875 C35.88189363 66.51951274 32.63750071 67.12505656 26.58203125 67.09765625 C24.70161133 67.09282227 24.70161133 67.09282227 22.78320312 67.08789062 C21.47287109 67.07951172 20.16253906 67.07113281 18.8125 67.0625 C17.47721519 67.05748317 16.14192859 67.05292059 14.80664062 67.04882812 C11.53771527 67.03702695 8.26888009 67.02056297 5 67 C5.01571045 67.81678223 5.0314209 68.63356445 5.04760742 69.47509766 C5.1101394 73.19166077 5.14904944 76.90811296 5.1875 80.625 C5.21263672 81.91019531 5.23777344 83.19539063 5.26367188 84.51953125 C5.27333984 85.76347656 5.28300781 87.00742187 5.29296875 88.2890625 C5.3086792 89.43068848 5.32438965 90.57231445 5.34057617 91.74853516 C4.81746888 96.74261606 3.14894076 99.96315102 -0.5625 103.3125 C-5.27751551 106.57674151 -9.35874339 106.63258331 -15 106 C-19.39306533 103.76353038 -22.98601646 101.09031856 -24.56811523 96.26855469 C-25.11839064 93.37813124 -25.11153647 90.64573078 -25.09765625 87.703125 C-25.09443359 86.49785156 -25.09121094 85.29257812 -25.08789062 84.05078125 C-25.07532227 82.16939453 -25.07532227 82.16939453 -25.0625 80.25 C-25.05798828 78.98027344 -25.05347656 77.71054687 -25.04882812 76.40234375 C-25.03704556 73.26818164 -25.02059416 70.13411459 -25 67 C-25.81154541 67.02094727 -26.62309082 67.04189453 -27.45922852 67.06347656 C-31.16019142 67.14697084 -34.86095566 67.19876755 -38.5625 67.25 C-39.83931641 67.28351563 -41.11613281 67.31703125 -42.43164062 67.3515625 C-54.39922402 67.47590103 -54.39922402 67.47590103 -60 63 C-63.19953808 59.58950337 -64.80636564 56.08435244 -65.625 51.5 C-64.65438992 46.06458353 -62.32785661 41.71929591 -57.84179688 38.40600586 C-54.3222975 36.66470028 -51.86536293 36.65703792 -47.94921875 36.70703125 C-47.29041214 36.71127609 -46.63160553 36.71552094 -45.95283508 36.71989441 C-43.86396115 36.73658804 -41.77607861 36.77421942 -39.6875 36.8125 C-38.26498797 36.82755903 -36.8424607 36.84124531 -35.41992188 36.85351562 C-31.94629649 36.88645997 -28.47324513 36.93817592 -25 37 C-25.02094727 36.15816162 -25.04189453 35.31632324 -25.06347656 34.44897461 C-25.13202962 31.29748648 -25.18198263 28.14638094 -25.21972656 24.99438477 C-25.23972628 23.63553287 -25.26693576 22.27676576 -25.30175781 20.91821289 C-25.65138755 6.9175986 -25.65138755 6.9175986 -21 1 C-14.98768512 -4.6365452 -6.74952777 -4.34969567 0 0 Z " fill="#FEB254" transform="translate(401,348)"/>
<path d="M0 0 C1.41823544 -0.00542621 2.83646524 -0.01255167 4.25468445 -0.02124023 C8.09153604 -0.03941756 11.9279556 -0.03242949 15.76481438 -0.01972389 C19.78808597 -0.00956707 23.81132161 -0.018997 27.83459473 -0.02526855 C34.58982963 -0.03253718 41.34488937 -0.02297796 48.10009766 -0.00390625 C55.89996647 0.01786109 63.699417 0.01080916 71.49927568 -0.01121187 C78.20693802 -0.02938834 84.91447474 -0.03191325 91.62215376 -0.0214572 C95.62360454 -0.01523456 99.62485898 -0.01435256 103.626297 -0.02760315 C107.38904627 -0.03919392 111.15125846 -0.03107785 114.91394997 -0.00802612 C116.94622188 -0.00025059 118.97853943 -0.01206735 121.01078796 -0.02453613 C127.8760187 0.03895812 132.46680772 0.30611087 138.00585938 4.51757812 C140.96612426 7.63364642 142.24986125 11.25644806 142.50585938 15.51757812 C142.24986125 19.77870819 140.96612426 23.40150983 138.00585938 26.51757812 C131.44046422 31.5133216 124.91910319 31.09909719 116.93579102 31.06689453 C115.50932248 31.07559864 114.08286329 31.08596823 112.65641785 31.09786987 C108.79680805 31.12456615 104.93759093 31.12581691 101.07790685 31.12074327 C97.84983646 31.11859829 94.62184463 31.12838462 91.39379114 31.13795412 C83.77556942 31.16011507 76.15754496 31.16103565 68.53930664 31.14892578 C60.69274167 31.13684438 52.84689379 31.16147828 45.00045115 31.20406592 C38.2511499 31.23934507 31.50207645 31.25129342 24.75268644 31.24479043 C20.72704167 31.24117207 16.7019086 31.24636211 12.67634773 31.27421951 C8.8896141 31.2994458 5.10399522 31.29542625 1.31727791 31.26939774 C-0.06778344 31.26468193 -1.45292411 31.27007968 -2.83789444 31.28664398 C-10.40778683 31.37061292 -15.75709315 31.14909735 -21.59685612 26.02972984 C-25.22030379 22.10840774 -25.44814567 17.87778625 -25.30273438 12.72851562 C-24.62097246 7.84399355 -21.98954288 5.2828852 -18.21643066 2.38195801 C-12.58878967 -0.69494225 -6.23960382 -0.03828285 0 0 Z " fill="#5B6BAC" transform="translate(98.994140625,400.482421875)"/>
<path d="M0 0 C1.41823544 -0.00542621 2.83646524 -0.01255167 4.25468445 -0.02124023 C8.09153604 -0.03941756 11.9279556 -0.03242949 15.76481438 -0.01972389 C19.78808597 -0.00956707 23.81132161 -0.018997 27.83459473 -0.02526855 C34.58982963 -0.03253718 41.34488937 -0.02297796 48.10009766 -0.00390625 C55.89996647 0.01786109 63.699417 0.01080916 71.49927568 -0.01121187 C78.20693802 -0.02938834 84.91447474 -0.03191325 91.62215376 -0.0214572 C95.62360454 -0.01523456 99.62485898 -0.01435256 103.626297 -0.02760315 C107.38904627 -0.03919392 111.15125846 -0.03107785 114.91394997 -0.00802612 C116.94622188 -0.00025059 118.97853943 -0.01206735 121.01078796 -0.02453613 C127.8760187 0.03895812 132.46680772 0.30611087 138.00585938 4.51757812 C140.96612426 7.63364642 142.24986125 11.25644806 142.50585938 15.51757812 C142.24986125 19.77870819 140.96612426 23.40150983 138.00585938 26.51757812 C131.44046422 31.5133216 124.91910319 31.09909719 116.93579102 31.06689453 C115.50932248 31.07559864 114.08286329 31.08596823 112.65641785 31.09786987 C108.79680805 31.12456615 104.93759093 31.12581691 101.07790685 31.12074327 C97.84983646 31.11859829 94.62184463 31.12838462 91.39379114 31.13795412 C83.77556942 31.16011507 76.15754496 31.16103565 68.53930664 31.14892578 C60.69274167 31.13684438 52.84689379 31.16147828 45.00045115 31.20406592 C38.2511499 31.23934507 31.50207645 31.25129342 24.75268644 31.24479043 C20.72704167 31.24117207 16.7019086 31.24636211 12.67634773 31.27421951 C8.8896141 31.2994458 5.10399522 31.29542625 1.31727791 31.26939774 C-0.06778344 31.26468193 -1.45292411 31.27007968 -2.83789444 31.28664398 C-10.40778683 31.37061292 -15.75709315 31.14909735 -21.59685612 26.02972984 C-25.22030379 22.10840774 -25.44814567 17.87778625 -25.30273438 12.72851562 C-24.62097246 7.84399355 -21.98954288 5.2828852 -18.21643066 2.38195801 C-12.58878967 -0.69494225 -6.23960382 -0.03828285 0 0 Z " fill="#5B6BAC" transform="translate(98.994140625,340.482421875)"/>
<path d="M0 0 C1.41823544 -0.00542621 2.83646524 -0.01255167 4.25468445 -0.02124023 C8.09153604 -0.03941756 11.9279556 -0.03242949 15.76481438 -0.01972389 C19.78808597 -0.00956707 23.81132161 -0.018997 27.83459473 -0.02526855 C34.58982963 -0.03253718 41.34488937 -0.02297796 48.10009766 -0.00390625 C55.89996647 0.01786109 63.699417 0.01080916 71.49927568 -0.01121187 C78.20693802 -0.02938834 84.91447474 -0.03191325 91.62215376 -0.0214572 C95.62360454 -0.01523456 99.62485898 -0.01435256 103.626297 -0.02760315 C107.38904627 -0.03919392 111.15125846 -0.03107785 114.91394997 -0.00802612 C116.94622188 -0.00025059 118.97853943 -0.01206735 121.01078796 -0.02453613 C127.8760187 0.03895812 132.46680772 0.30611087 138.00585938 4.51757812 C140.96612426 7.63364642 142.24986125 11.25644806 142.50585938 15.51757812 C142.24986125 19.77870819 140.96612426 23.40150983 138.00585938 26.51757812 C131.44046422 31.5133216 124.91910319 31.09909719 116.93579102 31.06689453 C115.50932248 31.07559864 114.08286329 31.08596823 112.65641785 31.09786987 C108.79680805 31.12456615 104.93759093 31.12581691 101.07790685 31.12074327 C97.84983646 31.11859829 94.62184463 31.12838462 91.39379114 31.13795412 C83.77556942 31.16011507 76.15754496 31.16103565 68.53930664 31.14892578 C60.69274167 31.13684438 52.84689379 31.16147828 45.00045115 31.20406592 C38.2511499 31.23934507 31.50207645 31.25129342 24.75268644 31.24479043 C20.72704167 31.24117207 16.7019086 31.24636211 12.67634773 31.27421951 C8.8896141 31.2994458 5.10399522 31.29542625 1.31727791 31.26939774 C-0.06778344 31.26468193 -1.45292411 31.27007968 -2.83789444 31.28664398 C-10.40778683 31.37061292 -15.75709315 31.14909735 -21.59685612 26.02972984 C-25.22030379 22.10840774 -25.44814567 17.87778625 -25.30273438 12.72851562 C-24.62097246 7.84399355 -21.98954288 5.2828852 -18.21643066 2.38195801 C-12.58878967 -0.69494225 -6.23960382 -0.03828285 0 0 Z " fill="#5B6BAC" transform="translate(98.994140625,280.482421875)"/>
<path d="M0 0 C14.87322013 -0.09038301 29.74629909 -0.16402998 44.61972904 -0.20724869 C51.52612724 -0.22785157 58.43234237 -0.25592825 65.33862305 -0.30175781 C72.0040838 -0.34596813 78.66931511 -0.36914077 85.33492851 -0.37950897 C87.87743561 -0.38689744 90.41993235 -0.40132531 92.96235847 -0.42292023 C96.52469462 -0.4519736 100.086246 -0.45595502 103.64868164 -0.45410156 C104.69884964 -0.46848267 105.74901764 -0.48286377 106.83100891 -0.49768066 C113.1153591 -0.46232075 116.86233555 0.31007844 122 4 C125.07121542 7.23285833 125.93873751 10.57116257 126.5625 14.9375 C126.29579744 19.66457303 124.24442718 23.59712405 121 27 C115.41575429 30.69279163 110.21525497 30.40662655 103.76220703 30.34057617 C102.63967026 30.34101425 101.51713348 30.34145233 100.36058044 30.34190369 C96.65947934 30.33981786 92.95883423 30.31649566 89.2578125 30.29296875 C86.68806201 30.28737209 84.11830831 30.28310232 81.54855347 30.28010559 C75.48191208 30.26983131 69.41545817 30.2462001 63.34888732 30.21605712 C56.43959194 30.18247524 49.5302886 30.16601762 42.62093186 30.15097082 C28.41385278 30.11964924 14.20696557 30.06465247 0 30 C0 20.1 0 10.2 0 0 Z " fill="#203F7C" transform="translate(200,221)"/>
<path d="M0 0 C14.87322013 -0.09038301 29.74629909 -0.16402998 44.61972904 -0.20724869 C51.52612724 -0.22785157 58.43234237 -0.25592825 65.33862305 -0.30175781 C72.0040838 -0.34596813 78.66931511 -0.36914077 85.33492851 -0.37950897 C87.87743561 -0.38689744 90.41993235 -0.40132531 92.96235847 -0.42292023 C96.52469462 -0.4519736 100.086246 -0.45595502 103.64868164 -0.45410156 C104.69884964 -0.46848267 105.74901764 -0.48286377 106.83100891 -0.49768066 C113.1153591 -0.46232075 116.86233555 0.31007844 122 4 C125.07121542 7.23285833 125.93873751 10.57116257 126.5625 14.9375 C126.29579744 19.66457303 124.24442718 23.59712405 121 27 C115.41575429 30.69279163 110.21525497 30.40662655 103.76220703 30.34057617 C102.63967026 30.34101425 101.51713348 30.34145233 100.36058044 30.34190369 C96.65947934 30.33981786 92.95883423 30.31649566 89.2578125 30.29296875 C86.68806201 30.28737209 84.11830831 30.28310232 81.54855347 30.28010559 C75.48191208 30.26983131 69.41545817 30.2462001 63.34888732 30.21605712 C56.43959194 30.18247524 49.5302886 30.16601762 42.62093186 30.15097082 C28.41385278 30.11964924 14.20696557 30.06465247 0 30 C0 20.1 0 10.2 0 0 Z " fill="#203F7C" transform="translate(200,161)"/>
<path d="M0 0 C0 35.97 0 71.94 0 109 C-6.8866289 108.01619587 -8.4653844 107.74552796 -13 103 C-14.78477709 98.72241639 -15.23923467 95.1196403 -15.1953125 90.5078125 C-15.18886719 89.30898438 -15.18242187 88.11015625 -15.17578125 86.875 C-15.15902344 85.6375 -15.14226562 84.4 -15.125 83.125 C-15.11597656 81.86429687 -15.10695313 80.60359375 -15.09765625 79.3046875 C-15.07415808 76.2029296 -15.04130334 73.10156348 -15 70 C-15.81154541 70.02094727 -16.62309082 70.04189453 -17.45922852 70.06347656 C-21.16019142 70.14697084 -24.86095566 70.19876755 -28.5625 70.25 C-29.83931641 70.28351563 -31.11613281 70.31703125 -32.43164062 70.3515625 C-44.39922402 70.47590103 -44.39922402 70.47590103 -50 66 C-53.19953808 62.58950337 -54.80636564 59.08435244 -55.625 54.5 C-54.65438992 49.06458353 -52.32785661 44.71929591 -47.84179688 41.40600586 C-44.3222975 39.66470028 -41.86536293 39.65703792 -37.94921875 39.70703125 C-37.29041214 39.71127609 -36.63160553 39.71552094 -35.95283508 39.71989441 C-33.86396115 39.73658804 -31.77607861 39.77421942 -29.6875 39.8125 C-28.26498797 39.82755903 -26.8424607 39.84124531 -25.41992188 39.85351562 C-21.94629649 39.88645997 -18.47324513 39.93817592 -15 40 C-15.02094727 39.15816162 -15.04189453 38.31632324 -15.06347656 37.44897461 C-15.13202962 34.29748648 -15.18198263 31.14638094 -15.21972656 27.99438477 C-15.23972628 26.63553287 -15.26693576 25.27676576 -15.30175781 23.91821289 C-15.65138755 9.9175986 -15.65138755 9.9175986 -11 4 C-7.55800013 0.77312512 -4.64937933 0 0 0 Z " fill="#FEE077" transform="translate(391,345)"/>
<path d="M0 0 C4.805625 -0.0825 9.61125 -0.165 14.5625 -0.25 C16.06498291 -0.28641602 17.56746582 -0.32283203 19.11547852 -0.36035156 C31.51623249 -0.46353169 31.51623249 -0.46353169 37 4 C39.96026488 7.1160683 41.24400188 10.73886994 41.5 15 C41.24400188 19.26113006 39.96026488 22.8839317 37 26 C30.2849104 31.4657706 22.86313701 30.4511844 14.5625 30.25 C9.756875 30.1675 4.95125 30.085 0 30 C0 20.1 0 10.2 0 0 Z " fill="#203F7C" transform="translate(200,401)"/>
<path d="M0 0 C4.805625 -0.0825 9.61125 -0.165 14.5625 -0.25 C16.06498291 -0.28641602 17.56746582 -0.32283203 19.11547852 -0.36035156 C31.51623249 -0.46353169 31.51623249 -0.46353169 37 4 C39.96026488 7.1160683 41.24400188 10.73886994 41.5 15 C41.24400188 19.26113006 39.96026488 22.8839317 37 26 C30.2849104 31.4657706 22.86313701 30.4511844 14.5625 30.25 C9.756875 30.1675 4.95125 30.085 0 30 C0 20.1 0 10.2 0 0 Z " fill="#203F7C" transform="translate(200,341)"/>
<path d="M0 0 C4.805625 -0.0825 9.61125 -0.165 14.5625 -0.25 C16.06498291 -0.28641602 17.56746582 -0.32283203 19.11547852 -0.36035156 C31.51623249 -0.46353169 31.51623249 -0.46353169 37 4 C39.96026488 7.1160683 41.24400188 10.73886994 41.5 15 C41.24400188 19.26113006 39.96026488 22.8839317 37 26 C30.2849104 31.4657706 22.86313701 30.4511844 14.5625 30.25 C9.756875 30.1675 4.95125 30.085 0 30 C0 20.1 0 10.2 0 0 Z " fill="#203F7C" transform="translate(200,281)"/>
</svg>
