<?xml version="1.0" encoding="UTF-8"?>
<svg version="1.1" xmlns="http://www.w3.org/2000/svg" width="512" height="512">
<path d="M0 0 C1.08391525 -0.0098568 1.08391525 -0.0098568 2.18972778 -0.01991272 C4.56862508 -0.03954056 6.9474597 -0.05128199 9.32641602 -0.0612793 C10.54946788 -0.06739259 10.54946788 -0.06739259 11.79722786 -0.07362938 C16.10944486 -0.09444089 20.42163046 -0.10876625 24.73388672 -0.11816406 C29.18039522 -0.12924475 33.62640557 -0.16367748 38.07273769 -0.20333576 C41.50003477 -0.22950039 44.92721274 -0.23785552 48.35460091 -0.24144554 C49.99362634 -0.24630845 51.63264656 -0.25791409 53.27157402 -0.27648354 C55.56686773 -0.30088283 57.86086579 -0.29990976 60.15625 -0.29296875 C61.46021225 -0.29883499 62.7641745 -0.30470123 64.10765076 -0.31074524 C68.34724805 0.27419149 70.47206354 1.31049166 73.64282227 4.17700195 C73.97282227 6.15700195 74.30282227 8.13700195 74.64282227 10.17700195 C81.90282227 10.17700195 89.16282227 10.17700195 96.64282227 10.17700195 C96.97282227 8.19700195 97.30282227 6.21700195 97.64282227 4.17700195 C100.62008229 1.54593496 102.71909208 0.33095698 106.64282227 -0.32299805 C110.56655245 0.33095698 112.66556225 1.54593496 115.64282227 4.17700195 C115.97282227 6.15700195 116.30282227 8.13700195 116.64282227 10.17700195 C123.24282227 10.17700195 129.84282227 10.17700195 136.64282227 10.17700195 C136.97282227 8.19700195 137.30282227 6.21700195 137.64282227 4.17700195 C142.00509304 0.2297511 145.43146582 -0.32397973 151.2019043 -0.32470703 C151.93452988 -0.33011002 152.66715546 -0.335513 153.42198181 -0.34107971 C155.83195052 -0.35353352 158.24071576 -0.33708971 160.65063477 -0.3190918 C162.33967145 -0.31924696 164.02870849 -0.32073887 165.71774292 -0.32350159 C169.25673178 -0.32488443 172.79531485 -0.31235494 176.33422852 -0.28955078 C180.83951562 -0.26129717 185.3441223 -0.26386934 189.84945869 -0.27664089 C193.33966734 -0.28364811 196.82972288 -0.2757496 200.31991196 -0.26338387 C201.97905766 -0.25890887 203.63822006 -0.25849746 205.2973671 -0.26244926 C222.210787 -0.28386233 235.86820859 2.31219933 248.76000977 14.1340332 C258.4014406 24.59558575 261.86882564 36.64163805 261.70532227 50.55200195 C261.70081055 51.28805664 261.69629883 52.02411133 261.69165039 52.7824707 C261.67997368 54.58068353 261.66204238 56.37885393 261.64282227 58.17700195 C262.23708008 58.31235352 262.83133789 58.44770508 263.44360352 58.5871582 C275.4991698 61.71823063 284.75195789 68.33124035 291.33032227 78.8840332 C296.61668079 88.17328341 297.94281928 95.42419067 297.94921875 105.99975586 C297.95754227 107.17292862 297.96586578 108.34610138 297.97444153 109.55482483 C297.99847933 113.42110537 298.00730403 117.2872172 298.01391602 121.15356445 C298.01807826 122.48920152 298.0225309 123.82483772 298.02726936 125.16047287 C298.05171271 132.14939209 298.06480676 139.1382375 298.06835938 146.12719727 C298.07200113 152.63431482 298.10195468 159.14096264 298.14376396 165.64793646 C298.17846043 171.24472878 298.19390761 176.84136512 298.19460541 182.43826425 C298.19539783 185.77701173 298.20649062 189.11489668 298.23260307 192.45360184 C298.25939586 196.17383399 298.25472782 199.89275843 298.2421875 203.61303711 C298.26443893 205.26673561 298.26443893 205.26673561 298.28713989 206.95384216 C298.27737625 207.96871201 298.26761261 208.98358185 298.2575531 210.02920532 C298.25956443 210.90780024 298.26157576 211.78639515 298.26364803 212.69161415 C297.3531291 216.33674742 295.50002352 217.79691229 292.64282227 220.17700195 C289.64230824 220.80374777 289.64230824 220.80374777 286.23188782 220.80620766 C284.92919291 220.81924639 283.62649801 220.83228513 282.28432751 220.84571898 C280.84042709 220.83490889 279.39653015 220.82362562 277.95263672 220.81192017 C276.41744976 220.81768079 274.88226969 220.82562152 273.34710407 220.83555639 C269.12648118 220.8564614 264.90642234 220.8460982 260.68579721 220.8306253 C256.13492383 220.81933056 251.58414867 220.83676515 247.03329468 220.8505249 C238.11738842 220.87278195 229.20169237 220.86794515 220.28577781 220.8534617 C213.040975 220.84217915 205.79623119 220.84063429 198.55142212 220.84608078 C197.5211088 220.84684695 196.49079548 220.84761311 195.42926055 220.84840249 C193.33633286 220.85000109 191.24340519 220.85162215 189.15047753 220.85326545 C169.51561992 220.86753018 149.88087895 220.85111886 130.24604046 220.82426362 C113.39093795 220.80192419 96.53600761 220.80580412 79.6809082 220.82885742 C60.11730075 220.85560264 40.55379557 220.86615681 20.99017239 220.8507961 C18.90485574 220.84920332 16.81953909 220.84763147 14.73422241 220.84608078 C13.70815189 220.8453094 12.68208137 220.84453802 11.62491781 220.84374327 C4.38709679 220.83942244 -2.85065947 220.84672109 -10.08847046 220.85847855 C-18.90652942 220.87248788 -27.72436578 220.86873663 -36.54239917 220.84207483 C-41.04332022 220.8289155 -45.54386988 220.82382012 -50.04478836 220.84032059 C-54.16291888 220.85518964 -58.2803328 220.847083 -62.39839804 220.82043283 C-63.89024508 220.81483483 -65.38215233 220.81771787 -66.87396085 220.82981177 C-68.89801356 220.8449653 -70.92223523 220.82646605 -72.94624329 220.80620766 C-74.07168202 220.8053959 -75.19712076 220.80458413 -76.3566637 220.80374777 C-80.31831646 219.97623979 -81.83158989 218.26575746 -84.35717773 215.17700195 C-84.98359013 212.7027874 -84.98359013 212.7027874 -84.98536682 210.05612183 C-84.99802078 209.04703262 -85.01067474 208.03794342 -85.02371216 206.99827576 C-85.00617386 205.35400352 -85.00617386 205.35400352 -84.98828125 203.67651367 C-84.99543655 202.51327072 -85.00259186 201.35002777 -85.00996399 200.15153503 C-85.02688217 196.30285448 -85.00742085 192.4553341 -84.98608398 188.60668945 C-84.98691272 185.92732186 -84.98931731 183.24799451 -84.99339294 180.56863403 C-84.99791287 174.94804566 -84.98206008 169.32779012 -84.95410156 163.70727539 C-84.92214325 157.23328261 -84.92202911 150.75989312 -84.93931633 144.28585804 C-84.95525981 138.03715666 -84.94839196 131.78867385 -84.93137932 125.53998184 C-84.92621334 122.89196386 -84.92665996 120.24392854 -84.93292427 117.59591293 C-84.93840987 113.88152242 -84.9178884 110.16813366 -84.890625 106.45385742 C-84.89715088 105.36982132 -84.90367676 104.28578522 -84.91040039 103.16889954 C-84.75448385 90.59691765 -79.89633918 79.53532401 -71.54858398 70.1418457 C-65.26154563 64.19464726 -56.94800526 59.52766222 -48.35717773 58.17700195 C-48.39198242 57.17282227 -48.42678711 56.16864258 -48.46264648 55.1340332 C-48.78764172 41.78296643 -47.42496222 30.27735791 -39.35717773 19.17700195 C-38.8428418 18.46801758 -38.32850586 17.7590332 -37.79858398 17.02856445 C-28.40822515 5.27372677 -14.68062657 0.11089843 0 0 Z " fill="#000000" transform="translate(214.357177734375,227.822998046875)"/>
<path d="M0 0 C1.35308436 -0.00657338 1.35308436 -0.00657338 2.73350376 -0.01327956 C5.76878466 -0.02667848 8.80403652 -0.03284893 11.83934021 -0.03897095 C14.01072318 -0.04687116 16.18210484 -0.05514006 18.35348511 -0.06375122 C25.49646244 -0.08998446 32.63944567 -0.10528189 39.78245544 -0.11953735 C42.24103741 -0.12489682 44.69961933 -0.13027433 47.15820122 -0.13566971 C57.38627521 -0.15730187 67.61434761 -0.176038 77.8424387 -0.1872921 C92.50070439 -0.20352651 107.15860154 -0.23668819 121.81676728 -0.29369295 C132.12263129 -0.33240481 142.42842439 -0.35192639 152.7343592 -0.35721266 C158.88950985 -0.36086486 165.04437762 -0.37287244 171.19944954 -0.4053154 C176.99350778 -0.43541689 182.7871123 -0.4417001 188.58123207 -0.42993164 C190.70401451 -0.42971107 192.82681812 -0.43800216 194.94952774 -0.45558548 C215.35015738 -0.61532761 215.35015738 -0.61532761 223.27854919 5.15390015 C224.63979919 5.98921265 224.63979919 5.98921265 226.02854919 6.84140015 C231.44124047 12.40444395 235.38313423 19.25626358 235.43244934 27.07896423 C235.4410498 28.09516342 235.44965027 29.11136261 235.45851135 30.15835571 C235.46490128 31.82979645 235.46490128 31.82979645 235.47142029 33.53500366 C235.47959778 34.70931442 235.48777527 35.88362518 235.49620056 37.09352112 C235.5210646 40.98993574 235.53773081 44.88634271 235.55198669 48.7828064 C235.55734858 50.12698816 235.56272609 51.47116985 235.56811905 52.81535149 C235.58974848 58.41110714 235.60848105 64.00685996 235.61974144 69.60264683 C235.63595251 77.60466726 235.66905943 85.60619997 235.72614229 93.60803658 C235.76495946 99.24302616 235.78438828 104.87788598 235.789662 110.51300567 C235.79330117 113.8738019 235.80769782 117.23366631 235.83776474 120.59439278 C235.86946094 124.35231397 235.86944501 128.10901456 235.86204529 131.86703491 C235.87845062 132.96715912 235.89485596 134.06728333 235.91175842 135.20074463 C235.84181415 143.91121978 233.06955296 149.60559771 228.59104919 156.90390015 C216.62039325 168.55102485 201.75244504 167.44751026 186.20823669 167.41268921 C184.17375056 167.41540228 182.13926541 167.41896498 180.1047821 167.42330933 C174.60072147 167.43239799 169.09673614 167.42890361 163.59267426 167.42255116 C157.82113447 167.41747291 152.04960096 167.42218768 146.27806091 167.42532349 C136.58745674 167.42895781 126.8968831 167.42417802 117.20628357 167.41464233 C106.0170516 167.40375883 94.82789254 167.40728478 83.63866234 167.41829515 C74.01629705 167.42738321 64.39395366 167.42864586 54.77158546 167.42341781 C49.03136119 167.42030647 43.29117114 167.41986576 37.5509491 167.42649078 C32.15332899 167.43228571 26.75580249 167.42822809 21.35819244 167.41670227 C19.38216558 167.41406716 17.40613078 167.41480105 15.43010712 167.4192276 C-11.08825469 167.47313648 -11.08825469 167.47313648 -21.72145081 159.15390015 C-29.50982649 151.07038602 -31.17039521 143.21142023 -31.14137268 132.31869507 C-31.14984222 131.1438002 -31.15831177 129.96890533 -31.16703796 128.75840759 C-31.19039131 124.88361717 -31.19143038 121.00922431 -31.19020081 117.1343689 C-31.19465676 115.11622892 -31.20082109 113.09809865 -31.20706797 111.07996351 C-31.22626888 104.73697782 -31.22919842 98.39412372 -31.22242737 92.05111694 C-31.21579289 85.5293073 -31.23863391 79.00806412 -31.2757411 72.48636931 C-31.30653544 66.86825107 -31.31778754 61.25031412 -31.31390429 55.63211328 C-31.31184625 52.28485437 -31.31943324 48.93838614 -31.34179688 45.59114647 C-31.36402372 41.85274205 -31.35426295 38.1156901 -31.33668518 34.37728882 C-31.34994843 33.28344879 -31.36321167 32.18960876 -31.37687683 31.06262207 C-31.28244579 22.38383289 -28.49743096 16.67771966 -24.03395081 9.40390015 C-16.96125493 2.52235822 -9.65662567 0.00566668 0 0 Z " fill="#F1F3FE" transform="translate(276.72145080566406,-0.153900146484375)"/>
<path d="M0 0 C0.88842087 -0.00861557 1.77684174 -0.01723114 2.69218445 -0.02610779 C5.62329403 -0.04877443 8.55344802 -0.04202736 11.48461914 -0.03295898 C13.52576481 -0.03819446 15.56690805 -0.04447065 17.60804749 -0.05174255 C21.884322 -0.06214821 26.1602638 -0.0575831 30.43652344 -0.04296875 C35.91227677 -0.02578553 41.38698035 -0.04926998 46.86261654 -0.08445835 C51.07746819 -0.10643644 55.29206886 -0.10498976 59.50695992 -0.09669304 C61.52555047 -0.09587366 63.54415948 -0.10273452 65.56269646 -0.11746407 C68.38750271 -0.1349163 71.21042522 -0.12036173 74.03515625 -0.09765625 C74.86599731 -0.10934845 75.69683838 -0.12104065 76.55285645 -0.13308716 C80.57854375 -0.06736752 83.27595683 0.26220407 86.50648499 2.77839661 C88.89103852 5.3289014 90.14933632 7.01729617 91.34204102 10.24536133 C91.69182007 11.1642363 92.04159912 12.08311127 92.40197754 13.02983093 C92.76053833 14.02618057 93.11909912 15.02253021 93.48852539 16.04907227 C93.88672485 17.10878738 94.28492432 18.1685025 94.69519043 19.2603302 C96.00726891 22.76216341 97.29445177 26.27263001 98.58227539 29.78344727 C99.49562032 32.23268769 100.41101806 34.68116349 101.32836914 37.12890625 C102.76501087 40.96248091 104.20060015 44.79641398 105.62841797 48.63328552 C109.07984457 57.90261577 112.60356452 67.14215328 116.17602539 76.36547852 C116.42508133 77.00866657 116.67413727 77.65185463 116.93074036 78.31453323 C118.64584847 82.74247543 120.36389781 87.16927299 122.08227539 91.59594727 C125.08849106 99.34325113 128.08642929 107.09342812 131.05297852 114.85601807 C131.97128968 117.24474886 132.90685284 119.62578221 133.84790039 122.00561523 C134.31711914 123.23038574 134.78633789 124.45515625 135.26977539 125.71704102 C135.84791992 127.19321899 135.84791992 127.19321899 136.43774414 128.69921875 C137.25428153 132.28981822 136.89903869 134.95931844 136.08227539 138.53344727 C133.32426524 141.96232476 131.39285274 143.79254969 127.08227539 144.53344727 C125.22788364 144.62172039 123.37058986 144.65544007 121.51409912 144.65370178 C120.38110382 144.65507645 119.24810852 144.65645111 118.08078003 144.65786743 C116.22285324 144.65247452 116.22285324 144.65247452 114.32739258 144.64697266 C113.01983002 144.64711868 111.71226746 144.64726471 110.36508179 144.64741516 C106.78277452 144.64770205 103.20050074 144.64182276 99.61820126 144.6348412 C95.8732565 144.6285897 92.12831098 144.62800244 88.38336182 144.6268158 C81.29321097 144.62370779 74.20307555 144.61550153 67.11293149 144.60546631 C59.04044306 144.59428872 50.96795389 144.58879057 42.89545965 144.58377087 C26.29105587 144.57331849 9.6866676 144.55572929 -6.91772461 144.53344727 C-6.90884216 145.12369186 -6.89995972 145.71393646 -6.89080811 146.32206726 C-6.80225453 152.47014677 -6.74195713 158.61804485 -6.69799805 164.76660156 C-6.67789355 167.06062174 -6.6506057 169.35459075 -6.6159668 171.6484375 C-6.56739901 174.94747553 -6.54474384 178.24583549 -6.52709961 181.54516602 C-6.50645447 182.56930099 -6.48580933 183.59343597 -6.46453857 184.64860535 C-6.46229432 191.78432883 -6.46229432 191.78432883 -8.81713867 195.65771484 C-12.10558412 198.59415445 -14.46048471 198.86658126 -18.87866211 198.82641602 C-22.04907028 198.3708976 -23.73696481 196.78029069 -25.91772461 194.53344727 C-27.12659751 192.11570146 -27.03831804 190.60013662 -27.03125 187.90014648 C-27.03117447 186.93930145 -27.03109894 185.97845642 -27.03102112 184.98849487 C-27.02585983 183.94887604 -27.02069855 182.9092572 -27.01538086 181.83813477 C-27.01396591 180.7755545 -27.01255096 179.71297424 -27.01109314 178.61819458 C-27.00548295 175.21491717 -26.9929287 171.81170488 -26.98022461 168.40844727 C-26.97521092 166.1050628 -26.97064779 163.8016773 -26.96655273 161.49829102 C-26.9555102 155.84332078 -26.93876212 150.18838867 -26.91772461 144.53344727 C-27.66868408 144.54915771 -28.41964355 144.56486816 -29.19335938 144.58105469 C-32.62223672 144.64372484 -36.05099316 144.68253987 -39.48022461 144.72094727 C-40.66165039 144.74608398 -41.84307617 144.7712207 -43.06030273 144.79711914 C-49.42143631 144.85057404 -54.39358244 144.85722986 -59.91772461 141.53344727 C-62.80139683 137.20793893 -62.4928358 133.61337748 -61.91772461 128.53344727 C-60.85813939 124.52942916 -59.36351284 120.75126935 -57.80834961 116.91625977 C-57.37399597 115.80551086 -56.93964233 114.69476196 -56.49212646 113.550354 C-55.31131406 110.53883681 -54.11604849 107.53357332 -52.91424561 104.53038788 C-51.65669818 101.37702165 -50.41863077 98.21603599 -49.17944336 95.05541992 C-47.64367836 91.14153732 -46.10629707 87.22832869 -44.56066895 83.31832886 C-39.69028905 70.99653481 -34.93653918 58.63131868 -30.1998291 46.25750732 C-27.44882749 39.07145526 -24.6945103 31.8867794 -21.91381836 24.7121582 C-20.64950762 21.44882503 -19.41201459 18.17794712 -18.20288086 14.89379883 C-17.69128602 13.53665576 -17.17957674 12.17955582 -16.66772461 10.82250977 C-16.25006836 9.68765137 -15.83241211 8.55279297 -15.40209961 7.38354492 C-11.78622778 0.44083312 -7.14078919 -0.05595134 0 0 Z " fill="#000000" transform="translate(61.917724609375,-0.533447265625)"/>
<path d="M0 0 C1.35308436 -0.00657338 1.35308436 -0.00657338 2.73350376 -0.01327956 C5.76878466 -0.02667848 8.80403652 -0.03284893 11.83934021 -0.03897095 C14.01072318 -0.04687116 16.18210484 -0.05514006 18.35348511 -0.06375122 C25.49646244 -0.08998446 32.63944567 -0.10528189 39.78245544 -0.11953735 C42.24103741 -0.12489682 44.69961933 -0.13027433 47.15820122 -0.13566971 C57.38627521 -0.15730187 67.61434761 -0.176038 77.8424387 -0.1872921 C92.50070439 -0.20352651 107.15860154 -0.23668819 121.81676728 -0.29369295 C132.12263129 -0.33240481 142.42842439 -0.35192639 152.7343592 -0.35721266 C158.88950985 -0.36086486 165.04437762 -0.37287244 171.19944954 -0.4053154 C176.99350778 -0.43541689 182.7871123 -0.4417001 188.58123207 -0.42993164 C190.70401451 -0.42971107 192.82681812 -0.43800216 194.94952774 -0.45558548 C215.35015738 -0.61532761 215.35015738 -0.61532761 223.27854919 5.15390015 C224.63979919 5.98921265 224.63979919 5.98921265 226.02854919 6.84140015 C231.44124047 12.40444395 235.38313423 19.25626358 235.43244934 27.07896423 C235.4410498 28.09516342 235.44965027 29.11136261 235.45851135 30.15835571 C235.46490128 31.82979645 235.46490128 31.82979645 235.47142029 33.53500366 C235.47959778 34.70931442 235.48777527 35.88362518 235.49620056 37.09352112 C235.5210646 40.98993574 235.53773081 44.88634271 235.55198669 48.7828064 C235.55734858 50.12698816 235.56272609 51.47116985 235.56811905 52.81535149 C235.58974848 58.41110714 235.60848105 64.00685996 235.61974144 69.60264683 C235.63595251 77.60466726 235.66905943 85.60619997 235.72614229 93.60803658 C235.76495946 99.24302616 235.78438828 104.87788598 235.789662 110.51300567 C235.79330117 113.8738019 235.80769782 117.23366631 235.83776474 120.59439278 C235.86946094 124.35231397 235.86944501 128.10901456 235.86204529 131.86703491 C235.87845062 132.96715912 235.89485596 134.06728333 235.91175842 135.20074463 C235.84181415 143.91121978 233.06955296 149.60559771 228.59104919 156.90390015 C216.62039325 168.55102485 201.75244504 167.44751026 186.20823669 167.41268921 C184.17375056 167.41540228 182.13926541 167.41896498 180.1047821 167.42330933 C174.60072147 167.43239799 169.09673614 167.42890361 163.59267426 167.42255116 C157.82113447 167.41747291 152.04960096 167.42218768 146.27806091 167.42532349 C136.58745674 167.42895781 126.8968831 167.42417802 117.20628357 167.41464233 C106.0170516 167.40375883 94.82789254 167.40728478 83.63866234 167.41829515 C74.01629705 167.42738321 64.39395366 167.42864586 54.77158546 167.42341781 C49.03136119 167.42030647 43.29117114 167.41986576 37.5509491 167.42649078 C32.15332899 167.43228571 26.75580249 167.42822809 21.35819244 167.41670227 C19.38216558 167.41406716 17.40613078 167.41480105 15.43010712 167.4192276 C-11.08825469 167.47313648 -11.08825469 167.47313648 -21.72145081 159.15390015 C-29.50982649 151.07038602 -31.17039521 143.21142023 -31.14137268 132.31869507 C-31.14984222 131.1438002 -31.15831177 129.96890533 -31.16703796 128.75840759 C-31.19039131 124.88361717 -31.19143038 121.00922431 -31.19020081 117.1343689 C-31.19465676 115.11622892 -31.20082109 113.09809865 -31.20706797 111.07996351 C-31.22626888 104.73697782 -31.22919842 98.39412372 -31.22242737 92.05111694 C-31.21579289 85.5293073 -31.23863391 79.00806412 -31.2757411 72.48636931 C-31.30653544 66.86825107 -31.31778754 61.25031412 -31.31390429 55.63211328 C-31.31184625 52.28485437 -31.31943324 48.93838614 -31.34179688 45.59114647 C-31.36402372 41.85274205 -31.35426295 38.1156901 -31.33668518 34.37728882 C-31.34994843 33.28344879 -31.36321167 32.18960876 -31.37687683 31.06262207 C-31.28244579 22.38383289 -28.49743096 16.67771966 -24.03395081 9.40390015 C-16.96125493 2.52235822 -9.65662567 0.00566668 0 0 Z M-9.50770569 25.17503357 C-11.34578095 29.68617919 -11.15537233 33.98841108 -11.14137268 38.81576538 C-11.14984222 39.88950409 -11.15831177 40.9632428 -11.16703796 42.06951904 C-11.19042849 45.61729796 -11.19142962 49.16464372 -11.19020081 52.7124939 C-11.19730088 55.17962315 -11.20499965 57.64675074 -11.21327209 60.11387634 C-11.22672149 65.28457225 -11.22828342 70.45511546 -11.22242737 75.62582397 C-11.21652963 82.2516287 -11.24712498 88.87670111 -11.28754425 95.50236416 C-11.31339362 100.59732511 -11.31630115 105.69210906 -11.31265259 110.78712654 C-11.31434627 113.22996932 -11.32401247 115.67282005 -11.34179688 118.11559868 C-11.36393168 121.53177799 -11.35431098 124.94646616 -11.33668518 128.36264038 C-11.34994843 129.37114548 -11.36321167 130.37965057 -11.37687683 131.41871643 C-11.32299349 135.91344844 -11.22230411 139.15486103 -8.37049866 142.76585388 C-4.90606281 145.88895076 -2.56469388 146.27914237 1.92922974 146.27415466 C2.88415314 146.27552933 3.83907654 146.27690399 4.82293701 146.27832031 C5.86878464 146.27472504 6.91463226 146.27112976 7.99217224 146.26742554 C9.09476379 146.26757156 10.19735535 146.26771759 11.33335876 146.26786804 C14.98568169 146.26717017 18.63795391 146.25938359 22.29026794 146.2515564 C24.8194679 146.24969177 27.34866821 146.24826808 29.87786865 146.24726868 C35.85953582 146.24383783 41.84118115 146.23595259 47.82283956 146.22591919 C54.63293421 146.21474402 61.44302973 146.20924406 68.25313127 146.20422375 C82.26161403 146.19376961 96.27008061 146.1761789 110.27854919 146.15390015 C106.42756928 141.54980382 102.43927743 137.17222603 98.18138123 132.94320679 C97.6050444 132.36672394 97.02870758 131.79024109 96.43490601 131.19628906 C94.55442184 129.3164942 92.67043511 127.44025322 90.78636169 125.5640564 C89.47192346 124.25148584 88.15770776 122.93869239 86.84370422 121.62568665 C83.40348408 118.18926413 79.96027026 114.75585677 76.5164032 111.3230896 C72.99518509 107.81214514 69.4768357 104.29832844 65.95823669 100.78475952 C59.06779651 93.90500802 52.17418714 87.02844159 45.27854919 80.15390015 C41.6746294 81.84462613 39.38197963 83.83171425 36.58323669 86.6890564 C35.70280701 87.58044312 34.82237732 88.47182983 33.91526794 89.39022827 C33.00390076 90.32286499 32.09253357 91.25550171 31.15354919 92.21640015 C29.34065305 94.06362181 27.52565561 95.90878435 25.70823669 97.7515564 C24.90627869 98.57148071 24.10432068 99.39140503 23.27806091 100.23617554 C19.991746 103.38806853 17.75232076 103.26988605 13.25120544 103.28671265 C11.27854919 103.15390015 11.27854919 103.15390015 8.27854919 102.15390015 C6.26085142 97.81584994 5.73389623 94.6969971 7.27854919 90.15390015 C12.36548307 83.32328638 18.82716245 77.41907286 24.84080505 71.40634155 C26.47855539 69.76637705 28.10810056 68.11853023 29.73753357 66.4703064 C30.78587273 65.41903732 31.8346839 64.36823867 32.88401794 63.31796265 C33.36638412 62.82841095 33.84875031 62.33885925 34.34573364 61.83447266 C37.90734128 58.29681104 40.3481788 56.26972237 45.40354919 55.96640015 C54.90268208 57.83754611 62.73254191 69.96280421 68.71630955 76.9005146 C107.6720984 126.63678986 107.6720984 126.63678986 162.13617134 151.80694389 C167.59309273 152.10927568 172.9604538 151.90676567 178.40354919 151.46640015 C179.14861851 151.40869068 179.89368782 151.35098122 180.66133499 151.29152298 C199.06986151 150.13843133 199.06986151 150.13843133 214.27854919 141.15390015 C216.42896438 136.85306978 215.7109317 131.30092212 215.79344177 126.57015991 C215.82498799 125.1761408 215.87264875 123.7823863 215.93699646 122.38949585 C216.02899981 120.36854492 216.06716315 118.35241936 216.09495544 116.3296814 C216.14825012 114.5185083 216.14825012 114.5185083 216.20262146 112.67074585 C215.02642717 108.19437101 213.14730098 106.84524714 209.60775757 104.03025818 C207.17693902 102.07204527 204.99665911 99.98621996 202.79026794 97.77914429 C201.61996033 96.60872337 201.61996033 96.60872337 200.42601013 95.41465759 C199.61422302 94.5977092 198.80243591 93.7807608 197.96604919 92.9390564 C197.11172302 92.08331528 196.25739685 91.22757416 195.37718201 90.34590149 C192.67526057 87.63842634 189.9768556 84.92747761 187.27854919 82.21640015 C185.43633343 80.36916339 183.59388776 78.52215588 181.75120544 76.67538452 C177.25765859 72.17087011 172.76698599 67.6635061 168.27854919 63.15390015 C163.88492503 66.83431671 159.69984121 70.61859801 155.66917419 74.70077515 C154.92894012 75.44668915 154.92894012 75.44668915 154.17375183 76.20767212 C152.62284752 77.77062611 151.07529007 79.33682653 149.52854919 80.90390015 C147.47416178 82.98492673 145.41644373 85.06257716 143.35667419 87.13827515 C142.45336365 88.05318726 141.5500531 88.96809937 140.61936951 89.91073608 C137.38716471 93.00809713 135.28889685 94.46389018 130.84104919 94.59140015 C127.39991328 94.4961244 126.52672665 94.34759962 123.71604919 92.15390015 C121.84245079 88.24378174 120.98527012 85.3109676 122.27854919 81.15390015 C128.4459871 72.73747496 136.80478405 65.47329149 144.18284607 58.11923218 C146.17426679 56.13323901 148.1601992 54.14186717 150.14573669 52.1499939 C151.41624897 50.88014134 152.68707082 49.61059843 153.95823669 48.34140015 C154.84417007 47.45243042 154.84417007 47.45243042 155.7480011 46.54550171 C162.46749954 39.86442144 162.46749954 39.86442144 167.34104919 39.46640015 C171.59462423 39.67310016 173.47094433 40.76648253 176.55198669 43.66171265 C177.42121765 44.47776978 178.29044861 45.2938269 179.1860199 46.13461304 C185.8232118 52.57557898 192.33203657 59.14646751 198.84104919 65.71640015 C201.73534819 68.63720313 204.63289847 71.55472424 207.53245544 74.4703064 C208.19588455 75.14203384 208.85931366 75.81376129 209.54284668 76.50584412 C210.15115829 77.11745895 210.75946991 77.72907379 211.38621521 78.35922241 C211.92230911 78.90055313 212.45840302 79.44188385 213.01074219 79.99961853 C214.11602956 81.26610431 214.11602956 81.26610431 215.27854919 81.15390015 C215.35463192 73.69750506 215.40716296 66.24121015 215.44334412 58.78451538 C215.45842783 56.24801899 215.4788975 53.71154867 215.50486755 51.17514038 C215.541268 47.52867193 215.55828002 43.88254842 215.57151794 40.2359314 C215.5870018 39.10242752 215.60248566 37.96892365 215.61843872 36.80107117 C215.61866531 35.74034897 215.61889191 34.67962677 215.61912537 33.58676147 C215.6257872 32.65632523 215.63244904 31.72588898 215.63931274 30.76725769 C215.09697097 26.83855434 213.43719047 24.34445349 210.69911385 21.53096294 C207.17534218 19.52628405 203.76653297 19.74018514 199.82080078 19.77294922 C198.95928136 19.76826925 198.09776194 19.76358927 197.21013588 19.75876749 C194.31815239 19.7467844 191.42663987 19.75628771 188.53465271 19.76571655 C186.46338117 19.7616523 184.3921118 19.75631124 182.32084656 19.74978638 C176.69070808 19.7360888 171.0607342 19.74142177 165.43059278 19.75092363 C159.543232 19.75850858 153.65588549 19.75147777 147.76852417 19.74676514 C137.8798316 19.74130376 127.99120619 19.74850879 118.1025238 19.76278687 C106.66562341 19.77910956 95.22888349 19.77382911 83.791987 19.75730765 C73.97873197 19.74369831 64.16552528 19.74177057 54.35226387 19.74962366 C48.4885752 19.75430377 42.62496199 19.75491577 36.76127815 19.74501419 C31.24798184 19.73635504 25.73489257 19.74234736 20.22161865 19.75969696 C18.19673443 19.7636676 16.17183282 19.76251793 14.14695549 19.75590897 C11.38549461 19.74772617 8.62469957 19.75797567 5.86328125 19.77294922 C5.05958385 19.76625705 4.25588644 19.75956489 3.42783457 19.75266993 C-2.27945245 19.81280514 -5.7136058 20.88203923 -9.50770569 25.17503357 Z " fill="#010101" transform="translate(276.72145080566406,-0.153900146484375)"/>
<path d="M0 0 C3.3125 1.625 3.3125 1.625 6 4 C6.33 5.98 6.66 7.96 7 10 C13.6 10 20.2 10 27 10 C28.98 13.96 28.98 13.96 31 18 C33.91813306 19.45906653 36.49450891 19.14090252 39.75366211 19.15771484 C40.79561234 19.16533592 40.79561234 19.16533592 41.85861206 19.17311096 C43.37057668 19.18382466 44.88255726 19.19244091 46.3945446 19.19923019 C48.79636215 19.21103094 51.19800083 19.23049199 53.5997467 19.25234985 C60.4301242 19.3138887 67.26048792 19.36778536 74.09106445 19.40136719 C78.26919087 19.42246075 82.44699826 19.45789086 86.62494087 19.50212479 C88.2095212 19.51618226 89.79415807 19.52498377 91.37879753 19.52817917 C102.7915023 19.55360417 114.04328785 19.66555983 123.27734375 27.25 C128.04353833 32.09184846 131.1436954 37.58938546 131.09765625 44.44921875 C131.09443359 45.29677734 131.09121094 46.14433594 131.08789062 47.01757812 C131.07951172 47.89865234 131.07113281 48.77972656 131.0625 49.6875 C131.05798828 50.58017578 131.05347656 51.47285156 131.04882812 52.39257812 C131.03704983 54.59511987 131.02060164 56.79752599 131 59 C130.00033203 59.29390625 130.00033203 59.29390625 128.98046875 59.59375 C117.65988291 63.26700303 108.20462393 69.68056021 102 80 C98.73954655 86.5817687 96.79097212 92.83611153 95 100 C29.99 100 -35.02 100 -102 100 C-102.66 96.37 -103.32 92.74 -104 89 C-108.4631677 76.90937543 -115.52238571 68.73033033 -127 63 C-130.29546488 61.5523333 -133.61545758 60.22419619 -137 59 C-138.0074209 37.19493433 -138.0074209 37.19493433 -132 30 C-123.32188858 21.37138351 -114.7116566 19.62752038 -102.91375732 19.61024475 C-102.14095177 19.61342272 -101.36814621 19.61660069 -100.5719223 19.61987495 C-98.13355901 19.62905043 -95.69595388 19.61869149 -93.25762939 19.60325623 C-86.33126853 19.56331613 -79.40497259 19.56196149 -72.47851562 19.56420898 C-68.22865732 19.56426005 -63.97921391 19.54512197 -59.7294693 19.51487541 C-57.32952594 19.50405348 -54.93037437 19.5161725 -52.53045654 19.52870178 C-51.06033543 19.51979972 -49.59022078 19.50972615 -48.12011719 19.49829102 C-46.19773224 19.49854027 -46.19773224 19.49854027 -44.23651123 19.49879456 C-40.38127272 18.90464492 -39.28852225 18.10771344 -37 15 C-36.34 13.35 -35.68 11.7 -35 10 C-27.74 10 -20.48 10 -13 10 C-12.67 8.02 -12.34 6.04 -12 4 C-8.10908885 0.56152038 -5.17391057 -0.86231843 0 0 Z " fill="#FCDB74" transform="translate(324,228)"/>
<path d="M0 0 C3.56821797 2.67616348 5.22144885 4.66621098 6 9 C6.08769478 10.60940798 6.12377386 12.2220251 6.12304783 13.83382034 C6.12503888 14.81016851 6.12702993 15.78651667 6.12908131 16.79245114 C6.12616847 17.8624834 6.12325563 18.93251566 6.12025452 20.03497314 C6.12110894 21.1736184 6.12196337 22.31226366 6.12284368 23.48541331 C6.12449562 27.31483563 6.11898173 31.1442145 6.11352539 34.97363281 C6.1126871 37.71310453 6.11335735 40.45257539 6.1139679 43.19204712 C6.11449246 49.09716495 6.1113527 55.00227173 6.10573006 60.90738678 C6.09760594 69.4452104 6.0949989 77.98302868 6.09374207 86.52085575 C6.09155298 100.37263082 6.08489679 114.2244 6.07543945 128.07617188 C6.06626162 141.53255178 6.0591826 154.98893009 6.05493164 168.4453125 C6.05466892 169.27464638 6.05440619 170.10398025 6.05413551 170.95844546 C6.05283048 175.11893472 6.05156677 179.27942399 6.05032361 183.43991327 C6.03995547 217.95994642 6.02234105 252.47997257 6 287 C7.62264771 287.08000244 7.62264771 287.08000244 9.27807617 287.16162109 C10.72055853 287.24022729 12.16302177 287.31918478 13.60546875 287.3984375 C14.3157019 287.43251709 15.02593506 287.46659668 15.75769043 287.50170898 C29.1127858 288.26091337 40.57448781 294.06328329 49.8125 303.6875 C57.58981807 312.83072698 62.22899386 323.58070436 62.4375 335.625 C62.47746094 336.89601563 62.51742187 338.16703125 62.55859375 339.4765625 C62 343 62 343 60.21850586 345.67977905 C55.33471313 349.20050534 50.8262073 348.69862437 44.9453125 348.64697266 C43.72366394 348.65573425 42.50201538 348.66449585 41.24334717 348.67352295 C37.8998932 348.69174205 34.55798914 348.68749796 31.2146225 348.67162752 C27.71223401 348.65894789 24.20991069 348.67071433 20.70751953 348.67855835 C14.82637676 348.687649 8.94554817 348.67568271 3.06445312 348.65185547 C-3.73010117 348.62464484 -10.52390527 348.63345945 -17.31844139 348.6609875 C-23.15727842 348.68369459 -28.99588992 348.68687098 -34.83475685 348.67379415 C-38.31979287 348.66600824 -41.80447652 348.66493378 -45.28948975 348.68147659 C-49.17505948 348.69863321 -53.05979233 348.67483939 -56.9453125 348.64697266 C-58.09767395 348.65709381 -59.2500354 348.66721497 -60.43731689 348.67764282 C-68.20824243 348.57426481 -68.20824243 348.57426481 -72.21411133 345.66879272 C-75.74896531 340.38638473 -74.64056579 334.06120273 -74 328 C-71.31399646 314.80698262 -63.81190253 303.89391748 -53 296 C-42.32500273 289.65491234 -32.03633256 286.91517179 -19.70703125 286.9765625 C-18.82120361 286.97994629 -17.93537598 286.98333008 -17.02270508 286.98681641 C-16.3552124 286.99116699 -15.68771973 286.99551758 -15 287 C-15.00151888 286.40731113 -15.00303776 285.81462226 -15.00460267 285.20397311 C-15.09408102 250.09004186 -15.16272903 214.9761302 -15.20426132 179.8621087 C-15.20926425 175.64757423 -15.21444153 171.43303999 -15.21972656 167.21850586 C-15.2207758 166.37945466 -15.22182505 165.54040346 -15.22290608 164.67592647 C-15.24031962 151.08339654 -15.27186252 137.49093416 -15.30861118 123.89844433 C-15.34599424 109.95520139 -15.36823027 96.01199387 -15.37635398 82.06870288 C-15.38184724 73.46230651 -15.39920798 64.85610106 -15.43166587 56.24976345 C-15.45278125 50.35108619 -15.45920682 44.45250788 -15.45400551 38.55379555 C-15.45143905 35.14857204 -15.45542124 31.74368253 -15.4768219 28.33851814 C-15.49664024 24.64844931 -15.49196802 20.95920608 -15.48101807 17.26911926 C-15.49266943 16.190327 -15.5043208 15.11153473 -15.51632524 14.0000518 C-15.45797234 6.75528534 -15.45797234 6.75528534 -13.09493637 2.85818005 C-9.12492275 -0.663168 -5.13725862 -0.79853761 0 0 Z " fill="#000000" transform="translate(104,164)"/>
<path d="M0 0 C23.1 0 46.2 0 70 0 C72.33767837 5.25977633 74.60792721 10.40311695 76.6796875 15.75 C76.92525391 16.38205856 77.17082031 17.01411713 77.42382812 17.66532898 C78.24312646 19.77602481 79.05914257 21.88797199 79.875 24 C80.46357101 25.5193388 81.05228022 27.03862407 81.64111328 28.55786133 C82.97844914 32.01014016 84.31396473 35.46311738 85.6484375 38.91650391 C87.61170121 43.99685141 89.57797727 49.07602833 91.54487419 54.15497017 C93.81863582 60.02670821 96.09017799 65.89930302 98.36090088 71.7722168 C99.37180691 74.38671081 100.38336988 77.00094925 101.39544678 79.61499023 C102.82550708 83.30896895 104.2527354 87.00403819 105.6796875 90.69921875 C106.11651855 91.82672043 106.55334961 92.95422211 107.00341797 94.1158905 C107.39916016 95.14200943 107.79490234 96.16812836 108.20263672 97.2253418 C108.72553787 98.57803413 108.72553787 98.57803413 109.25900269 99.95805359 C110 102 110 102 110 103 C60.83 103 11.66 103 -39 103 C-38.26854201 99.34271006 -37.52101681 96.45048791 -36.21264648 93.03417969 C-35.84338547 92.06436661 -35.47412445 91.09455353 -35.09367371 90.09535217 C-34.48849663 88.52448097 -34.48849663 88.52448097 -33.87109375 86.921875 C-33.44923294 85.8178685 -33.02737213 84.713862 -32.59272766 83.57640076 C-31.21172369 79.96602602 -29.82480337 76.35795836 -28.4375 72.75 C-27.48646508 70.26870833 -26.53561992 67.78734393 -25.58496094 65.3059082 C-19.68476849 49.91578108 -13.74025644 34.54280029 -7.75 19.1875 C-7.40871063 18.31242798 -7.06742126 17.43735596 -6.71578979 16.5357666 C-5.76506517 14.10011139 -4.81268827 11.66511178 -3.859375 9.23046875 C-3.58120438 8.51853867 -3.30303375 7.80660858 -3.01643372 7.07310486 C-1.11739343 2.23478685 -1.11739343 2.23478685 0 0 Z " fill="#FE5C5C" transform="translate(64,20)"/>
<path d="M0 0 C64.68 0 129.36 0 196 0 C196 13.53 196 27.06 196 41 C131.32 41 66.64 41 0 41 C0 27.47 0 13.94 0 0 Z " fill="#FCC7A2" transform="translate(223,387)"/>
<path d="M0 0 C5.15535708 5.29102437 9.50451267 12.1437027 9.49525452 19.670578 C9.49662918 20.53294571 9.49800385 21.39531342 9.49942017 22.28381348 C9.49402725 23.69829773 9.49402725 23.69829773 9.48852539 25.14135742 C9.48867142 26.1366597 9.48881744 27.13196198 9.4889679 28.15742493 C9.48827032 31.45262825 9.48048511 34.74777529 9.47265625 38.04296875 C9.47079152 40.32554595 9.46936788 42.60812355 9.46836853 44.89070129 C9.46454767 50.90275169 9.45472104 56.91477798 9.44366455 62.92681885 C9.43164418 70.13797253 9.42704613 77.34913427 9.42121124 84.5602951 C9.41150909 95.51938017 9.39234948 106.47841234 9.375 117.4375 C-8.115 117.4375 -25.605 117.4375 -43.625 117.4375 C-43.82554405 92.38286377 -43.82554405 92.38286377 -43.86914062 81.66796875 C-43.89898057 74.36879201 -43.93420619 67.06993016 -44.00219727 59.77099609 C-44.05669394 53.88357476 -44.08645808 47.99649131 -44.09938622 42.10883713 C-44.10859434 39.86743225 -44.12657562 37.62604497 -44.15365028 35.3847847 C-44.19017437 32.23480128 -44.19493548 29.0861977 -44.19262695 25.93603516 C-44.21060333 25.01821259 -44.22857971 24.10039001 -44.24710083 23.15475464 C-44.18325958 15.05547509 -41.41478473 8.72801533 -36.1875 2.5625 C-25.24503135 -6.5117423 -12.33509322 -7.34231739 0 0 Z " fill="#FBB07D" transform="translate(482.625,310.5625)"/>
<path d="M0 0 C5.15535708 5.29102437 9.50451267 12.1437027 9.49525452 19.670578 C9.49662918 20.53294571 9.49800385 21.39531342 9.49942017 22.28381348 C9.49402725 23.69829773 9.49402725 23.69829773 9.48852539 25.14135742 C9.48867142 26.1366597 9.48881744 27.13196198 9.4889679 28.15742493 C9.48827032 31.45262825 9.48048511 34.74777529 9.47265625 38.04296875 C9.47079152 40.32554595 9.46936788 42.60812355 9.46836853 44.89070129 C9.46454767 50.90275169 9.45472104 56.91477798 9.44366455 62.92681885 C9.43164418 70.13797253 9.42704613 77.34913427 9.42121124 84.5602951 C9.41150909 95.51938017 9.39234948 106.47841234 9.375 117.4375 C-8.115 117.4375 -25.605 117.4375 -43.625 117.4375 C-43.82554405 92.38286377 -43.82554405 92.38286377 -43.86914062 81.66796875 C-43.89898057 74.36879201 -43.93420619 67.06993016 -44.00219727 59.77099609 C-44.05669394 53.88357476 -44.08645808 47.99649131 -44.09938622 42.10883713 C-44.10859434 39.86743225 -44.12657562 37.62604497 -44.15365028 35.3847847 C-44.19017437 32.23480128 -44.19493548 29.0861977 -44.19262695 25.93603516 C-44.21060333 25.01821259 -44.22857971 24.10039001 -44.24710083 23.15475464 C-44.18325958 15.05547509 -41.41478473 8.72801533 -36.1875 2.5625 C-25.24503135 -6.5117423 -12.33509322 -7.34231739 0 0 Z " fill="#FBB07D" transform="translate(193.625,310.5625)"/>
<path d="M0 0 C5.70100985 4.73523644 10.93286287 9.81701444 16.14453125 15.08203125 C16.99552902 15.93681564 17.84652679 16.79160004 18.72331238 17.67228699 C21.42215137 20.38327475 24.11771429 23.09748352 26.8125 25.8125 C30.37867032 29.40518226 33.94808051 32.99459906 37.51953125 36.58203125 C38.34032669 37.41112503 39.16112213 38.24021881 40.00679016 39.09443665 C40.76485458 39.85580429 41.52291901 40.61717194 42.30395508 41.40161133 C42.97123123 42.0741243 43.63850739 42.74663727 44.32600403 43.43952942 C45.93145193 45.08354103 45.93145193 45.08354103 48 46 C48.12422509 50.16249607 48.21462647 54.3239917 48.2746582 58.48779297 C48.29969925 59.90204682 48.33374342 61.31617257 48.37719727 62.72998047 C48.77476404 76.00403352 48.77476404 76.00403352 45.60546875 79.8984375 C37.00130787 86.83852529 19.35108872 84.81657391 8.5 85.1875 C7.71235386 85.21521484 6.92470772 85.24292969 6.11319351 85.27148438 C-12.22341446 85.84456117 -28.30312209 86.07414976 -42.65390015 73.16923523 C-50.02268419 65.8688054 -56.36031311 57.68752347 -62 49 C-61.06211221 47.89518654 -60.12267917 46.79168477 -59.18261719 45.6887207 C-58.6596405 45.07406448 -58.13666382 44.45940826 -57.59783936 43.8261261 C-55.2605722 41.15492857 -52.77591878 38.68201924 -50.25 36.1875 C-49.76917969 35.71119141 -49.28835938 35.23488281 -48.79296875 34.74414062 C-47.53061905 33.49409796 -46.26548181 32.24687178 -45 31 C-44.34 30.34 -43.68 29.68 -43 29 C-42.34 29.66 -41.68 30.32 -41 31 C-37.83732911 31.89290924 -35.19089755 31.71467403 -32 31 C-29.6393833 29.3798635 -29.6393833 29.3798635 -27.4140625 27.1796875 C-26.54555664 26.36363037 -25.67705078 25.54757324 -24.78222656 24.70678711 C-19.93634274 19.99229835 -15.13464017 15.23900226 -10.375 10.4375 C-9.36091554 9.41838246 -8.34659375 8.39950101 -7.33203125 7.38085938 C-4.88529165 4.92327588 -2.44173456 2.46255754 0 0 Z " fill="#C0ED91" transform="translate(444,63)"/>
<path d="M0 0 C4.25025421 1.65069717 7.09414731 4.82049393 10.23730469 7.99438477 C11.15989326 8.91412582 11.15989326 8.91412582 12.10112 9.85244751 C14.12962169 11.87724897 16.15084157 13.90915251 18.171875 15.94140625 C19.57826894 17.3489922 20.98503263 18.7562088 22.39215088 20.16307068 C25.3372971 23.1097803 28.27905408 26.05981828 31.21826172 29.01245117 C34.99524718 32.80646523 38.77882132 36.59382394 42.56470871 40.37895298 C45.46793628 43.28245172 48.36855609 46.18854351 51.26828766 49.09553337 C52.66321662 50.49365468 54.05876107 51.89116217 55.45491791 53.28805733 C57.39923952 55.23453431 59.34023981 57.18426021 61.28027344 59.13500977 C61.86308578 59.71736893 62.44589813 60.29972809 63.04637146 60.8997345 C67 64.88552365 67 64.88552365 67 66 C52.35302032 66.07010567 37.70606288 66.12299578 23.05894947 66.15543652 C16.25791119 66.17090022 9.4569772 66.19198012 2.65600586 66.22631836 C-3.90567606 66.25943261 -10.46727801 66.27684702 -17.02904701 66.28463173 C-19.53411885 66.29018042 -22.03918467 66.30101545 -24.54421043 66.31719017 C-28.04938008 66.33892529 -31.55410012 66.34196849 -35.05932617 66.34057617 C-36.09798325 66.351362 -37.13664032 66.36214783 -38.20677185 66.3732605 C-44.42490646 66.34648356 -48.09419737 65.75527682 -52.734375 61.35546875 C-55.75905269 55.72620749 -55.75202485 48.80530603 -54.84472656 42.59228516 C-52.36458891 34.98127312 -44.7823135 29.51651523 -38.78759766 24.59960938 C-36.77395751 22.93193524 -36.77395751 22.93193524 -35 20 C-35 20.66 -35 21.32 -35 22 C-31.20801346 23.26399551 -27.91198188 23.8496232 -24 23 C-22.05692267 21.73383605 -22.05692267 21.73383605 -20.26171875 19.99609375 C-19.56973389 19.36106934 -18.87774902 18.72604492 -18.16479492 18.07177734 C-14.55730338 14.61929361 -11.00960365 11.11434887 -7.5 7.5625 C-6.77296875 6.83095703 -6.0459375 6.09941406 -5.296875 5.34570312 C-3.52890501 3.56610176 -1.76333622 1.78419082 0 0 Z " fill="#C0ED91" transform="translate(320,80)"/>
<path d="M0 0 C1.12305035 -0.00657338 1.12305035 -0.00657338 2.26878858 -0.01327956 C4.79680956 -0.02671581 7.32479566 -0.03285721 9.85284424 -0.03897095 C11.65766561 -0.04686817 13.46248538 -0.05513688 15.26730347 -0.06375122 C21.21149172 -0.09001705 27.15568719 -0.10528417 33.09991455 -0.11953735 C35.1431809 -0.12489531 37.18644719 -0.13027281 39.22971344 -0.13566971 C47.72746036 -0.15730582 56.22520535 -0.17604349 64.72297287 -0.1872921 C76.91607939 -0.20353619 89.10886745 -0.23671681 101.3018539 -0.29369295 C109.86663725 -0.33235495 118.43133531 -0.3519204 126.99620366 -0.35721266 C132.11558185 -0.36087149 137.23462074 -0.37294879 142.35390472 -0.4053154 C147.17040354 -0.43532995 151.98635661 -0.44173155 156.80292892 -0.42993164 C158.57143815 -0.42971034 160.33997221 -0.43806163 162.10839462 -0.45558548 C164.52230526 -0.47820467 166.93422486 -0.47001772 169.34814453 -0.45410156 C170.39917677 -0.47492469 170.39917677 -0.47492469 171.47144198 -0.49616849 C175.36819492 -0.43281727 176.82301095 0.06459181 179.83928299 2.62940025 C180.87321749 3.8790277 180.87321749 3.8790277 181.92803955 5.15390015 C182.25803955 5.48390015 182.58803955 5.81390015 182.92803955 6.15390015 C182.92803955 10.77390015 182.92803955 15.39390015 182.92803955 20.15390015 C118.24803955 20.15390015 53.56803955 20.15390015 -13.07196045 20.15390015 C-13.07196045 6.15390015 -13.07196045 6.15390015 -10.63446045 2.84140015 C-9.36602295 2.00608765 -9.36602295 2.00608765 -8.07196045 1.15390015 C-6.1576823 -0.760378 -2.60734312 0.00182892 0 0 Z " fill="#FCEAB1" transform="translate(236.07196044921875,346.8460998535156)"/>
<path d="M0 0 C0.90516861 -0.01283524 1.81033722 -0.02567047 2.74293518 -0.03889465 C4.20230751 -0.04997505 4.20230751 -0.04997505 5.69116211 -0.0612793 C6.70262802 -0.06935104 7.71409393 -0.07742279 8.75621033 -0.08573914 C10.89881689 -0.09956387 13.04144533 -0.11029322 15.18408203 -0.11816406 C17.36123163 -0.12965426 19.53835372 -0.15005873 21.71533203 -0.1796875 C24.87413528 -0.22266278 28.03210164 -0.23857724 31.19116211 -0.2487793 C32.14990738 -0.26628738 33.10865265 -0.28379547 34.09645081 -0.30183411 C43.97215943 -0.2706747 52.51631073 2.41389921 59.74584961 9.30200195 C62.44977316 12.35584503 65.40600586 15.94442712 65.40600586 20.17700195 C35.04600586 20.17700195 4.68600586 20.17700195 -26.59399414 20.17700195 C-23.61783253 11.24851712 -18.99088734 6.4275943 -10.70727539 2.0871582 C-7.11825556 0.54142508 -3.89577479 0.04836844 0 0 Z " fill="#D5DBFC" transform="translate(78.593994140625,471.822998046875)"/>
<path d="M0 0 C3.125 1.875 3.125 1.875 5 5 C5.98876625 10.02622846 5.7769173 13.70513784 3.125 18.125 C-1.29486216 20.7769173 -4.97377154 20.98876625 -10 20 C-13.125 18.125 -13.125 18.125 -15 15 C-15.98876625 9.97377154 -15.7769173 6.29486216 -13.125 1.875 C-8.70513784 -0.7769173 -5.02622846 -0.98876625 0 0 Z " fill="#000000" transform="translate(50,213)"/>
<path d="M0 0 C5.57894737 3.15789474 5.57894737 3.15789474 7 6 C7.54724071 11.69130337 6.59333707 14.56117185 3 19 C-0.21694364 20.60847182 -3.52137222 20.61309149 -7 20 C-10.91771408 16.83248649 -12.80848291 14.69173433 -13.375 9.6875 C-13 6 -13 6 -10.625 3.125 C-6.84269374 0.06313303 -4.87185723 -0.46844781 0 0 Z " fill="#030201" transform="translate(324,228)"/>
</svg>
